<svg xmlns="http://www.w3.org/2000/svg" viewBox="0 0 443.01 328.53"><defs><style>.cls-1{fill:#fff;}</style></defs><g id="Layer_2" data-name="Layer 2"><g id="back"><path class="cls-1" d="M409.15,182.61c15.58-3.91,27.74-15.78,29.68-30.88,2.58-20-13.64-38-36.23-40.3a47.34,47.34,0,0,0-5.93-.18c.11-.6.25-1.18.34-1.79,3-23.3-15.92-44.35-42.28-47a54,54,0,0,0-15.3.64,42.11,42.11,0,0,0,1.92-8.1c3.34-25.86-17.67-49.22-46.92-52.18a57.84,57.84,0,0,0-41.09,11.38,44.34,44.34,0,0,0-22-8.35c-14.74-1.49-28.54,4-37.21,13.56A42.74,42.74,0,0,0,164.66,3.8a45.13,45.13,0,0,0-33.42,9.88c-.78-.11-1.55-.26-2.35-.34-26.65-2.69-50.72,14.23-53.76,37.78a38.28,38.28,0,0,0,4,22.48,59.64,59.64,0,0,0-11.91-2.49c-29.21-3-55.61,15.6-58.95,41.43-1.91,14.78,4.16,28.71,15.16,38.51-10.57,5.61-18.19,15.31-19.7,27-2,15.19,7,29.24,21.37,36.07a25.38,25.38,0,0,0-4,10.77c-2,15.23,10.4,29,27.64,30.74a37.06,37.06,0,0,0,4.33.14c-1.88,21.9,16.1,41.37,41,43.89a50.4,50.4,0,0,0,36-10.1c1.33,18.35,17.32,33.8,38.72,36,15.69,1.58,30.36-4.4,39.43-14.64a42.56,42.56,0,0,0,7.95,1.57C231.25,314,245.26,307.54,253,297c6,8.3,16.08,14.23,28,15.44a42.14,42.14,0,0,0,28-6.93A69.65,69.65,0,0,0,326,309.43c34.47,3.48,65.6-18.4,69.54-48.87a48.72,48.72,0,0,0-.39-14.74c15.31-4,27.18-15.82,29.11-30.74C425.94,202.21,419.77,190.18,409.15,182.61Z"/><path d="M438.77,130.52a30.65,30.65,0,0,0-5.08-6.79,35.8,35.8,0,0,0-6.44-5.26,50.17,50.17,0,0,0-14.77-6.33,57.91,57.91,0,0,0-14.06-1.75c.32-1,.62-2,.88-3a36.18,36.18,0,0,0,.76-13,35.27,35.27,0,0,0-4.24-12.6c-.56-1-1.1-1.94-1.73-2.84l-1.93-2.68c-.68-.86-1.43-1.66-2.14-2.49-.37-.41-.7-.83-1.1-1.23l-1.26-1.16a35.78,35.78,0,0,0-11.3-7.14A49.21,49.21,0,0,0,363.8,61a64,64,0,0,0-21.67.91,56.11,56.11,0,0,0,2.27-9,48.45,48.45,0,0,0,.45-9.87,41.17,41.17,0,0,0-6.2-19,47.24,47.24,0,0,0-6.32-7.82c-1.13-1.23-2.43-2.27-3.65-3.4s-2.58-2.07-4-3A54.08,54.08,0,0,0,287.14.38a66.78,66.78,0,0,0-18.63,4.9A71.49,71.49,0,0,0,254.72,13a33.94,33.94,0,0,0-3.61-3.15A37.77,37.77,0,0,0,238.7,4,51.55,51.55,0,0,0,232,2.67a34.48,34.48,0,0,0-7-.25,50.87,50.87,0,0,0-25.43,9A37.75,37.75,0,0,0,193,17.28a28.88,28.88,0,0,0-5.64-7A35,35,0,0,0,177.7,3.8,39.48,39.48,0,0,0,166.43.56,35.59,35.59,0,0,0,160.5.19a45.07,45.07,0,0,0-5.83.43c-7.65,1-15.3,3.63-21.49,8.68a28.07,28.07,0,0,0-3.48,3.5,36.08,36.08,0,0,0-9.43-2.05,42,42,0,0,0-13,1.21,48.87,48.87,0,0,0-22.6,13.32c-6.17,6.34-10.78,14.57-12,23.56a34,34,0,0,0,5,22.59c-1.26-.42-2.54-.8-3.82-1.15a64.58,64.58,0,0,0-18.88-2A57.89,57.89,0,0,0,36,72.23,52.1,52.1,0,0,0,19.58,82.81,55,55,0,0,0,8.3,98.74a48.72,48.72,0,0,0-3.09,9.39,37.2,37.2,0,0,0-.7,9.87,40.17,40.17,0,0,0,5.83,18.39A47,47,0,0,0,21.49,149a42.86,42.86,0,0,0-10.88,7.11,33.6,33.6,0,0,0-8.27,12.15l-1.18,3.53c-.3,1.19-.46,2.42-.68,3.62l-.29,1.82c-.07.61-.06,1.21-.09,1.81L0,182.66a35.53,35.53,0,0,0,3.55,14.06,33.16,33.16,0,0,0,19.72,16.52,22.6,22.6,0,0,0-4.14,6.8,25.11,25.11,0,0,0-1.4,10,30.06,30.06,0,0,0,.8,4.95l.64,2.4c.26.79.61,1.56.91,2.34a27.31,27.31,0,0,0,5.49,8.47,28.18,28.18,0,0,0,8.21,5.7,29.36,29.36,0,0,0,18.53,1.62A29.09,29.09,0,0,0,51,261.78a30.41,30.41,0,0,0,2.61,15.14,36.91,36.91,0,0,0,9.14,12.5,49.27,49.27,0,0,0,12.8,8.49c9.24,4.21,19.67,6.22,29.8,4.75A44.63,44.63,0,0,0,129,291.82l.09,3.72c.18,1.3.42,2.61.65,3.92s.75,2.55,1.13,3.83a34.42,34.42,0,0,0,8.74,13.38,40,40,0,0,0,13.54,8.39,53.9,53.9,0,0,0,15.3,3.33,62.53,62.53,0,0,0,15.44-.81,40.84,40.84,0,0,0,14.44-5.68,27.85,27.85,0,0,0,8.7-9.06,29.3,29.3,0,0,0,3,1.3,38.63,38.63,0,0,0,16.89,1.75c1.39-.14,2.75-.32,4.11-.51a29.24,29.24,0,0,0,4.38-1.1,27.26,27.26,0,0,0,7.77-4.11,30.7,30.7,0,0,0,9.37-11.5,32.08,32.08,0,0,0,5.18,7.62,31.44,31.44,0,0,0,16.86,9.18c1.59.21,3.22.55,4.77.63s3.09.22,4.66.12a38.7,38.7,0,0,0,4.68-.3,39.09,39.09,0,0,0,4.66-.79,30.88,30.88,0,0,0,8.8-3.56,18.2,18.2,0,0,0,5.63-5.27l.32.22c5.71,3.22,11.83,4.62,18,5.54,12.33,1.66,25.27.75,37.16-4.11a50.72,50.72,0,0,0,16.16-10.39,46.14,46.14,0,0,0,6.19-7.34c.88-1.29,1.8-2.55,2.64-3.87l2.33-4.07a56.28,56.28,0,0,0,6.26-17.66,41.34,41.34,0,0,0,.33-9.36,26.61,26.61,0,0,0-1.48-6.75,28.9,28.9,0,0,0,20.07-9.6,42.29,42.29,0,0,0,7.44-11.36,48.16,48.16,0,0,0,3.94-13A33.92,33.92,0,0,0,426,200.81a29.79,29.79,0,0,0-15.63-17.34c1.26-.23,2.52-.5,3.77-.8A44.67,44.67,0,0,0,428.83,176a32.9,32.9,0,0,0,10.86-12.74,36.82,36.82,0,0,0,2.64-8.09,43.72,43.72,0,0,0,.67-8.36A34.1,34.1,0,0,0,438.77,130.52ZM435.62,154a32.88,32.88,0,0,1-1.9,6.63,31,31,0,0,1-8.21,11.17,48.88,48.88,0,0,1-12.5,7.68,83.74,83.74,0,0,1-14.51,4.83,49.44,49.44,0,0,0,10.71-.65c5.9,5.14,10.15,11.63,11.54,18.57a33.85,33.85,0,0,1-.07,11.36,52.36,52.36,0,0,1-3.75,11.07c-.43.89-.81,1.81-1.27,2.68l-1.47,2.53a19.92,19.92,0,0,1-1.59,2.43,20.76,20.76,0,0,1-1.74,2.28,27.53,27.53,0,0,1-8.72,7.19,33.81,33.81,0,0,1-11.29,3.39c-4.05.63-8.28.66-12.56,1a61.48,61.48,0,0,0,12.69,2.4c1.36.07,2.74.07,4.14,0a36.39,36.39,0,0,1-1.58,15.34A62.44,62.44,0,0,1,386,279.54l-2.5,3.59-2.68,3.47a40.62,40.62,0,0,1-5.8,6.18,44.11,44.11,0,0,1-6.78,5,49.65,49.65,0,0,1-7.57,3.81c-10.54,4.28-22.36,5.72-34,5.13a76.89,76.89,0,0,1-8.7-1,36.93,36.93,0,0,1-8.26-2.22c-2.69-1.18-5.41-2.54-8.06-3.93a56.7,56.7,0,0,1-7.71-4.67,40.52,40.52,0,0,0,6.67,6.28c2.1,1.66,4.27,3.16,6.52,4.64a23.21,23.21,0,0,1-6.33,2.65,42.82,42.82,0,0,1-8.24,1.29,68.78,68.78,0,0,1-8.37-.09c-1.4,0-2.81-.26-4.21-.37s-2.68-.43-4-.62a35.76,35.76,0,0,1-14.56-6.43A48.53,48.53,0,0,1,250,289.54a25.34,25.34,0,0,0,2.18,8.26,63,63,0,0,1-11.83,7.77,31.57,31.57,0,0,1-6.76,2.44,29.42,29.42,0,0,1-3.43.62c-1.29.13-2.57.29-3.84.38a59.19,59.19,0,0,1-14.88-.12c-4.88-.73-9.73-2.58-14.89-4.55a31.73,31.73,0,0,0,9.83,8.16,31.64,31.64,0,0,1-9.62,6.45,45,45,0,0,1-13.58,3.32c-9.32.54-19-.36-27.5-3.65a35.26,35.26,0,0,1-19.78-17.36,31.66,31.66,0,0,1-3.14-13.35,47,47,0,0,1,2-14.33,35.92,35.92,0,0,0-5.38,14.13c-.09,1-.21,2-.27,3a56.5,56.5,0,0,1-24.21,6.64,59.75,59.75,0,0,1-26.4-5.67l-3-1.49c-1-.54-1.93-1.15-2.9-1.72a27.69,27.69,0,0,1-2.79-1.87,24,24,0,0,1-2.64-2.06,37.45,37.45,0,0,1-8.68-10,30.38,30.38,0,0,1-4-12.68,36.14,36.14,0,0,1,1.72-13.92,28.55,28.55,0,0,0-3.76,7.58,48.26,48.26,0,0,1-16-6.33,30.62,30.62,0,0,1-5.94-5.31,26.32,26.32,0,0,1-4-6.76c-.24-.61-.54-1.21-.76-1.84l-.56-1.94a28,28,0,0,1-.88-3.89,25.45,25.45,0,0,1,.09-7.84A28.39,28.39,0,0,1,32.67,207a20.8,20.8,0,0,0-9,5.86,44.65,44.65,0,0,1-8.72-7.65,33.15,33.15,0,0,1-6.4-10.68,35.46,35.46,0,0,1-2-11.95l.24-3.07c0-.51.05-1,.12-1.53l.31-1.47c.21-1,.33-2,.59-2.94l1-2.81a30.75,30.75,0,0,1,6.42-10,46.59,46.59,0,0,1,9.87-7.47,66.84,66.84,0,0,1,11.8-5.2,78.88,78.88,0,0,1,12.88-3.27,46.25,46.25,0,0,0-13.65,0,53.23,53.23,0,0,0-13.41,3.62c-.26.11-.52.25-.78.37-7.4-9-12.31-20-12-30.91a38.87,38.87,0,0,1,1.21-8.4,41.72,41.72,0,0,1,3.09-7.94,56,56,0,0,1,4.51-7.34,46.5,46.5,0,0,1,5.68-6.44c8.17-8,19.32-12.66,31-14.1a74.18,74.18,0,0,1,17.81-.07,61,61,0,0,1,17.59,4.46,42.5,42.5,0,0,0-12.1-6.29A49.45,49.45,0,0,1,77.06,61.5a41.28,41.28,0,0,1,1.16-11.64A44.69,44.69,0,0,1,89.58,30.05a54.78,54.78,0,0,1,19.27-13,48.34,48.34,0,0,1,11.49-3,47.16,47.16,0,0,1,8.59-.26,21.32,21.32,0,0,0-2.82,4.95A21,21,0,0,0,124.88,30a31.65,31.65,0,0,1,1.42-5.25,23.59,23.59,0,0,1,2.38-4.64A26.62,26.62,0,0,1,132,16.23a26.27,26.27,0,0,1,4-3c5.75-3.5,12.59-5.23,19.4-5.92a44.93,44.93,0,0,1,10.11.06,54.76,54.76,0,0,1,9.95,2.12,57,57,0,0,1,9.55,4,62.59,62.59,0,0,1,7.27,4.6,33.45,33.45,0,0,0-2.28,3,24,24,0,0,0-4,12.63,32.15,32.15,0,0,1,6.94-10.32,44,44,0,0,1,9.74-7.1,61.89,61.89,0,0,1,22.85-7.12,33.25,33.25,0,0,1,5.81-.1,59.45,59.45,0,0,1,6,.8,37.74,37.74,0,0,1,11.18,4,35.71,35.71,0,0,1,9.37,7.67c1.4,1.55,2.68,3.23,4,4.91a45.83,45.83,0,0,0,4.17,5c-2-3.78-3.47-7.85-5.86-11.61a33.71,33.71,0,0,0-5-6.36,96.33,96.33,0,0,1,14.35-5.12A76.94,76.94,0,0,1,287.51,5.6a58.72,58.72,0,0,1,8.91.42,46.62,46.62,0,0,1,8.64,1.76,52.64,52.64,0,0,1,15.72,7.66A47.69,47.69,0,0,1,333.1,27.65a38.07,38.07,0,0,1,6.25,16,43.86,43.86,0,0,1,.4,8.82,51.35,51.35,0,0,1-1.14,8.94,60.19,60.19,0,0,1-2.47,8.84q-.75,2.19-1.71,4.31a28.09,28.09,0,0,1-2.14,4.15A34.28,34.28,0,0,0,338,71.05,55.17,55.17,0,0,0,341.72,63c3.13.26,6.23.56,9.28,1a92.45,92.45,0,0,1,11.77,2.32,59.19,59.19,0,0,1,10.94,3.92,34.63,34.63,0,0,1,9.23,6.21,43.94,43.94,0,0,1,7.25,8.7,36.06,36.06,0,0,1,4.54,10.27,39.88,39.88,0,0,1,1.21,11.52,121.16,121.16,0,0,1-1.24,12.18,53.83,53.83,0,0,0,3.59-8.31c9.49,2.57,18.57,6.33,25.83,12A32.84,32.84,0,0,1,433,133.59a26.47,26.47,0,0,1,2.3,6.46c.3,1.11.41,2.27.6,3.41s.22,2.31.2,3.5A38.07,38.07,0,0,1,435.62,154Z"/></g></g></svg>