<svg xmlns="http://www.w3.org/2000/svg" viewBox="0 0 169.46 117.83"><defs><style>.cls-1{fill:#fff;}</style></defs><g id="Layer_2" data-name="Layer 2"><g id="back"><path class="cls-1" d="M169.46,110.35l-7.36,7.2L73.29,75.29S68.23,64.23,71.19,57s13.65-5.79,16.54-4.53S169.46,110.35,169.46,110.35Z"/><path class="cls-1" d="M34.24.79A28.71,28.71,0,0,0,13,42.49a24.84,24.84,0,0,0,11.51,42,26.8,26.8,0,0,0,52.68-9.75c-.1-.7-.26-1.39-.42-2.07a24.45,24.45,0,0,0,8.68-19.92A24.45,24.45,0,1,0,60.88,11.13,28.75,28.75,0,0,0,34.24.79Z"/><path d="M146,94.79c-6.65-5.05-13.42-9.93-20.21-14.78s-13.69-9.55-20.66-14.15-13.85-9-21-13.25c.13,0,.26-.09.38-.15a19.64,19.64,0,0,0,5-3.46,36,36,0,0,0,4.1-4.44A25.91,25.91,0,0,0,98.42,33.3,24,24,0,0,0,97.35,21a25,25,0,0,0-7.16-10.11A27.64,27.64,0,0,0,79.42,5a22.53,22.53,0,0,0-12.14.23,25.74,25.74,0,0,0-9.82,5.54c-.16-.2-.31-.4-.48-.59A28,28,0,0,0,47.18,3,33.1,33.1,0,0,0,23,1.7,26.72,26.72,0,0,0,6.18,19a28.4,28.4,0,0,0-.8,12.17A33.16,33.16,0,0,0,8.94,42c-.25.16-.49.33-.73.5a19.08,19.08,0,0,0-5.16,6,26.28,26.28,0,0,0-2.9,15.4,24.58,24.58,0,0,0,1.94,7.77,21.28,21.28,0,0,0,4.66,6.53,23.47,23.47,0,0,0,12.89,6.16,30.79,30.79,0,0,0,5.59,12.87,26,26,0,0,0,10.71,8.41,26.66,26.66,0,0,0,13.6,1.59,35.84,35.84,0,0,0,12.92-4.13,23.31,23.31,0,0,0,9.71-9.64,16.86,16.86,0,0,0,1.74-6.69,58.15,58.15,0,0,0,.23-6.6c0-.93-.08-1.87-.15-2.81,6.62,3.91,13.36,7.55,20.16,11.07,7,3.65,14,7.11,21.14,10.54s14.25,6.71,21.47,9.86,14.47,6.23,21.88,9c-6.79-4-13.73-7.79-20.72-11.41s-14-7.11-21.14-10.54S102.53,89.18,95.31,86C88.28,82.94,81.2,80,74,77.26a35.59,35.59,0,0,0-2-10,48.37,48.37,0,0,1,.55,12.87c-.17,2.14-.4,4.26-.78,6.37a15.3,15.3,0,0,1-1.9,5.71,21.61,21.61,0,0,1-8.91,8,34.12,34.12,0,0,1-11.77,3.6,24.06,24.06,0,0,1-12-1.18,24.48,24.48,0,0,1-9.84-7.07c-5.39-6.33-8-15-7.56-23.66A31.61,31.61,0,0,0,19.59,84,30.68,30.68,0,0,1,8.74,76.32,21.91,21.91,0,0,1,3.56,63.59a27.66,27.66,0,0,1,1.85-13.9,19.93,19.93,0,0,1,3.87-5.92A12.66,12.66,0,0,1,15.45,40,10.94,10.94,0,0,0,9,42C6.76,34.65,6.28,26.75,8.8,19.89a24.32,24.32,0,0,1,6-9.19,24.64,24.64,0,0,1,9.31-5.76,32.74,32.74,0,0,1,22,.48C53.21,8,59.49,13.41,62,21a21.37,21.37,0,0,0-4.5-10.11c6.47-4,14.32-5.55,21.13-3.23A26.4,26.4,0,0,1,88,13.32a22.08,22.08,0,0,1,6.13,8.83c2.58,6.72,1.31,14.75-2.62,20.93-2.16,3-4.59,6.11-7.77,8s-7.14,2.37-11,2.08a22.19,22.19,0,0,0,5.87.68,14.69,14.69,0,0,0,5.47-1.22C90.4,58,96.94,63.07,103.54,68.05S117,78,123.75,82.83,137.44,92.39,144.4,97s14,9.13,21.22,13.37C159.22,104.94,152.63,99.81,146,94.79Z"/><path d="M97.37,78.91l-10-5.33c-3.37-1.72-6.72-3.5-10.12-5.17,3.21,2,6.48,3.94,9.71,5.91l9.79,5.75c6.55,3.82,13.16,7.5,19.73,11.26s13.25,7.34,19.92,10.91,13.37,7.12,20.15,10.5c-6.43-4-13-7.84-19.5-11.66s-13.15-7.5-19.73-11.26S104.05,82.49,97.37,78.91Z"/><path d="M134.42,94.72c-7.48-4.92-15-9.7-22.56-14.56S96.71,70.61,89.08,65.93l-11.46-7c-3.86-2.28-7.68-4.61-11.57-6.84,3.68,2.56,7.41,5,11.11,7.55l11.21,7.4c7.48,4.92,15,9.71,22.56,14.56s15.15,9.55,22.78,14.23,15.28,9.33,23,13.83C149.37,104.57,141.9,99.63,134.42,94.72Z"/></g></g></svg>