<svg xmlns="http://www.w3.org/2000/svg" viewBox="0 0 281.61 25.85"><g id="Layer_2" data-name="Layer 2"><g id="design"><path d="M13.15,25.35H11.74C3.1,25.33,0,22.65,0,14.43V11.05C0,3.1,2.85,0,11.67,0h1.38c8,0,11.33,3.27,11.32,9.15v1.2l-8.61,0V10c0-1.26-.84-1.89-2.73-1.9h-1c-2.37,0-3.09,1-3.09,3v3.39c0,2.16,1.28,2.86,3.2,2.86h1c2.07,0,2.74-1,2.74-2.12v-.66l8.52,0v1.26C24.4,22.5,21.1,25.37,13.15,25.35Z"/><path d="M44.71,25.18H38c-5.52,0-7.92-2.6-7.91-7.4V14.05c0-4.71,2.48-7.32,7.94-7.3h6.75c5.61,0,7.76,2.93,7.75,7.25v4C52.48,22.32,50.32,25.19,44.71,25.18Zm-.31-9.6a1.08,1.08,0,0,0-1.2-1.14H39.42a1.09,1.09,0,0,0-1.23,1.14v.78c0,.69.2,1.17,1.22,1.17h3.78a1.08,1.08,0,0,0,1.21-1.17Z"/><path d="M74.83,25.09l0-9.15c0-.9-.3-1.29-1.5-1.29l0,10.44H67.12l0-10.44c-.9.06-1.53.45-1.53,1.28l0,9.15h-8l0-11.85c0-3.78,2.84-6.27,7.22-6.26L75.65,7c4.35,0,7.19,2.5,7.18,6.28l0,11.85Z"/><path d="M88.87,25.12l0-16.35,8.61,0,0,16.35Zm0-17.73,0-6.78,8.61,0,0,6.78Z"/><path d="M117.61,25.18v-8.6c0-1.14-.56-1.54-1.61-1.54h-1.92c-1.11,0-1.77.56-1.78,1.52v8.61l-8.73,0,0-11.57c0-4,2.27-6.54,6.32-6.53l9.8,0c4.05,0,6.72,2.56,6.71,6.55l0,11.58Z"/><path d="M153,10.8v.75c0,2.73-.33,3.81-4.26,3.8H142v1.32h6.93c4.26,0,5.4,1.87,5.39,4.12v.84c0,3.06-1.27,4.23-5.41,4.22l-11.81,0c-4.54,0-5.7-.83-5.7-4.25v-.84c0-2.1.42-3.44,3.12-3.92V15.2c-2-.36-2.34-1.44-2.33-3.69v-.66c0-2.34.4-3.72,4.3-3.71l10.49,0V6l8.73-1.69v6.06Zm-8,10.3c0-.33-.18-.57-1-.57h-2.4c-.66,0-.75.29-.76.56v.18c0,.48.06.69.75.7h2.4c.84,0,1-.21,1-.69Zm-.73-9.87c0-.39-.27-.66-1-.66h-1.41c-.72,0-1,.27-1,.66v0c0,.46.17.7,1,.7h1.41c.75,0,1-.21,1-.69Z"/><path d="M190.12,25.28l-15.78,0V17.66l14,0c.45,0,.6-.18.6-.57V17c0-.42-.21-.57-.6-.57l-6,0c-6.06,0-8.45-2.5-8.44-7.21V8.36c0-5.46,3.17-7.56,8.54-7.55l14.19,0,0,7.77L184,8.59c-.48,0-.69.24-.69.57v.12c0,.36.15.66.69.66h6.66c5,0,7.58,2.72,7.57,6.32v1.56C198.19,21.82,196,25.29,190.12,25.28Z"/><path d="M218.25,25.55l-6.75,0c-5.51,0-7.91-2.59-7.9-7.39V14.42c0-4.71,2.48-7.32,7.93-7.3h6.75c5.61,0,7.77,2.93,7.76,7.25v4C226,22.69,223.87,25.56,218.25,25.55ZM218,16a1.08,1.08,0,0,0-1.2-1.14H213a1.09,1.09,0,0,0-1.23,1.14v.78c0,.69.21,1.17,1.23,1.17h3.78a1.07,1.07,0,0,0,1.2-1.17Z"/><path d="M245.85,25.61l-6.75,0c-5.51,0-7.91-2.59-7.9-7.39V14.48c0-4.71,2.47-7.32,7.93-7.31l6.75,0c5.61,0,7.77,2.93,7.76,7.25v4C253.63,22.74,251.46,25.62,245.85,25.61Zm-.31-9.6a1.07,1.07,0,0,0-1.19-1.14h-3.78A1.09,1.09,0,0,0,239.34,16v.78c0,.69.21,1.17,1.23,1.18h3.78a1.07,1.07,0,0,0,1.2-1.17Z"/><path d="M272.79,25.52l0-8.61c0-1.14-.56-1.54-1.61-1.54h-1.92c-1.11,0-1.78.56-1.78,1.52V25.5h-8.74l0-11.58c0-4,2.26-6.54,6.31-6.53l9.81,0c4.05,0,6.72,2.56,6.71,6.55l0,11.58Z"/></g></g></svg>