<?xml version="1.0" encoding="utf-8"?>
<!-- Generator: Adobe Illustrator 25.0.1, SVG Export Plug-In . SVG Version: 6.00 Build 0)  -->
<svg version="1.1" id="Layer_1" xmlns="http://www.w3.org/2000/svg" xmlns:xlink="http://www.w3.org/1999/xlink" x="0px" y="0px"
	 viewBox="0 0 40 40" style="enable-background:new 0 0 40 40;" xml:space="preserve">
<style type="text/css">
	.st0{fill:#3B5998;}
	.st1{fill:#FFFFFF;}
</style>
<g>
	<g id="Layer_2_1_">
		<g id="nav">
			
				<image style="overflow:visible;opacity:0.4;enable-background:new    ;" width="53" height="53" xlink:href="524B6F37.png"  transform="matrix(1 0 0 1 -4.17 -5.67)">
			</image>
			<path class="st0" d="M5.8,0.5h28.3c2.9,0,5.3,2.4,5.3,5.3v28.3c0,2.9-2.4,5.3-5.3,5.3H5.8c-2.9,0-5.3-2.4-5.3-5.3V5.8
				C0.5,2.9,2.8,0.5,5.8,0.5z"/>
			<path d="M34.1,1C36.8,1,39,3.2,39,5.8v28.3c0,2.7-2.2,4.8-4.8,4.8H5.8C3.2,39,1,36.8,1,34.2l0,0V5.8C1,3.2,3.2,1,5.8,1H34.1
				 M34.1,0H5.8C2.6,0,0,2.6,0,5.8c0,0,0,0,0,0v28.3C0,37.4,2.6,40,5.8,40h28.3c3.2,0,5.8-2.6,5.8-5.8V5.8C40,2.6,37.3,0,34.1,0z"/>
			<g id="レイヤー_2">
				<g id="レイヤー_1-2">
					<path id="icon_fb" class="st1" d="M30,8.7H9.9c-0.7,0-1.3,0.5-1.3,1.2c0,0,0,0,0,0l0,0v20.1c0,0.7,0.5,1.3,1.2,1.3c0,0,0,0,0,0
						h10.8v-8.8h-2.9v-3.4h2.9v-2.5c0-2.9,1.8-4.5,4.4-4.5c0.9,0,1.7,0,2.6,0.1v3h-1.8c-1.4,0-1.7,0.7-1.7,1.7v2.2h3.4l-0.4,3.4h-3
						v8.8H30c0.7,0,1.3-0.6,1.3-1.3V10C31.3,9.3,30.7,8.7,30,8.7C30,8.7,30,8.7,30,8.7z"/>
				</g>
			</g>
		</g>
	</g>
</g>
</svg>
