<svg xmlns="http://www.w3.org/2000/svg" viewBox="0 0 155.88 277.57"><title>Asset 42</title><g id="Layer_2" data-name="Layer 2"><g id="Layer_1-2" data-name="Layer 1"><path d="M72.5,49.15l.08-.12c0,.11,0,.23,0,.34s.32-.58.88-1.6A114.29,114.29,0,0,0,85.81,25.29c12.63,6.14,36,17.43,47.88,20.23,0,0-10.35,11.11-10.73,11.33-5.38,2.52-15.36,11.4-24.68,16.84C95.94,75,83.55,80.32,75.5,92.22a107.26,107.26,0,0,0,20.55-9c13.47-8,19.56-13.78,31.71-20.17.42-.28,12.82-13,17.36-18.75.46-.59-35.69-20.63-57.67-23.42A70.74,70.74,0,0,0,90.36,9.44c.63-4.1-1.9-3.62-2.12-8.23,0,0-.93,2-2.31,5.17C85.5,3.92,83.63,3.87,83,0c-.09,0-10.88,32.89-10.48,48.36,0,.27,0,.53,0,.79"/><path d="M100.52,108.56a22.54,22.54,0,0,0-13.06.34c.07-.13,17.81,7,29.56,10.36-4-.2-9.52.79-15.23,5.73,0,0,11.1,2.72,25.15-5.29,0,0-14.13-7.65-26.42-11.14"/><path d="M90.23,139.72a64,64,0,0,0,13.54-21.62c-.08-.1-18.46,13.51-22.16,26.07a15.82,15.82,0,0,0,8.62-4.45"/><path d="M62.83,150c-3.52.5-9.81,2.68-15.49,11.3,0,0,11.51.32,21.33-13.4,0,0-15.79-6.08-26.81-6.59-4.64-.24-6.49,1.5-8.85,3,.07-.14,19.66,5.4,29.82,5.68"/><path d="M49.83,150.82s-10.93,18.7-15.18,29.34c0,0,3.65.88,6.73-5.07a85.83,85.83,0,0,0,8.45-24.27"/><path d="M43.79,190.08a30.72,30.72,0,0,1-5.8,4.79c0-.2,25,3.32,30.36,1.38-.95.39-13.08,6.33-13,12.61-.06-.08,16.12-9.2,20.38-16.51.06-.29-29.71-5.15-32-2.27"/><path d="M57.58,199.89C51,204.2,41.43,226.3,41.48,226.31c1.71-1.1,3.44-2.19,5.17-3.27,5.49-8.78,10.93-23.15,10.93-23.15"/><path d="M18.2,233.85A27.74,27.74,0,0,1,12.37,238c.1-.11,19,9,23.64,7.59a31.32,31.32,0,0,0-10.4,6.5c1.25-2.45,2-4,2-4C21.09,252.62,8.5,277,8.57,277q2.46-1.72,4.94-3.43c3.17-4.78,6.68-11.1,9.4-16.25,2.71-1.09,18.37-7.23,23.29-14.08.13-.17-25.43-12-28-9.39"/><path d="M92.6,90.27,98,87c4.62-1.47,22.76-15.67,22.76-15.67-1.14-.22-28.14,19-28.14,19"/><polygon points="69.54 42.8 69.39 27.39 68.31 39.01 70.09 48.03 69.54 42.8"/><polygon points="83.85 133.1 91.54 121.99 84.74 128.55 79.94 141.01 83.85 133.1"/><polygon points="94.53 145.04 95.81 142.53 86.51 149.79 94.53 145.04"/><polygon points="31.01 178.54 30.15 186.1 30.67 183.44 36.66 166.87 31.01 178.54"/><path d="M70.45,203.82l-10,6.72s8.18-3.53,10-6.72"/><polygon points="34.21 193.59 32.33 197.17 44.32 198.32 34.45 196.4 34.21 193.59"/><polygon points="4.33 271.35 4.56 277.57 6.05 272.67 11.05 262.15 4.33 271.35"/><polygon points="24.68 264.66 38.96 252.07 30.34 257.88 24.68 264.66"/><polygon points="133.19 120.65 126.01 125.16 133.66 122.32 135.47 121.1 124.13 112.58 133.19 120.65"/><path d="M67.27,44.32l-2.77-8a13.22,13.22,0,0,0,2.77,8"/><polygon points="105.19 60.77 85.98 74.35 114.04 57.03 105.19 60.77"/><path d="M114.18,80.68l-11.65,7.19a22.14,22.14,0,0,0,11.65-7.19"/><polygon points="90.39 152.12 94.33 150.13 93.94 148.08 90.39 152.12"/><polygon points="80.82 134.49 83.58 124.38 81.62 126.36 80.82 134.49"/><path d="M137.15,122.61l-1.89,1.6,4.46-2.68-2.41-1.64c.18.13,1.61,1.22-.16,2.72"/><path d="M61.83,161.13s-5.91,2-8.11,3.15,6.68.12,8.11-3.15"/><path d="M29.11,175.25a7.81,7.81,0,0,0-2.18,6.15c-.23-2.52,2.18-6.15,2.18-6.15"/><polygon points="43.87 201.31 50.74 199.77 37.38 199.53 43.87 201.31"/><path d="M54.65,216.11l-8.29,12.18a26.66,26.66,0,0,0,8.29-12.18"/><path d="M1.28,276.57c-.67-1.81,1.27-6.89,1.27-6.89-4.87,5.4-1.27,6.89-1.27,6.89"/><polygon points="152.4 41.67 137.66 61.21 155.88 43.45 155.23 38.4 137.31 32.17 147.33 36.85 152.4 41.67"/></g></g></svg>