<svg xmlns="http://www.w3.org/2000/svg" viewBox="0 0 87.89 216.87"><title>Asset 41</title><g id="Layer_2" data-name="Layer 2"><g id="Layer_1-2" data-name="Layer 1"><path d="M14.33,42.17v-.11l.15.2s0-.5-.12-1.39a87.63,87.63,0,0,0-1.79-19.53c10.64-1.5,30.3-4.33,39-7.62,0,0-1.82,11.47-2,11.77-2.34,3.9-4.87,13.79-8.46,21.23-.92,1.83-6.51,10.49-6.53,21.49a83.11,83.11,0,0,0,9.19-14.49c5.12-10.83,6.51-17.1,11.49-26.35.15-.35,2.59-13.71,3-19.31,0-.57-31.45,2.16-46.58,9.79a53,53,0,0,0-3.05-8.5C7.34,6.48,5.93,7.87,3.83,5c0,0,.25,1.65.74,4.27C3.24,7.93,2,8.69,0,6.49-.06,6.51,7.15,32,14,41.64c.1.18.2.36.31.53"/><path d="M57.48,67.87a17.34,17.34,0,0,0-8.14,5.8c0-.11,14.31-3.14,23.18-6-2.63,1.58-5.7,4.56-7.21,10.14,0,0,8.2-3,13.69-14.11,0,0-12.23,1.19-21.52,4.22"/><path d="M64.27,92a49,49,0,0,0-.65-19.5c-.09,0-5.94,16.46-2.92,26A12,12,0,0,0,64.27,92"/><path d="M51.28,110.28c-2,1.81-5.07,5.88-5,13.78,0,0,7.44-4.72,7.8-17.61,0,0-12.61,2.88-19.82,7.27-3.05,1.83-3.47,3.73-4.33,5.69,0-.12,14.78-5,21.34-9.13"/><path d="M43.39,116.34s1,16.53,2.91,25.1c0,0,2.68-1,2.1-6.1a65.86,65.86,0,0,0-5-19"/><path d="M56.33,143.82a24.14,24.14,0,0,1-1.63,5.52c-.07-.14,17.28-8.58,19.84-12.09-.43.65-5.59,9.59-2.83,13.53-.07,0,6.29-12.72,5.87-19.19-.09-.2-21,9.43-21.25,12.23"/><path d="M69.27,144.15c-2.36,5.57,1,23.65,1.07,23.64q.93-2.14,1.88-4.28c-.26-7.92-3-19.36-3-19.36"/><path d="M58.8,182.52a21.36,21.36,0,0,1-1.91,5.15c0-.12,15.91-2.41,18.24-5.29A23.72,23.72,0,0,0,71.31,191c-.26-2.09-.44-3.42-.44-3.42-2.22,5.66.2,26.48.26,26.47.55-1.43,1.1-2.86,1.67-4.29,0-4.38-.51-9.89-1-14.32,1.25-1.85,8.56-12.44,8.75-18.88,0-.16-21.26,3.25-21.77,6"/><path d="M44.64,59.66l2-4.38c2.3-2.91,7.74-19.67,7.74-19.67-.81.35-9.75,24-9.75,24"/><polygon points="9.73 39.4 3.06 29.7 7.33 37.53 12.32 42.48 9.73 39.4"/><polygon points="57.4 90.57 57.52 80.23 56.01 87.3 58.3 97.25 57.4 90.57"/><polygon points="69.27 93.58 69.01 91.44 66.21 100.01 69.27 93.58"/><polygon points="43.29 141.97 45.98 147.12 45.17 145.22 41.89 132.15 43.29 141.97"/><path d="M79.11,141.14l-3.46,8.53s3.68-5.73,3.46-8.53"/><polygon points="51.75 150.14 52.09 153.21 60.19 148.82 53.1 151.82 51.75 150.14"/><polygon points="66.02 212.23 68.83 216.08 67.68 212.34 66.36 203.52 66.02 212.23"/><polygon points="76.07 199.29 79.75 185.21 76.77 192.57 76.07 199.29"/><polygon points="83.37 61.59 80.74 67.52 84.38 62.45 85.01 60.9 74.17 60.34 83.37 61.59"/><path d="M9,41.34,3.76,37.43A10.1,10.1,0,0,0,9,41.34"/><polygon points="40.02 35.57 33.64 52.39 44.04 29.42 40.02 35.57"/><path d="M54.23,44.35l-4.31,9.54a16.92,16.92,0,0,0,4.31-9.54"/><polygon points="69.67 99.83 71.31 96.89 70.19 95.76 69.67 99.83"/><polygon points="56.06 92.74 53.5 85.15 53.1 87.25 56.06 92.74"/><path d="M86.72,61.14,86.2,63l1.69-3.6H85.65c.18,0,1.55.08,1.07,1.79"/><path d="M55.4,117.76a66.07,66.07,0,0,0-3.79,5.46c-.9,1.66,4.28-2.78,3.79-5.46"/><path d="M40.68,140.69a6,6,0,0,0,1.24,4.83c-1.22-1.5-1.24-4.83-1.24-4.83"/><polygon points="61.18 150.91 64.88 147 56.3 152.55 61.18 150.91"/><path d="M74.34,155.69,74.28,167a20.33,20.33,0,0,0,.06-11.27"/><path d="M66.32,216.85c-1.2-.87-2.13-4.92-2.13-4.92-.79,5.51,2.13,4.92,2.13,4.92"/><polygon points="61.81 3.29 60.8 21.98 64.78 2.92 62.2 0 48.17 3.71 56.53 2.4 61.81 3.29"/></g></g></svg>