<svg xmlns="http://www.w3.org/2000/svg" viewBox="0 0 146.48 249.05"><g id="Layer_2" data-name="Layer 2"><g id="design"><path d="M78.41,37a.67.67,0,0,1,0-.1,1.37,1.37,0,0,0,.13.2s0-.47,0-1.31a81.75,81.75,0,0,0-.65-18.4c10-.85,28.63-2.47,37-5.11,0,0-2.3,10.66-2.45,10.94-2.4,3.54-5.29,12.68-9,19.46-1,1.67-6.66,9.5-7.25,19.8a77.23,77.23,0,0,0,9.38-13.1c5.37-9.89,7-15.69,12.15-24.1.16-.32,3.15-12.71,3.83-17.94.07-.53-29.6.37-44.19,6.73A49.32,49.32,0,0,0,74.84,6c-1.11-2.76-2.5-1.53-4.32-4.3,0,0,.14,1.55.47,4C69.82,4.34,68.65,5,66.85,2.83c-.06,0,5.37,24.29,11.3,33.68C78.24,36.69,78.32,36.86,78.41,37Z"/><path d="M117.52,63.39a16.28,16.28,0,0,0-7.93,5c0-.11,13.58-2.19,22-4.46a15.29,15.29,0,0,0-7.29,9.13s7.85-2.4,13.58-12.51A110.87,110.87,0,0,0,117.52,63.39Z"/><path d="M122.62,86.41A46,46,0,0,0,123,68.09c-.09,0-6.44,15.12-4.11,24.23A11.31,11.31,0,0,0,122.62,86.41Z"/><path d="M109.49,102.82c-2,1.6-5.07,5.26-5.41,12.66,0,0,7.22-4,8.24-16.1,0,0-12,2-19,5.78-3,1.55-3.46,3.31-4.36,5.1C89,110.16,103.12,106.38,109.49,102.82Z"/><path d="M101.77,108.09s.12,15.56,1.41,23.69c0,0,2.57-.8,2.29-5.61A62.23,62.23,0,0,0,101.77,108.09Z"/><path d="M112.46,134.54a21.86,21.86,0,0,1-1.82,5.09c0-.14,16.65-7.14,19.24-10.3-.44.59-5.75,8.71-3.36,12.54-.07,0,6.56-11.6,6.51-17.68C133,124,112.8,131.93,112.46,134.54Z"/><path d="M124.58,135.53c-2.51,5.09-.27,22.23-.24,22.22.66-1.31,1.32-2.62,2-3.92C126.49,146.4,124.57,135.53,124.58,135.53Z"/><path d="M112.75,171a20,20,0,0,1-2.06,4.73c0-.11,15-1.42,17.38-4a22.19,22.19,0,0,0-4,7.83c-.13-2-.23-3.23-.23-3.23-2.38,5.19-1.2,24.85-1.15,24.84.59-1.32,1.19-2.63,1.79-3.94.2-4.11,0-9.3-.17-13.48,1.28-1.67,8.68-11.21,9.21-17.24C133.5,166.31,113.37,168.39,112.75,171Z"/><path d="M105.92,55,108,51c2.31-2.6,8.29-18,8.29-18C115.54,33.26,105.92,55,105.92,55Z"/><polygon points="74.25 34.19 68.5 24.74 72.1 32.31 76.51 37.22 74.25 34.19"/><polygon points="116.25 84.66 116.92 74.98 115.13 81.53 116.75 90.98 116.25 84.66"/><polygon points="127.23 88.11 127.1 86.09 124.02 93.98 127.23 88.11"/><polygon points="100.33 132.12 102.58 137.09 101.92 135.26 99.53 122.83 100.33 132.12"/><path d="M134,133.22,130.27,141S134,135.86,134,133.22Z"/><polygon points="107.84 140.23 107.99 143.12 115.82 139.43 109.02 141.87 107.84 140.23"/><polygon points="117.96 199.19 120.39 202.94 119.51 199.37 118.73 191.04 117.96 199.19"/><polygon points="128.06 187.59 132.25 174.57 129.06 181.32 128.06 187.59"/><polygon points="142.13 58.86 139.35 64.28 143.03 59.72 143.7 58.29 133.57 57.2 142.13 58.86"/><path d="M73.41,36,68.75,32A9.52,9.52,0,0,0,73.41,36Z"/><polygon points="102.85 32.19 95.98 47.63 106.94 26.63 102.85 32.19"/><path d="M115.71,41.17l-4.55,8.72A15.94,15.94,0,0,0,115.71,41.17Z"/><polygon points="127.28 94 128.97 91.32 127.98 90.2 127.28 94"/><polygon points="114.89 86.63 112.88 79.38 112.4 81.32 114.89 86.63"/><path d="M144.39,56.87h0Z"/><path d="M145.29,58.61l-.58,1.68L146.48,57l-2.09-.13C144.55,56.89,145.83,57,145.29,58.61Z"/><path d="M113,110.05s-2.91,3.41-3.85,4.92S113.28,112.59,113,110.05Z"/><path d="M98.93,135.46a2.7,2.7,0,0,0,.19.22C99.05,135.61,99,135.53,98.93,135.46Z"/><path d="M98.86,135.38l.07.08Z"/><path d="M98,130.78a5.68,5.68,0,0,0,.91,4.6C97.8,133.91,98,130.78,98,130.78Z"/><polygon points="116.63 141.44 120.31 137.97 111.98 142.73 116.63 141.44"/><path d="M128.72,146.61l-.64,10.56A19.1,19.1,0,0,0,128.72,146.61Z"/><path d="M118,203.53c-1.07-.87-1.74-4.72-1.74-4.72C115.23,203.93,118,203.53,118,203.53Z"/><polygon points="124.97 3.06 123.05 20.53 127.77 2.88 125.51 0 112.17 2.74 120.07 1.95 124.97 3.06"/><path d="M13.56,123.73a.38.38,0,0,1,0-.08l.13.13s-.07-.36-.2-1a65.19,65.19,0,0,0-2.93-14.34c7.76-2,22.11-5.71,28.3-8.87,0,0-.4,8.66-.48,8.9-1.42,3.08-2.48,10.63-4.53,16.44-.54,1.43-4,8.32-3.08,16.47a62.43,62.43,0,0,0,5.62-11.5c2.91-8.46,3.43-13.22,6.36-20.49.08-.27.79-10.38.64-14.56,0-.43-23.15,4.18-33.75,11.08a39.32,39.32,0,0,0-3-6.05c-1.23-2-2.16-.87-3.95-2.8,0,0,.32,1.2.9,3.1-1.1-.91-1.93-.24-3.62-1.7,0,0,7.4,18.33,13.29,24.91Z"/><path d="M47.68,139.24a12.94,12.94,0,0,0-5.56,5c0-.09,10.35-3.51,16.69-6.4a12.1,12.1,0,0,0-4.51,8.11s5.83-2.91,9-11.58A88,88,0,0,0,47.68,139.24Z"/><path d="M54.7,156.61a36.48,36.48,0,0,0-2.08-14.41c-.07,0-3,12.69,0,19.53A9,9,0,0,0,54.7,156.61Z"/><path d="M46.57,171.2c-1.34,1.52-3.28,4.79-2.57,10.64,0,0,5.13-4.11,4.34-13.71,0,0-9.12,3.18-14.1,7-2.11,1.6-2.28,3.05-2.75,4.57C31.47,179.65,42.05,174.83,46.57,171.2Z"/><path d="M41.21,176.35s2.15,12.18,4.22,18.37c0,0,1.91-1,1.06-4.69A48.71,48.71,0,0,0,41.21,176.35Z"/><path d="M53.07,195.67a17.4,17.4,0,0,1-.76,4.23c-.05-.1,12.12-7.79,13.73-10.6-.27.51-3.36,7.57-1,10.27,0,0,3.62-10,2.78-14.72C67.75,184.71,53,193.58,53.07,195.67Z"/><path d="M62.7,194.85c-1.3,4.32,2.71,17.46,2.74,17.45.34-1.12.68-2.23,1-3.34A93.88,93.88,0,0,0,62.7,194.85Z"/><path d="M58.09,224.17a15.83,15.83,0,0,1-1,4c0-.08,11.6-3.09,13.09-5.42a17.84,17.84,0,0,0-2.13,6.67c-.36-1.53-.61-2.5-.61-2.5-1.18,4.38,2.33,19.63,2.37,19.62.29-1.11.58-2.22.88-3.32-.38-3.25-1.19-7.3-1.9-10.55.78-1.47,5.33-9.92,4.94-14.72C73.74,217.8,58.24,222.08,58.09,224.17Z"/><path d="M37.48,134.21l1.13-3.42c1.47-2.34,4.13-15.22,4.13-15.22C42.16,115.89,37.48,134.21,37.48,134.21Z"/><polygon points="9.92 122.06 4.17 115.4 7.99 120.86 12.1 124.13 9.92 122.06"/><polygon points="49.48 156.08 48.73 148.41 48.19 153.77 50.7 160.97 49.48 156.08"/><polygon points="58.54 157.34 58.17 155.78 56.8 162.36 58.54 157.34"/><polygon points="43.25 195.37 45.66 198.97 44.91 197.62 41.4 188.2 43.25 195.37"/><path d="M69.75,191.81s-1.44,5.11-1.87,6.61C67.88,198.42,70.14,193.87,69.75,191.81Z"/><polygon points="50.2 200.74 50.7 202.99 56.35 199.06 51.34 201.87 50.2 200.74"/><polygon points="65.89 245.61 68.28 248.23 67.12 245.55 65.42 239.13 65.89 245.61"/><polygon points="72.28 235.19 73.85 224.44 72.24 230.15 72.28 235.19"/><polygon points="66.37 132.45 64.9 137.07 67.18 133.01 67.52 131.81 59.44 132.28 66.37 132.45"/><path d="M9.5,123.56l-4.17-2.48A7.62,7.62,0,0,0,9.5,123.56Z"/><polygon points="32.08 116.72 28.73 129.72 34.55 111.83 32.08 116.72"/><path d="M43.34,122.07l-2.42,7.43A12.68,12.68,0,0,0,43.34,122.07Z"/><polygon points="59.35 161.95 60.33 159.63 59.4 158.88 59.35 161.95"/><polygon points="48.67 157.8 46.15 152.38 46.02 153.97 48.67 157.8"/><path d="M67.88,130.6h0Z"/><path d="M68.81,131.84l-.23,1.4,1-2.81-1.65.17C68,130.59,69,130.54,68.81,131.84Z"/><path d="M50.24,176.41s-1.83,3.06-2.37,4.37S50.83,178.36,50.24,176.41Z"/><path d="M42.59,198.17l.18.15Z"/><path d="M42.53,198.12l.06,0Z"/><path d="M41.21,194.63a4.47,4.47,0,0,0,1.32,3.49C41.5,197.1,41.21,194.63,41.21,194.63Z"/><polygon points="57.25 200.53 59.67 197.32 53.77 202.15 57.25 200.53"/><path d="M67.4,203l.89,8.36A15.17,15.17,0,0,0,67.4,203Z"/><path d="M66.49,249c-1-.54-2-3.47-2-3.47C64.37,249.69,66.49,249,66.49,249Z"/><polygon points="45.58 90.98 46.37 104.93 47.75 90.47 45.6 88.51 35.5 92.42 41.59 90.76 45.58 90.98"/></g></g></svg>