<svg xmlns="http://www.w3.org/2000/svg" viewBox="0 0 159.27 101.18"><defs><style>.cls-1{fill:#040000;}.cls-2{fill:none;stroke:#000;stroke-linecap:round;stroke-linejoin:round;stroke-width:2px;}</style></defs><title>Asset 39</title><g id="Layer_2" data-name="Layer 2"><g id="Layer_1-2" data-name="Layer 1"><path class="cls-1" d="M20.61,79.16c-.25.75-.5,1.6-.84,2.88l-2.13,8a3.38,3.38,0,0,0-.12.9c0,.5.31.79.87.79a4.86,4.86,0,0,0,2.29-.94,7.7,7.7,0,0,0,2.81-6.26c0-5-3.72-8.35-9.26-8.35C7.73,76.16,3,80.66,3,86.83c0,5.94,4.29,10,10.54,10a15.39,15.39,0,0,0,5-.84,10.23,10.23,0,0,0,3-1.63l1.63,2.38a16.49,16.49,0,0,1-3.88,1.85,19.38,19.38,0,0,1-5.85.9,13.58,13.58,0,0,1-9.95-3.72,12.57,12.57,0,0,1-3.47-9,12.42,12.42,0,0,1,3.66-9.13,14.23,14.23,0,0,1,10.48-4.1c7.26,0,12.14,4.35,12.14,10.79A9.94,9.94,0,0,1,21.77,93a7.77,7.77,0,0,1-3.85,1.19c-1.65,0-2.66-.82-2.66-2.19v-.19a4.65,4.65,0,0,1-2.37,1.88,6.45,6.45,0,0,1-1.72.28c-3,0-4.7-2.07-4.7-5.6,0-5.51,3.38-9.82,7.73-9.82,1.69,0,2.79.69,3.16,1.94l.38-1.35ZM10.23,84.48a11.59,11.59,0,0,0-.81,4c0,1.9.65,2.87,2,2.87a4.2,4.2,0,0,0,3.09-2.09,12,12,0,0,0,1.72-5.88c0-1.6-.62-2.41-1.84-2.41-1.72,0-3.19,1.22-4.13,3.47"/><path class="cls-1" d="M40.7,95.46a31,31,0,0,0-3.25.12,15.17,15.17,0,0,0,.12-2.12v-2.1a14.46,14.46,0,0,0-.12-2.09c.84.09,2.06.12,3.44.12H55.25c1.37,0,2.59,0,3.47-.12a9.42,9.42,0,0,0-.16,2.09v2.1a9.94,9.94,0,0,0,.16,2.12c-1-.09-1.91-.12-3.29-.12a12.25,12.25,0,0,1-1.28,2.41h4.54a26.92,26.92,0,0,0,3.5-.19v3.07a22,22,0,0,0-3.5-.22h-21a23.51,23.51,0,0,0-3.63.22V97.68a29.77,29.77,0,0,0,3.63.19h4.6a14.9,14.9,0,0,0-1.35-2.41Zm21.12-7.23a30.28,30.28,0,0,0-3.63-.18H38a29.08,29.08,0,0,0-3.57.18v-3a24.53,24.53,0,0,0,3.57.19H58.19a24.92,24.92,0,0,0,3.63-.19ZM56.69,74.09a27.25,27.25,0,0,0,3.47-.15A18.59,18.59,0,0,0,60,76.6v4.94a18.1,18.1,0,0,0,.13,2.69,30.91,30.91,0,0,0-3.25-.13H39.39a28.41,28.41,0,0,0-3.26.13,19.69,19.69,0,0,0,.13-2.69V76.6a19.49,19.49,0,0,0-.13-2.66,27.33,27.33,0,0,0,3.48.15h3.53A13.63,13.63,0,0,0,43,71.9h3.44a12.52,12.52,0,0,0-.18,2.19H49.8a11.69,11.69,0,0,0-.15-2.19h3.44a11.52,11.52,0,0,0-.22,2.19ZM39.51,78h3.63V76.35H39.51Zm0,3.94h3.63V80.16H39.51Zm1.38,11.19H55.25V91.71H40.89Zm3.6,2.32a19.59,19.59,0,0,1,1.31,2.41h4.72a11.64,11.64,0,0,0,1.19-2.41ZM46.21,78h3.6V76.35h-3.6Zm0,3.94h3.6V80.16h-3.6ZM52.87,78h3.91V76.35H52.87Zm0,3.94h3.91V80.16H52.87Z"/><path class="cls-1" d="M69.67,80.13A26.54,26.54,0,0,1,74.58,84l-2.16,2.78a19.29,19.29,0,0,0-4.81-4.16Zm4.6,10.73a40.1,40.1,0,0,1-3.75,10l-2.79-2.38c1.44-1.78,2.72-5,3.88-9.54ZM70.64,72.44a24.64,24.64,0,0,1,5.1,4.16l-2.31,2.62a20.86,20.86,0,0,0-5-4.44Zm7.54,8.38a26.53,26.53,0,0,1-1.78,8.73l-2.79-1.29a17.24,17.24,0,0,0,1.85-8Zm5.41-.63a33.94,33.94,0,0,1,1.75,4.63V77a22.23,22.23,0,0,0-.15-3.37h3.44A22.14,22.14,0,0,0,88.47,77v4.16l1.69-.87A22.16,22.16,0,0,1,92.32,85V76.32a20.87,20.87,0,0,0-.19-3.67h3.63a22.59,22.59,0,0,0-.19,3.63V97a31,31,0,0,0,.19,3.88H92.13A27,27,0,0,0,92.32,97V87.64l-1.91,1A27.17,27.17,0,0,0,88.47,83V95.93a28.52,28.52,0,0,0,.19,3.56h-3.5a30.3,30.3,0,0,0,.18-3.56V88.05L83.5,89a35.38,35.38,0,0,0-1.69-6A40.35,40.35,0,0,1,80.46,94.4a17.66,17.66,0,0,1-1.9,4.16,18.18,18.18,0,0,1-2,2.62A8.44,8.44,0,0,0,74,98.59a13.17,13.17,0,0,0,3.25-5.13c1-2.82,1.41-6.16,1.41-11.83V76.28a29.43,29.43,0,0,0-.19-3.69H82a30.85,30.85,0,0,0-.16,3.63V81Z"/><path class="cls-1" d="M111.31,98.93a24.94,24.94,0,0,0,.25-4V78a27.87,27.87,0,0,0-.25-4c1.35.06,2.32.09,4,.09h6.53c3,0,5.17.72,6.67,2.22a7.33,7.33,0,0,1,1.94,5.38,8,8,0,0,1-2.1,5.76c-1.53,1.53-3.66,2.25-6.66,2.25h-6v5.22a26.18,26.18,0,0,0,.25,4.07ZM121.67,86c2.88,0,4.44-1.53,4.44-4.28a4.23,4.23,0,0,0-1-3,4.28,4.28,0,0,0-3.41-1.12h-6V86Z"/><path class="cls-1" d="M141,78h-4.6V74H141Zm0,3a28.92,28.92,0,0,0-.22,4.09v9.76a32.57,32.57,0,0,0,.22,4.1h-4.56a29.27,29.27,0,0,0,.25-4.07V85a26.56,26.56,0,0,0-.25-4.06Z"/><path class="cls-1" d="M154.58,76.16a35.8,35.8,0,0,0-.22,3.85v1h1.32a18.53,18.53,0,0,0,3.15-.19v3.69a16.8,16.8,0,0,0-3.06-.19h-1.41V94c0,1.53.56,2.09,2.07,2.09a4.13,4.13,0,0,0,2.28-.68l.56,3.31a9.77,9.77,0,0,1-3.91.66c-3.59,0-5-1.28-5-4.57V84.29h-1.19a15.55,15.55,0,0,0-2.79.19V80.79a14.89,14.89,0,0,0,2.82.19h1.16V80a37.25,37.25,0,0,0-.22-3.85Z"/><path d="M45.48,21.73a17.74,17.74,0,0,0-2.73.12,11.29,11.29,0,0,1,.72-3.27,10.9,10.9,0,0,1,3.22-4.26,34.11,34.11,0,0,1,3.79-2.72c2.45-1.66,3.27-2.75,3.27-4.26,0-1.88-1.59-3.1-4.11-3.1A4.13,4.13,0,0,0,46,5.85a5.12,5.12,0,0,0-.86,2.5L43.1,8a6.74,6.74,0,0,1,1.56-3.57,6.34,6.34,0,0,1,5-1.9c3.73,0,6.14,1.88,6.14,4.8a5.22,5.22,0,0,1-1.46,3.52c-.75.84-1.39,1.31-4.21,3.19a13.46,13.46,0,0,0-3.57,3.05A6.89,6.89,0,0,0,45.13,20H53a20.59,20.59,0,0,0,3-.18v2.08c-1-.09-1.81-.14-3-.14Z"/><path d="M61.15,20.34a6.21,6.21,0,0,1-1.49-2.28,17.07,17.07,0,0,1-.94-5.72,14.4,14.4,0,0,1,1.44-6.73,6.44,6.44,0,0,1,11.56,1,17,17,0,0,1,.94,5.74c0,3-.64,5.65-1.73,7.16a6.06,6.06,0,0,1-5.25,2.6,6.19,6.19,0,0,1-4.53-1.76M62.59,5.53a5.11,5.11,0,0,0-1.12,1.81,15.33,15.33,0,0,0-.77,5,13.63,13.63,0,0,0,1.17,5.89,4.2,4.2,0,0,0,3.84,2.16,4.15,4.15,0,0,0,3-1.16,4.93,4.93,0,0,0,1.17-1.94,15.34,15.34,0,0,0,.76-5,14.14,14.14,0,0,0-1.11-5.77,4.2,4.2,0,0,0-3.89-2.25,4,4,0,0,0-3.09,1.26"/><path d="M78,21.73a17.67,17.67,0,0,0-2.72.12A11.29,11.29,0,0,1,76,18.58a10.9,10.9,0,0,1,3.22-4.26A32,32,0,0,1,83,11.6c2.45-1.66,3.26-2.75,3.26-4.26,0-1.88-1.58-3.1-4.11-3.1a4.11,4.11,0,0,0-3.59,1.61,5,5,0,0,0-.86,2.5L75.64,8A6.74,6.74,0,0,1,77.2,4.44a6.31,6.31,0,0,1,5-1.9c3.74,0,6.14,1.88,6.14,4.8a5.17,5.17,0,0,1-1.46,3.52c-.74.84-1.38,1.31-4.21,3.19a13.54,13.54,0,0,0-3.56,3.05A6.78,6.78,0,0,0,77.67,20h7.9a20.68,20.68,0,0,0,3-.18v2.08c-1-.09-1.81-.14-3-.14Z"/><path d="M91.61,2.78a11.73,11.73,0,0,0,2,.13h1.56a14.07,14.07,0,0,0,2.06-.13,40.41,40.41,0,0,0-.23,4.11v12a15.73,15.73,0,0,0,.2,2.8H94.9a15.51,15.51,0,0,0,.2-2.8V4.59H93.76a14.71,14.71,0,0,0-2.15.15Z"/><path d="M108.4,11a13.39,13.39,0,0,0-.08-1.46c.52,0,1.07.07,1.76.07h5.37v-4h-5.82a20.44,20.44,0,0,1-4.11,5.05,3.76,3.76,0,0,0-1.19-1.19,16.15,16.15,0,0,0,5-6.66A10.54,10.54,0,0,0,109.91,1l1.76.49c-.1.2-.18.38-.33.67l-.94,2h12.28a14.11,14.11,0,0,0,2.23-.12V5.73a13.48,13.48,0,0,0-2.23-.12h-5.59v4h4.48a13.3,13.3,0,0,0,2.2-.12v1.63a18.68,18.68,0,0,0-2.18-.1h-4.5v4.86h6.24a16.5,16.5,0,0,0,2.5-.15v1.78a17.74,17.74,0,0,0-2.5-.15h-6.24v4.09a11.59,11.59,0,0,0,.17,2.3h-2a10.56,10.56,0,0,0,.15-2.3V17.39h-8.94a17.74,17.74,0,0,0-2.5.15V15.76a17,17,0,0,0,2.5.15h1.89Zm7,0H110v4.86h5.44Z"/><path d="M3.09,54.23A3.72,3.72,0,0,0,4.6,56.58a5.41,5.41,0,0,0,3.19.9c2.88,0,4.69-1.49,4.69-3.84s-1.76-3.79-5.06-3.79a18.46,18.46,0,0,0-2,.12V48a10.54,10.54,0,0,0,1.84.15A5,5,0,0,0,10.89,47a3.42,3.42,0,0,0,1-2.41c0-2.13-1.48-3.36-4-3.36A3.88,3.88,0,0,0,4.6,42.57a4.54,4.54,0,0,0-.79,1.76l-2.06-.45A5.7,5.7,0,0,1,3.09,41.4,6.46,6.46,0,0,1,8,39.6c3.59,0,5.87,1.88,5.87,4.85a4.37,4.37,0,0,1-1.74,3.62A5.16,5.16,0,0,1,9.82,49a5.35,5.35,0,0,1,3,1.06,4.54,4.54,0,0,1,1.66,3.74c0,3.34-2.58,5.42-6.71,5.42-2.5,0-4.36-.69-5.55-2A6.39,6.39,0,0,1,1,54.75Z"/><path d="M24.29,52.65a17.65,17.65,0,0,1-1,3.84,13.32,13.32,0,0,1-2.72,4.3,6.07,6.07,0,0,0-1.37-1.31,10.41,10.41,0,0,0,2.93-4.85c.69-2.35,1-5.4,1-10.9,0-2.28,0-3.27-.1-4.21a20.92,20.92,0,0,0,2.6.13h9.31a19.7,19.7,0,0,0,2.58-.13,22.65,22.65,0,0,0-.1,2.55v16.3a1.87,1.87,0,0,1-.69,1.73,3.57,3.57,0,0,1-2,.32c-.82,0-1.86,0-3-.1a6.81,6.81,0,0,0-.39-1.68,25.31,25.31,0,0,0,3.54.25c.72,0,.92-.15.92-.77V52.65Zm11.49-1.49V46.75h-11c0,1.37-.07,2.31-.27,4.41Zm0-5.89V41.16h-11l0,3.51v.6Z"/><path d="M51.55,54.23a3.72,3.72,0,0,0,1.51,2.35,5.41,5.41,0,0,0,3.19.9c2.88,0,4.68-1.49,4.68-3.84s-1.75-3.79-5-3.79a18.46,18.46,0,0,0-2,.12V48a10.51,10.51,0,0,0,1.83.15A5,5,0,0,0,59.35,47a3.42,3.42,0,0,0,1-2.41c0-2.13-1.49-3.36-4-3.36a3.88,3.88,0,0,0-3.29,1.31,4.54,4.54,0,0,0-.79,1.76l-2.06-.45a5.7,5.7,0,0,1,1.34-2.48,6.46,6.46,0,0,1,4.93-1.8c3.59,0,5.87,1.88,5.87,4.85a4.37,4.37,0,0,1-1.74,3.62,5.16,5.16,0,0,1-2.33.89,5.35,5.35,0,0,1,3,1.06A4.54,4.54,0,0,1,63,53.76c0,3.34-2.58,5.42-6.71,5.42-2.5,0-4.36-.69-5.55-2a6.25,6.25,0,0,1-1.26-2.4Z"/><path d="M68.21,57.43a6.19,6.19,0,0,1-1.48-2.28,17.07,17.07,0,0,1-.94-5.72,14.58,14.58,0,0,1,1.43-6.74A6.64,6.64,0,0,1,77.3,41.41a6.34,6.34,0,0,1,1.49,2.27,17,17,0,0,1,.94,5.75c0,3-.65,5.64-1.74,7.15a6,6,0,0,1-5.24,2.6,6.21,6.21,0,0,1-4.54-1.75m1.44-14.81a4.94,4.94,0,0,0-1.11,1.81,15.07,15.07,0,0,0-.77,5,13.65,13.65,0,0,0,1.16,5.89,4.23,4.23,0,0,0,3.84,2.16,4.14,4.14,0,0,0,3-1.17A4.87,4.87,0,0,0,77,54.38a15.33,15.33,0,0,0,.77-5,13.89,13.89,0,0,0-1.12-5.77,4.16,4.16,0,0,0-3.88-2.25,4,4,0,0,0-3.1,1.26"/><path d="M87.45,42.1a17.34,17.34,0,0,0-.12-2.43A19.88,19.88,0,0,0,90,39.8h11.14a17.59,17.59,0,0,0,2.55-.13,17.06,17.06,0,0,0-.12,2.28V57.82a18.77,18.77,0,0,0,.15,2.65h-1.81V58.86H89.11v1.61H87.3a17.36,17.36,0,0,0,.15-2.62Zm1.66,6.14h12.78V41.3H89.11Zm0,9.11h12.78v-7.6H89.11Z"/><path d="M117.48,61.56a17.85,17.85,0,0,1-2.36-4.65,18.09,18.09,0,0,1,2.36-16.23l1.4.89a15.94,15.94,0,0,0-2.22,4.51,16.13,16.13,0,0,0-.76,5,16.32,16.32,0,0,0,.76,5.06,15.9,15.9,0,0,0,2.22,4.5Z"/><path d="M137.11,39.86a23.72,23.72,0,0,0-.11,3.36,18.18,18.18,0,0,0,1,6.8,13.63,13.63,0,0,0,4.62,6.22,14.86,14.86,0,0,0,3.63,1.94,4.8,4.8,0,0,0-1.09,1.42,15.32,15.32,0,0,1-5.37-3.81,13.27,13.27,0,0,1-2.74-4.5,12.94,12.94,0,0,1-.76-2.7,13.17,13.17,0,0,1-1.41,4.35,13.53,13.53,0,0,1-4.83,5.19,17.12,17.12,0,0,1-2.68,1.45,5,5,0,0,0-1.09-1.4,12.75,12.75,0,0,0,8.8-10.28,31.56,31.56,0,0,0,.36-5.48,17,17,0,0,0-.11-2.56ZM127.29,50a11.19,11.19,0,0,0,1.76-2.86,14,14,0,0,0,1.11-3.58l1.49.46a19.25,19.25,0,0,1-1.24,3.68,14,14,0,0,1-1.77,3.08Zm12.52-.72a18.39,18.39,0,0,0,3.59-5.92l1.47.71a27.32,27.32,0,0,1-3.81,6Z"/><path d="M155,40.68a18.62,18.62,0,0,1,2.36,4.64,18.91,18.91,0,0,1,0,11.59A18.17,18.17,0,0,1,155,61.56l-1.41-.89a15.69,15.69,0,0,0,2.23-4.5,17.12,17.12,0,0,0,0-10.09,15.73,15.73,0,0,0-2.23-4.51Z"/><path class="cls-2" d="M45.48,21.73a17.74,17.74,0,0,0-2.73.12,11.29,11.29,0,0,1,.72-3.27,10.9,10.9,0,0,1,3.22-4.26,34.11,34.11,0,0,1,3.79-2.72c2.45-1.66,3.27-2.75,3.27-4.26,0-1.88-1.59-3.1-4.11-3.1A4.13,4.13,0,0,0,46,5.85a5.12,5.12,0,0,0-.86,2.5L43.1,8a6.74,6.74,0,0,1,1.56-3.57,6.34,6.34,0,0,1,5-1.9c3.73,0,6.14,1.88,6.14,4.8a5.22,5.22,0,0,1-1.46,3.52c-.75.84-1.39,1.31-4.21,3.19a13.46,13.46,0,0,0-3.57,3.05A6.89,6.89,0,0,0,45.13,20H53a20.59,20.59,0,0,0,3-.18v2.08c-1-.09-1.81-.14-3-.14Z"/><path class="cls-2" d="M61.15,20.34a6.21,6.21,0,0,1-1.49-2.28,17.07,17.07,0,0,1-.94-5.72,14.4,14.4,0,0,1,1.44-6.73,6.44,6.44,0,0,1,11.56,1,17,17,0,0,1,.94,5.74c0,3-.64,5.65-1.73,7.16a6.06,6.06,0,0,1-5.25,2.6A6.19,6.19,0,0,1,61.15,20.34ZM62.59,5.53a5.11,5.11,0,0,0-1.12,1.81,15.33,15.33,0,0,0-.77,5,13.63,13.63,0,0,0,1.17,5.89,4.2,4.2,0,0,0,3.84,2.16,4.15,4.15,0,0,0,3-1.16,4.93,4.93,0,0,0,1.17-1.94,15.34,15.34,0,0,0,.76-5,14.14,14.14,0,0,0-1.11-5.77,4.2,4.2,0,0,0-3.89-2.25A4,4,0,0,0,62.59,5.53Z"/><path class="cls-2" d="M78,21.73a17.67,17.67,0,0,0-2.72.12A11.29,11.29,0,0,1,76,18.58a10.9,10.9,0,0,1,3.22-4.26A32,32,0,0,1,83,11.6c2.45-1.66,3.26-2.75,3.26-4.26,0-1.88-1.58-3.1-4.11-3.1a4.11,4.11,0,0,0-3.59,1.61,5,5,0,0,0-.86,2.5L75.64,8A6.74,6.74,0,0,1,77.2,4.44a6.31,6.31,0,0,1,5-1.9c3.74,0,6.14,1.88,6.14,4.8a5.17,5.17,0,0,1-1.46,3.52c-.74.84-1.38,1.31-4.21,3.19a13.54,13.54,0,0,0-3.56,3.05A6.78,6.78,0,0,0,77.67,20h7.9a20.68,20.68,0,0,0,3-.18v2.08c-1-.09-1.81-.14-3-.14Z"/><path class="cls-2" d="M91.61,2.78a11.73,11.73,0,0,0,2,.13h1.56a14.07,14.07,0,0,0,2.06-.13,40.41,40.41,0,0,0-.23,4.11v12a15.73,15.73,0,0,0,.2,2.8H94.9a15.51,15.51,0,0,0,.2-2.8V4.59H93.76a14.71,14.71,0,0,0-2.15.15Z"/><path class="cls-2" d="M108.4,11a13.39,13.39,0,0,0-.08-1.46c.52,0,1.07.07,1.76.07h5.37v-4h-5.82a20.44,20.44,0,0,1-4.11,5.05,3.76,3.76,0,0,0-1.19-1.19,16.15,16.15,0,0,0,5-6.66A10.54,10.54,0,0,0,109.91,1l1.76.49c-.1.2-.18.38-.33.67l-.94,2h12.28a14.11,14.11,0,0,0,2.23-.12V5.73a13.48,13.48,0,0,0-2.23-.12h-5.59v4h4.48a13.3,13.3,0,0,0,2.2-.12v1.63a18.68,18.68,0,0,0-2.18-.1h-4.5v4.86h6.24a16.5,16.5,0,0,0,2.5-.15v1.78a17.74,17.74,0,0,0-2.5-.15h-6.24v4.09a11.59,11.59,0,0,0,.17,2.3h-2a10.56,10.56,0,0,0,.15-2.3V17.39h-8.94a17.74,17.74,0,0,0-2.5.15V15.76a17,17,0,0,0,2.5.15h1.89Zm7,0H110v4.86h5.44Z"/><path class="cls-2" d="M3.09,54.23A3.72,3.72,0,0,0,4.6,56.58a5.41,5.41,0,0,0,3.19.9c2.88,0,4.69-1.49,4.69-3.84s-1.76-3.79-5.06-3.79a18.46,18.46,0,0,0-2,.12V48a10.54,10.54,0,0,0,1.84.15A5,5,0,0,0,10.89,47a3.42,3.42,0,0,0,1-2.41c0-2.13-1.48-3.36-4-3.36A3.88,3.88,0,0,0,4.6,42.57a4.54,4.54,0,0,0-.79,1.76l-2.06-.45A5.7,5.7,0,0,1,3.09,41.4,6.46,6.46,0,0,1,8,39.6c3.59,0,5.87,1.88,5.87,4.85a4.37,4.37,0,0,1-1.74,3.62A5.16,5.16,0,0,1,9.82,49a5.35,5.35,0,0,1,3,1.06,4.54,4.54,0,0,1,1.66,3.74c0,3.34-2.58,5.42-6.71,5.42-2.5,0-4.36-.69-5.55-2A6.39,6.39,0,0,1,1,54.75Z"/><path class="cls-2" d="M24.29,52.65a17.65,17.65,0,0,1-1,3.84,13.32,13.32,0,0,1-2.72,4.3,6.07,6.07,0,0,0-1.37-1.31,10.41,10.41,0,0,0,2.93-4.85c.69-2.35,1-5.4,1-10.9,0-2.28,0-3.27-.1-4.21a20.92,20.92,0,0,0,2.6.13h9.31a19.7,19.7,0,0,0,2.58-.13,22.65,22.65,0,0,0-.1,2.55v16.3a1.87,1.87,0,0,1-.69,1.73,3.57,3.57,0,0,1-2,.32c-.82,0-1.86,0-3-.1a6.81,6.81,0,0,0-.39-1.68,25.31,25.31,0,0,0,3.54.25c.72,0,.92-.15.92-.77V52.65Zm11.49-1.49V46.75h-11c0,1.37-.07,2.31-.27,4.41Zm0-5.89V41.16h-11l0,3.51v.6Z"/><path class="cls-2" d="M51.55,54.23a3.72,3.72,0,0,0,1.51,2.35,5.41,5.41,0,0,0,3.19.9c2.88,0,4.68-1.49,4.68-3.84s-1.75-3.79-5-3.79a18.46,18.46,0,0,0-2,.12V48a10.51,10.51,0,0,0,1.83.15A5,5,0,0,0,59.35,47a3.42,3.42,0,0,0,1-2.41c0-2.13-1.49-3.36-4-3.36a3.88,3.88,0,0,0-3.29,1.31,4.54,4.54,0,0,0-.79,1.76l-2.06-.45a5.7,5.7,0,0,1,1.34-2.48,6.46,6.46,0,0,1,4.93-1.8c3.59,0,5.87,1.88,5.87,4.85a4.37,4.37,0,0,1-1.74,3.62,5.16,5.16,0,0,1-2.33.89,5.35,5.35,0,0,1,3,1.06A4.54,4.54,0,0,1,63,53.76c0,3.34-2.58,5.42-6.71,5.42-2.5,0-4.36-.69-5.55-2a6.25,6.25,0,0,1-1.26-2.4Z"/><path class="cls-2" d="M68.21,57.43a6.19,6.19,0,0,1-1.48-2.28,17.07,17.07,0,0,1-.94-5.72,14.58,14.58,0,0,1,1.43-6.74A6.64,6.64,0,0,1,77.3,41.41a6.34,6.34,0,0,1,1.49,2.27,17,17,0,0,1,.94,5.75c0,3-.65,5.64-1.74,7.15a6,6,0,0,1-5.24,2.6A6.21,6.21,0,0,1,68.21,57.43Zm1.44-14.81a4.94,4.94,0,0,0-1.11,1.81,15.07,15.07,0,0,0-.77,5,13.65,13.65,0,0,0,1.16,5.89,4.23,4.23,0,0,0,3.84,2.16,4.14,4.14,0,0,0,3-1.17A4.87,4.87,0,0,0,77,54.38a15.33,15.33,0,0,0,.77-5,13.89,13.89,0,0,0-1.12-5.77,4.16,4.16,0,0,0-3.88-2.25A4,4,0,0,0,69.65,42.62Z"/><path class="cls-2" d="M87.45,42.1a17.34,17.34,0,0,0-.12-2.43A19.88,19.88,0,0,0,90,39.8h11.14a17.59,17.59,0,0,0,2.55-.13,17.06,17.06,0,0,0-.12,2.28V57.82a18.77,18.77,0,0,0,.15,2.65h-1.81V58.86H89.11v1.61H87.3a17.36,17.36,0,0,0,.15-2.62Zm1.66,6.14h12.78V41.3H89.11Zm0,9.11h12.78v-7.6H89.11Z"/><path class="cls-2" d="M117.48,61.56a17.85,17.85,0,0,1-2.36-4.65,18.09,18.09,0,0,1,2.36-16.23l1.4.89a15.94,15.94,0,0,0-2.22,4.51,16.13,16.13,0,0,0-.76,5,16.32,16.32,0,0,0,.76,5.06,15.9,15.9,0,0,0,2.22,4.5Z"/><path class="cls-2" d="M137.11,39.86a23.72,23.72,0,0,0-.11,3.36,18.18,18.18,0,0,0,1,6.8,13.63,13.63,0,0,0,4.62,6.22,14.86,14.86,0,0,0,3.63,1.94,4.8,4.8,0,0,0-1.09,1.42,15.32,15.32,0,0,1-5.37-3.81,13.27,13.27,0,0,1-2.74-4.5,12.94,12.94,0,0,1-.76-2.7,13.17,13.17,0,0,1-1.41,4.35,13.53,13.53,0,0,1-4.83,5.19,17.12,17.12,0,0,1-2.68,1.45,5,5,0,0,0-1.09-1.4,12.75,12.75,0,0,0,8.8-10.28,31.56,31.56,0,0,0,.36-5.48,17,17,0,0,0-.11-2.56ZM127.29,50a11.19,11.19,0,0,0,1.76-2.86,14,14,0,0,0,1.11-3.58l1.49.46a19.25,19.25,0,0,1-1.24,3.68,14,14,0,0,1-1.77,3.08Zm12.52-.72a18.39,18.39,0,0,0,3.59-5.92l1.47.71a27.32,27.32,0,0,1-3.81,6Z"/><path class="cls-2" d="M155,40.68a18.62,18.62,0,0,1,2.36,4.64,18.91,18.91,0,0,1,0,11.59A18.17,18.17,0,0,1,155,61.56l-1.41-.89a15.69,15.69,0,0,0,2.23-4.5,17.12,17.12,0,0,0,0-10.09,15.73,15.73,0,0,0-2.23-4.51Z"/></g></g></svg>