<svg xmlns="http://www.w3.org/2000/svg" viewBox="0 0 218.13 377.29"><defs><style>.cls-1{fill:#fff;}.cls-2,.cls-3{fill:none;stroke-linecap:round;stroke-linejoin:round;}.cls-2{stroke:#666;stroke-width:0.75px;}.cls-3{stroke:#fff;stroke-width:5px;}.cls-4{fill:#231815;}</style></defs><g id="Layer_2" data-name="Layer 2"><g id="レイヤー_4" data-name="レイヤー 4"><path class="cls-1" d="M39.72,187.79c46.52,1.46,45.55,3.83-13,12.66,51.79-6.91,49.5-7.42-16.86,4,66.45-9.62,68.22-7.91,15.77,9.7,59.32-16.34,60.7-16.49,14.68,4.07,46.19-18.8,44.59-19.26-14.25,5.16,52.34-21.84,47.25-18.66-24.69,16,72.2-32.91,78-31.89,28.38,6.56,56.62-37.9,62.34-39.17,28.11-.45,34.58-37,29.77-34.16-23.12,16,46.72-46.91,44.75-46.44-14.52,8.87C80,216.75,82,218.73,37.51,278.45c51.48-60,53.92-61.52,18.63-2.51C92,218.6,89.79,219.78,41.91,288.13c42.2-64.27,41.18-62.35-10.61,14.3,52.49-75,54.32-75.66,16.89-1.46,44.29-75.56,47.87-75.66,22.2-.07,26.5-74,24.83-70.79-10.9,19.66,30.9-85.4,28.28-84-13.7,14,43-96.51,44.89-99.11,16.83-9.87,34.41-92.13,37.59-91.34,20.74-.13,18-89.94,16.46-87.89-7.47,17.4,20.84-99,21.46-97.52-.74,15.52C98.81,245.46,99,244.23,85,347.61c18.65-108.52,20.93-108.27,16.12-6,6.44-101.66,7.76-100.43,7.35,14.72,1-108.27,1-104.77,3.72,21-.87-125.76-2.61-129.41-1.6-21.46-.41-114.84,1.3-119.85,8.5-26.07-5.58-94.36-1.38-91.14,21.84,16.44-18.59-102.44-18.52-100.15,9.52,13.05-26.58-114.23-25-117,2.19-19.38-30.26-103.9-34.53-106.46-15.5-18.93-17.83-88.81-14-86.92,22.58,8.15-30.27-92.18-25.7-89.65,24.85,9.65C135,238,130.28,235.24,164.54,320.8c-39.09-90.61-42.52-94.94-16.19-22.91-25.5-73.58-20.17-72,27.45,4.61-40.77-75.22-36.46-74.07,24.31,3-60.07-78.69-63.32-81.84-17.29-18-51.71-67.94-55.59-69.45-19.26-13.15-35.77-58-31.82-55.34,23.14,5.87-48-60.92-42.3-62.51,28.21-7-70-57.26-75.84-58.32-26-10.64-56-51-60.46-54.15-22-17.09-38.09-38.78-32.47-36.63,27.83,3.09-53.33-40.27-50.91-42.71,18.11-10.79-68.76-33.67-70.51-36.34-14.63-14.51-62.38-24.41-68-24.35-26.3-6.33-41.52-19.77-36.6-21.77,25.32-10.5-55-12.54-52.91-11.72,16.84-2.11-69.67-11.38-71.3-12.76-14.89-9.65-63.13-5-65.54-5.5-17.27-7-48.27-.32-45.78-.51,17.51-6.12-56.57,3.68-53.84,2,18.18-10.66-72.1,10.86-74.81,8.48-18.56-11.74-63.12,18.95-66.85,20-21.73-1.23-45.29,19.52-42,18.32,19.19-10.11-54.73,25.85-51.46,24.46,19.22-10.63-70.94,33.34-74.5,33.35-21.53-3.46-59.94,36.26-62,35.42-17.13-5.91-45.22,39.6-43.78,37.83,13-12.83-50.61,47.38-49.48,46.75,12-9.35-61.94,54.39-63.2,54.93-14.95-.56C131.88,161,128,160.23,164.3,101c-36.83,57.61-32.45,57.22,20.73-9.81-47.5,63-45.2,58.87,14.45-20.78-60.35,78-64.22,80.26-23,6.26-48.09,75.36-50.61,74.14-19-3.88-32.42,76.47-32.92,72.92,4.38-20.55-32.47,88.42-27.14,86.75,21.83-14.77-50,100.06-54.2,102.55-23.79,9.55-36.76,95.88-41.11,98.08-24.27,9.06-18,87.74-17.48,82.64,4.39-26.56-18.78,103-15.26,100.91,13.17-17.09-29.88,117-30.51,120.9-11.2,18-23.95,108.06-27.36,107.7-19.49,5.69-9.49,101.44-8.61,99.35-.74-17.29-8.48,109.76-10.47,107-9.6-18.76-2.67,125.76-1.07,128.83,1.18,19.7-2.85,116-5,119.53-9.69,21.56,3.11,98.54,1.11,95.34-15.26-16.38C100.11,131.46,98.44,130.74,74,16.54,97,131.77,98.9,132.73,82.41,30.4,102,139,101.05,141.77,82.28,50c17.57,93,14.76,94.13-19.63.81,28,90.44,25.71,87.56-18.16-10.69,42.85,99.71,46.63,100.73,17.18,12.8C96,145.91,98.94,151,76.54,78c21.56,74.5,15.65,74.76-29.22,1,38,72.42,36.84,70.47-14.91-5.37,51.05,77.47,53.29,77,14.26,7.18,44.71,73.92,48,78.22,17.38,21.54,30,58.35,24.83,58.67-26.87,3C81.89,160.72,76.55,159,10,102.45c66.14,58.3,70.69,61.29,22.28,16.42C86.82,167,88,167.34,44.48,127.35c43.17,41.71,41.84,40.23-15-1.09,49.82,41.87,48.79,44.73-14,12.08,62.5,34.4,63,36.53,11,12.85,58.57,26.26,61.43,26.28,18,6.61,43.23,21.43,40.36,20.65-19.14,2.17,52.63,19.75,51.3,22-14.44,11.24,65.66,12.5,66.73,15,13.22,12.93C84.41,188.1,86.24,187.47,39.72,187.79Z"/><path class="cls-2" d="M52.44,187.27c37.75,2.5,32.51,5.38-25.83,14.2,51.58-6.88,47-7.79-23.71,2.83,70.82-8.84,74.93-8.42,22.84,5.89,59-13,64.71-12.44,27.73,6.31,37.15-17,32.12-14.17-24.58,15,50.18-26.56,46.26-26.54-21.17,6.6,67.7-31.37,71.33-31.23,21.83,3.95,56.51-34.63,61.07-34.47,24.72,3.87C91,209.31,86,209.65,30.62,254.5,79.8,213,79.28,215.66,20.39,270.14,79.75,217.38,81.56,219.62,37.1,279c51.48-59.71,55.19-61.86,22.48-4.44,33.29-55.74,31.11-52.3-14.15,19,39.56-67.21,36.75-66.88-16,9.6,53.45-74.84,55.81-75.52,18.53-1.59,44.16-75.31,47.16-75.29,20.52.26,27.49-74,27.4-70.06-6.16,21.77,28.72-86.74,26.32-87.15-13,8.6C89.67,238,91,237.77,64.57,329.55c32.84-94.69,34.86-95,17.33-3.53,18.74-90.22,17.09-88.85-7.64,15.42,21.64-98,21.25-94-3.75,23,26.47-116,28.58-119.06,15.66-15.52,17.56-108.72,19.44-108.75,14.93-6.91,6.14-101.26,5.93-100,2.77,15,3.78-108,5.39-105,8.49,19.71-1.29-124.68-.74-127.82,5.32-20-5.44-114.75-5.89-119.66,2-25.82-6.3-94.42-3.39-90.44,18,18.77-16.77-104-15.58-102.88,12.9,9.69-27-113.6-26.39-115.81-.71-17.65-28.77-104.45-31.33-106.93-10.35-18.76-19.76-89.45-16.52-88.38,21,5.73-31.12-91.19-29.56-90.47,15.88,4.26-44.42-96.2-46.47-96.67-12-11.22-39.31-90.54-39.4-93.46-6.18-18.73-32.38-76.28-29.86-77.66,19.09-4.32-42.07-72-39.64-70.18,18.72,4.89-57.65-76.71-60.68-77.21-16.65-10.1-49.73-71.22-50.21-74-9.06-17.07-40.58-58.61-38.43-61.19,17.79-9.73-49.2-51.16-47.88-49.35,15.21,3.23-62.63-54.3-64.41-53.95-14-6.45C132.74,212.62,132.53,210,180,247.9c-47.12-39.66-45.9-42.49,14.69-11.87-53.58-31.17-50-29.34,21.65,2-71.39-33.07-75-33.17-20.4-6.81-61.18-29-63.58-31.41-16.72-13.91-46.69-19.26-44-22.07,18.66-12.93-55.75-10.42-53.73-9,16.58-.4-70.23-10.39-71.48-12.35-13.79-11.44-64.44-2.85-70.27-2.74-27.57-5.24-42.7.72-37.6-1.72,25.38-12.9-56.23,9.24-53.15,9.78,19.27-3.94-72.51,11.94-74.95,9.77-17.86-11.12-64,19.62-66.93,20.39-19.38-2.18C132.8,177.94,135.12,176.41,197,146c-55.35,27.83-53.52,27.08,14.93-8.78-68.71,34.1-70.46,31.24-16.18-12.08-61.28,42.77-65.27,44.91-23,3-42.65,40.15-40.29,36.52,15.8-18.48-49.89,51.69-45.24,51.82,22.61-7.13-68.31,57.23-72.27,59-23.13,3.16-56.16,56.15-59.12,54.59-20.24-6.67-39.46,59.59-38.22,56.39,11.34-18.3C135.29,151.3,140.39,150.06,202,68.41c-62.32,80-67.17,80.49-26,1-48.09,80.88-50.77,82-19.57,3.11-32,77.32-31.1,74.33,8.74-18.94-35,88.18-30,85.2,20.85-18.74-51.87,102.48-57.2,104.24-27.19,7.39C122.5,142,119.17,144.88,137.64,53.42c-19.68,90.18-18.78,86,5.36-24C121.94,133.08,125.54,129.27,156.39,7c-32.32,121.28-34.56,125.94-16.07,20.22-23.13,110.89-26.88,114-20.53,16.25-8,97.21-7.61,92.36-2.28-25.6-5.94,111-6.44,109.51-5.15-15.16-3.1,124.67-1.68,126.38.6,15.67-2.9,117.62-4.81,121.25-9.13,21.94,2.69,99.88,1.46,95.86-13-18.89,9.8,109.57,7.55,109.91-16.07-5.23C96.94,132.34,97.54,133.5,79.16,30.69c21.46,109.1,21,110.77,1.15,16.32,18.59,95.73,16.43,97.34-17.72,2.3,27.79,92.12,26.77,90.27-14.24-7.67C88.33,141,89.93,141.92,59,54.07,94.77,147,96.47,150.14,70,73.46,95.63,151.7,92.62,149,49.41,65.7c36.32,82,31.83,83-24.93,3.48C80.53,150.31,82.8,154.4,38.87,90c49.63,68.49,55,69.23,23.63,10.92,30.76,60,26.1,57.07-25.34-6.72,44.42,63.5,39.09,65.21-27.24,7.33,65.87,59.6,71.21,60.77,24.68,11C87.33,165.62,90,168.25,51.45,128c38.23,42,34.66,43-21.73,6.59,49.39,37,47.3,36.66-17.2,2.53C76.75,173,78.1,175.27,26,150.34c58.64,27.53,64.71,27.91,27.7,7.71,36.83,22,31.26,23.67-27.32,9.66C78,183,72.88,182.26.38,170.11,72.79,184,77.72,184.82,25.19,178,84.47,186.76,90.19,188,52.44,187.27Z"/><path class="cls-3" d="M100.43,136.21a50.25,50.25,0,0,1-11.46,6L87.35,136a42.53,42.53,0,0,0,11.42-5.44Zm7.65,4.6H101V119.94h5.88A13.43,13.43,0,0,0,108,116.8h6.61a25.63,25.63,0,0,1-1.17,3.14h8v20.87h-7.35v2.4h20v5.59H118.91a58.7,58.7,0,0,0,15.82,7.45l-3.43,5.88c-2.55-1.13-10.63-4.71-17.25-11.13v12h-6V151.54a58.94,58.94,0,0,1-17.44,10.68l-3.14-6a51,51,0,0,0,16.22-7.4H88.09v-5.59h20ZM91.42,118.67a39.67,39.67,0,0,1,8.82,5.83l-3.48,4.95a35.05,35.05,0,0,0-8.53-6Zm15.09,6v3.48h9.31v-3.48Zm0,7.55V136h9.31v-3.72ZM124.74,130a46.56,46.56,0,0,1,10.43,6.81l-3.82,5.54a37.65,37.65,0,0,0-9.85-7.25Zm9.35-7.64a50,50,0,0,1-7.88,7.55l-3.92-4.46a41.5,41.5,0,0,0,7.54-7.11Z"/><path class="cls-3" d="M102.88,167.91c0,1.57-.54,18.13-.54,25.43,0,5.78,1.08,10.34,8.73,10.34,12,0,13.57-11.56,14.11-15l6.37,2.25c-2.16,12.05-8.68,19.06-20.63,19.06-5.39,0-9.75-1.32-12.69-5.34-2.45-3.38-2.45-7.89-2.45-14.94s.15-18.43.15-21.81Z"/><path class="cls-3" d="M129.19,225.83c-.24,2.3-.58,5.49-1.56,11.76a52.93,52.93,0,0,1,5.93,2.69l-2.21,6.81c-1.71-1-3-1.81-5.24-2.94-1.52,4.85-4.31,11.52-13.82,15.19l-3.87-5.09c8.08-2.7,9.9-7.16,11.47-12.55a48.34,48.34,0,0,0-9.12-2.2c-3,12.49-7.69,16.66-13.18,16.66-6,0-8.43-5-8.43-9.12,0-7.1,6.52-13.23,16.42-13.62.54-3.13.83-5.88,1.13-9.6l-14.51.05V217.7H114c-.15,1.17-.54,4.89-.89,8-.19,1.77-.73,5.83-1.12,7.94a50.36,50.36,0,0,1,9.31,1.86c.58-3.28,1-8.33,1.08-10.24ZM95,247c0,2.11,1.07,3.14,2.59,3.14,4.22,0,6.13-8.08,6.86-11.12C95.73,239.69,95,245.62,95,247Z"/><path class="cls-4" d="M100.43,136.21a50.25,50.25,0,0,1-11.46,6L87.35,136a42.53,42.53,0,0,0,11.42-5.44Zm7.65,4.6H101V119.94h5.88A13.43,13.43,0,0,0,108,116.8h6.61a25.63,25.63,0,0,1-1.17,3.14h8v20.87h-7.35v2.4h20v5.59H118.91a58.7,58.7,0,0,0,15.82,7.45l-3.43,5.88c-2.55-1.13-10.63-4.71-17.25-11.13v12h-6V151.54a58.94,58.94,0,0,1-17.44,10.68l-3.14-6a51,51,0,0,0,16.22-7.4H88.09v-5.59h20ZM91.42,118.67a39.67,39.67,0,0,1,8.82,5.83l-3.48,4.95a35.05,35.05,0,0,0-8.53-6Zm15.09,6v3.48h9.31v-3.48Zm0,7.55V136h9.31v-3.72ZM124.74,130a46.56,46.56,0,0,1,10.43,6.81l-3.82,5.54a37.65,37.65,0,0,0-9.85-7.25Zm9.35-7.64a50,50,0,0,1-7.88,7.55l-3.92-4.46a41.5,41.5,0,0,0,7.54-7.11Z"/><path class="cls-4" d="M102.88,167.91c0,1.57-.54,18.13-.54,25.43,0,5.78,1.08,10.34,8.73,10.34,12,0,13.57-11.56,14.11-15l6.37,2.25c-2.16,12.05-8.68,19.06-20.63,19.06-5.39,0-9.75-1.32-12.69-5.34-2.45-3.38-2.45-7.89-2.45-14.94s.15-18.43.15-21.81Z"/><path class="cls-4" d="M129.19,225.83c-.24,2.3-.58,5.49-1.56,11.76a52.93,52.93,0,0,1,5.93,2.69l-2.21,6.81c-1.71-1-3-1.81-5.24-2.94-1.52,4.85-4.31,11.52-13.82,15.19l-3.87-5.09c8.08-2.7,9.9-7.16,11.47-12.55a48.34,48.34,0,0,0-9.12-2.2c-3,12.49-7.69,16.66-13.18,16.66-6,0-8.43-5-8.43-9.12,0-7.1,6.52-13.23,16.42-13.62.54-3.13.83-5.88,1.13-9.6l-14.51.05V217.7H114c-.15,1.17-.54,4.89-.89,8-.19,1.77-.73,5.83-1.12,7.94a50.36,50.36,0,0,1,9.31,1.86c.58-3.28,1-8.33,1.08-10.24ZM95,247c0,2.11,1.07,3.14,2.59,3.14,4.22,0,6.13-8.08,6.86-11.12C95.73,239.69,95,245.62,95,247Z"/></g></g></svg>