<svg xmlns="http://www.w3.org/2000/svg" viewBox="0 0 275.57 541.8"><defs><style>.cls-1{fill:#fff;}.cls-2,.cls-3{fill:none;stroke-linecap:round;stroke-linejoin:round;}.cls-2{stroke:#666;stroke-width:0.75px;}.cls-3,.cls-4{writing-mode:tb;text-orientation:upright;glyph-orientation-vertical:0deg;font-size:71.05px;font-family:ShinGoPro-DeBold, ShinGoPro DeBold-83pv-RKSJ-H;font-weight:700;}.cls-3{stroke:#fff;stroke-width:5px;}.cls-4{fill:#231815;}</style></defs><g id="Layer_2" data-name="Layer 2"><g id="レイヤー_4" data-name="レイヤー 4"><path class="cls-1" d="M63.26,275.36c49.71-2.05,47-1.85-18.2,6.28,59.72-6.54,57.55-5.18-19.28,7.77,71.32-11.36,67.68-10.33-20.94,8.71,88.7-17.22,92.32-16.15,21.32,8.09,76.61-23.09,79.72-26,22.34-6.18,63-18.72,66.62-15.11,21.42,15.58,45.35-28.89,40.29-30.17-24.74,2.64,59.7-30.76,59-25.76-14.56,19.78,68.18-43.49,61.79-43.5-28.72,6.43,90.74-48.12,96.36-44.86,27.7,13.7,74.35-57.92,77.29-62,22-10.77,61-50.6,63.78-49,19.38,8.6,44.71-55.81,42.41-53.78-15.82,13.47,53.12-64.71,49.23-67-23.57-1C99.26,305,99,309,21.82,387.73c77.54-77,79.59-78.85,17.28-2.78,68-76,70.47-74.11,20.6,5.81,55.59-79.87,61.52-80.24,29,1.54,33-80,25.83-80.2-29.44,7.89,50.5-85,50.2-80.92-12,19.39,57.41-97.2,54.46-95.29-16.84,14C102.35,326,105.61,324,51.62,428.86c59.67-105.57,62.72-101,22.34,12C120,327.13,123,323.38,94.47,430.72c29.29-105.69,28.79-101.16-8,23.16,32.64-120.49,30-119.7-17.72,11.29,43.45-127.13,38-125.25-22.86,15.05,61.8-138.71,67.82-137.34,29.46,3.22,43.77-142.39,45.11-146.13,16.53-15.51,34-132.49,37-134.11,20.69-6.26C130,335.25,129.67,339,108,484.08c18.74-140.22,18.25-137.62-8.4,19.11,23.62-151.83,19.58-150.37-15.78,15.16,36.75-164.32,38.4-167.41,14.94-14.41,27.66-156.82,31-156.74,19.79-8.63,15.37-151.93,16-152.7,11.76-8.28,5.85-143.72,7.26-142.8,7.3,13.91.28-151.17-1.52-148.64-4.63,20.64,3.44-163.59,5.37-160.8,9.18,18.95-2-179.75,1.23-182.47,12.94-18.73-11.38-169.43-13.86-172-6.69-20.76-6.85-156.78-6.58-159,3.89-17.88-8.87-141.84-5.44-142.19,20.16,4.92-21.47-143.29-21.19-140,10.51,18.7-27.5-154.9-23.86-151.45,20.92,15.45-43.38-168.11-47.68-171.4-16.57-20.65-34.15-155.66-36.05-157.39-12.64-16.51-26.35-145.71-26.74-150.32-4.79-24.87-20.84-126.87-18-122.31,20,15.1-32.63-135.53-30-135.57,20.42,4.19-45-137.93-41.19-139,22.86-2.32C170.06,338.9,169.5,334.58,225,454.81c-59.72-124.08-64.83-122.13-25.14-3.05-43.89-122.91-46.39-127.34-14-22.88-31.6-106.11-27-103.64,25.29,6.34-46.63-109.26-44.4-107.15,19.86,8-58.58-114.43-53.17-116.62,27.64-7.94-80.19-110.39-82.81-115.77-15.88-24.39-71.76-94.5-74.9-94.18-20.55-6.27-59.12-91-65.2-92.29-26.23-12.19-38.47-81.84-32.67-82.37,28.67-4.19C169,310,171.41,309,245.2,385.1c-68.07-76.16-62.87-73.62,26.74,4.79-89.21-80.19-93.39-83.44-21.42-17-77.11-68.94-79.6-69.48-19.35-7.5-65.36-64.52-70.45-65.54-24.19-10.45C161,298,166,297.06,232.76,348.2c-61.09-51.77-58.54-51.16,20.84.36-73.69-52.16-72.28-52.8,15-5.84C181.55,294,180,293.87,254.46,336c-79.82-44.19-82.67-43.66-21-3.15-67-42.55-67.45-45.9-10.77-16.55-56.53-31.16-54.84-30.8,15.6-3.69C173.5,284.37,175,279.37,255.84,295c-75.23-16.74-73.18-14.16,16.61,2.87-89.71-18.85-90.14-22.8-11.32-17.5-84.33-6.89-87.7-4.09-22.89,4.72-70.3-10.4-72.91-11.74-17.92-9.69-55-3.88-53.07-7.61,15.84-16.85-63.43,7.65-61,7.23,20.11-4.95-75.58,10.59-74.51,12.28,13.25-.55-87.83,11-88.71,12.56-13.07-.23-81.25,11.64-82.52,5.5-16.83-21.07-71.3,25.44-75.86,28.13-24.22,3.32-51.79,23-48.13,21.56,20.54-10.83-63.34,30.35-60.08,32,22.18.12-76.9,29.8-76.74,26.54,10-16.24-87,41-88.56,43.23-15.54,2.85-78.71,39.74-80.85,36.71-19.6-10.58C166.07,247,164.59,246.14,217.65,194c-53.37,50.39-51.68,50.3,14-7.65-60.55,55.41-59.23,52.53,15.88-14.53-70,64.52-64,63.11,26.87-11.51-91.24,72.85-97.19,70.33-29-10.39-73.91,80.66-76.42,85.52-20.81,14.46-61.33,71-66.91,69.82-28-6.22-39.41,74.29-32.86,74.16,27.66-8.78-55.74,79.83-55.87,75.1,10.74-21.42-61.79,93.4-56.59,92,23.61-12.45C177.75,218.21,173,221.63,233,124.34c-65.62,98-68.08,98.06-20.55,1.88-53.2,96.9-58.4,95.86-27.08-4.18-32.06,98.39-27.55,95.94,20.06-17-43.41,109-41,108,17-12C168.66,209.28,170.66,205.53,235,72.49c-65.28,131.45-68.83,133.31-22.08,6.45-52.16,128.69-55.46,126.68-22.41-1.72-38.44,130.27-40.37,133.36-17.28,10.68-24.19,121.26-22.79,118.83,7.84-18.34C153.4,201.9,154.68,199.81,191.88,52c-34.16,142.93-33.08,140.66,6.89-17.62-41.37,157.07-44.69,157-20,5-28.94,155.82-28.89,159.48-9.53,19.86C145.8,202.68,141.9,206.94,147.71,78c-7.42,128.25-7.86,122.64-4.4-28-3.78,145.11-2.9,142.63,1.9-20.48-5.12,157.41-5,151.54-3.06-28.21C138.34,181,137,186.83,134.59,29.23c2,163.29,4.85,165.88,7.68,20.82-3.15,150.6-6.05,151.58-11.76,14.13,4.1,138.16.39,140.48-21,1,17.27,135.67,19.11,130.06-4.13-25.69,19,151.94,15.76,152-19.84-5.09,34.2,158.25,37.08,159.4,12.27,14.24,27.84,150.06,30.13,151.57,13.8,15.81,19.27,140.59,18,144.86,0,23.89,17,122.4,13,124.38-23.25,4.55C119.24,210.84,118.64,205,74,71.13c39.24,132.06,33.73,132.19-27.94-.5C106.79,204.91,111.43,207.55,66.53,88c49.18,123.45,52.31,123.69,19.23,9.61C123,215.47,123.6,219.68,94,119.78c28.88,101.55,25.72,100.44-21-2.27,41,102,38.2,104.89-21.69,7C105.5,221.7,105,219.73,38.34,120c66,101.42,65.22,104.1,5.57,16.28,64.47,90.93,69,88.51,24.69-.05,49.07,91.67,50.31,95.45,11.69,19.72,38.11,77.47,35,80.44-20.53,11.53,49.83,69,47.38,69.36-20.63,1.35,62.29,68.07,62.27,65.63-11.2-4.48,73.07,71.89,73.93,70.14,11.49,2.06,67.59,70.63,69.89,71.56,18.8,8.7,56.2,65.4,59.8,69.87,19.72,20.8,39.77,50.86,34.67,52.36-26.21,8.3,55.2,44.69,52.27,40.73-22-10.4C98.31,245.62,94.46,248.67,7.39,207c86.85,43.53,89.61,48,17.84,19.83,77.13,30.21,79.52,30.85,19.57,6.66,65.28,26.23,72.23,24.77,30.41,2.1,41.67,24.47,35.32,23.19-29.58.93,59.3,23.4,57,24.4-20,5.64C97,262,92.34,263.84,1.27,252.46c91,13.2,96.55,11.77,26.68,1.35,75.38,12,76.4,17.34,15.83,19.68C109.84,272.74,113,271.48,63.26,275.36Z"/><path class="cls-2" d="M62.57,275.37c50.15-2.06,47.44-1.86-18.25,6.3,60.18-6.56,58-5.19-19.35,7.81,71.82-11.4,68.18-10.38-21,8.74,89.26-17.29,92.9-16.21,21.39,8.12,77.14-23.18,80.26-26.13,22.42-6.2,63.47-18.8,67.11-15.18,21.49,15.64,45.77-29,40.69-30.29-24.82,2.67,60.16-30.9,59.44-25.88-14.6,19.86,68.67-43.68,62.25-43.68-28.8,6.47C92.33,296.45,98,299.71,28.83,358.52c74.85-58.16,77.8-62.27,22.1-10.82,61.41-50.81,64.24-49.21,19.45,8.62,45.1-56,42.79-54-15.86,13.54,53.53-65,49.62-67.29-23.65-1,68.11-63.75,67.81-59.74-9.8,19.35,78-77.31,80.07-79.19,17.33-2.8,68.48-76.33,70.94-74.43,20.69,5.81,56-80.2,61.93-80.57,29.14,1.51,33.3-80.34,26.13-80.49-29.53,8,50.87-85.33,50.57-81.26-12.05,19.48,57.79-97.6,54.84-95.69-16.87,14.05,72.33-108,75.6-110,21.27-4.74,60-106,63.1-101.44,22.43,12.05,46.36-114.22,49.37-118,20.56-10.25,29.56-106.08,29.07-101.54-8,23.26,32.87-120.95,30.23-120.15-17.76,11.37C112,338.3,106.54,340.21,45.37,481.11c62.1-139.31,68.14-137.95,29.57,3.15,44-142.95,45.32-146.71,16.55-15.6,34.18-133,37.26-134.63,20.75-6.33,17.62-126.87,17.33-123.07-4.47,22.5,18.87-140.72,18.39-138.1-8.37,19.21,23.72-152.38,19.68-150.91-15.78,15.26,36.86-165,38.51-168.07,14.95-14.5,27.76-157.41,31.15-157.34,19.84-8.71,15.44-152.47,16.07-153.25,11.79-8.34,5.9-144.2,7.31-143.29,7.34,13.95.3-151.68-1.5-149.14-4.62,20.72,3.46-164.14,5.4-161.35,9.24,19-2-180.35,1.22-183.07,13-18.77-11.47-170-14-172.59-6.69-20.84-6.94-157.31-6.66-159.56,3.93-17.95-9-142.31-5.54-142.65,20.22,5C151,345.05,151.3,348.34,183.16,507.64c-27.65-155.46-24-152,20.94,15.57-43.55-168.78-47.85-172.09-16.55-20.78-34.33-156.24-36.23-158-12.63-16.61-26.54-146.23-26.91-150.85-4.73-25-21.07-127.31-18.22-122.72,20.06,15.2C157.37,340,160,340,210.74,480.3c-45.3-138.46-41.47-139.53,22.94-2.27-63.48-138.85-64-143.18-8.21-22.46-60.1-124.6-65.22-122.65-25.22-3.13-44.21-123.38-46.71-127.83-14-23-31.92-106.5-27.32-104,25.36,6.41-47-109.69-44.75-107.57,19.92,8C172.52,329,178,326.81,259.25,436c-80.67-110.88-83.29-116.28-15.89-24.5-72.24-94.92-75.39-94.6-20.61-6.33-59.57-91.4-65.67-92.68-26.3-12.27-38.86-82.16-33-82.68,28.77-4.18-56.06-78.54-53.6-79.53,20.7-3.1-68.56-76.49-63.35-73.93,26.84,4.83-89.78-80.55-94-83.81-21.48-17.13-77.65-69.24-80.14-69.78-19.41-7.55-65.85-64.78-71-65.81-24.26-10.52-46.39-57.09-41.42-58,25.87-6.7-61.58-52-59-51.37,20.92.37-74.24-52.38-72.82-53,15.1-5.85-87.69-49-89.25-49.07-14.23-6.76-80.39-44.37-83.25-43.84-21-3.17-67.57-42.73-68-46.09-10.79-16.62-57-31.28-55.34-30.93,15.65-3.71-65.36-28.35-63.86-33.37,17.57-17.71-75.8-16.81-73.73-14.22,16.67,2.88C183,279,182.59,275,262,280.37c-84.93-6.93-88.32-4.12-23,4.73-70.86-10.45-73.48-11.79-18-9.73-55.5-3.9-53.57-7.64,15.89-16.92-64,7.68-61.5,7.26,20.17-5-76.14,10.63-75.07,12.33,13.3-.56-88.44,11.06-89.32,12.61-13.11-.24-81.84,11.7-83.12,5.54-16.89-21.14-71.85,25.54-76.43,28.25-24.31,3.33-52.27,23.1-48.61,21.65,20.6-10.88-63.86,30.47-60.59,32.1,22.26.1-77.47,29.94-77.31,26.66,10-16.31-87.58,41.16-89.16,43.43-15.59,2.87-79.28,39.92-81.42,36.88-19.67-10.6-67.46,46.85-68.94,46-15.41-6.4-53.85,50.59-52.15,50.5,14-7.7-61,55.64-59.72,52.75,15.91-14.6-70.47,64.79-64.45,63.38,26.95-11.58-91.81,73.17-97.79,70.65-29.12-10.4-74.41,81-76.92,85.88-20.87,14.53-61.8,71.31-67.4,70.11-28.09-6.22-39.81,74.59-33.23,74.44,27.74-8.85-56.19,80.16-56.33,75.41,10.73-21.52-62.22,93.8-57,92.39,23.66-12.54-81.29,103.2-86,106.63-25.66,8.94-66.06,98.4-68.53,98.48-20.62,1.92-53.61,97.3-58.82,96.26-27.19-4.16-32.38,98.76-27.86,96.29,20.09-17-43.75,109.49-41.34,108.47,17.08-12C168.81,209,170.81,205.24,235.51,71.64c-65.63,132-69.19,133.87-22.14,6.51-52.48,129.22-55.79,127.21-22.49-1.67-38.7,130.77-40.63,133.88-17.31,10.76-24.44,121.69-23,119.25,7.8-18.43-27.9,132.83-26.62,130.72,10.77-17.68C157.78,194.6,158.85,192.31,199,33.42c-41.54,157.68-44.88,157.65-20,5.1-29.07,156.39-29,160.07-9.5,19.95-23.64,144-27.55,148.25-21.62,18.86-7.55,128.68-8,123.05-4.46-28.1-3.87,145.59-3,143.1,1.87-20.55-5.19,157.94-5.09,152-3.11-28.3-3.84,180.34-5.24,186.15-7.61,28,2,163.83,4.85,166.44,7.68,20.9-3.16,151.1-6.06,152.08-11.82,14.16,4.14,138.63.41,140.94-21.09.94,17.37,136.16,19.24,130.54-4.08-25.78,19.11,152.48,15.82,152.48-19.89-5.17,34.3,158.86,37.18,160,12.27,14.33,27.94,150.63,30.23,152.15,13.79,15.91,19.37,141.09,18.14,145.37-.11,24C128.43,210.5,124.49,212.49,88,92.19,119.09,210.6,118.5,204.76,73.63,70.33c39.44,132.58,33.91,132.69-28-.57,61,134.85,65.68,137.51,20.52,17.43,49.44,124,52.58,124.2,19.27,9.7,37.52,118.36,38.07,122.59,8.18,22.31,29.13,101.93,26,100.81-21.06-2.31,41.33,102.39,38.48,105.29-21.78,7,54.56,97.55,54.05,95.57-13-4.57,66.4,101.87,65.59,104.55,5.55,16.35,64.87,91.34,69.41,88.91,24.77,0,49.42,92,50.66,95.83,11.7,19.81,38.45,77.77,35.34,80.75-20.61,11.54,50.21,69.24,47.75,69.65-20.7,1.34,62.71,68.37,62.7,65.92-11.24-4.5,73.53,72.21,74.4,70.46,11.53,2.08,68,70.93,70.34,71.87,18.85,8.75,56.61,65.68,60.22,70.17,19.76,20.9,40.15,51.06,35,52.57-26.3,8.32,55.63,44.88,52.69,40.9-22.06-10.45,69,52,65.18,55.06-22.44,13.15,87.39,43.73,90.16,48.2,17.89,19.91,77.65,30.35,80.05,31,19.63,6.7,65.76,26.35,72.74,24.88,30.51,2.13,42.08,24.57,35.71,23.29-29.67.92,59.75,23.5,57.42,24.5-20,5.66C96.69,262,92,263.8.38,252.36c91.57,13.26,97.14,11.83,26.77,1.37,75.9,12.06,76.92,17.41,15.88,19.75C109.58,272.74,112.72,271.47,62.57,275.37Z"/><text class="cls-3" transform="translate(140.71 168.34)">楽しみ</text><text class="cls-4" transform="translate(140.71 168.34)">楽しみ</text></g></g></svg>