<svg xmlns="http://www.w3.org/2000/svg" viewBox="0 0 129.69 134.17"><defs><style>.cls-1{fill:#f2e042;}</style></defs><g id="Layer_2" data-name="Layer 2"><g id="back"><polygon class="cls-1" points="74.37 54.35 104.86 46.89 107.07 7.42 127.63 64.31 104.97 66.48 120.97 109.03 74.37 54.35"/><path d="M108.16,14.84,125.56,63l-22.68,2.17,13.67,36.36L77.09,55.23l29.21-7.14,1.86-33.25M106,0l-.82,14.67-1.74,31L76.38,52.32l-4.73,1.15,3.16,3.71,39.46,46.29,11.13,13.06-6-16.06L107.07,67.79,125.85,66l3.84-.37L128.38,62,111,13.82,106,0Z"/><polygon class="cls-1" points="22.4 67.66 46.9 48.04 32.27 11.31 74.89 54.23 55.26 65.75 87.71 97.59 22.4 67.66"/><path d="M36.39,17.58,72.46,53.92,52.81,65.45l27.72,27.2L25.24,67.3,48.71,48.51,36.39,17.58M28.16,5,33.6,18.69,45.1,47.56,23.36,65l-3.8,3L24,70,79.28,95.38l15.6,7.15-12.25-12L57.71,66.05,74,56.51l3.34-2L74.59,51.8,38.51,15.47,28.16,5Z"/><polygon class="cls-1" points="38.34 102.91 6.77 79.11 65.47 93.69 54.67 113.72 98.93 124.1 27.57 132.4 38.34 102.91"/><path d="M13.54,82.34,63.23,94.68l-10.81,20,37.81,8.87-60.42,7,10.31-28.25-26.58-20M0,75.88l11.73,8.85,24.81,18.71L27,129.6l-1.67,4.57,4.84-.56,60.42-7,17-2-16.7-3.92-34-8,9-16.61,1.83-3.4L64,91.77,14.26,79.42,0,75.88Z"/></g></g></svg>