<svg xmlns="http://www.w3.org/2000/svg" viewBox="0 0 134.17 129.69"><defs><style>.cls-1{fill:#f2e042;}</style></defs><g id="Layer_2" data-name="Layer 2"><g id="back"><polygon class="cls-1" points="25.14 8.72 67.69 24.72 69.86 2.07 126.75 22.62 87.28 24.83 79.81 55.32 25.14 8.72"/><path d="M71.17,4.14l48.16,17.39L86.08,23.4,78.94,52.6,32.64,13.15,69,26.82,71.17,4.14M68.55,0l-.37,3.85-1.8,18.78L33.7,10.34l-16.06-6L30.7,15.43,77,54.89,80.69,58l1.16-4.72,6.62-27,31-1.74,14.68-.82-13.82-5L72.19,1.31,68.55,0Z"/><polygon class="cls-1" points="36.58 41.99 68.42 74.43 79.93 54.8 122.86 97.42 86.13 82.79 66.51 107.3 36.58 41.99"/><path d="M41.52,49.16l27.2,27.72L80.25,57.23l36.34,36.08L85.65,81,66.86,104.46,41.52,49.16M31.64,34.81l7.15,15.6,25.35,55.3,2,4.42,3-3.8L86.61,84.6l28.87,11.5,13.65,5.44L118.7,91.18,82.36,55.1l-2.74-2.72-2,3.33L68.11,72,43.66,47.06l-12-12.25Z"/><polygon class="cls-1" points="31.25 91.36 1.77 102.13 10.07 30.77 20.45 75.02 40.48 64.22 55.06 122.92 31.25 91.36"/><path d="M10.56,39.46l8.88,37.81L39.49,66.46l12.34,49.69-20-26.58L3.54,99.89l7-60.43m-1-17.39-2,17-7,60.42L0,104.37l4.57-1.67,26.16-9.55L49.44,118l8.85,11.73-3.55-14.26L42.4,65.74,41.47,62l-3.4,1.84L21.46,72.77l-8-34L9.57,22.07Z"/></g></g></svg>