<svg xmlns="http://www.w3.org/2000/svg" viewBox="0 0 117.39 137.58"><defs><style>.cls-1{fill:#060001;}.cls-2{stroke:#000;stroke-miterlimit:10;stroke-width:2.83px;}.cls-3{fill:#fff;}.cls-4{fill:#2dbaec;}</style></defs><g id="Layer_2" data-name="Layer 2"><g id="design"><circle class="cls-1" cx="15.25" cy="114.02" r="11.25" transform="translate(-99.76 111.71) rotate(-81.23)"/><polygon class="cls-2" points="13.06 92.19 13.62 95.7 25.76 98.76 69.14 14.25 67.86 9.49 63.32 9.15 20.89 93.6 13.06 92.19"/><circle class="cls-3" cx="12.02" cy="111.78" r="10.15" transform="translate(-3.46 0.43) rotate(-1.78)"/><path class="cls-4" d="M8.06,99.37a10.23,10.23,0,0,0-4.67,2.73,9.29,9.29,0,0,0-1.86,2.78,19.07,19.07,0,0,0-1,2.91A18.71,18.71,0,0,0,0,112.27a11.87,11.87,0,0,0,1.26,5.3,12.43,12.43,0,0,0,3.07,3.93,12.57,12.57,0,0,0,9.72,2.9,11.51,11.51,0,0,0,6.1-2.72,10.19,10.19,0,0,0,3-4.28,7.24,7.24,0,0,0,.35-3.72,3.92,3.92,0,0,0-1.15-2.24.77.77,0,0,0-1.31.13,24.11,24.11,0,0,0-1.13,2.31,10.43,10.43,0,0,1-2.32,3.18,8.27,8.27,0,0,1-4.37,2.13,9,9,0,0,1-3.24-.12,9.29,9.29,0,0,1-2.18-.73,7.74,7.74,0,0,1-4-3.9A5.86,5.86,0,0,1,3.32,111a5.33,5.33,0,0,1,1-2.32A9.73,9.73,0,0,1,5.93,107a14.24,14.24,0,0,1,2.41-1.72,7,7,0,0,1,4.58-.74,8.23,8.23,0,0,1,4,2c2.14,1.86,2.82,4.11,4.61,4.63.38.11.78-.45.92-1.62a8.44,8.44,0,0,0-1.12-4.85,10.81,10.81,0,0,0-2.13-2.71A12,12,0,0,0,16,99.86,12,12,0,0,0,8.06,99.37Z"/><polygon class="cls-3" points="40.2 0.86 12.59 89.8 23.75 92.61 67.43 7.75 40.2 0.86"/><path class="cls-4" d="M47.59,40C35.24,63.28,37.84,61.65,26.82,82.51c-.94,1.76-1.84,3.48-2.67,5L23,89.68l-.33.58c-.09,0-2.92-.78-4.59-1.22l-1.33-.35-.64-.17-.19-.06-.62-.19c4-12.3,7.36-22.66,11.49-35.39,8.73-27,13-43.48,13.18-50.81S31.92,18.64,21.7,51.55C18.77,61,17,67.09,15.42,72.47c-.76,2.7-1.47,5.21-2.22,7.89-.37,1.34-.75,2.72-1.15,4.19-.11.36-.21.74-.31,1.11s-.29,1-.44,1.54c-.37,1.28-.76,2.6-1.15,4l6.2,1.35,3.22.69,5,1.14.34-.7L27.16,89c.6-1.19,1.16-2.32,1.7-3.4,1.09-2.14,2.1-4.06,3.05-5.82,1.89-3.51,3.56-6.4,5.24-9.25,3.35-5.71,6.72-11.29,12-21.49C52.4,42.7,56.05,35.81,59.66,29L65,18.79c2.3-4.48,4.55-8.83,6.69-13L63.05,3.67,58.3,2.57c-3-.68-5.83-1.26-8.25-1.69C45.2,0,41.76-.27,40.42.3c-.69.29,2,1.44,6.8,3.1,2.41.83,5.36,1.79,8.71,2.84l5.28,1.63,1.4.42.71.21.21.07.13.06,1,.38-.46.69L64,10l0,.07-.13.24-.28.5-2.28,4.07L56.6,23.27C53.5,28.93,50.42,34.63,47.59,40Z"/><circle class="cls-1" cx="46.26" cy="126.33" r="11.25" transform="translate(-76.72 71.79) rotate(-45.97)"/><polygon class="cls-2" points="47.16 104.41 47.22 107.97 58.81 112.7 113.65 35.13 113.05 30.25 108.61 29.27 54.72 106.91 47.16 104.41"/><path class="cls-3" d="M53.49,124.41a10.14,10.14,0,1,1-9.36-10.87A10.15,10.15,0,0,1,53.49,124.41Z"/><path class="cls-4" d="M41.2,110.82a10.21,10.21,0,0,0-5,2,9,9,0,0,0-2.23,2.5,17.92,17.92,0,0,0-1.38,2.74,18.3,18.3,0,0,0-1.18,4.36,12,12,0,0,0,.5,5.42,12.54,12.54,0,0,0,11.71,8.56A11.54,11.54,0,0,0,50,134.61a10.15,10.15,0,0,0,3.52-3.83,7.23,7.23,0,0,0,.87-3.63,4,4,0,0,0-.82-2.38.77.77,0,0,0-1.32,0,23,23,0,0,0-1.45,2.13,10.16,10.16,0,0,1-2.74,2.81,8.29,8.29,0,0,1-4.63,1.5,8.93,8.93,0,0,1-3.19-.57,9.56,9.56,0,0,1-2.05-1,7.68,7.68,0,0,1-1.77-1.5,7.52,7.52,0,0,1-1.6-2.92,5.91,5.91,0,0,1,0-3.48,5.36,5.36,0,0,1,1.3-2.15A8.91,8.91,0,0,1,38,118a14.14,14.14,0,0,1,2.63-1.36,6.93,6.93,0,0,1,4.63-.09A8.28,8.28,0,0,1,49,119.11c1.86,2.15,2.22,4.47,3.91,5.24.37.16.84-.34,1.14-1.48a8.42,8.42,0,0,0-.42-5,11.13,11.13,0,0,0-1.73-3,11.72,11.72,0,0,0-10.68-4.11Z"/><polygon class="cls-3" points="86.88 17.81 47.04 101.98 57.69 106.33 112.88 28.46 86.88 17.81"/><path class="cls-4" d="M88.69,57.59C73.19,78.91,76,77.66,62.15,96.76l-3.35,4.62-1.42,1.94-.41.54c-.09-.06-2.78-1.19-4.37-1.86l-1.27-.53-.61-.26-.18-.08-.58-.28L66.31,67.43C78.74,42,85.33,26.22,86.5,19S76.18,34.25,61.44,65.39c-4.24,9-6.89,14.72-9.17,19.83L49,92.72l-1.73,4c-.16.35-.31.71-.47,1.06s-.42,1-.64,1.46L44.42,103l5.95,2.21,3.09,1.14,4.76,1.83c.11-.15.27-.4.44-.65l2.91-4.26,2.16-3.13c1.39-2,2.65-3.72,3.84-5.33C69.94,91.6,72,89,74.06,86.38,78.18,81.2,82.3,76.15,88.94,66.8,93.08,61,97.66,54.64,102.2,48.37l6.73-9.32,8.46-11.9-8.27-3.34-4.56-1.76C101.64,20.94,99,20,96.63,19.21c-4.68-1.54-8-2.3-9.45-1.93-.73.2,1.75,1.71,6.3,4,2.27,1.16,5.06,2.53,8.22,4l5,2.35,1.33.62.67.31.19.1.13.07.92.52-.55.62-.25.28-.06.06-.16.21-.35.46-2.83,3.71L100,42.31C96.11,47.47,92.26,52.68,88.69,57.59Z"/></g></g></svg>