<svg xmlns="http://www.w3.org/2000/svg" viewBox="0 0 215.39 207.18"><defs><style>.cls-1{fill:#fff;}.cls-2{fill:#231815;}.cls-3{writing-mode:tb;text-orientation:upright;glyph-orientation-vertical:0deg;font-size:18.8px;font-family:RyuminPro-Medium, RyuminPro Medium-83pv-RKSJ-H;font-weight:500;letter-spacing:0.1em;}</style></defs><g id="Layer_2" data-name="Layer 2"><g id="back"><ellipse class="cls-1" cx="108.64" cy="106.61" rx="96.54" ry="93.44"/><polygon class="cls-2" points="89.16 15.18 88 9.61 86.45 5.79 88.6 15.28 89.16 15.18"/><polygon class="cls-2" points="74.25 13.08 76.18 18.46 76.72 18.28 76.67 18.13 77.25 19.53 77.78 19.33 74.7 11.93 74.17 12.13 74.53 12.99 74.25 13.08"/><polygon class="cls-2" points="44.69 35.38 40.79 31.07 40.36 31.42 44.25 35.74 44.69 35.38"/><polygon class="cls-2" points="26.29 55.05 21.27 51.94 20.95 52.39 25.98 55.5 26.29 55.05"/><polygon class="cls-2" points="16.19 74.02 10.55 72.08 10.36 72.59 15.99 74.52 16.19 74.02"/><polygon class="cls-2" points="91.76 10.03 92.46 14.3 93.03 14.22 92.32 9.95 91.76 10.03"/><polygon class="cls-2" points="82.26 15.92 80.26 10.9 76.31 8.69 81.72 16.11 82.26 15.92"/><polygon class="cls-2" points="53.92 28.18 50.36 24 49.92 24.34 53.48 28.52 53.92 28.18"/><polygon class="cls-2" points="32.57 46.4 27.89 43.37 27.57 43.82 32.25 46.84 32.57 46.4"/><path class="cls-2" d="M97.44,13.14l.25,2.29,1.14-.11-.37-3.38-1.13.11,0,.53-1-4.7L95.8,8l0,.08-.43,0,.35,2.82-.26.05.07.29-.47.05L95,10.91l-1.14.15.79,5.43.8-.1.06.42,1.13-.13-.1-.79,0,.18,1.12-.23-.58-2.64Zm-1.3-3.58.28,1.25-.12,0Z"/><polygon class="cls-2" points="66.43 21.48 63.55 16.87 63.06 17.14 65.94 21.76 66.43 21.48"/><polygon class="cls-2" points="55.97 26.72 54 23.75 53.52 24.03 55.48 27.01 55.97 26.72"/><polygon class="cls-2" points="28.04 51.37 25.02 49.33 24.69 49.77 27.7 51.81 28.04 51.37"/><polygon class="cls-2" points="19.27 68.58 13.79 66.27 13.55 66.77 19.03 69.08 19.27 68.58"/><polygon class="cls-2" points="14.59 132.28 8.84 133.88 9 134.4 14.75 132.79 14.59 132.28"/><polygon class="cls-2" points="40.28 172.63 36.11 176.72 36.52 177.09 40.69 173.01 40.28 172.63"/><polygon class="cls-2" points="12.26 82.05 12.25 82.06 15.72 82.94 16.02 81.9 12.55 81.02 12.46 81.32 10 80.91 9.44 80.76 9.42 80.81 7.83 80.55 7.73 81.08 9.87 81.44 12.26 82.05"/><polygon class="cls-2" points="11.07 92.3 14.49 92.81 14.63 91.97 14.82 92 14.91 91.47 16.29 91.63 16.42 90.55 8.34 89.66 8.32 89.81 5.73 89.4 5.63 89.94 8.26 90.35 8.21 90.73 9.14 90.84 9.1 91.1 10.27 91.28 10.18 91.84 5.45 91.57 5.41 92.11 11.07 92.43 11.07 92.3"/><polygon class="cls-2" points="11.54 121.89 11.48 121.69 12.82 121.39 12.7 120.87 4.5 122.67 4.63 123.2 5.96 122.91 6.06 123.26 11.54 121.89"/><polygon class="cls-2" points="20.43 147.46 26.56 142.47 22.42 145.33 21.26 145.87 21 145.44 13.67 149.35 13.95 149.82 19.28 146.97 19.62 147.62 15.46 150.04 15.76 150.5 20.59 147.69 20.43 147.46"/><polygon class="cls-2" points="14.26 143.99 14.86 143.75 15.01 144.03 22.32 140.66 21.82 139.68 20.87 140.12 20.86 140.11 20.48 140.27 20 139.4 15.14 141.79 15.56 142.57 14.51 143.06 14.61 143.26 14.03 143.49 14.26 143.99"/><polygon class="cls-2" points="9.62 131.18 13.21 130.28 13.06 129.76 9.48 130.65 9.62 131.18"/><polygon class="cls-2" points="23.24 153.18 14.49 156.96 20.33 155.41 23.53 153.64 23.24 153.18"/><polygon class="cls-2" points="5.06 109.43 11.06 109.28 11.04 108.74 5.27 108.88 10.09 108.37 10.08 108.28 15.94 109.63 13.77 107.14 7.96 107.23 7.98 108.05 0 108.66 4.46 108.97 5.05 108.91 5.06 109.43"/><polygon class="cls-2" points="13.36 126.58 7.5 127.83 2.42 129.91 13.48 127.11 13.36 126.58"/><polygon class="cls-2" points="36.31 168.49 35.92 168.09 34.46 169.33 35.8 168.03 42.02 163.72 37.35 165.26 33.03 168.93 33.54 169.46 30.39 172.51 30.8 172.89 31.64 172.07 31.85 172.29 36.31 168.49"/><polygon class="cls-2" points="57.69 185.23 57.2 184.95 55.48 187.6 57.77 183.52 57.26 183.27 53.32 190.3 53.82 190.55 54.21 189.87 54.55 190.07 57.69 185.23"/><polygon class="cls-2" points="7.85 124.27 11.08 123.71 11.09 123.74 14.62 123.11 14.41 122.05 10.88 122.67 10.98 123.17 7.75 123.74 7.85 124.27"/><polygon class="cls-2" points="14.33 133.09 9.09 135.12 9.3 135.62 14.54 133.59 14.33 133.09"/><polygon class="cls-2" points="28.06 159.55 23.74 163.03 24.11 163.44 28.43 159.97 28.06 159.55"/><polygon class="cls-2" points="69.07 191.14 68.53 190.96 66.71 196.04 66.92 196.11 66.91 196.12 67.45 196.3 69.26 191.22 69.07 191.16 69.07 191.14"/><polygon class="cls-2" points="5.58 120.5 8.47 119.86 8.64 119.84 8.64 119.85 14.38 119.06 14.22 117.99 14.02 118.02 13.79 117.06 8.44 118.2 8.58 118.76 8.48 118.78 8.55 119.29 8.37 119.33 7.15 119.49 7.17 119.59 5.45 119.97 5.58 120.5"/><polygon class="cls-2" points="20.64 147.91 15.84 150.75 16.14 151.21 20.95 148.37 20.64 147.91"/><polygon class="cls-2" points="26.46 157.65 23.37 159.59 23.69 160.04 26.78 158.11 26.46 157.65"/><polygon class="cls-2" points="43.01 175.81 40.55 178.43 40.97 178.79 43.44 176.16 43.01 175.81"/><polygon class="cls-2" points="33.77 166.85 33.74 166.82 33.95 166.62 33.55 166.24 33.01 166.75 30.57 168.71 30.77 168.93 29.58 170.07 29.99 170.45 33.41 167.15 33.77 166.85"/><polygon class="cls-2" points="53.27 183.4 51.2 186.3 51.67 186.61 53.75 183.7 53.27 183.4"/><polygon class="cls-2" points="47.11 177.46 43.31 181.84 43.75 182.19 47.55 177.8 47.11 177.46"/><polygon class="cls-2" points="62.88 187.48 60.06 192.49 60.56 192.74 63.39 187.74 62.88 187.48"/><polygon class="cls-2" points="110.83 198.5 110.95 204.18 111.52 204.17 111.4 198.49 110.83 198.5"/><path class="cls-2" d="M158.84,185.65l-1.85-3-.66.36-.86-1.22-.95.6,4.54,6.39.39-.25,1.74,2.32.15-.1v0l.4-.28.07.1.49-.28-3.07-4.88Zm.79,1.88.2-.11,1.49,2.37Z"/><polygon class="cls-2" points="56.94 189.63 57.43 189.91 59.75 186.18 59.26 185.91 56.94 189.63"/><polygon class="cls-2" points="127.58 197.25 129.17 202.39 129.72 202.24 128.13 197.1 127.58 197.25"/><polygon class="cls-2" points="150.45 190.16 153.32 194.78 153.81 194.51 150.95 189.88 150.45 190.16"/><polygon class="cls-2" points="55.06 184.07 52.43 188.81 52.93 189.06 55.56 184.32 55.06 184.07"/><polygon class="cls-2" points="84.7 196.22 83.07 207.18 84.39 201.6 85.26 196.31 84.7 196.22"/><polygon class="cls-2" points="95.83 201.92 96.39 201.99 96.86 198.51 96.3 198.44 95.83 201.92"/><polygon class="cls-2" points="121.73 198.48 120.89 194.78 119.77 195.01 120.93 200.08 121.83 199.9 122.12 201.97 122.68 201.9 122.2 198.42 121.73 198.48"/><polygon class="cls-2" points="107.82 202.74 108.4 202.75 108.43 199.24 107.86 199.23 107.82 202.74"/><polygon class="cls-2" points="147.87 195.53 146.47 192.28 145.94 192.48 146.26 193.22 145.66 192.09 145.15 192.34 147.72 197.12 148.23 196.87 147.57 195.65 147.87 195.53"/><polygon class="cls-2" points="102.68 203.58 103.25 203.61 103.62 197.95 103.05 197.91 102.68 203.58"/><polygon class="cls-2" points="122.05 197.32 122.85 202.94 123.42 202.87 122.61 197.25 122.05 197.32"/><polygon class="cls-2" points="167.75 179.73 171.36 184.26 171.81 183.94 168.2 179.4 167.75 179.73"/><polygon class="cls-2" points="198.78 142.65 195.66 141.58 195.47 142.09 203.38 144.81 203.4 144.75 204.2 145.08 204.43 144.59 198.93 142.32 198.78 142.65"/><polygon class="cls-2" points="180.56 169.44 180.7 169.54 180.54 169.7 175.94 166.08 175.21 166.91 181.46 171.83 182.06 171.16 183.18 172.16 183.57 171.77 182.87 171.13 186.9 174.34 185.38 172.3 180.91 169.01 180.56 169.44"/><polygon class="cls-2" points="194.72 151.03 204.77 155.99 200.14 152.7 194.96 150.53 194.72 151.03"/><polygon class="cls-2" points="113.59 198.88 114.39 204.19 114.95 204.11 114.16 198.8 113.59 198.88"/><polygon class="cls-2" points="165.79 181.96 167.93 184.82 168.4 184.51 166.26 181.65 165.79 181.96"/><polygon class="cls-2" points="185.41 164.74 188.28 166.95 188.64 166.53 185.77 164.32 185.41 164.74"/><polygon class="cls-2" points="192.5 155.41 195.65 157.27 195.95 156.81 192.81 154.95 192.5 155.41"/><polygon class="cls-2" points="151.44 188.83 154.04 193.94 154.56 193.71 151.95 188.59 151.44 188.83"/><polygon class="cls-2" points="166.41 187.28 166.41 187.28 166.3 187.13 164.28 184.23 165.06 183.74 161.84 179.17 160.89 179.77 162.94 182.68 162.78 182.78 161.31 180.95 160.86 181.28 165.84 187.45 165.94 187.6 165.95 187.59 165.96 187.6 166.1 187.51 166.42 187.31 166.41 187.28"/><polygon class="cls-2" points="189.14 158.63 186.76 157.02 186.1 157.9 189.02 159.87 189.64 159.04 194.02 161.93 194.35 161.49 189.43 158.24 189.14 158.63"/><polygon class="cls-2" points="206.42 114.39 203.65 114.12 203.59 114.7 203.09 114.69 203.06 115.77 208.54 115.88 208.56 114.8 207.19 114.77 207.21 114.58 212.38 115.04 212.43 114.5 206.46 113.97 206.42 114.39"/><polygon class="cls-2" points="182.4 167.46 179.48 165.38 178.79 166.24 183.17 169.36 183.55 168.88 186.64 171.05 186.98 170.61 182.43 167.42 182.4 167.46"/><polygon class="cls-2" points="143.91 192.8 146.41 197.61 146.92 197.37 144.42 192.56 143.91 192.8"/><polygon class="cls-2" points="171.76 177.31 175.77 181.09 176.17 180.71 172.16 176.93 171.76 177.31"/><polygon class="cls-2" points="198.71 152.09 198.99 151.62 195.73 149.94 195.46 150.41 198.71 152.09"/><polygon class="cls-2" points="191.29 163.04 188.32 160.94 188.21 161.08 187.73 160.74 187.39 161.17 192.2 164.56 192.54 164.13 191.19 163.17 191.29 163.04"/><polygon class="cls-2" points="200.96 139.24 204.43 140.5 204.63 140 201.17 138.74 200.96 139.24"/><polygon class="cls-2" points="204.65 128.29 208.25 129.14 208.39 128.61 204.79 127.77 204.65 128.29"/><polygon class="cls-2" points="203 129.86 202.77 129.79 202.61 130.31 202.79 130.36 200.03 129.85 199.81 130.91 205.19 131.91 205.37 131.05 208.39 131.85 208.54 131.33 207.35 131.01 208.78 131.38 208.93 130.86 203.14 129.36 203 129.86"/><polygon class="cls-2" points="205.98 95.2 211.94 94.57 211.88 94.03 205.92 94.66 205.98 95.2"/><polygon class="cls-2" points="188.14 51.22 193 47.88 192.66 47.45 187.81 50.78 188.14 51.22"/><polygon class="cls-2" points="204.05 135.46 201.86 134.76 201.68 135.27 202 135.38 201.96 135.54 203.9 135.98 207.37 137.08 207.55 136.57 207.52 136.56 207.6 136.26 204.05 135.46"/><polygon class="cls-2" points="193.43 58.42 190.98 59.74 191.55 60.68 194.67 58.99 194.2 58.22 198.2 55.51 197.87 55.07 193.26 58.19 193.43 58.42"/><polygon class="cls-2" points="205.96 120.02 211.61 120.36 211.65 119.82 205.99 119.48 205.96 120.02"/><polygon class="cls-2" points="204.98 85.02 208.6 84.25 208.47 83.72 204.85 84.49 204.98 85.02"/><polygon class="cls-2" points="207.02 97.93 210.71 97.64 210.67 97.1 206.97 97.39 207.02 97.93"/><polygon class="cls-2" points="202.73 72.12 202.46 71.58 197.5 73.8 197.99 74.78 202.32 72.84 204.8 71.97 204.6 71.47 202.73 72.12"/><polygon class="cls-2" points="199.48 60.57 197.6 61.49 197.59 61.48 192.42 63.96 192.94 64.93 198.11 62.45 197.86 61.97 199.74 61.05 199.48 60.57"/><polygon class="cls-2" points="193.37 50.91 190.3 52.87 190.62 53.32 193.69 51.35 193.37 50.91"/><polygon class="cls-2" points="206.21 100.45 212.2 100.15 212.17 99.61 206.18 99.92 206.21 100.45"/><polygon class="cls-2" points="207.1 105.93 207.07 105.93 207.12 106.47 212.76 106.03 212.73 105.67 212.76 105.67 212.71 105.13 207.07 105.6 207.1 105.93"/><polygon class="cls-2" points="202.31 77.01 207.52 74.9 207.3 74.41 202.09 76.51 202.31 77.01"/><polygon class="cls-2" points="189.2 52.24 186.66 54.21 187.39 55.05 191.63 51.76 191.23 51.3 193.89 49.2 193.52 48.78 189.18 52.22 189.2 52.24"/><polygon class="cls-2" points="173.51 35.65 173.62 35.51 173.81 35.68 176.28 33.05 175.85 32.69 175.52 33.04 176.85 31.32 176.39 31 173.05 35.33 173.51 35.65"/><polygon class="cls-2" points="205.83 120.77 211.48 121.15 211.52 120.61 205.87 120.23 205.83 120.77"/><polygon class="cls-2" points="205.72 90.14 205.56 90.17 201.89 90.71 202.06 91.78 207.8 90.94 207.69 90.28 210.48 89.69 215.39 87.9 207.7 89.72 211.21 88.85 211.07 88.32 205.59 89.69 205.72 90.14"/><polygon class="cls-2" points="196.01 55.02 192.83 56.83 193.13 57.29 196.31 55.48 196.01 55.02"/><polygon class="cls-2" points="202.56 67.06 199.15 68.44 199.18 68.52 196.24 69.68 196.68 70.68 199.07 69.73 199.09 69.76 204.62 67.57 204.4 67.07 203.44 67.45 209.6 65.68 204.09 66.51 202.64 67.24 202.56 67.06"/><polygon class="cls-2" points="185.4 46.79 182.36 49.07 182.59 49.34 180.19 51.37 180.95 52.17 187.01 47.04 186.97 46.99 187.62 46.51 187.21 46.02 188.61 44.97 188.25 44.55 185.35 46.74 185.4 46.79"/><polygon class="cls-2" points="177.57 38.63 180.16 36.11 179.75 35.73 177.16 38.25 177.57 38.63"/><polygon class="cls-2" points="168.93 31.5 171.19 28.72 170.74 28.39 168.47 31.17 168.93 31.5"/><polygon class="cls-2" points="145.52 20.2 147.81 14.96 147.29 14.75 144.99 20 145.52 20.2"/><polygon class="cls-2" points="66.94 15.4 69.3 20.62 69.83 20.41 67.47 15.19 66.94 15.4"/><polygon class="cls-2" points="50.3 30.89 46.75 26.32 46.29 26.64 49.84 31.21 50.3 30.89"/><polygon class="cls-2" points="153.66 22.87 157.44 14.01 155.26 17.7 153.13 22.67 153.66 22.87"/><polygon class="cls-2" points="123.22 8.18 122.65 8.15 122.33 13.5 122.91 13.53 123.22 8.18"/><polygon class="cls-2" points="111.24 8.89 110.67 8.88 110.56 12.39 111.13 12.4 111.24 8.89"/><polygon class="cls-2" points="99.54 12.69 99.21 9.2 98.64 9.24 98.97 12.74 99.54 12.69"/><polygon class="cls-2" points="62.34 22.95 60.61 19.85 60.11 20.1 61.84 23.2 62.34 22.95"/><polygon class="cls-2" points="60.49 25.19 61.74 27.34 62.45 26.97 62.67 27.36 63.68 26.85 60.94 22.01 60.18 22.4 59.95 22 58.96 22.52 57.6 20.22 57.1 20.48 60.03 25.43 60.49 25.19"/><polygon class="cls-2" points="17.73 70.45 17.79 70.31 18.85 70.67 18.9 70.54 20 70.99 20.45 69.99 17.15 68.66 16.82 69.41 15.19 68.86 12.42 67.76 12.35 67.91 11.11 67.49 10.92 68 15 69.37 17.73 70.45"/><polygon class="cls-2" points="75.78 18.39 74.27 14.31 73.73 14.48 75.24 18.57 75.78 18.39"/><polygon class="cls-2" points="39.81 39 42.01 40.82 42.77 40 38.64 36.59 38.05 37.23 35.69 35.31 35.32 35.72 39.62 39.21 39.81 39"/><polygon class="cls-2" points="22.47 60.38 17.3 58.2 13.04 55.06 22.24 60.87 22.47 60.38"/><polygon class="cls-2" points="79.59 16.69 79.59 16.7 80.12 16.5 78.01 11.53 77.85 11.59 77.85 11.58 77.32 11.78 79.44 16.75 79.59 16.69"/><polygon class="cls-2" points="51.01 30.08 47.3 26.03 46.87 26.39 50.58 30.43 51.01 30.08"/><polygon class="cls-2" points="25.32 55.28 22.2 53.38 21.89 53.84 25.01 55.74 25.32 55.28"/><polygon class="cls-2" points="15.36 65.04 18.72 66.53 18.97 66.04 17.89 65.56 19.42 66.1 19.49 65.94 24.37 67.89 24.81 66.9 17.32 63.89 16.97 64.67 14.31 63.73 14.11 64.24 15.52 64.73 15.36 65.04"/><polygon class="cls-2" points="201.84 78.69 202 79.21 203.12 78.9 203.14 78.95 202.92 79.03 203.13 79.53 205.54 78.63 206.8 78.28 206.76 78.18 208.4 77.56 208.19 77.06 207.65 77.27 207.59 77.08 201.84 78.69"/><polygon class="cls-2" points="187.92 51.68 188.25 52.12 197.53 46.36 192.82 48.41 187.92 51.68"/><polygon class="cls-2" points="161.77 27.85 160.19 30.11 161.14 30.71 164.34 26.13 164.16 26.02 165.59 23.99 165.11 23.69 163.69 25.72 163.44 25.57 165.11 23.14 164.63 22.84 161.36 27.6 161.77 27.85"/><polygon class="cls-2" points="138.42 11.33 137.87 11.18 136.15 16.61 136.7 16.77 138.42 11.33"/><polygon class="cls-2" points="114.19 10.44 113.18 10.38 113.1 11.73 112.5 11.7 112.49 10.92 111.35 10.93 111.46 18.63 112.6 18.61 112.56 15.89 112.94 15.91 112.95 15.87 113.98 15.92 114.16 12.95 114.6 12.97 114.97 7.31 114.4 7.28 114.19 10.44"/><polygon class="cls-2" points="192.21 56.47 196.73 53.23 196.38 52.8 191.87 56.04 192.21 56.47"/><polygon class="cls-2" points="171.76 34.23 174.99 29.82 174.51 29.52 171.29 33.92 171.76 34.23"/><polygon class="cls-2" points="124.5 8.36 123.93 8.32 123.54 13.67 124.11 13.71 124.5 8.36"/><polygon class="cls-2" points="182.09 43.69 185.95 39.77 185.54 39.4 181.67 43.32 182.09 43.69"/><polygon class="cls-2" points="154.56 19.02 154.06 18.78 152.38 21.91 152.89 22.16 154.56 19.02"/><polygon class="cls-2" points="141.59 13.82 140.38 17.14 140.92 17.31 142.13 14 141.59 13.82"/><polygon class="cls-2" points="129.22 14.18 130 10.75 129.44 10.64 128.67 14.07 129.22 14.18"/><polygon class="cls-2" points="33.18 48.1 32.28 47.48 32.29 47.47 27.63 43.89 27.41 44.15 26.36 43.44 26.03 43.88 32.85 48.54 33.18 48.1"/><polygon class="cls-2" points="109.37 196.62 110.06 204.55 110.11 206.7 109.94 196.57 109.37 196.62"/><polygon class="cls-2" points="136.28 192.44 139.29 199.87 139.83 199.67 136.81 192.24 136.28 192.44"/><polygon class="cls-2" points="181.13 164.03 187.91 168.75 188.25 168.31 181.47 163.59 181.13 164.03"/><polygon class="cls-2" points="193.98 66.43 193.9 66.47 194.39 67.45 197.24 66.18 197.47 66.65 202.92 64.28 202.68 63.78 199.58 65.14 199.64 65.11 199.42 64.67 201.11 63.91 200.87 63.42 199.26 64.14 201.55 62.94 201.28 62.47 193.91 66.32 193.98 66.43"/><polygon class="cls-2" points="179.12 45.3 185.04 39.64 184.63 39.26 178.71 44.92 179.12 45.3"/><polygon class="cls-2" points="158.26 28.68 162.27 21.68 161.77 21.42 157.76 28.42 158.26 28.68"/><polygon class="cls-2" points="133.31 18.27 133.34 18.16 133.95 18.31 134.9 15.04 134.09 14.83 135.08 10.48 134.52 10.37 134.45 10.67 134.34 10.64 132.8 16.13 133.19 16.23 132.76 18.15 133.31 18.27"/><polygon class="cls-2" points="24.55 64.43 25.08 63.48 24.25 63.05 24.44 62.64 21.37 61.41 21.55 61.09 18.3 59.42 18.02 59.89 19.57 60.69 19.39 60.62 18.95 61.61 19.44 61.81 19.43 61.84 24.55 64.43"/><polygon class="cls-2" points="17.92 79.49 12.37 77.89 12.04 78.92 17.59 80.52 17.92 79.49"/><polygon class="cls-2" points="15.93 125.63 15.68 124.58 10.01 125.75 10.26 126.8 15.93 125.63"/><polygon class="cls-2" points="21.75 151.29 22.11 151.91 25.25 150.26 24.9 149.67 25.47 149.37 24.92 148.42 19.83 151.05 20.38 152 21.75 151.29"/><polygon class="cls-2" points="14.29 75.58 18.46 76.96 18.84 75.94 14.67 74.56 14.29 75.58"/><polygon class="cls-2" points="9.81 85.78 15.24 86.46 15.39 85.39 9.96 84.71 9.93 84.92 7.35 84.36 3.86 84.03 9.86 85.46 9.81 85.78"/><polygon class="cls-2" points="27.99 162.89 29.05 162 29.26 162.26 32.14 160.24 31.75 159.75 32.09 159.46 31.33 158.65 27.23 162.09 27.99 162.89"/><polygon class="cls-2" points="13.13 100.69 7.66 100.9 7.7 101.88 7.62 101.88 7.67 102.96 16.42 101.42 13.09 101.77 13.18 101.77 13.13 100.69"/><polygon class="cls-2" points="9.57 112.83 13.15 112.6 13.07 111.52 9.49 111.75 9.57 112.83"/><polygon class="cls-2" points="14.65 136.39 18.05 135.31 17.69 134.28 14.29 135.37 14.65 136.39"/><polygon class="cls-2" points="32.01 165.65 32.74 166.48 35.49 164.29 34.76 163.47 32.01 165.65"/><polygon class="cls-2" points="29.99 164.51 34.58 161.15 33.88 160.29 30.19 162.99 29.98 162.74 27.04 164.87 27.39 165.3 29.43 163.82 29.99 164.51"/><polygon class="cls-2" points="47.28 173.71 46.42 173 42.61 177.14 43.48 177.85 47.28 173.71"/><polygon class="cls-2" points="54.03 185.36 57.23 180.78 56.28 180.18 53.08 184.76 54.03 185.36"/><polygon class="cls-2" points="90.16 193.53 89.04 193.3 87.86 198.68 88.98 198.9 89.22 197.77 89.08 199.07 90.22 199.18 93.21 190.28 90.06 193.96 90.16 193.53"/><polygon class="cls-2" points="115.82 195.04 116.29 200.5 117.43 200.42 116.96 194.95 115.82 195.04"/><polygon class="cls-2" points="140.01 196.05 138.23 190.83 137.15 191.16 138.62 195.5 140.04 199.74 140.58 199.57 139.46 196.22 140.01 196.05"/><polygon class="cls-2" points="44.2 171.51 43.37 170.77 43.01 171.13 42.77 170.94 40.71 173.43 40.33 173.81 40.37 173.84 39.39 175.03 40.29 175.69 41.58 174.13 44.2 171.51"/><polygon class="cls-2" points="51.08 177.59 48.22 182.01 49.19 182.57 52.06 178.16 51.08 177.59"/><polygon class="cls-2" points="78.86 191.14 78.66 191.1 79 189.89 77.9 189.61 75.78 197.04 76.39 197.2 75.63 199.37 76.17 199.54 77.37 196.14 77.59 196.19 78.86 191.14"/><polygon class="cls-2" points="131.04 198.28 129.63 194.03 129.54 193.62 129.5 193.63 129.4 193.34 128.31 193.66 128.53 194.31 129.12 196.94 128.99 196.98 130.66 202.1 132.81 206.22 130.1 198.56 131.04 198.28"/><polygon class="cls-2" points="37.13 172.83 40.69 168.89 39.82 168.19 39.56 168.48 38.98 167.91 36.39 170.25 37.18 171.03 37.55 170.7 36.59 171.76 34.78 173.41 35.18 173.8 36.66 172.45 37.13 172.83"/><polygon class="cls-2" points="98.92 198.55 98.86 198.55 98.81 203.91 100.45 206.7 99.43 198.95 100.03 199.01 100.36 195.63 99.23 195.53 98.92 198.55"/><polygon class="cls-2" points="85.24 196.68 86.35 196.93 87.19 193.63 86.08 193.38 85.24 196.68"/><polygon class="cls-2" points="111.82 195.94 111.95 199.33 113.1 199.28 112.96 195.9 111.82 195.94"/><polygon class="cls-2" points="123.52 194.9 124.09 198.25 125.22 198.07 124.64 194.72 123.52 194.9"/><polygon class="cls-2" points="136.44 195.64 135.45 192.37 134.35 192.67 135.01 194.85 134.66 194.94 134.96 195.98 134.47 196.1 134.13 194.84 133.57 194.98 135.08 200.47 135.64 200.33 135.41 199.5 135.94 199.37 135.69 198.49 136.24 200.41 136.79 200.27 135.53 195.88 136.44 195.64"/><polygon class="cls-2" points="67.25 185.83 66.23 185.35 65.83 186.11 64.94 185.78 62.91 190.59 62.99 190.62 62.04 192.39 62.55 192.63 63.52 190.82 63.97 190.99 64.17 190.51 64.65 190.74 67.25 185.83"/><polygon class="cls-2" points="84.45 191.97 83.35 191.68 82.8 193.57 82.3 193.47 80.61 201.27 81.17 201.38 82.11 197.05 82.91 197.26 84.45 191.97"/><polygon class="cls-2" points="96.65 194.28 95.52 194.13 94.72 199.57 95.86 199.71 96.65 194.28"/><polygon class="cls-2" points="133.56 197.64 132.16 192.31 131.51 192.47 131.16 191.41 130.06 191.74 132.52 199.07 133.61 198.75 133.26 197.71 133.56 197.64"/><polygon class="cls-2" points="178.28 174.21 174.29 170.23 173.46 170.97 177.45 174.96 177.59 174.83 179.05 176.29 179.46 175.92 178.01 174.45 178.28 174.21"/><polygon class="cls-2" points="79.57 190.91 78.22 194.9 79.31 195.23 80.66 191.24 79.57 190.91"/><polygon class="cls-2" points="150.26 192.09 147.61 187.56 146.6 188.08 148.09 190.62 147.95 190.67 149.77 194.64 150.29 194.43 149.43 192.53 150.26 192.09"/><polygon class="cls-2" points="75.62 192.71 76.44 190.62 76.24 190.55 76.3 190.32 75.2 190.04 74.53 192.38 74.13 193.43 74.22 193.46 72.48 197.85 73.01 198.04 73.39 197.09 73.47 197.12 74.23 195.16 74.89 195.33 75.62 192.71"/><polygon class="cls-2" points="106.26 195.61 106.25 195.55 105.11 195.61 105.44 200.79 106.25 200.74 106.25 200.8 107.39 200.73 107.02 195.56 106.26 195.61"/><polygon class="cls-2" points="118.8 198.68 118.47 195.3 117.33 195.4 117.66 198.78 118.2 198.73 118.56 202.35 119.12 202.3 118.77 198.68 118.8 198.68"/><polygon class="cls-2" points="141.26 190.41 142.5 193.59 143.57 193.22 142.33 190.04 141.26 190.41"/><polygon class="cls-2" points="152.8 185.63 154.47 188.63 155.48 188.13 153.81 185.13 152.8 185.63"/><polygon class="cls-2" points="162.88 179.91 164.93 182.7 165.86 182.08 159.85 174.34 162.88 179.91"/><polygon class="cls-2" points="172.49 172.76 172.44 172.8 171.67 171.96 170.81 172.67 174.63 176.79 175.49 176.08 174.81 175.35 174.87 175.3 172.49 172.76"/><polygon class="cls-2" points="146.84 192.94 147.9 192.53 145.68 187.46 144.62 187.87 146.84 192.94"/><polygon class="cls-2" points="207.56 122.2 201.85 121.19 201.66 122.19 199.21 121.9 199.07 122.97 207.14 123.93 207.18 123.65 210.96 124.01 211.02 123.48 207.37 123.13 207.56 122.2"/><polygon class="cls-2" points="209.05 100.44 203.26 100.69 203.31 101.77 203.51 101.76 203.64 102.79 209.08 102.15 209.06 101.98 209.07 101.98 209.01 101.53 209.1 101.52 209.05 100.44"/><polygon class="cls-2" points="157.8 181.97 160.1 185.54 161.08 184.98 158.78 181.41 157.8 181.97"/><polygon class="cls-2" points="167.48 176.12 167.47 176.11 166.63 176.84 170.38 180.63 170.53 180.49 170.54 180.51 171.38 179.77 167.63 175.99 167.48 176.12"/><polygon class="cls-2" points="192.75 157.44 187.94 154.95 187.39 155.9 189.66 157.07 189.62 157.14 194.58 160.32 194.9 159.87 192.3 158.21 192.75 157.44"/><polygon class="cls-2" points="205.01 132.18 199.65 131.12 199.41 132.17 204.77 133.24 205.01 132.18"/><polygon class="cls-2" points="158.26 188.21 155.18 183.92 154.24 184.53 156.36 187.5 155.93 187.72 157.7 190.8 157.96 190.67 158.1 190.92 158.6 190.66 157.47 188.72 158.26 188.21"/><polygon class="cls-2" points="201.13 138.72 201.33 138.22 202.34 138.58 202.74 137.56 197.31 135.64 196.91 136.65 197.97 137.03 197.77 137.52 201.13 138.72"/><polygon class="cls-2" points="192.12 148.96 195.26 150.59 195.81 149.64 192.66 148.01 192.12 148.96"/><polygon class="cls-2" points="207.69 103.59 204.1 103.64 204.11 103.88 203.82 103.89 203.83 104.97 207.41 104.95 207.41 104.68 207.7 104.67 207.69 103.59"/><polygon class="cls-2" points="188.72 152.22 193.66 155.11 194.26 154.19 189.32 151.31 188.72 152.22"/><polygon class="cls-2" points="200.58 125.3 200.36 125.25 200.09 126.3 205.73 127.59 205.99 126.59 206.21 126.63 206.47 125.58 198.01 124.12 200.58 125.3"/><polygon class="cls-2" points="200.28 140.77 196.21 139.15 195.76 140.14 198.75 141.33 198.74 141.37 204.26 143.57 204.49 143.08 200.04 141.3 200.28 140.77"/><polygon class="cls-2" points="192.27 52.82 191.09 53.69 190.79 53.25 187.78 55.1 188.26 55.79 187.95 56.01 188.65 56.87 192.97 53.68 192.27 52.82"/><polygon class="cls-2" points="199.99 144.95 194.84 143.18 194.45 144.19 198.25 145.5 198.04 145.91 201.4 147.41 201.64 146.92 199.2 145.83 199.6 145.97 199.62 145.91 201.54 146.77 201.71 146.43 203.23 146.95 203.42 146.44 199.88 145.24 199.99 144.95"/><polygon class="cls-2" points="200.39 80.93 200.69 81.98 204.15 81.09 203.85 80.05 200.39 80.93"/><polygon class="cls-2" points="206.59 92.89 203.03 93.31 203.18 94.38 206.73 93.96 206.59 92.89"/><polygon class="cls-2" points="202.81 108.01 202.76 109.09 207.31 109.28 203.49 109.41 203.54 110.49 209.01 110.3 208.97 109.22 208.56 109.23 208.58 108.94 210.94 109.02 210.97 108.48 208.6 108.4 208.61 108.25 202.81 108.01"/><polygon class="cls-2" points="207.26 112.72 211.99 113.07 212.03 112.53 207.31 112.18 207.32 112.02 202.92 111.67 202.82 112.75 207.22 113.09 207.26 112.72"/><polygon class="cls-2" points="188.11 47.33 184.04 50.8 184.05 50.8 183.69 51.05 184.37 51.92 185.16 51.37 185.55 51.86 188.43 49.84 187.81 49.04 188.88 48.13 188.11 47.33"/><polygon class="cls-2" points="167.78 35.07 168.72 35.68 171.78 31.38 170.83 30.77 167.78 35.07"/><polygon class="cls-2" points="207.66 116.05 206 115.86 205.98 116 202.94 115.9 202.91 116.69 202.75 116.68 202.71 117.22 206.82 117.47 206.8 117.64 210.48 118.08 210.53 117.7 211.11 117.73 211.14 117.19 208.39 117.02 208.4 116.68 210.47 116.92 210.54 116.38 208.42 116.14 208.42 116.08 207.66 116.05"/><polygon class="cls-2" points="207 85.93 206.67 84.89 201.43 86.4 201.76 87.44 207 85.93"/><polygon class="cls-2" points="202.34 75.87 202.14 75.29 203.72 74.63 203.26 73.64 198.25 75.74 198.71 76.73 198.84 76.68 198.94 76.94 202.34 75.87"/><polygon class="cls-2" points="182.86 43.41 180.15 45.63 180.89 46.45 183.61 44.23 183.29 43.88 186.96 40.84 186.59 40.44 182.91 43.47 182.86 43.41"/><polygon class="cls-2" points="175.14 35.93 174.29 35.2 171.88 37.72 172.73 38.45 175.14 35.93"/><polygon class="cls-2" points="196.39 60.29 191.25 62.85 191.78 63.8 194.8 62.3 194.92 62.52 200.23 59.89 199.97 59.41 196.78 60.99 196.39 60.29"/><polygon class="cls-2" points="185.57 44.93 181.06 48.37 181.78 49.22 186.29 45.77 185.57 44.93"/><polygon class="cls-2" points="176.57 35.79 172.57 39.77 172.95 40.12 172.79 40.27 173.62 41.02 177.64 37.07 177.23 36.7 177.39 36.54 176.57 35.79"/><polygon class="cls-2" points="144.66 16.68 142.51 21.78 143.57 22.18 145.72 17.09 144.66 16.68"/><polygon class="cls-2" points="178.49 41.82 176.87 43.26 177.65 44.05 177.91 43.82 178.03 43.93 179.31 42.58 181.87 40.29 181.66 40.07 181.67 40.05 181.47 39.88 181.09 39.5 181.06 39.53 180.82 39.34 178.49 41.82"/><polygon class="cls-2" points="128.16 17.25 128.45 14.92 128.71 13.76 128.6 13.73 128.8 12.11 127.66 11.98 127.6 12.49 127.41 12.45 126.23 17.83 127.35 18.05 127.54 17.18 128.16 17.25"/><polygon class="cls-2" points="168.79 29.17 167.82 28.6 164.93 33.01 165.59 33.4 165.56 33.45 166.52 34.02 169.45 29.64 168.75 29.23 168.79 29.17"/><polygon class="cls-2" points="156.46 27.46 158.27 24.52 157.28 23.98 155.48 26.91 156.46 27.46"/><polygon class="cls-2" points="146.88 19.06 145.45 22.17 146.5 22.6 147.93 19.49 147.48 19.31 148.98 14.92 148.44 14.75 146.96 19.09 146.88 19.06"/><polygon class="cls-2" points="122.11 12.47 120.98 12.32 120.49 15.68 121.62 15.83 122.11 12.47"/><polygon class="cls-2" points="109.91 14.92 109.96 11.52 109.13 11.51 109.14 10.6 108.38 10.59 108.06 7.2 107.49 7.25 107.54 7.8 107.51 7.8 107.51 13.48 107.97 13.48 107.95 16.07 109.09 16.08 109.1 14.91 109.91 14.92"/><polygon class="cls-2" points="158.29 29.58 159.25 30.17 162.39 25.55 161.43 24.96 158.29 29.58"/><polygon class="cls-2" points="147.37 23.95 148.4 24.41 150.87 19.45 150.37 19.23 151.21 17.51 150.7 17.29 149.86 19 149.83 18.99 147.37 23.95"/><polygon class="cls-2" points="85.4 12.65 85.07 11.3 84.51 11.42 84.85 12.77 84.8 12.78 85.52 15.73 84.47 12.83 83.39 13.18 83.55 13.64 82.85 13.84 85.24 21.2 86.34 20.88 85.4 18.01 86.02 17.81 86.1 18.13 87.21 17.89 85.91 12.54 85.4 12.65"/><polygon class="cls-2" points="63.12 20.2 65.68 25.12 66.71 24.65 65.33 22 65.52 21.9 64.24 19.9 64.15 19.72 64.13 19.73 62.59 17.31 62.1 17.59 63.62 19.97 63.12 20.2"/><polygon class="cls-2" points="164.22 27.91 161.68 31.34 162.53 31.9 160.93 34.35 161.9 34.92 163.99 31.73 164.13 31.83 165.51 30 165.87 30.25 169.37 25.63 168.91 25.32 166.12 29 165.89 28.85 166.19 28.38 165.42 27.93 166.84 25.99 166.37 25.68 164.56 28.14 164.22 27.91"/><polygon class="cls-2" points="155.05 21.08 152.89 25.84 153.2 25.97 153.19 25.99 154.24 26.42 156.42 21.66 156.09 21.53 156.1 21.5 155.05 21.08"/><polygon class="cls-2" points="124.38 16.66 125.52 16.76 126 11.6 124.86 11.5 124.38 16.66"/><polygon class="cls-2" points="71.65 16.76 74.04 21.43 75.07 20.95 75 20.83 75.24 20.75 74 17.57 73.44 17.76 72.68 16.29 72.65 16.3 72.12 14.98 71.59 15.17 72.14 16.54 71.65 16.76"/><polygon class="cls-2" points="137.86 19.82 138.33 19.92 137.38 23.13 138.49 23.42 140.67 16.01 140.04 15.84 140.24 15.02 139.89 14.94 140.62 11.98 140.06 11.86 139.33 14.82 139.13 14.77 137.86 19.82"/><polygon class="cls-2" points="103.41 12.39 103.83 15.48 104.97 15.34 104.26 10.2 104.2 10.21 104.32 0 103.32 7.06 103.63 10.28 103.13 10.34 103.32 11.74 102.23 11.79 102.42 15.18 103.56 15.12 103.41 12.39"/><polygon class="cls-2" points="90.08 13.16 89.36 9.5 88.8 9.6 89.51 13.26 89.26 13.3 89.91 16.64 91.04 16.44 90.38 13.11 90.08 13.16"/><polygon class="cls-2" points="77.45 16.17 78.53 19.4 79.62 19.08 78.53 15.84 77.45 16.17"/><polygon class="cls-2" points="69.24 22.77 67.76 19.67 66.72 20.12 68.2 23.21 69.24 22.77"/><polygon class="cls-2" points="19.62 73.78 20.03 72.77 19.63 72.62 19.88 71.83 16.64 70.91 16.64 70.89 13.2 69.59 12.99 70.09 14.53 70.67 14.3 71.39 14.37 71.41 14.22 71.78 19.62 73.78"/><polygon class="cls-2" points="13.75 97.46 7.97 96.98 7.93 97.35 5.16 97.11 5.1 97.65 7.88 97.89 7.87 98.06 16.9 99.49 13.75 97.46"/><polygon class="cls-2" points="47.6 31.26 50.26 34.6 51.17 33.95 48.51 30.61 47.6 31.26"/><polygon class="cls-2" points="13.09 109.33 7.66 110.04 7.81 111.11 13.24 110.4 13.09 109.33"/><polygon class="cls-2" points="50.07 27.78 51.02 28.86 50.47 29.23 52.53 32.01 53.32 31.48 53.57 31.77 54.45 31.07 52.32 28.66 52.51 28.53 50.41 25.64 49.94 25.95 50.83 27.18 50.58 27.38 48.14 24.4 47.69 24.74 50.14 27.72 50.07 27.78"/><polygon class="cls-2" points="27.23 48.86 26.64 49.78 31.32 52.48 31.91 51.55 27.23 48.86"/><polygon class="cls-2" points="22.4 58.84 21.83 59.78 24.95 61.47 25.51 60.53 22.4 58.84"/><polygon class="cls-2" points="9.77 94.2 13.33 94.64 13.48 93.57 9.92 93.13 9.77 94.2"/><rect class="cls-2" x="10.26" y="103.39" width="1.08" height="3.59" transform="translate(-94.45 115.34) rotate(-89.64)"/><polygon class="cls-2" points="12.56 77.77 18.08 79.44 18.43 78.41 14.29 77.16 14.45 76.71 10.92 75.62 10.74 76.14 12.88 76.8 12.75 77.19 9.08 76.43 8.96 76.96 12.57 77.71 12.56 77.77"/><polygon class="cls-2" points="8.55 95.83 14.31 96.46 14.45 95.39 12.02 95.12 12.03 95.08 11.3 95.04 8.68 94.76 8.66 94.9 3.62 94.64 3.59 95.17 8.6 95.44 8.55 95.83"/><polygon class="cls-2" points="53.61 174.34 49.95 176.42 46.41 180.76 46.71 180.98 44.82 183.75 45.3 184.04 47.16 181.32 47.31 181.43 53.61 174.34"/><polygon class="cls-2" points="16.99 130.95 16.57 129.94 11.46 131.81 11.87 132.82 16.99 130.95"/><polygon class="cls-2" points="24.32 157.99 25.11 157.41 25.43 157.22 25.82 157.78 28.82 155.92 28.25 155.1 28.65 154.81 27.95 153.96 23.62 157.14 23.92 157.5 21.03 159.25 21.34 159.71 24.27 157.93 24.32 157.99"/><polygon class="cls-2" points="14.79 88.59 14.8 88.45 14.81 88.45 14.94 87.37 9.51 86.81 7.86 86.5 7.74 87.03 9.42 87.35 9.34 88.03 14.79 88.59"/><polygon class="cls-2" points="12.6 129.6 16.08 128.76 15.79 127.72 12.32 128.55 12.6 129.6"/><polygon class="cls-2" points="16.18 140.07 19.53 138.85 19.12 137.84 17.1 138.58 16.98 138.26 11.35 140.23 11.55 140.74 15.84 139.23 16.18 140.07"/><polygon class="cls-2" points="44.77 177.72 45.65 178.4 47.93 175.79 47.05 175.1 44.77 177.72"/><polygon class="cls-2" points="36.27 38.84 40.38 42.72 41.18 41.95 37.07 38.08 36.27 38.84"/><polygon class="cls-2" points="27.63 58 22.69 55.11 22.09 56.03 27.02 58.92 27.63 58"/><polygon class="cls-2" points="100.41 10.51 101.26 15.63 102.39 15.46 101.54 10.34 100.41 10.51"/><polygon class="cls-2" points="72.07 20.02 72.16 19.99 69.95 14.71 69.42 14.91 70.36 17.16 69.47 17.59 71.97 22.21 72.98 21.71 72.07 20.02"/><polygon class="cls-2" points="44.31 31.95 44.59 32.23 43.77 32.86 47.44 37.11 48.33 36.42 45.28 32.9 48.11 35.68 48.93 34.93 45.13 31.2 45.02 31.3 44.17 30.31 43.73 30.64 44.6 31.68 44.31 31.95"/><polygon class="cls-2" points="27.98 47.91 27.38 48.83 32.02 51.58 32.63 50.66 27.98 47.91"/><polygon class="cls-2" points="116.27 15.69 116.4 15.69 116.38 15.95 117.51 16.05 117.87 12.5 117.9 12.5 118.24 9.01 117.67 8.96 117.52 10.54 117.42 10.53 117.42 10.51 117.17 10.51 116.92 10.49 116.92 10.51 116.28 10.51 116.28 11.99 116.08 11.97 115.76 15.35 116.27 15.39 116.27 15.69"/><polygon class="cls-2" points="63.92 25.43 64.94 24.94 63.31 21.92 62.29 22.41 63.92 25.43"/><polygon class="cls-2" points="40.34 37.04 42.77 39.54 43.61 38.8 41.18 36.31 41.1 36.38 39.22 34.43 38.8 34.8 40.68 36.74 40.34 37.04"/><polygon class="cls-2" points="31.95 45.41 34.69 47.6 35.42 46.78 33.37 45.13 33.62 44.86 30.81 42.56 30.43 42.97 32.57 44.72 31.95 45.41"/><polygon class="cls-2" points="25.09 54.16 28.08 56.03 28.71 55.13 25.72 53.25 25.09 54.16"/><polygon class="cls-2" points="7.57 117.84 15.59 116.55 15.4 115.48 13.19 115.84 13.11 115.14 11.19 115.34 13.62 114.9 13.41 113.84 8.03 114.8 8.24 115.86 9.56 115.63 9.65 116.41 7.38 116.78 7.57 117.84"/><polygon class="cls-2" points="33.01 164.53 35.23 162.82 35.13 162.7 35.95 162 35.18 161.2 32.27 163.7 30.01 165.44 30.11 165.56 29.16 166.38 29.93 167.18 33.01 164.53"/><polygon class="cls-2" points="54.38 178.3 50.15 184.87 51.12 185.44 55.36 178.87 54.38 178.3"/><polygon class="cls-2" points="103.82 194.21 104 201.91 105.14 201.88 104.96 194.19 103.82 194.21"/><polygon class="cls-2" points="198.39 148.63 198.1 148.51 198.51 147.76 193.34 145.27 192.82 146.23 194.35 146.97 190.93 145.56 190.47 146.56 195.96 148.81 195.85 149.05 201.09 151.09 201.31 150.6 198.07 149.33 198.39 148.63"/><polygon class="cls-2" points="208.13 96.85 208.32 96.84 208.32 96.82 208.35 96.82 208.28 96.39 208.22 95.76 208.17 95.76 208.17 95.75 207.99 95.78 202.44 96.25 202.47 96.62 200.13 96.98 200.32 98.05 208.13 96.85"/><polygon class="cls-2" points="200.96 69.51 193.62 72.82 194.11 73.8 201.46 70.48 200.96 69.51"/><polygon class="cls-2" points="63.75 33.32 61.8 30.04 57.32 23.61 56.77 23.95 54.77 21.35 54.3 21.67 57.47 25.79 63.75 33.32"/><polygon class="cls-2" points="34.02 41.19 34.25 41.38 34.18 41.45 38.41 45.2 38.69 44.93 40.23 46.17 43.47 47.33 34.76 40.37 34.71 40.43 33.63 39.47 33.24 39.87 34.34 40.84 34.02 41.19"/><path class="cls-2" d="M107.68,121.62a1.59,1.59,0,0,1-1.59-1.62,1.58,1.58,0,0,1,1.59-1.6,1.6,1.6,0,0,1,1.63,1.6A1.62,1.62,0,0,1,107.68,121.62Z"/><path class="cls-2" d="M107.68,128.67a1.59,1.59,0,0,1-1.59-1.62,1.58,1.58,0,0,1,1.59-1.6,1.6,1.6,0,0,1,1.63,1.6A1.62,1.62,0,0,1,107.68,128.67Z"/><path class="cls-2" d="M107.68,135.72a1.6,1.6,0,0,1-1.59-1.63,1.58,1.58,0,0,1,1.59-1.59,1.6,1.6,0,0,1,1.63,1.59A1.63,1.63,0,0,1,107.68,135.72Z"/><text class="cls-3" transform="translate(107.7 71.47)">感謝</text></g></g></svg>