<svg xmlns="http://www.w3.org/2000/svg" viewBox="0 0 695.38 128.03"><defs><style>.cls-1{fill:#dd550a;}.cls-2{fill:#fff;}</style></defs><g id="Layer_2" data-name="Layer 2"><g id="design"><polygon class="cls-1" points="6 6 694.38 6 694.38 115.91 6 127.02 6 6"/><path class="cls-1" d="M693.38,7V114.93L7,126V7H693.38m2-2H5V128l2,0,686.38-11.07,2,0V5Z"/><polygon class="cls-2" points="1 1 689.38 1 689.38 110.91 1 122.02 1 1"/><path class="cls-1" d="M688.38,2V109.93L2,121V2H688.38m2-2H0V123l2,0,686.38-11.07,2,0V0Z"/><path d="M113.41,61.89c3.62-3.24,5.76-5.74,5.76-7.8a1.91,1.91,0,0,0-2-2.16,3.46,3.46,0,0,0-2.45,1.37l-1.44-1.44a5.44,5.44,0,0,1,4.24-2,3.9,3.9,0,0,1,4.19,4.1c0,2.41-2,5-4.43,7.38.67-.07,1.55-.14,2.16-.14h2.9v2.23h-8.93Z"/><path d="M125.83,56.71c0-4.61,1.8-6.86,4.52-6.86s4.5,2.26,4.5,6.86-1.8,7-4.5,7S125.83,61.3,125.83,56.71Zm6.52,0c0-3.73-.87-4.81-2-4.81s-2,1.08-2,4.81.87,4.89,2,4.89S132.35,60.45,132.35,56.71Z"/><path d="M138.21,61.89c3.62-3.24,5.77-5.74,5.77-7.8a1.91,1.91,0,0,0-2-2.16,3.42,3.42,0,0,0-2.45,1.37l-1.44-1.44a5.41,5.41,0,0,1,4.23-2,3.9,3.9,0,0,1,4.19,4.1c0,2.41-2,5-4.43,7.38.67-.07,1.55-.14,2.17-.14h2.89v2.23h-8.93Z"/><path d="M151.32,61.28h2.86V52.85h-2.41V51.21a8.58,8.58,0,0,0,3.09-1.11h2V61.28h2.5v2.14h-8Z"/><path d="M167,48.93h1.76L164.26,66.7h-1.77Z"/><path d="M171.7,61.11l1.8-2.42a6.09,6.09,0,0,0,4.29,2c2,0,3.27-1,3.27-2.68,0-1.9-1.12-3.07-5.3-3.07V52.16c3.53,0,4.68-1.22,4.68-2.94a2.3,2.3,0,0,0-2.58-2.41,5.48,5.48,0,0,0-3.64,1.71l-1.95-2.34a8.57,8.57,0,0,1,5.78-2.36c3.71,0,6.24,1.82,6.24,5.12a4.55,4.55,0,0,1-3.23,4.39v.13a4.81,4.81,0,0,1,3.85,4.74c0,3.53-3.09,5.59-6.76,5.59A8.2,8.2,0,0,1,171.7,61.11Z"/><path d="M195.75,42.49h2.55l-6.45,25.66H189.3Z"/><path d="M202.3,61.11l1.8-2.42a6.1,6.1,0,0,0,4.29,2c2,0,3.27-1,3.27-2.68,0-1.9-1.11-3.07-5.3-3.07V52.16c3.54,0,4.68-1.22,4.68-2.94a2.3,2.3,0,0,0-2.57-2.41,5.44,5.44,0,0,0-3.64,1.71l-2-2.34a8.55,8.55,0,0,1,5.77-2.36c3.72,0,6.24,1.82,6.24,5.12a4.55,4.55,0,0,1-3.23,4.39v.13a4.81,4.81,0,0,1,3.85,4.74c0,3.53-3.09,5.59-6.76,5.59A8.21,8.21,0,0,1,202.3,61.11Z"/><path d="M220.69,53.72c0-6.65,2.6-9.9,6.52-9.9s6.5,3.27,6.5,9.9-2.6,10.07-6.5,10.07S220.69,60.35,220.69,53.72Zm9.41,0c0-5.38-1.25-6.94-2.89-6.94s-2.91,1.56-2.91,6.94,1.25,7.08,2.91,7.08S230.1,59.13,230.1,53.72Z"/><path d="M238.64,59a13.5,13.5,0,0,1,2.09-7.25l1.29.55a14,14,0,0,0,0,13.4l-1.29.55A13.48,13.48,0,0,1,238.64,59Z"/><path d="M252.68,56.11c0,2.13,1.31,5.35,5.67,7a7.25,7.25,0,0,0-1.16,1.57,9.51,9.51,0,0,1-5.42-5.56,9.09,9.09,0,0,1-5.2,5.56,8.14,8.14,0,0,0-1.18-1.43c4.22-1.61,5.49-5,5.49-7.09V51.75h1.8ZM249,54.69c-.24,1.76-.65,3.42-1.85,4.42l-1.52-.94a5.74,5.74,0,0,0,1.68-3.84Zm8.71.31a34,34,0,0,1-2.26,3.81L254,58.2a21.06,21.06,0,0,0,1.87-3.88Z"/><path d="M261.68,65.7a14.05,14.05,0,0,0,0-13.4l1.27-.55a13.56,13.56,0,0,1,0,14.5Z"/><path d="M422.65,82a11.21,11.21,0,0,1,1.76-6.08l.69.31a11.58,11.58,0,0,0,0,11.54l-.69.32A11.27,11.27,0,0,1,422.65,82Z"/><path d="M429.38,80.22v6.44h-.87V76.21h4.34v4Zm0-3.32v1H432v-1ZM432,79.54v-1h-2.63v1Zm3,4.22v2.67h-.79V83.76h-1.7a3.86,3.86,0,0,1-1.61,2.83,2.75,2.75,0,0,0-.59-.53,3,3,0,0,0,1.42-2.3h-1.5V83h1.52V81.71h-1.29V81h5.91v.73H435V83h1.64v.76Zm-.79-.76V81.71h-1.68V83Zm4.16,2.5c0,.53-.12.81-.46,1a5.71,5.71,0,0,1-1.86.16,3.19,3.19,0,0,0-.29-.89c.66,0,1.31,0,1.49,0s.25-.07.25-.26V80.23H433.9v-4h4.45Zm-3.59-8.6v1h2.72v-1Zm2.72,2.65v-1h-2.72v1Z"/><path d="M442,80.92a9.13,9.13,0,0,0-2.12-1.25l.5-.66a8.44,8.44,0,0,1,2.12,1.16Zm.93,1.69c-.56,1.27-1.32,2.77-1.94,3.88l-.78-.55a33.8,33.8,0,0,0,2-3.87Zm-.36-4.84a9,9,0,0,0-2.09-1.32l.49-.66a9.21,9.21,0,0,1,2.12,1.26Zm3.67,7.12a11,11,0,0,1-2.89,1.79,4.47,4.47,0,0,0-.66-.64,9.28,9.28,0,0,0,2.7-1.47Zm-2.15-6.12h-.81V76.85h3.19V75.71h.9v1.14h3.31v1.92h-.86V77.59h-5.73Zm2.41,1.52V79.4h-2.31v-.73h5.59v.73h-2.43v.89h2.77v4.08h-6.29V80.29ZM444.64,82h1.88V81h-1.88Zm0,1.67h1.88v-1h-1.88ZM447.37,81v1h1.94V81Zm1.94,1.66h-1.94v1h1.94Zm-1,1.85a21.23,21.23,0,0,1,2.52,1.63l-.7.54A20.45,20.45,0,0,0,447.66,85Z"/><path d="M454.92,87.78a11.58,11.58,0,0,0,0-11.54l.67-.31a11.29,11.29,0,0,1,0,12.17Z"/><path d="M309.65,82a11.21,11.21,0,0,1,1.76-6.08l.69.31a11.58,11.58,0,0,0,0,11.54l-.69.32A11.27,11.27,0,0,1,309.65,82Z"/><path d="M316.38,80.22v6.44h-.87V76.21h4.34v4Zm0-3.32v1H319v-1ZM319,79.54v-1h-2.63v1Zm3,4.22v2.67h-.79V83.76h-1.7a3.86,3.86,0,0,1-1.61,2.83,2.75,2.75,0,0,0-.59-.53,3,3,0,0,0,1.42-2.3h-1.5V83h1.52V81.71h-1.29V81h5.91v.73H322V83h1.63v.76Zm-.79-.76V81.71h-1.68V83Zm4.16,2.5c0,.53-.12.81-.46,1a5.71,5.71,0,0,1-1.86.16,3.19,3.19,0,0,0-.29-.89c.66,0,1.31,0,1.49,0s.25-.07.25-.26V80.23H320.9v-4h4.45Zm-3.59-8.6v1h2.72v-1Zm2.72,2.65v-1h-2.72v1Z"/><path d="M330.72,82.74c-1.21.61-2.52,1.25-3.52,1.73l-.35-.88c.45-.19,1-.43,1.63-.71V79.13h-1.4v-.84h1.4v-2.5h.83v2.5h1.29v.84h-1.29V82.5l1.22-.55ZM333,81.36a6.48,6.48,0,0,1-.51.84h5.15s0,.24,0,.36c-.18,2.47-.37,3.41-.71,3.75a.93.93,0,0,1-.67.3,9.62,9.62,0,0,1-1.19,0,1.5,1.5,0,0,0-.2-.72c.44,0,.84.05,1,.05s.27,0,.36-.13.38-1,.54-2.86h-.94a8.29,8.29,0,0,1-2.45,3.76,2.69,2.69,0,0,0-.63-.52A7,7,0,0,0,335,82.94h-1.17A9,9,0,0,1,331,86.18a2.23,2.23,0,0,0-.59-.55,7.89,7.89,0,0,0,2.7-2.69h-1.21a8.24,8.24,0,0,1-1.56,1.37,4.09,4.09,0,0,0-.61-.55,6.81,6.81,0,0,0,2.37-2.4h-1.68V80.6h7.51v.76ZM337,79.93h-5.48V76.06H337Zm-.83-3.2h-3.84v1h3.84Zm0,1.57h-3.84v1h3.84Z"/><path d="M341.92,87.78a11.65,11.65,0,0,0,0-11.54l.67-.31a11.29,11.29,0,0,1,0,12.17Z"/><path d="M506.65,82a11.21,11.21,0,0,1,1.76-6.08l.69.31a11.58,11.58,0,0,0,0,11.54l-.69.32A11.27,11.27,0,0,1,506.65,82Z"/><path d="M513.3,82.64a10.84,10.84,0,0,1-.85,3,3.24,3.24,0,0,0-.7-.34,8.47,8.47,0,0,0,.78-2.85Zm8.79-5.42a9.22,9.22,0,0,1-2,3A9.22,9.22,0,0,0,523,82a4.14,4.14,0,0,0-.58.73,9.62,9.62,0,0,1-2.91-1.94,10.7,10.7,0,0,1-2.85,1.79,4.52,4.52,0,0,0-.38-.53l-.56.25c0-.18-.13-.41-.21-.64l-.93.06v5h-.8V81.73l-1.88.11-.07-.79.79,0c.25-.32.53-.71.79-1.1a10.53,10.53,0,0,0-1.54-1.7l.45-.58.35.31a14.67,14.67,0,0,0,1.08-2.23l.78.31a27.21,27.21,0,0,1-1.36,2.41,9.25,9.25,0,0,1,.7.78,23.61,23.61,0,0,0,1.21-2.14l.76.33c-.69,1.14-1.6,2.54-2.39,3.58l1.76-.08c-.17-.37-.36-.74-.55-1.08l.62-.25a9.55,9.55,0,0,1,1.05,2.17A10.06,10.06,0,0,0,519,80.16a10.9,10.9,0,0,1-1.27-1.7,10.77,10.77,0,0,1-1.26,1.27,2.45,2.45,0,0,0-.62-.58,8.6,8.6,0,0,0,2.6-3.45l.87.15a10.51,10.51,0,0,1-.56,1.11h2.68l.16,0Zm-6.44,5.2a11.24,11.24,0,0,1,.77,2.18l-.69.23a12,12,0,0,0-.73-2.2Zm1.74,1.76A25.42,25.42,0,0,1,522,86l-.53.71a22.12,22.12,0,0,0-4.62-1.9ZM518.7,82a12.8,12.8,0,0,1,2.43,1.33l-.55.61a12.35,12.35,0,0,0-2.42-1.39Zm-.53-4.2a9.1,9.1,0,0,0,1.37,1.83,8,8,0,0,0,1.4-1.9h-2.71Z"/><path d="M534,77.08a16.78,16.78,0,0,1-4.15,3.46v5c0,.6-.17.87-.62,1a11.42,11.42,0,0,1-2.47.13,3.33,3.33,0,0,0-.36-.89c1,0,1.92,0,2.18,0s.35-.09.35-.3V79.76h.58a14.46,14.46,0,0,0,2.8-2.25h-7.72v-.88h8.52l.19-.06Z"/><path d="M546.8,80.42a16.74,16.74,0,0,1-2.15,2.92l-.72-.46a13,13,0,0,0,1.4-1.87h-3.4v4.52c0,.55-.15.81-.56.94a8.82,8.82,0,0,1-2.16.14,5.12,5.12,0,0,0-.34-.86c.83,0,1.63,0,1.87,0s.29-.06.29-.24V81h-4.94v-.85h6.21c-1-.52-2.39-1.14-3.45-1.59l.45-.66c.66.26,1.44.58,2.17.91a13.64,13.64,0,0,0,2.28-1.65h-6.54v-.82h7.41l.2,0,.65.49a19,19,0,0,1-3.12,2.44c.49.21,1,.44,1.29.62l-.2.31h2.47l.18-.07Z"/><path d="M553.84,85.46a10.8,10.8,0,0,0,1.95.15c.43,0,2.49,0,3.07,0a2.66,2.66,0,0,0-.34.9h-2.78c-2.48,0-4.27-.43-5.36-2.46a6.53,6.53,0,0,1-1.79,2.68,4,4,0,0,0-.73-.6c1.33-1,2-2.74,2.24-4.88l.91.08a14.76,14.76,0,0,1-.28,1.6,3.57,3.57,0,0,0,2.2,2.31v-5h-3v-.84h6.94v.84h-3.06v2h3.55V83h-3.55Zm-4.54-5.79h-.88V77.08h4.5V75.71h.92v1.37h4.54v2.59h-.91V77.92H549.3Z"/><path d="M562.92,87.78a11.58,11.58,0,0,0,0-11.54l.67-.31a11.29,11.29,0,0,1,0,12.17Z"/><path d="M291.31,61h4.14V48.81H292V46.44a12.35,12.35,0,0,0,4.48-1.61h2.83V61h3.61v3.09H291.31Z"/><path d="M309.23,61h4.13V48.81h-3.48V46.44a12.3,12.3,0,0,0,4.47-1.61h2.83V61h3.62v3.09H309.23Z"/><path d="M326.85,52.09a2.38,2.38,0,1,1,2.37,2.47A2.38,2.38,0,0,1,326.85,52.09Zm0,9.85a2.38,2.38,0,1,1,2.37,2.5A2.4,2.4,0,0,1,326.85,61.94Z"/><path d="M336.73,61.76l1.8-2.42a6.1,6.1,0,0,0,4.29,2c1.95,0,3.27-1,3.27-2.68,0-1.9-1.11-3.07-5.3-3.07V52.81c3.54,0,4.68-1.22,4.68-2.93a2.29,2.29,0,0,0-2.57-2.42,5.44,5.44,0,0,0-3.64,1.71l-1.95-2.34a8.55,8.55,0,0,1,5.77-2.36c3.72,0,6.24,1.82,6.24,5.12A4.55,4.55,0,0,1,346.09,54v.13a4.81,4.81,0,0,1,3.85,4.74c0,3.53-3.09,5.59-6.76,5.59A8.21,8.21,0,0,1,336.73,61.76Z"/><path d="M355.12,54.37c0-6.65,2.6-9.9,6.52-9.9s6.5,3.27,6.5,9.9-2.6,10.07-6.5,10.07S355.12,61,355.12,54.37Zm9.41,0c0-5.38-1.25-6.94-2.89-6.94s-2.91,1.56-2.91,6.94,1.25,7.08,2.91,7.08S364.53,59.78,364.53,54.37Z"/><path d="M387.2,43.14h2.55L383.3,68.8h-2.55Z"/><path d="M403.71,61h4.13V48.81h-3.48V46.44a12.3,12.3,0,0,0,4.47-1.61h2.83V61h3.62v3.09H403.71Z"/><path d="M420.61,61.86c5.22-4.68,8.32-8.29,8.32-11.26,0-2-1.07-3.12-2.89-3.12a5,5,0,0,0-3.53,2l-2.08-2.08a7.79,7.79,0,0,1,6.11-2.91c3.64,0,6,2.34,6,5.93s-2.88,7.22-6.39,10.66a31,31,0,0,1,3.12-.21h4.18v3.22H420.61Z"/><path d="M439.25,52.09a2.38,2.38,0,1,1,2.37,2.47A2.38,2.38,0,0,1,439.25,52.09Zm0,9.85a2.38,2.38,0,1,1,2.37,2.5A2.39,2.39,0,0,1,439.25,61.94Z"/><path d="M449.13,61.76l1.79-2.42a6.12,6.12,0,0,0,4.29,2c2,0,3.28-1,3.28-2.68,0-1.9-1.12-3.07-5.3-3.07V52.81c3.53,0,4.68-1.22,4.68-2.93a2.3,2.3,0,0,0-2.58-2.42,5.44,5.44,0,0,0-3.64,1.71l-1.95-2.34a8.57,8.57,0,0,1,5.77-2.36c3.72,0,6.24,1.82,6.24,5.12A4.55,4.55,0,0,1,458.49,54v.13a4.82,4.82,0,0,1,3.85,4.74c0,3.53-3.1,5.59-6.76,5.59A8.2,8.2,0,0,1,449.13,61.76Z"/><path d="M467.51,54.37c0-6.65,2.6-9.9,6.53-9.9s6.5,3.27,6.5,9.9-2.6,10.07-6.5,10.07S467.51,61,467.51,54.37Zm9.41,0c0-5.38-1.24-6.94-2.88-6.94s-2.92,1.56-2.92,6.94,1.25,7.08,2.92,7.08S476.92,59.78,476.92,54.37Z"/><path d="M485.55,55.26h7.1V58h-7.1Z"/><path d="M498.63,61h4.14V48.81h-3.49V46.44a12.23,12.23,0,0,0,4.47-1.61h2.84V61h3.61v3.09H498.63Z"/><path d="M526.35,48.94a4.19,4.19,0,0,0-3-1.4c-2.21,0-4,1.66-4.18,6.47a5.6,5.6,0,0,1,3.95-2c3.22,0,5.51,1.92,5.51,6,0,4-2.75,6.43-6,6.43-3.67,0-6.92-2.94-6.92-9.73,0-7.17,3.57-10.24,7.44-10.24a7.16,7.16,0,0,1,5.23,2.18ZM525.15,58c0-2.28-1.06-3.35-2.73-3.35a3.8,3.8,0,0,0-3.14,2c.36,3.51,1.66,4.86,3.27,4.86C524,61.55,525.15,60.35,525.15,58Z"/><path d="M534.17,52.09a2.38,2.38,0,1,1,2.37,2.47A2.38,2.38,0,0,1,534.17,52.09Zm0,9.85a2.38,2.38,0,1,1,2.37,2.5A2.4,2.4,0,0,1,534.17,61.94Z"/><path d="M544.05,61.76l1.8-2.42a6.1,6.1,0,0,0,4.29,2c2,0,3.27-1,3.27-2.68,0-1.9-1.11-3.07-5.3-3.07V52.81c3.54,0,4.68-1.22,4.68-2.93a2.3,2.3,0,0,0-2.57-2.42,5.44,5.44,0,0,0-3.64,1.71l-2-2.34a8.55,8.55,0,0,1,5.77-2.36c3.72,0,6.24,1.82,6.24,5.12A4.55,4.55,0,0,1,553.41,54v.13a4.81,4.81,0,0,1,3.85,4.74c0,3.53-3.09,5.59-6.76,5.59A8.21,8.21,0,0,1,544.05,61.76Z"/><path d="M562.44,54.37c0-6.65,2.6-9.9,6.52-9.9s6.5,3.27,6.5,9.9-2.6,10.07-6.5,10.07S562.44,61,562.44,54.37Zm9.41,0c0-5.38-1.25-6.94-2.89-6.94s-2.91,1.56-2.91,6.94,1.25,7.08,2.91,7.08S571.85,59.78,571.85,54.37Z"/></g></g></svg>