<svg xmlns="http://www.w3.org/2000/svg" viewBox="0 0 559 194.4"><defs><style>.cls-1{fill:#dd550a;}.cls-2{fill:#fff;}</style></defs><g id="Layer_2" data-name="Layer 2"><g id="Design"><polygon class="cls-1" points="6 6 558 6 558 176.06 6 193.37 6 6"/><path class="cls-1" d="M557,7V175.09L7,192.33V7H557m2-2H5V194.4l2.06-.07,181.38-5.68,368.62-11.56L559,177V5Z"/><polygon class="cls-2" points="1 1 553 1 553 171.06 1 188.37 1 1"/><path class="cls-1" d="M552,2V170.09L2,187.33V2H552m2-2H0V189.4l2.06-.07,181.38-5.68,368.62-11.56L554,172V0Z"/><path d="M177,53.89c4.42-4,7-7,7-9.53a2.33,2.33,0,0,0-2.44-2.64,4.21,4.21,0,0,0-3,1.67l-1.76-1.76A6.56,6.56,0,0,1,182,39.17a4.77,4.77,0,0,1,5.12,5c0,3-2.44,6.12-5.41,9,.81-.08,1.89-.17,2.64-.17h3.54v2.73H177Z"/><path d="M192.16,47.55c0-5.63,2.2-8.38,5.52-8.38s5.5,2.77,5.5,8.38-2.2,8.51-5.5,8.51S192.16,53.16,192.16,47.55Zm8,0c0-4.56-1.06-5.88-2.45-5.88s-2.46,1.32-2.46,5.88,1.05,6,2.46,6S200.13,52.13,200.13,47.55Z"/><path d="M207.3,53.89c4.42-4,7-7,7-9.53a2.34,2.34,0,0,0-2.45-2.64,4.24,4.24,0,0,0-3,1.67l-1.76-1.76a6.59,6.59,0,0,1,5.17-2.46,4.78,4.78,0,0,1,5.13,5c0,3-2.44,6.12-5.41,9,.81-.08,1.89-.17,2.64-.17h3.54v2.73H207.3Z"/><path d="M223.31,53.14h3.5V42.84h-2.95v-2a10.62,10.62,0,0,0,3.79-1.37H230V53.14h3.06v2.62h-9.79Z"/><path d="M242.43,38h2.16l-5.46,21.72H237Z"/><path d="M248.13,53.26l1.93-2.6a6.61,6.61,0,0,0,4.62,2.13c2.1,0,3.53-1,3.53-2.89,0-2-1.2-3.3-5.71-3.3v-3c3.81,0,5-1.31,5-3.16,0-1.63-1-2.58-2.77-2.61a5.91,5.91,0,0,0-3.92,1.85l-2.1-2.52A9.18,9.18,0,0,1,255,34.64c4,0,6.72,2,6.72,5.52a4.91,4.91,0,0,1-3.47,4.73V45a5.18,5.18,0,0,1,4.14,5.1c0,3.81-3.33,6-7.28,6A8.79,8.79,0,0,1,248.13,53.26Z"/><path d="M274,33.22h2.74l-6.94,27.63h-2.75Z"/><path d="M281.08,53.26l1.94-2.6a6.59,6.59,0,0,0,4.62,2.13c2.1,0,3.53-1,3.53-2.89,0-2-1.21-3.3-5.72-3.3v-3c3.81,0,5-1.31,5-3.16,0-1.63-1-2.58-2.77-2.61a5.93,5.93,0,0,0-3.92,1.85l-2.1-2.52a9.18,9.18,0,0,1,6.22-2.55c4,0,6.72,2,6.72,5.52a4.91,4.91,0,0,1-3.47,4.73V45a5.18,5.18,0,0,1,4.14,5.1c0,3.81-3.33,6-7.28,6A8.8,8.8,0,0,1,281.08,53.26Z"/><path d="M300.88,45.31c0-7.17,2.8-10.67,7-10.67s7,3.53,7,10.67-2.8,10.84-7,10.84S300.88,52.45,300.88,45.31Zm10.14,0c0-5.79-1.35-7.47-3.11-7.47s-3.14,1.68-3.14,7.47,1.35,7.62,3.14,7.62S311,51.14,311,45.31Z"/><path d="M320.81,48.8a21,21,0,0,1,3.28-11.37l2,.85a22,22,0,0,0,0,21.06l-2,.86A21.06,21.06,0,0,1,320.81,48.8Z"/><path d="M345.06,44.27c0,3.34,2.07,8.4,8.91,10.94a11.25,11.25,0,0,0-1.83,2.46,15,15,0,0,1-8.51-8.74,14.28,14.28,0,0,1-8.17,8.74,12.71,12.71,0,0,0-1.85-2.24c6.63-2.53,8.63-7.86,8.63-11.14V37.43h2.82Zm-5.72-2.22c-.38,2.75-1,5.37-2.91,6.93l-2.38-1.48c1.61-1.36,2.34-3.54,2.65-6Zm13.68.48a52.19,52.19,0,0,1-3.54,6l-2.29-1a32.76,32.76,0,0,0,2.95-6.1Z"/><path d="M361.4,59.34a22,22,0,0,0,0-21.06l2-.85a21.29,21.29,0,0,1,0,22.77Z"/><path d="M257.84,133.85a18.68,18.68,0,0,1,2.94-10.14l1.14.52a19.36,19.36,0,0,0,0,19.24l-1.14.54A18.75,18.75,0,0,1,257.84,133.85Z"/><path d="M269.06,130.87v10.74H267.6V124.19h7.24v6.68Zm0-5.54V127h4.38v-1.62Zm4.38,4.4V128h-4.38v1.72Zm5,7v4.46h-1.32v-4.46h-2.84a6.41,6.41,0,0,1-2.68,4.72,5.21,5.21,0,0,0-1-.88,5,5,0,0,0,2.36-3.84h-2.5v-1.26H273v-2.16h-2.16v-1.22h9.86v1.22H278.4v2.16h2.72v1.26Zm-1.32-1.26v-2.16h-2.8v2.16Zm6.94,4.16c0,.88-.2,1.36-.78,1.62a9.29,9.29,0,0,1-3.1.26,4.91,4.91,0,0,0-.48-1.48c1.1,0,2.18,0,2.48,0s.42-.12.42-.44v-8.76h-6v-6.7H284Zm-6-14.34V127h4.54v-1.62Zm4.54,4.42V128H278v1.74Z"/><path d="M290.12,132a15.31,15.31,0,0,0-3.54-2.08l.84-1.1a14.36,14.36,0,0,1,3.54,1.94Zm1.56,2.82c-.94,2.12-2.2,4.62-3.24,6.48l-1.3-.92a58.79,58.79,0,0,0,3.4-6.46Zm-.6-8.06a14.82,14.82,0,0,0-3.5-2.2l.82-1.1a14.78,14.78,0,0,1,3.54,2.1Zm6.12,11.86a19.16,19.16,0,0,1-4.82,3,8,8,0,0,0-1.1-1.08,15.56,15.56,0,0,0,4.5-2.44Zm-3.6-10.2h-1.34v-3.2h5.32v-1.9h1.5v1.9h5.52v3.2h-1.44v-2H293.6Zm4,2.54v-1.48h-3.84v-1.22h9.32v1.22H299V131h4.62v6.8H293.18V131Zm-3.12,2.84h3.12v-1.68H294.5Zm0,2.8h3.12v-1.7H294.5Zm4.54-4.48v1.68h3.24v-1.68Zm3.24,2.78H299v1.7h3.24ZM300.64,138a32.56,32.56,0,0,1,4.2,2.72l-1.16.9a33,33,0,0,0-4.16-2.86Z"/><path d="M311.62,143.47a19.36,19.36,0,0,0,0-19.24l1.12-.52a18.88,18.88,0,0,1,0,20.3Z"/><path d="M135.23,133.85a18.68,18.68,0,0,1,2.94-10.14l1.14.52a19.36,19.36,0,0,0,0,19.24l-1.14.54A18.75,18.75,0,0,1,135.23,133.85Z"/><path d="M146.45,130.87v10.74H145V124.19h7.24v6.68Zm0-5.54V127h4.38v-1.62Zm4.38,4.4V128h-4.38v1.72Zm5,7v4.46h-1.32v-4.46h-2.84a6.41,6.41,0,0,1-2.68,4.72,5.21,5.21,0,0,0-1-.88,5,5,0,0,0,2.36-3.84h-2.5v-1.26h2.54v-2.16h-2.16v-1.22h9.86v1.22h-2.28v2.16h2.72v1.26Zm-1.32-1.26v-2.16h-2.8v2.16Zm6.94,4.16c0,.88-.2,1.36-.78,1.62a9.29,9.29,0,0,1-3.1.26,4.91,4.91,0,0,0-.48-1.48c1.1,0,2.18,0,2.48,0s.42-.12.42-.44v-8.76h-6v-6.7h7.42Zm-6-14.34V127H160v-1.62Zm4.54,4.42V128h-4.54v1.74Z"/><path d="M170.35,135.07c-2,1-4.2,2.08-5.88,2.88l-.58-1.46c.76-.32,1.7-.72,2.72-1.18v-6.26h-2.34v-1.4h2.34v-4.16H168v4.16h2.16v1.4H168v5.62l2-.92Zm3.72-2.3a12.5,12.5,0,0,1-.86,1.4h8.6a5.71,5.71,0,0,1-.06.6c-.3,4.12-.62,5.68-1.18,6.26a1.62,1.62,0,0,1-1.12.5c-.44,0-1.18,0-2,0a2.52,2.52,0,0,0-.34-1.2c.74.06,1.4.08,1.7.08s.46,0,.6-.22c.34-.36.64-1.62.9-4.76h-1.56a13.91,13.91,0,0,1-4.08,6.26,4.53,4.53,0,0,0-1.06-.86,11.76,11.76,0,0,0,3.9-5.4h-1.94a15.1,15.1,0,0,1-4.86,5.4,3.93,3.93,0,0,0-1-.92,13.2,13.2,0,0,0,4.5-4.48h-2a13.72,13.72,0,0,1-2.6,2.28,6.52,6.52,0,0,0-1-.92,11.33,11.33,0,0,0,4-4h-2.8v-1.26h12.52v1.26Zm6.8-2.38h-9.14v-6.46h9.14Zm-1.38-5.34h-6.4v1.58h6.4Zm0,2.62h-6.4v1.6h6.4Z"/><path d="M189,143.47a19.36,19.36,0,0,0,0-19.24l1.12-.52a18.88,18.88,0,0,1,0,20.3Z"/><path d="M341.23,133.85a18.68,18.68,0,0,1,2.94-10.14l1.14.52a19.36,19.36,0,0,0,0,19.24l-1.14.54A18.75,18.75,0,0,1,341.23,133.85Z"/><path d="M352.31,134.91a17.6,17.6,0,0,1-1.42,5.08,5.19,5.19,0,0,0-1.16-.56,14.37,14.37,0,0,0,1.3-4.76Zm14.66-9a15.33,15.33,0,0,1-3.28,5,15.2,15.2,0,0,0,4.84,2.94,7.17,7.17,0,0,0-1,1.22,16.27,16.27,0,0,1-4.86-3.24,17.91,17.91,0,0,1-4.74,3,8.62,8.62,0,0,0-.64-.88l-.94.42c-.08-.3-.2-.68-.34-1.06l-1.56.1v8.32h-1.32v-8.24l-3.14.18-.12-1.32,1.32-.06c.42-.54.88-1.18,1.32-1.84a17.83,17.83,0,0,0-2.58-2.84l.76-1c.2.16.38.34.58.52a25.29,25.29,0,0,0,1.8-3.72l1.3.52c-.68,1.32-1.52,2.9-2.26,4a16.06,16.06,0,0,1,1.16,1.3,40.73,40.73,0,0,0,2-3.58l1.26.56a68.62,68.62,0,0,1-4,6l2.94-.12c-.28-.62-.6-1.24-.92-1.8l1-.42a16.53,16.53,0,0,1,1.74,3.62,16.94,16.94,0,0,0,4.32-2.64,18.08,18.08,0,0,1-2.12-2.84,16.14,16.14,0,0,1-2.1,2.12,4.22,4.22,0,0,0-1-1,14.36,14.36,0,0,0,4.32-5.76l1.46.26a17.8,17.8,0,0,1-.94,1.84h4.48l.26-.08Zm-10.74,8.66a18.54,18.54,0,0,1,1.28,3.64l-1.14.38a19.61,19.61,0,0,0-1.22-3.66Zm2.9,2.94a42.9,42.9,0,0,1,7.7,3l-.88,1.18a36.8,36.8,0,0,0-7.7-3.16Zm2.18-3.64a21.89,21.89,0,0,1,4.06,2.22l-.92,1a20.48,20.48,0,0,0-4-2.32Zm-.88-7a15.6,15.6,0,0,0,2.28,3.06,13.31,13.31,0,0,0,2.34-3.18h-4.52Z"/><path d="M386.87,125.63a28.1,28.1,0,0,1-6.92,5.78v8.26c0,1-.28,1.46-1,1.7a18.72,18.72,0,0,1-4.12.22,5.12,5.12,0,0,0-.6-1.48c1.64.06,3.2.06,3.64,0s.58-.14.58-.5v-9.54h1a24.74,24.74,0,0,0,4.66-3.76H371.17v-1.46h14.22l.32-.1Z"/><path d="M408.15,131.21a27.82,27.82,0,0,1-3.58,4.86l-1.2-.76a21.84,21.84,0,0,0,2.34-3.12H400v7.54c0,.92-.24,1.34-.94,1.56a14.41,14.41,0,0,1-3.6.24,8.55,8.55,0,0,0-.56-1.44c1.38.06,2.72,0,3.12,0s.48-.1.48-.4v-7.52h-8.24v-1.42h10.36c-1.7-.86-4-1.9-5.76-2.66l.76-1.1c1.1.44,2.4,1,3.62,1.52a23.2,23.2,0,0,0,3.8-2.74h-10.9v-1.38h12.34l.34-.08,1.08.82a30.93,30.93,0,0,1-5.2,4.06c.82.36,1.6.74,2.16,1l-.34.52h4.12l.3-.12Z"/><path d="M419.89,139.61a18.26,18.26,0,0,0,3.24.24c.72,0,4.16,0,5.12,0a4.38,4.38,0,0,0-.56,1.5h-4.64c-4.14,0-7.12-.72-8.94-4.1a11,11,0,0,1-3,4.46,7.76,7.76,0,0,0-1.22-1c2.22-1.72,3.3-4.56,3.74-8.14l1.52.14a25.24,25.24,0,0,1-.48,2.66,6,6,0,0,0,3.68,3.86v-8.38h-5v-1.4H425v1.4h-5.1v3.32h5.92v1.38h-5.92ZM412.31,130h-1.46v-4.32h7.5v-2.28h1.54v2.28h7.56V130h-1.52V127H412.31Z"/><path d="M435,143.47a19.36,19.36,0,0,0,0-19.24l1.12-.52a18.88,18.88,0,0,1,0,20.3Z"/><path d="M123.13,104.07h4.45V91h-3.75V88.42a13.38,13.38,0,0,0,4.81-1.73h3.06v17.38h3.89v3.34H123.13Z"/><path d="M142.42,104.07h4.45V91h-3.75V88.42a13.51,13.51,0,0,0,4.82-1.73H151v17.38h3.89v3.34H142.42Z"/><path d="M161.4,94.5A2.57,2.57,0,1,1,164,97.16,2.56,2.56,0,0,1,161.4,94.5Zm0,10.61A2.57,2.57,0,1,1,164,107.8,2.58,2.58,0,0,1,161.4,105.11Z"/><path d="M172,104.91l1.94-2.6a6.59,6.59,0,0,0,4.62,2.13c2.09,0,3.52-1,3.52-2.89,0-2-1.2-3.3-5.71-3.3v-3c3.81,0,5-1.31,5-3.16,0-1.63-1-2.58-2.77-2.61a5.91,5.91,0,0,0-3.92,1.85l-2.1-2.52a9.18,9.18,0,0,1,6.21-2.55c4,0,6.73,2,6.73,5.52a4.92,4.92,0,0,1-3.48,4.73v.14a5.18,5.18,0,0,1,4.15,5.1c0,3.81-3.33,6-7.28,6A8.8,8.8,0,0,1,172,104.91Z"/><path d="M191.84,97c0-7.17,2.8-10.67,7-10.67s7,3.53,7,10.67-2.8,10.84-7,10.84S191.84,104.1,191.84,97ZM202,97c0-5.79-1.34-7.47-3.1-7.47s-3.14,1.68-3.14,7.47,1.34,7.62,3.14,7.62S202,102.79,202,97Z"/><path d="M226.39,84.87h2.74l-6.94,27.63h-2.75Z"/><path d="M244.17,104.07h4.45V91h-3.75V88.42a13.38,13.38,0,0,0,4.81-1.73h3.06v17.38h3.89v3.34H244.17Z"/><path d="M262.37,105c5.63-5,9-8.94,9-12.13,0-2.1-1.15-3.36-3.11-3.36a5.38,5.38,0,0,0-3.81,2.13l-2.24-2.24c1.91-2,3.75-3.14,6.58-3.14,3.92,0,6.53,2.52,6.53,6.39s-3.11,7.78-6.89,11.48c1-.11,2.41-.23,3.36-.23h4.51v3.48H262.37Z"/><path d="M282.45,94.5A2.56,2.56,0,1,1,285,97.16,2.56,2.56,0,0,1,282.45,94.5Zm0,10.61A2.56,2.56,0,1,1,285,107.8,2.57,2.57,0,0,1,282.45,105.11Z"/><path d="M293.08,104.91l1.94-2.6a6.59,6.59,0,0,0,4.62,2.13c2.1,0,3.52-1,3.52-2.89,0-2-1.2-3.3-5.71-3.3v-3c3.81,0,5-1.31,5-3.16,0-1.63-1-2.58-2.77-2.61a5.93,5.93,0,0,0-3.92,1.85l-2.1-2.52a9.18,9.18,0,0,1,6.22-2.55c4,0,6.72,2,6.72,5.52a4.91,4.91,0,0,1-3.48,4.73v.14a5.18,5.18,0,0,1,4.15,5.1c0,3.81-3.33,6-7.28,6A8.8,8.8,0,0,1,293.08,104.91Z"/><path d="M312.88,97c0-7.17,2.8-10.67,7-10.67s7,3.53,7,10.67-2.8,10.84-7,10.84S312.88,104.1,312.88,97ZM323,97c0-5.79-1.35-7.47-3.11-7.47s-3.14,1.68-3.14,7.47,1.35,7.62,3.14,7.62S323,102.79,323,97Z"/><path d="M332.31,97.91H340v2.94h-7.65Z"/><path d="M346.4,104.07h4.45V91H347.1V88.42a13.38,13.38,0,0,0,4.81-1.73h3v17.38h3.9v3.34H346.4Z"/><path d="M376.24,91.11a4.47,4.47,0,0,0-3.19-1.51c-2.38,0-4.34,1.79-4.51,7a6,6,0,0,1,4.26-2.21c3.47,0,5.94,2.07,5.94,6.52,0,4.26-3,6.92-6.5,6.92-3.95,0-7.45-3.17-7.45-10.47,0-7.73,3.84-11,8-11a7.68,7.68,0,0,1,5.63,2.36ZM375,100.88c0-2.46-1.15-3.61-2.94-3.61a4.09,4.09,0,0,0-3.39,2.18c.39,3.78,1.79,5.24,3.53,5.24C373.7,104.69,375,103.4,375,100.88Z"/><path d="M384.67,94.5a2.57,2.57,0,1,1,2.55,2.66A2.56,2.56,0,0,1,384.67,94.5Zm0,10.61a2.57,2.57,0,1,1,2.55,2.69A2.58,2.58,0,0,1,384.67,105.11Z"/><path d="M395.31,104.91l1.93-2.6a6.61,6.61,0,0,0,4.62,2.13c2.1,0,3.53-1,3.53-2.89,0-2-1.2-3.3-5.71-3.3v-3c3.81,0,5-1.31,5-3.16,0-1.63-1-2.58-2.77-2.61A5.91,5.91,0,0,0,398,91.36l-2.1-2.52a9.18,9.18,0,0,1,6.21-2.55c4,0,6.72,2,6.72,5.52a4.91,4.91,0,0,1-3.47,4.73v.14a5.19,5.19,0,0,1,4.15,5.1c0,3.81-3.34,6-7.28,6A8.8,8.8,0,0,1,395.31,104.91Z"/><path d="M415.11,97c0-7.17,2.8-10.67,7-10.67s7,3.53,7,10.67-2.8,10.84-7,10.84S415.11,104.1,415.11,97Zm10.13,0c0-5.79-1.34-7.47-3.1-7.47S419,91.17,419,97s1.34,7.62,3.14,7.62S425.24,102.79,425.24,97Z"/></g></g></svg>