<svg xmlns="http://www.w3.org/2000/svg" viewBox="0 0 695.38 105.03"><defs><style>.cls-1{fill:#2c7549;}.cls-2{fill:#fff;}</style></defs><g id="Layer_2" data-name="Layer 2"><g id="design"><polygon class="cls-1" points="6 104.03 6 15.97 694.38 6.01 694.38 104.03 6 104.03"/><path class="cls-1" d="M693.38,7v96H7V17L693.38,7m2-2-2,0L7,15,5,15v90H695.38V5Z"/><polygon class="cls-2" points="1 99.03 1 10.97 689.38 1.01 689.38 99.03 1 99.03"/><path class="cls-1" d="M688.38,2V98H2V12L688.38,2m2-2-2,0L2,10,0,10v90H690.38V0Z"/><path d="M179.22,64.16V66.5H156.08V64.16h6.32a14.63,14.63,0,0,0-1-2l.83-.24h-3v-5.4h16.85V62h-2.89l.68.24c-.42.7-.86,1.38-1.25,2Zm-.23-8.5H156.37V53.48H179Zm-2.05-3h-18.8V44.38h5.35V42.61h2.6v1.77h2.66V42.61h2.65v1.77h5.54Zm-16-5.1h2.52V46.41H161Zm0,3h2.52V49.42H161ZM162.22,60h10.66V58.52H162.22Zm2.18,2a8.51,8.51,0,0,1,1,2l-.54.18H170l-.36-.13c.36-.57.83-1.35,1.19-2.08Zm1.69-15.54v1.11h2.66V46.41Zm0,3v1.15h2.66V49.42Zm7.88-3H171.4v1.11H174Zm0,3H171.4v1.15H174Z"/><path d="M188.32,54.65A29.69,29.69,0,0,0,184.06,52l1.72-2.27a34.34,34.34,0,0,1,4.39,2.42ZM184.5,65a83.27,83.27,0,0,0,3.36-8.34l2.49,1.61c-.86,2.78-2,5.77-3.07,8.32Zm4.81-17.16a30.26,30.26,0,0,0-4.26-2.78l1.82-2.26a29.54,29.54,0,0,1,4.31,2.55Zm18.1-4.63V66.87h-3V56.34l-1.24.6a19.22,19.22,0,0,0-1.3-3.59V66.11H199V56.36l-1.59.65a21.36,21.36,0,0,0-.93-3.43c-.08,4.63-.63,9.44-3.3,13.31a11.18,11.18,0,0,0-2.66-1.79c2.79-3.85,3.07-8.58,3.07-13.18v-.47a19,19,0,0,1-1.9,6.11l-2.28-1.22a17.43,17.43,0,0,0,2-6.22l2.21.68V43.26h2.91v7.9l1.3-.52a20.88,20.88,0,0,1,1.2,2.84V43.75h2.89v6.87l1.06-.5a28.41,28.41,0,0,1,1.48,2.73V43.23Z"/><path d="M220.72,45.39H227c4.26,0,7.54,1.48,7.54,6,0,4.4-3.3,6.37-7.44,6.37h-2.57v6.84h-3.85Zm6.16,9.36c2.65,0,3.93-1.12,3.93-3.33s-1.41-3-4.06-3h-2.18v6.32Z"/><path d="M240,45.65a2.29,2.29,0,0,1,4.56,0,2.29,2.29,0,0,1-4.56,0Zm.37,4.42h3.79V64.63h-3.79Z"/><path d="M251.4,59.54V53.09h-2.06V50.25l2.24-.18.44-3.9h3.2v3.9h3.59v3h-3.59v6.45c0,1.66.68,2.44,2,2.44a4.39,4.39,0,0,0,1.43-.31l.62,2.78a9.38,9.38,0,0,1-3.07.55C252.72,65,251.4,62.81,251.4,59.54Z"/><path d="M289.84,60.88a16.13,16.13,0,0,0,5.85,3.51,7.29,7.29,0,0,0-1.14,1.36,17.38,17.38,0,0,1-5.95-4.14V66H287V61.67a17.31,17.31,0,0,1-5.85,4.07A7.36,7.36,0,0,0,280,64.41a16.25,16.25,0,0,0,5.71-3.53h-3.82V54.59h5V53.35h-6.5V51.88H287V50.37h1.64v1.51h6.65v1.47H288.6v1.24h5.31v6.29Zm-6.39-3.73H287V55.79h-3.51Zm0,2.52H287V58.29h-3.51Zm5.15-3.88v1.36h3.71V55.79Zm3.71,2.5H288.6v1.38h3.71Z"/><path d="M301.66,61.59a15.56,15.56,0,0,1-3.31,3.77,8.64,8.64,0,0,0-1.3-.93,11.15,11.15,0,0,0,3-3.35Zm10.54-7.9H297.44V52.17h6.5V50.35h1.68v1.82h6.58Zm-6.58,6.54v4c0,.85-.19,1.3-.83,1.52a10.67,10.67,0,0,1-3.06.22,6.82,6.82,0,0,0-.51-1.5c1,0,2.09,0,2.36,0s.39-.07.39-.29v-4h-4.52V55.06h10.88v5.17ZM301,58.87h7.63V56.46H301Zm8.26,2.21a30.34,30.34,0,0,1,3.13,3.62l-1.55.8a24.94,24.94,0,0,0-3-3.72Z"/><path d="M323.15,51.44a20.64,20.64,0,0,1-2.16,4h1.77v1.38h-2.84c-.44.51-.92,1-1.4,1.46h3.56v7.43h-1.5V65h-3.37v.94h-1.42V60.38c-.38.22-.75.46-1.16.68a6.81,6.81,0,0,0-.92-1.29,16,16,0,0,0,4.24-3h-3.83V55.4h3.18V53.62h-2.43V52.26h2.43V50.51h1.46v1.75h2v.88a17.22,17.22,0,0,0,1-2.12Zm-2.57,8.08h-3.37v1.39h3.37Zm0,4.16V62.15h-3.37v1.53Zm-1.39-8.28a16.11,16.11,0,0,0,1.24-1.78h-1.67V55.4ZM329.71,52c-.66,1.59-1.51,3.53-2.28,5.06a5.24,5.24,0,0,1,2,4,2.67,2.67,0,0,1-.89,2.38,3,3,0,0,1-1.15.39,8.83,8.83,0,0,1-1.55,0,4,4,0,0,0-.43-1.53,9.87,9.87,0,0,0,1.28,0,1.66,1.66,0,0,0,.75-.19c.35-.2.47-.65.47-1.26,0-1-.47-2.26-2.07-3.65.63-1.33,1.33-3.1,1.8-4.44H325V66H323.4V51.32h4.92l.23-.07Z"/><path d="M334.18,58.19a27.84,27.84,0,0,0-3.11-1.84l.85-1.15a21.94,21.94,0,0,1,3.15,1.68Zm1.8,2.19c-.88,1.75-2,3.79-3,5.39l-1.34-1.07a43.25,43.25,0,0,0,3.2-5.37Zm-1-6.64a24.16,24.16,0,0,0-3-2l.92-1.1a25.92,25.92,0,0,1,3,1.85Zm11.6,9.6v1.58H335.78V63.34h4.42V53.46h-3.57V51.88h9.11v1.58h-3.82v9.88Z"/><path d="M357.84,60.88a16.13,16.13,0,0,0,5.85,3.51,7.29,7.29,0,0,0-1.14,1.36,17.38,17.38,0,0,1-5.95-4.14V66H355V61.67a17.31,17.31,0,0,1-5.85,4.07A7.36,7.36,0,0,0,348,64.41a16.25,16.25,0,0,0,5.71-3.53h-3.82V54.59h5V53.35h-6.5V51.88H355V50.37h1.64v1.51h6.65v1.47H356.6v1.24h5.31v6.29Zm-6.39-3.73H355V55.79h-3.51Zm0,2.52H355V58.29h-3.51Zm5.15-3.88v1.36h3.71V55.79Zm3.71,2.5H356.6v1.38h3.71Z"/><path d="M380.49,65.09h-13V66H365.9V51.36h14.18v1.51H367.47V63.58h13Zm-3.3-2.67A22.75,22.75,0,0,0,374,59.18,23.26,23.26,0,0,1,369.58,63a12.34,12.34,0,0,0-1.26-1.24,19,19,0,0,0,4.43-3.59c-1.24-1-2.53-1.92-3.75-2.7l1.08-1c1.19.75,2.47,1.62,3.69,2.53a20,20,0,0,0,2.38-3.69l1.55.53A25.3,25.3,0,0,1,375,58a24.38,24.38,0,0,1,3.43,3.28Z"/><path d="M397.37,64.43v1.22H382.31V64.43h4.37a9.46,9.46,0,0,0-.75-1.45l.73-.22h-2.24V59.38h10.81v3.38h-2.09l.57.21c-.29.52-.61,1-.9,1.46Zm-.22-5.8H382.53V57.48h14.62Zm-1.4-1.89h-12v-5.2h3.48V50.35h1.36v1.19h2.16V50.35h1.36v1.19h3.65Zm-10.54-3.12h2v-1h-2Zm0,2h2v-1h-2Zm.75,6h7.64V60.45H386Zm1.45,1.07a7.76,7.76,0,0,1,.8,1.52l-.43.15h3.86l-.32-.12a11.41,11.41,0,0,0,.88-1.55Zm1.17-10.13v1h2.16v-1Zm0,2v1h2.16v-1Zm5.66-2H392.1v1h2.14Zm0,2H392.1v1h2.14Z"/><path d="M401.81,57.92A21.73,21.73,0,0,0,399,56.18l.88-1.15a25,25,0,0,1,2.87,1.6Zm-2.52,7a46.31,46.31,0,0,0,2.28-5.39l1.29.83c-.61,1.79-1.41,3.79-2.14,5.37Zm3.11-11.42a17.78,17.78,0,0,0-2.72-1.84l.94-1.14a20.3,20.3,0,0,1,2.77,1.7Zm.12,5.71a10.87,10.87,0,0,0,1.34-4l1.19.38a12.24,12.24,0,0,1-1.34,4.31Zm11.39-8.47V66H412.4V59.12l-.85.41a16.55,16.55,0,0,0-1.3-3.18v9.2h-1.46V59.07l-1.15.48a15,15,0,0,0-.9-3.16v.15c0,3.32-.24,6.73-2.33,9.42a6.29,6.29,0,0,0-1.33-.92c2-2.45,2.16-5.49,2.16-8.5V50.78h1.5v5l.91-.34a13.79,13.79,0,0,1,1.14,3.3V51h1.46V55.5l.79-.34a18.17,18.17,0,0,1,1.36,2.72V50.76Z"/><path d="M427.14,54.6a3.39,3.39,0,0,0-2.54-1.1c-1.54,0-3.31,1.1-3.45,4.79a4.32,4.32,0,0,1,3.23-1.51,3.69,3.69,0,0,1,4,3.86,4,4,0,0,1-4.21,4.21c-2.65,0-4.9-1.8-4.9-6,0-4.95,2.57-7,5.27-7a4.92,4.92,0,0,1,3.67,1.53Zm-.6,6.09a2.28,2.28,0,0,0-2.45-2.42A3.55,3.55,0,0,0,421.2,60c.31,2.33,1.55,3.32,3,3.32A2.32,2.32,0,0,0,426.54,60.69Z"/><path d="M448.27,53.45h-6V63.58c0,1.15-.31,1.68-1.12,1.94a13.63,13.63,0,0,1-4,.32,7.43,7.43,0,0,0-.77-1.84c1.48.07,3,.07,3.47,0s.58-.11.58-.49V53.45h-7V51.82h14.89Z"/><path d="M463.6,51.36v14.5h-1.66V64.73h-8.4v1.13h-1.6V51.36ZM453.54,52.9v2.42h8.4V52.9Zm0,3.91v2.45h8.4V56.81Zm8.4,6.38V60.76h-8.4v2.43Z"/><path d="M470.33,63h3.78V54.28h-2.93V53a8.79,8.79,0,0,0,3.42-.95h1.46V63h3.49v1.61h-9.22Z"/><path d="M497.94,57.51v1.41H485.7V57.51Z"/><path d="M504.3,63.49c3.79-3,6.65-5.59,6.65-7.7a2.25,2.25,0,0,0-2.43-2.31,4.31,4.31,0,0,0-3.22,1.77l-1.19-1.14a6,6,0,0,1,4.49-2.23c2.52,0,4.27,1.41,4.27,3.86s-2.4,4.88-5.39,7.35c.68-.06,1.31-.11,1.94-.11h4v1.65H504.3Z"/><path d="M520.89,62.69l1-1.24a4.94,4.94,0,0,0,3.75,1.77c1.53,0,2.67-.78,2.67-2.06s-1.1-2.26-4.16-2.26V57.44c2.72,0,3.86-1,3.86-2.14s-.85-1.84-2.4-1.84A4.6,4.6,0,0,0,522.24,55l-1.06-1.21a6.42,6.42,0,0,1,4.49-1.94c2.58,0,4.2,1.3,4.2,3.22a3,3,0,0,1-2.31,2.95v.07a3.15,3.15,0,0,1,2.63,3.18c0,2.19-2,3.55-4.44,3.55A6,6,0,0,1,520.89,62.69Z"/></g></g></svg>