<svg xmlns="http://www.w3.org/2000/svg" xmlns:xlink="http://www.w3.org/1999/xlink" viewBox="0 0 165 59.68"><defs><style>.cls-1{fill:none;}.cls-2{fill:#2c7549;}.cls-3{fill:#fff;}.cls-4{opacity:0.3;fill:url(#_10_dpi_30_14);}</style><pattern id="_10_dpi_30_14" data-name="10 dpi 30% 14" width="28.8" height="28.8" patternTransform="translate(-4.61 -82.41)" patternUnits="userSpaceOnUse" viewBox="0 0 28.8 28.8"><rect class="cls-1" width="28.8" height="28.8"/><path class="cls-2" d="M28.8,31a2.16,2.16,0,1,0-2.16-2.16A2.16,2.16,0,0,0,28.8,31Z"/><path class="cls-2" d="M14.4,31a2.16,2.16,0,1,0-2.16-2.16A2.16,2.16,0,0,0,14.4,31Z"/><path class="cls-2" d="M28.8,16.56a2.16,2.16,0,1,0-2.16-2.16A2.16,2.16,0,0,0,28.8,16.56Z"/><path class="cls-2" d="M14.4,16.56a2.16,2.16,0,1,0-2.16-2.16A2.16,2.16,0,0,0,14.4,16.56Z"/><path class="cls-2" d="M7.2,23.76A2.16,2.16,0,1,0,5,21.6,2.16,2.16,0,0,0,7.2,23.76Z"/><path class="cls-2" d="M21.6,23.76a2.16,2.16,0,1,0-2.16-2.16A2.16,2.16,0,0,0,21.6,23.76Z"/><path class="cls-2" d="M7.2,9.36A2.16,2.16,0,1,0,5,7.2,2.16,2.16,0,0,0,7.2,9.36Z"/><path class="cls-2" d="M21.6,9.36A2.16,2.16,0,1,0,19.44,7.2,2.16,2.16,0,0,0,21.6,9.36Z"/><path class="cls-2" d="M0,31A2.16,2.16,0,0,0,2.16,28.8,2.16,2.16,0,0,0,0,26.64,2.16,2.16,0,0,0,0,31Z"/><path class="cls-2" d="M0,16.56A2.16,2.16,0,0,0,2.16,14.4,2.16,2.16,0,0,0,0,12.24a2.16,2.16,0,1,0,0,4.32Z"/><path class="cls-2" d="M28.8,2.16A2.16,2.16,0,0,0,31,0a2.16,2.16,0,0,0-4.32,0A2.16,2.16,0,0,0,28.8,2.16Z"/><path class="cls-2" d="M14.4,2.16A2.16,2.16,0,0,0,16.56,0a2.16,2.16,0,1,0-4.32,0A2.16,2.16,0,0,0,14.4,2.16Z"/><path class="cls-2" d="M0,2.16A2.16,2.16,0,0,0,2.16,0,2.16,2.16,0,0,0,0-2.16,2.16,2.16,0,0,0-2.16,0,2.16,2.16,0,0,0,0,2.16Z"/></pattern></defs><g id="Layer_2" data-name="Layer 2"><g id="design"><path class="cls-2" d="M157.79,6.18A16.38,16.38,0,0,0,145.12,0H18.71C8.05,0,0,10.57,0,24.63c0,8.22,2.76,15.24,7.19,19.68a16.38,16.38,0,0,0,12.67,6.18h81.28l12.28,8.82a2.07,2.07,0,0,0,1.15.37,2,2,0,0,0,1.33-.53,3.16,3.16,0,0,0,.91-2.85l-.93-5.84h30.41C157,50.46,165,39.87,165,25.84,165,17.64,162.22,10.59,157.79,6.18Z"/><path class="cls-3" d="M145.69,2.8H19.29C9.56,2.8,2.85,12.56,2.85,24.6S9.56,46.4,19.29,46.4h81.88L114,55.62l-1.48-9.22h33.19c9.73,0,16.44-9.76,16.44-21.8S155.42,2.8,145.69,2.8Z"/><path class="cls-4" d="M145.69,2.8H19.29C9.56,2.8,2.85,12.56,2.85,24.6S9.56,46.4,19.29,46.4h81.88L114,55.62l-1.48-9.22h33.19c9.73,0,16.44-9.76,16.44-21.8S155.42,2.8,145.69,2.8Z"/><path class="cls-2" d="M59.15,22.92l-.43,2.5h2.67v6.42H57.62L57,35.79H51.45l.67-3.95h-2.8l-.67,3.95H43.1l.67-3.95H41.42V25.42h3.43l.42-2.5H42.15V16.45h4.2L46.92,13h5.6l-.6,3.48h2.75L55.25,13h5.59l-.59,3.48h1.89v6.47Zm-8.33,0-.4,2.5h2.75l.43-2.5Z"/><path class="cls-2" d="M89,21.77v1.52h-19V21.9c-.75.17-1.5.35-2.25.47V15.2c3.8-.3,5.93-1.88,6.4-2.6H84.6c.5.72,2.75,2.3,6.54,2.6v7.05A19.87,19.87,0,0,1,89,21.77ZM84.57,35.84l-.2-.75a22.25,22.25,0,0,1-7.07.75H68.1v-5.5h1.17l.35-1.1H68.1V23.87H90.87v5.37h-1.2l1.77,6.6Zm-1.65-6.6H76.77l-.35,1.1h2.25A31,31,0,0,0,83.1,30ZM79.55,17.07a14.05,14.05,0,0,1-2.23,1.73H81.9A16.78,16.78,0,0,1,79.55,17.07Z"/><path class="cls-2" d="M110.67,26.14c0,.18-.1.33-.15.48h8v5.27c0,3.18-1.13,4-3.73,4h-2v-4.2h.68c.17,0,.2,0,.2-.23v-.25h-1.08a25,25,0,0,1-.52,4.65h-4a19.88,19.88,0,0,0,.85-4h-.5a15.84,15.84,0,0,1-.88,4h-4a8.23,8.23,0,0,0,.83-2,7.86,7.86,0,0,1-1.45.52v-.85a16,16,0,0,1-7.68,2V29c.3,0,.58,0,.83,0V22.72h-.83V16.55h.83V12.67h6.35v3.88h.82v5.17h15.35v4.42Zm-7.65,0V22.72h-.57v4.4a3.78,3.78,0,0,0,.82-.7v1.15a2.57,2.57,0,0,0,1.53-1.43Zm.68-4.84V12.72H118V21.3Zm7.92-6h-1.5v.8h1.5Zm0,2.45h-1.5v.8h1.5Z"/></g></g></svg>