<svg xmlns="http://www.w3.org/2000/svg" xmlns:xlink="http://www.w3.org/1999/xlink" viewBox="0 0 215.7 288.58"><defs><style>.cls-1{fill:none;}.cls-2{fill:#666;}.cls-3{fill:#ddd;}.cls-4{clip-path:url(#clip-path);}.cls-5{fill:#fff;}.cls-6{fill:url(#新規パターンスウォッチ_4);}.cls-7{fill:#2c7549;}.cls-8{fill:url(#新規パターンスウォッチ_4-3);}.cls-9{fill:url(#新規パターンスウォッチ_5);}</style><clipPath id="clip-path" transform="translate(10.7)"><polygon id="SVGID" class="cls-1" points="239.69 271.03 0 260 1 57 251 55 239.69 271.03"/></clipPath><pattern id="新規パターンスウォッチ_4" data-name="新規パターンスウォッチ 4" width="32" height="32" patternTransform="translate(-7.73 -78.33) scale(1.1)" patternUnits="userSpaceOnUse" viewBox="0 0 32 32"><rect class="cls-1" width="32" height="32"/><path class="cls-2" d="M0,1A1,1,0,0,0,1,0,1,1,0,0,0,0-1,1,1,0,0,0-1,0,1,1,0,0,0,0,1Z"/><path class="cls-2" d="M32,1a1,1,0,0,0,1-1,1,1,0,0,0-2,0A1,1,0,0,0,32,1Z"/><path class="cls-2" d="M0,9A1,1,0,0,0,1,8,1,1,0,0,0,0,7,1,1,0,0,0,0,9Z"/><path class="cls-2" d="M32,9a1,1,0,1,0-1-1A1,1,0,0,0,32,9Z"/><path class="cls-2" d="M0,17a1,1,0,0,0,1-1,1,1,0,0,0-1-1,1,1,0,0,0,0,2Z"/><path class="cls-2" d="M32,17a1,1,0,1,0-1-1A1,1,0,0,0,32,17Z"/><path class="cls-2" d="M0,25a1,1,0,0,0,1-1,1,1,0,0,0-1-1,1,1,0,0,0,0,2Z"/><path class="cls-2" d="M32,25a1,1,0,1,0-1-1A1,1,0,0,0,32,25Z"/><path class="cls-2" d="M0,33a1,1,0,0,0,1-1,1,1,0,0,0-1-1,1,1,0,0,0,0,2Z"/><path class="cls-2" d="M32,33a1,1,0,1,0-1-1A1,1,0,0,0,32,33Z"/><path class="cls-2" d="M4,5A1,1,0,1,0,3,4,1,1,0,0,0,4,5Z"/><path class="cls-2" d="M4,13a1,1,0,1,0-1-1A1,1,0,0,0,4,13Z"/><path class="cls-2" d="M4,21a1,1,0,1,0-1-1A1,1,0,0,0,4,21Z"/><path class="cls-2" d="M4,29a1,1,0,1,0-1-1A1,1,0,0,0,4,29Z"/><path class="cls-2" d="M8,1A1,1,0,0,0,9,0,1,1,0,0,0,7,0,1,1,0,0,0,8,1Z"/><path class="cls-2" d="M8,9A1,1,0,1,0,7,8,1,1,0,0,0,8,9Z"/><path class="cls-2" d="M8,17a1,1,0,1,0-1-1A1,1,0,0,0,8,17Z"/><path class="cls-2" d="M8,25a1,1,0,1,0-1-1A1,1,0,0,0,8,25Z"/><path class="cls-2" d="M8,33a1,1,0,1,0-1-1A1,1,0,0,0,8,33Z"/><path class="cls-2" d="M12,5a1,1,0,1,0-1-1A1,1,0,0,0,12,5Z"/><path class="cls-2" d="M12,13a1,1,0,1,0-1-1A1,1,0,0,0,12,13Z"/><path class="cls-2" d="M12,21a1,1,0,1,0-1-1A1,1,0,0,0,12,21Z"/><path class="cls-2" d="M12,29a1,1,0,1,0-1-1A1,1,0,0,0,12,29Z"/><path class="cls-2" d="M16,1a1,1,0,0,0,1-1,1,1,0,0,0-2,0A1,1,0,0,0,16,1Z"/><path class="cls-2" d="M16,9a1,1,0,1,0-1-1A1,1,0,0,0,16,9Z"/><path class="cls-2" d="M16,17a1,1,0,1,0-1-1A1,1,0,0,0,16,17Z"/><path class="cls-2" d="M16,25a1,1,0,1,0-1-1A1,1,0,0,0,16,25Z"/><path class="cls-2" d="M16,33a1,1,0,1,0-1-1A1,1,0,0,0,16,33Z"/><path class="cls-2" d="M20,5a1,1,0,1,0-1-1A1,1,0,0,0,20,5Z"/><path class="cls-2" d="M20,13a1,1,0,1,0-1-1A1,1,0,0,0,20,13Z"/><path class="cls-2" d="M20,21a1,1,0,1,0-1-1A1,1,0,0,0,20,21Z"/><path class="cls-2" d="M20,29a1,1,0,1,0-1-1A1,1,0,0,0,20,29Z"/><path class="cls-2" d="M24,1a1,1,0,0,0,1-1,1,1,0,0,0-2,0A1,1,0,0,0,24,1Z"/><path class="cls-2" d="M24,9a1,1,0,1,0-1-1A1,1,0,0,0,24,9Z"/><path class="cls-2" d="M24,17a1,1,0,1,0-1-1A1,1,0,0,0,24,17Z"/><path class="cls-2" d="M24,25a1,1,0,1,0-1-1A1,1,0,0,0,24,25Z"/><path class="cls-2" d="M24,33a1,1,0,1,0-1-1A1,1,0,0,0,24,33Z"/><path class="cls-2" d="M28,5a1,1,0,1,0-1-1A1,1,0,0,0,28,5Z"/><path class="cls-2" d="M28,13a1,1,0,1,0-1-1A1,1,0,0,0,28,13Z"/><path class="cls-2" d="M28,21a1,1,0,1,0-1-1A1,1,0,0,0,28,21Z"/><path class="cls-2" d="M28,29a1,1,0,1,0-1-1A1,1,0,0,0,28,29Z"/></pattern><pattern id="新規パターンスウォッチ_4-3" data-name="新規パターンスウォッチ 4" width="32" height="32" patternTransform="matrix(0.59, -0.12, 0.12, 0.59, 0.09, -39.68)" patternUnits="userSpaceOnUse" viewBox="0 0 32 32"><rect class="cls-1" width="32" height="32"/><path class="cls-2" d="M0,1A1,1,0,0,0,1,0,1,1,0,0,0,0-1,1,1,0,0,0-1,0,1,1,0,0,0,0,1Z"/><path class="cls-2" d="M32,1a1,1,0,0,0,1-1,1,1,0,0,0-2,0A1,1,0,0,0,32,1Z"/><path class="cls-2" d="M0,9A1,1,0,0,0,1,8,1,1,0,0,0,0,7,1,1,0,0,0,0,9Z"/><path class="cls-2" d="M32,9a1,1,0,1,0-1-1A1,1,0,0,0,32,9Z"/><path class="cls-2" d="M0,17a1,1,0,0,0,1-1,1,1,0,0,0-1-1,1,1,0,0,0,0,2Z"/><path class="cls-2" d="M32,17a1,1,0,1,0-1-1A1,1,0,0,0,32,17Z"/><path class="cls-2" d="M0,25a1,1,0,0,0,1-1,1,1,0,0,0-1-1,1,1,0,0,0,0,2Z"/><path class="cls-2" d="M32,25a1,1,0,1,0-1-1A1,1,0,0,0,32,25Z"/><path class="cls-2" d="M0,33a1,1,0,0,0,1-1,1,1,0,0,0-1-1,1,1,0,0,0,0,2Z"/><path class="cls-2" d="M32,33a1,1,0,1,0-1-1A1,1,0,0,0,32,33Z"/><path class="cls-2" d="M4,5A1,1,0,1,0,3,4,1,1,0,0,0,4,5Z"/><path class="cls-2" d="M4,13a1,1,0,1,0-1-1A1,1,0,0,0,4,13Z"/><path class="cls-2" d="M4,21a1,1,0,1,0-1-1A1,1,0,0,0,4,21Z"/><path class="cls-2" d="M4,29a1,1,0,1,0-1-1A1,1,0,0,0,4,29Z"/><path class="cls-2" d="M8,1A1,1,0,0,0,9,0,1,1,0,0,0,7,0,1,1,0,0,0,8,1Z"/><path class="cls-2" d="M8,9A1,1,0,1,0,7,8,1,1,0,0,0,8,9Z"/><path class="cls-2" d="M8,17a1,1,0,1,0-1-1A1,1,0,0,0,8,17Z"/><path class="cls-2" d="M8,25a1,1,0,1,0-1-1A1,1,0,0,0,8,25Z"/><path class="cls-2" d="M8,33a1,1,0,1,0-1-1A1,1,0,0,0,8,33Z"/><path class="cls-2" d="M12,5a1,1,0,1,0-1-1A1,1,0,0,0,12,5Z"/><path class="cls-2" d="M12,13a1,1,0,1,0-1-1A1,1,0,0,0,12,13Z"/><path class="cls-2" d="M12,21a1,1,0,1,0-1-1A1,1,0,0,0,12,21Z"/><path class="cls-2" d="M12,29a1,1,0,1,0-1-1A1,1,0,0,0,12,29Z"/><path class="cls-2" d="M16,1a1,1,0,0,0,1-1,1,1,0,0,0-2,0A1,1,0,0,0,16,1Z"/><path class="cls-2" d="M16,9a1,1,0,1,0-1-1A1,1,0,0,0,16,9Z"/><path class="cls-2" d="M16,17a1,1,0,1,0-1-1A1,1,0,0,0,16,17Z"/><path class="cls-2" d="M16,25a1,1,0,1,0-1-1A1,1,0,0,0,16,25Z"/><path class="cls-2" d="M16,33a1,1,0,1,0-1-1A1,1,0,0,0,16,33Z"/><path class="cls-2" d="M20,5a1,1,0,1,0-1-1A1,1,0,0,0,20,5Z"/><path class="cls-2" d="M20,13a1,1,0,1,0-1-1A1,1,0,0,0,20,13Z"/><path class="cls-2" d="M20,21a1,1,0,1,0-1-1A1,1,0,0,0,20,21Z"/><path class="cls-2" d="M20,29a1,1,0,1,0-1-1A1,1,0,0,0,20,29Z"/><path class="cls-2" d="M24,1a1,1,0,0,0,1-1,1,1,0,0,0-2,0A1,1,0,0,0,24,1Z"/><path class="cls-2" d="M24,9a1,1,0,1,0-1-1A1,1,0,0,0,24,9Z"/><path class="cls-2" d="M24,17a1,1,0,1,0-1-1A1,1,0,0,0,24,17Z"/><path class="cls-2" d="M24,25a1,1,0,1,0-1-1A1,1,0,0,0,24,25Z"/><path class="cls-2" d="M24,33a1,1,0,1,0-1-1A1,1,0,0,0,24,33Z"/><path class="cls-2" d="M28,5a1,1,0,1,0-1-1A1,1,0,0,0,28,5Z"/><path class="cls-2" d="M28,13a1,1,0,1,0-1-1A1,1,0,0,0,28,13Z"/><path class="cls-2" d="M28,21a1,1,0,1,0-1-1A1,1,0,0,0,28,21Z"/><path class="cls-2" d="M28,29a1,1,0,1,0-1-1A1,1,0,0,0,28,29Z"/></pattern><pattern id="新規パターンスウォッチ_5" data-name="新規パターンスウォッチ 5" width="32" height="32" patternTransform="translate(18.27 -82.33) scale(1.1)" patternUnits="userSpaceOnUse" viewBox="0 0 32 32"><rect class="cls-1" width="32" height="32"/><path class="cls-3" d="M0,1A1,1,0,0,0,1,0,1,1,0,0,0,0-1,1,1,0,0,0-1,0,1,1,0,0,0,0,1Z"/><path class="cls-3" d="M32,1a1,1,0,0,0,1-1,1,1,0,0,0-2,0A1,1,0,0,0,32,1Z"/><path class="cls-3" d="M0,9A1,1,0,0,0,1,8,1,1,0,0,0,0,7,1,1,0,0,0,0,9Z"/><path class="cls-3" d="M32,9a1,1,0,1,0-1-1A1,1,0,0,0,32,9Z"/><path class="cls-3" d="M0,17a1,1,0,0,0,1-1,1,1,0,0,0-1-1,1,1,0,0,0,0,2Z"/><path class="cls-3" d="M32,17a1,1,0,1,0-1-1A1,1,0,0,0,32,17Z"/><path class="cls-3" d="M0,25a1,1,0,0,0,1-1,1,1,0,0,0-1-1,1,1,0,0,0,0,2Z"/><path class="cls-3" d="M32,25a1,1,0,1,0-1-1A1,1,0,0,0,32,25Z"/><path class="cls-3" d="M0,33a1,1,0,0,0,1-1,1,1,0,0,0-1-1,1,1,0,0,0,0,2Z"/><path class="cls-3" d="M32,33a1,1,0,1,0-1-1A1,1,0,0,0,32,33Z"/><path class="cls-3" d="M4,5A1,1,0,1,0,3,4,1,1,0,0,0,4,5Z"/><path class="cls-3" d="M4,13a1,1,0,1,0-1-1A1,1,0,0,0,4,13Z"/><path class="cls-3" d="M4,21a1,1,0,1,0-1-1A1,1,0,0,0,4,21Z"/><path class="cls-3" d="M4,29a1,1,0,1,0-1-1A1,1,0,0,0,4,29Z"/><path class="cls-3" d="M8,1A1,1,0,0,0,9,0,1,1,0,0,0,7,0,1,1,0,0,0,8,1Z"/><path class="cls-3" d="M8,9A1,1,0,1,0,7,8,1,1,0,0,0,8,9Z"/><path class="cls-3" d="M8,17a1,1,0,1,0-1-1A1,1,0,0,0,8,17Z"/><path class="cls-3" d="M8,25a1,1,0,1,0-1-1A1,1,0,0,0,8,25Z"/><path class="cls-3" d="M8,33a1,1,0,1,0-1-1A1,1,0,0,0,8,33Z"/><path class="cls-3" d="M12,5a1,1,0,1,0-1-1A1,1,0,0,0,12,5Z"/><path class="cls-3" d="M12,13a1,1,0,1,0-1-1A1,1,0,0,0,12,13Z"/><path class="cls-3" d="M12,21a1,1,0,1,0-1-1A1,1,0,0,0,12,21Z"/><path class="cls-3" d="M12,29a1,1,0,1,0-1-1A1,1,0,0,0,12,29Z"/><path class="cls-3" d="M16,1a1,1,0,0,0,1-1,1,1,0,0,0-2,0A1,1,0,0,0,16,1Z"/><path class="cls-3" d="M16,9a1,1,0,1,0-1-1A1,1,0,0,0,16,9Z"/><path class="cls-3" d="M16,17a1,1,0,1,0-1-1A1,1,0,0,0,16,17Z"/><path class="cls-3" d="M16,25a1,1,0,1,0-1-1A1,1,0,0,0,16,25Z"/><path class="cls-3" d="M16,33a1,1,0,1,0-1-1A1,1,0,0,0,16,33Z"/><path class="cls-3" d="M20,5a1,1,0,1,0-1-1A1,1,0,0,0,20,5Z"/><path class="cls-3" d="M20,13a1,1,0,1,0-1-1A1,1,0,0,0,20,13Z"/><path class="cls-3" d="M20,21a1,1,0,1,0-1-1A1,1,0,0,0,20,21Z"/><path class="cls-3" d="M20,29a1,1,0,1,0-1-1A1,1,0,0,0,20,29Z"/><path class="cls-3" d="M24,1a1,1,0,0,0,1-1,1,1,0,0,0-2,0A1,1,0,0,0,24,1Z"/><path class="cls-3" d="M24,9a1,1,0,1,0-1-1A1,1,0,0,0,24,9Z"/><path class="cls-3" d="M24,17a1,1,0,1,0-1-1A1,1,0,0,0,24,17Z"/><path class="cls-3" d="M24,25a1,1,0,1,0-1-1A1,1,0,0,0,24,25Z"/><path class="cls-3" d="M24,33a1,1,0,1,0-1-1A1,1,0,0,0,24,33Z"/><path class="cls-3" d="M28,5a1,1,0,1,0-1-1A1,1,0,0,0,28,5Z"/><path class="cls-3" d="M28,13a1,1,0,1,0-1-1A1,1,0,0,0,28,13Z"/><path class="cls-3" d="M28,21a1,1,0,1,0-1-1A1,1,0,0,0,28,21Z"/><path class="cls-3" d="M28,29a1,1,0,1,0-1-1A1,1,0,0,0,28,29Z"/></pattern></defs><g id="Layer_2" data-name="Layer 2"><g id="back"><g class="cls-4"><path class="cls-5" d="M35,83.42s4.09-14.17,13.78-13.63,20.52,7.3,16.26,20.53-16.74,39.21-27,45.36C27.85,126,9.86,110.13,7.31,96.58c-2-10,4.16-18.37,11.44-19.89S30.81,75.55,35,83.42Z" transform="translate(10.7)"/><path d="M34.85,82c-6.41-12.29-21.7-6.4-26.73.81-12.18,21.73,29.75,54.16,29.75,54.16l1.28-.25C52.23,126.34,65,99.61,67.34,85.59S40.33,56.67,34.85,82Zm29.62,4.85C63,96.44,49,127.87,37.53,134.12,24,121.67,5.9,105.44,8.53,88.25c.36-6.07,9.5-13.86,18-11.31,6.24,2.33,8.82,8.71,8.82,8.71s2.06-12.18,11-14S65.92,77.21,64.47,86.82Z" transform="translate(10.7)"/><path class="cls-5" d="M15.78,151.7s3.51-13,12.37-12.68S47,145.35,43.34,157.51s-14.65,36.1-23.89,41.88C9.92,190.7-6.77,176.52-9.33,164.18c-2-9.1,3.51-16.86,10.13-18.36S11.8,144.58,15.78,151.7Z" transform="translate(10.7)"/><path class="cls-6" d="M15.78,151.7s3.51-13,12.37-12.68S47,145.35,43.34,157.51s-14.65,36.1-23.89,41.88C9.92,190.7-6.77,176.52-9.33,164.18c-2-9.1,3.51-16.86,10.13-18.36S11.8,144.58,15.78,151.7Z" transform="translate(10.7)"/><path d="M15.6,150.38c-6.06-11.13-19.93-5.5-24.41,1.17-10.77,20,28.06,49,28.06,49l1.17-.25c11.78-9.67,23-34.3,24.92-47.15S20.19,127.18,15.6,150.38Zm27.14,4C41.58,163.14,29.25,192.08,18.9,198,6.31,186.82-10.47,172.29-8.35,156.55-8.12,151,.1,143.73,7.91,145.92c5.74,2,8.21,7.81,8.21,7.81s1.67-11.16,9.85-12.92S43.9,145.52,42.74,154.33Z" transform="translate(10.7)"/><path class="cls-7" d="M117.38,141s10.34-10.52,18.61-5.43,14.58,16.17,4.54,25.79-33.37,26.53-45.28,27.08c-4.42-13.41-12.71-35.9-8.51-49,3-9.73,12.39-14.18,19.52-12.06S117.42,132.06,117.38,141Z" transform="translate(10.7)"/><path d="M117.91,139.63c.21-13.86-16-15.95-23.9-12-21,13.33.42,61.79.42,61.79l1.25.39c16.43-2.88,40.36-20.33,49.09-31.54S134.76,120,117.91,139.63ZM141.67,158c-5.85,7.77-33.15,28.74-46.19,28.79-6-17.39-14.19-40.27-3.71-54.14,3.21-5.16,15-7.68,21.22-1.39,4.37,5,3.61,11.86,3.61,11.86s7.6-9.74,16.35-7S147.51,150.21,141.67,158Z" transform="translate(10.7)"/><path class="cls-7" d="M17.93,206.62s4.77-9.86,11.8-8.25,14.11,7.91,9.33,17.07S21.9,242.06,13.65,245.28C7.35,236.9-3.84,223-4,212.8c-.2-7.57,5.35-12.94,10.87-13.14S15.83,200.33,17.93,206.62Z" transform="translate(10.7)"/><path d="M18,205.54c-3.16-9.8-15.1-7.4-19.68-2.75-11.63,14.39,15,43.39,15,43.39l1,0c10.87-5.94,23.55-23.92,27-33.89S25.15,187.7,18,205.54Zm21.09,7.26c-2.27,6.86-16.49,28.12-25.65,31.27-8.37-10.82-19.58-25-15.5-37.22,1-4.4,8.69-9,14.59-6,4.28,2.48,5.38,7.48,5.38,7.48s3-8.66,9.82-8.83S41.33,205.94,39.07,212.8Z" transform="translate(10.7)"/><path d="M71.91,105.79s4.83-10,12-8.35,14.28,8,9.44,17.28-17.39,26.94-25.74,30.2c-6.38-8.5-17.7-22.53-17.87-32.89-.2-7.66,5.42-13.09,11-13.3S69.78,99.42,71.91,105.79Z" transform="translate(10.7)"/><path d="M72,104.7c-3.2-9.94-15.28-7.51-19.92-2.8-11.79,14.56,15.17,43.92,15.17,43.92l1,0c11-6,23.86-24.2,27.38-34.29S79.23,86.64,72,104.7Zm21.34,7.35c-2.29,7-16.7,28.46-26,31.64C58.86,132.74,47.52,118.41,51.65,106c1-4.46,8.8-9.07,14.78-6.1a12.7,12.7,0,0,1,5.43,7.57s3.07-8.76,10-8.93S95.59,105.11,93.3,112.05Z" transform="translate(10.7)"/><path class="cls-5" d="M160.45,179.79s12.6-7.67,19.37-.71,10.18,19.25-1.91,26.11-38.85,17.56-50.53,15.18c-1-14.08-3.53-37.92,3.75-49.63,5.3-8.7,15.5-10.72,21.89-6.91S162.67,171.14,160.45,179.79Z" transform="translate(10.7)"/><path d="M161.3,178.6c3.59-13.39-11.65-19.39-20.23-17.48-23.67,7.77-14.72,60-14.72,60l1.11.69c16.63,1.22,44.11-9.84,55.32-18.57S182.45,163.67,161.3,178.6Zm18.54,23.61c-7.57,6.11-39.18,19.75-51.83,16.62-1.56-18.34-3.9-42.52,9.65-53.4,4.38-4.23,16.38-3.79,20.92,3.84,3,5.94.6,12.38.6,12.38s9.75-7.58,17.57-2.8S187.41,196.1,179.84,202.21Z" transform="translate(10.7)"/><path class="cls-5" d="M181.12,219.29s11.85-6.47,17.75.18,8.48,18.05-2.87,23.81S159.71,257.67,149.12,255c-.3-12.92-1.59-34.84,5.57-45.24,5.22-7.73,14.63-9.14,20.31-5.38S183.52,211.48,181.12,219.29Z" transform="translate(10.7)"/><path class="cls-8" d="M181.12,219.29s11.85-6.47,17.75.18,8.48,18.05-2.87,23.81S159.71,257.67,149.12,255c-.3-12.92-1.59-34.84,5.57-45.24,5.22-7.73,14.63-9.14,20.31-5.38S183.52,211.48,181.12,219.29Z" transform="translate(10.7)"/><path d="M182,218.25c3.86-12.1-9.83-18.25-17.76-16.87-22,6.09-16,54.26-16,54.26l1,.68c15.16,1.83,40.76-7.11,51.4-14.61S201.93,205.5,182,218.25Zm15.94,22.38c-7.19,5.27-36.68,16.39-48.12,13-.64-16.85-1.74-39.06,11.12-48.43,4.19-3.68,15.14-2.76,19,4.41,2.5,5.56,0,11.35,0,11.35s9.24-6.51,16.18-1.81S205.08,235.37,197.89,240.63Z" transform="translate(10.7)"/><path class="cls-5" d="M140.1,235.42s4.53-11.34,12.47-10.11,16.31,7.69,11.72,18.25-17,30.94-25.92,35.17c-7.66-8.82-21.19-23.35-22.19-34.73-.82-8.39,4.93-14.8,11-15.46S137.27,228.59,140.1,235.42Z" transform="translate(10.7)"/><path d="M140.07,234.21c-4.28-10.65-17.36-7.05-22.1-1.52-11.8,16.91,20.1,47.07,20.1,47.07l1.08-.11c11.62-7.46,24.31-28.44,27.4-39.8S146.65,213.81,140.07,234.21Zm24,6.42c-2,7.81-16.12,32.56-26.06,36.77-10.15-11.36-23.72-26.21-20.16-40.16.8-5,9-10.65,15.76-7.85,4.95,2.43,6.56,7.9,6.56,7.9s2.69-9.87,10.24-10.6S166.06,232.82,164.08,240.63Z" transform="translate(10.7)"/><path class="cls-7" d="M90.26,243.1s12.75-7.41,19.38-.31,9.77,19.46-2.46,26.07S68,285.6,56.34,283c-.7-14.1-2.73-38,4.79-49.54,5.48-8.59,15.72-10.39,22-6.45S92.66,234.5,90.26,243.1Z" transform="translate(10.7)"/><path d="M91.13,241.93C95,228.61,79.88,222.29,71.26,224c-23.82,7.27-16,59.7-16,59.7l1.1.71C73,286,100.69,275.51,112.09,267S112.58,227.45,91.13,241.93Zm18,24c-7.69,5.95-39.58,18.93-52.16,15.53-1.18-18.37-3-42.59,10.76-53.19,4.46-4.13,16.45-3.44,20.83,4.28,2.89,6,.35,12.4.35,12.4s9.9-7.38,17.62-2.44S116.87,260,109.17,265.92Z" transform="translate(10.7)"/><path class="cls-5" d="M80.11,169.18s15.82-14.68,27.57-6.69,20.23,24.63,4.89,38S62,237,44.55,237c-5.55-19.9-16.15-53.35-9.14-72.27,5.06-14,19.09-19.9,29.36-16.31S80.76,156.13,80.11,169.18Z" transform="translate(10.7)"/><path d="M81,167.23c1.23-20.26-22.39-24.41-34.14-19.16-31.66,18.06-3.55,90.37-3.55,90.37l1.8.65c24.21-3.11,60.37-27,73.9-42.81S106.93,139.63,81,167.23Zm33.48,28.43c-9.06,11-50.4,39.78-69.46,39-7.61-25.85-18-59.84-1.77-79.41,5-7.33,22.37-10.21,31.11-.6,6.06,7.63,4.49,17.58,4.49,17.58s11.76-13.73,24.36-9.16S123.53,184.69,114.46,195.66Z" transform="translate(10.7)"/><path d="M28.61,251.85s8.31-7.71,14.48-3.51,10.63,12.94,2.57,20S19.1,287.5,9.93,287.5c-2.91-10.45-8.48-28-4.8-38,2.66-7.37,10-10.46,15.43-8.57S29,245,28.61,251.85Z" transform="translate(10.7)"/><path d="M29.07,250.83c.65-10.64-11.76-12.82-17.93-10.06-16.63,9.48-1.87,47.47-1.87,47.47l1,.34C22.93,287,41.93,274.39,49,266.09S42.7,236.34,29.07,250.83Zm17.59,14.94c-4.76,5.76-26.48,20.89-36.49,20.47-4-13.57-9.47-31.42-.93-41.71,2.65-3.85,11.75-5.36,16.34-.31,3.18,4,2.36,9.23,2.36,9.23s6.18-7.21,12.8-4.81S51.42,260,46.66,265.77Z" transform="translate(10.7)"/><path d="M120.44,205.4s5.59-5.19,9.74-2.37,7.15,8.7,1.73,13.43-17.87,12.91-24,12.91c-2-7-5.7-18.85-3.22-25.53,1.78-5,6.74-7,10.37-5.77S120.67,200.78,120.44,205.4Z" transform="translate(10.7)"/><path class="cls-9" d="M120.44,205.4s5.59-5.19,9.74-2.37,7.15,8.7,1.73,13.43-17.87,12.91-24,12.91c-2-7-5.7-18.85-3.22-25.53,1.78-5,6.74-7,10.37-5.77S120.67,200.78,120.44,205.4Z" transform="translate(10.7)"/><path d="M120.75,204.71c.43-7.16-7.91-8.63-12.06-6.77-11.19,6.38-1.26,31.93-1.26,31.93l.64.23c8.55-1.1,21.33-9.54,26.11-15.13S129.92,195,120.75,204.71Zm11.83,10c-3.2,3.88-17.81,14.06-24.54,13.78-2.69-9.13-6.38-21.14-.63-28.06,1.78-2.59,7.9-3.61,11-.21a8.78,8.78,0,0,1,1.59,6.21s4.15-4.85,8.61-3.24S135.78,210.88,132.58,214.75Z" transform="translate(10.7)"/></g><path class="cls-5" d="M52.25,12.65S52.05,3,57.93,1.49,71.51,2,71.43,11.1s-2.66,27.67-7.61,33.49C55.9,40.54,42.23,34.18,38.19,26.24c-3-5.83-.95-12.25,3.11-14.61S48.27,8.57,52.25,12.65Z" transform="translate(10.7)"/><path d="M51.88,11.79c-6.12-6.41-14.13.23-15.79,5.7-3.2,15.9,27.82,27.93,27.82,27.93l.72-.41c5.86-9,8.49-28.11,7.28-37.29S50.43-5,51.88,11.79ZM70.43,9c.93,6.27-1.59,28.57-7.24,34.69C52.79,38.61,39,32,37.36,20.82,36.45,17,40.44,10.34,46,10.27c4.15.24,6.88,3.71,6.88,3.71s-1-8,4-10.83S69.5,2.77,70.43,9Z" transform="translate(10.7)"/></g></g></svg>