<svg xmlns="http://www.w3.org/2000/svg" xmlns:xlink="http://www.w3.org/1999/xlink" viewBox="0 0 165 59.68"><defs><style>.cls-1{fill:none;}.cls-2{fill:#f39a00;}.cls-3{fill:#e05f07;}.cls-4{fill:#fff;}.cls-5{opacity:0.3;fill:url(#_10_dpi_30_3);}.cls-6{fill:#dd550a;}</style><pattern id="_10_dpi_30_3" data-name="10 dpi 30% 3" width="28.8" height="28.8" patternTransform="translate(-4.61 -84.6)" patternUnits="userSpaceOnUse" viewBox="0 0 28.8 28.8"><rect class="cls-1" width="28.8" height="28.8"/><path class="cls-2" d="M28.8,31a2.16,2.16,0,1,0-2.16-2.16A2.16,2.16,0,0,0,28.8,31Z"/><path class="cls-2" d="M14.4,31a2.16,2.16,0,1,0-2.16-2.16A2.16,2.16,0,0,0,14.4,31Z"/><path class="cls-2" d="M28.8,16.56a2.16,2.16,0,1,0-2.16-2.16A2.16,2.16,0,0,0,28.8,16.56Z"/><path class="cls-2" d="M14.4,16.56a2.16,2.16,0,1,0-2.16-2.16A2.16,2.16,0,0,0,14.4,16.56Z"/><path class="cls-2" d="M7.2,23.76A2.16,2.16,0,1,0,5,21.6,2.16,2.16,0,0,0,7.2,23.76Z"/><path class="cls-2" d="M21.6,23.76a2.16,2.16,0,1,0-2.16-2.16A2.16,2.16,0,0,0,21.6,23.76Z"/><path class="cls-2" d="M7.2,9.36A2.16,2.16,0,1,0,5,7.2,2.16,2.16,0,0,0,7.2,9.36Z"/><path class="cls-2" d="M21.6,9.36A2.16,2.16,0,1,0,19.44,7.2,2.16,2.16,0,0,0,21.6,9.36Z"/><path class="cls-2" d="M0,31A2.16,2.16,0,0,0,2.16,28.8,2.16,2.16,0,0,0,0,26.64,2.16,2.16,0,0,0,0,31Z"/><path class="cls-2" d="M0,16.56A2.16,2.16,0,0,0,2.16,14.4,2.16,2.16,0,0,0,0,12.24a2.16,2.16,0,1,0,0,4.32Z"/><path class="cls-2" d="M28.8,2.16A2.16,2.16,0,0,0,31,0a2.16,2.16,0,0,0-4.32,0A2.16,2.16,0,0,0,28.8,2.16Z"/><path class="cls-2" d="M14.4,2.16A2.16,2.16,0,0,0,16.56,0a2.16,2.16,0,1,0-4.32,0A2.16,2.16,0,0,0,14.4,2.16Z"/><path class="cls-2" d="M0,2.16A2.16,2.16,0,0,0,2.16,0,2.16,2.16,0,0,0,0-2.16,2.16,2.16,0,0,0-2.16,0,2.16,2.16,0,0,0,0,2.16Z"/></pattern></defs><g id="Layer_2" data-name="Layer 2"><g id="design"><path class="cls-3" d="M157.79,6.18A16.38,16.38,0,0,0,145.12,0H18.71C8.05,0,0,10.57,0,24.63c0,8.22,2.76,15.24,7.19,19.68a16.38,16.38,0,0,0,12.67,6.18h81.28l12.28,8.82a2.07,2.07,0,0,0,1.15.37,2,2,0,0,0,1.33-.53,3.16,3.16,0,0,0,.91-2.85l-.93-5.84h30.41C157,50.46,165,39.87,165,25.84,165,17.64,162.22,10.59,157.79,6.18Z"/><path class="cls-4" d="M145.69,2.8H19.29C9.56,2.8,2.85,12.56,2.85,24.6S9.56,46.4,19.29,46.4h81.88L114,55.62l-1.48-9.22h33.19c9.73,0,16.44-9.76,16.44-21.8S155.42,2.8,145.69,2.8Z"/><path class="cls-5" d="M145.69,2.8H19.29C9.56,2.8,2.85,12.56,2.85,24.6S9.56,46.4,19.29,46.4h81.88L114,55.62l-1.48-9.22h33.19c9.73,0,16.44-9.76,16.44-21.8S155.42,2.8,145.69,2.8Z"/><path class="cls-6" d="M59.15,22.92l-.43,2.5h2.67v6.42H57.62L57,35.79H51.45l.67-3.95h-2.8l-.67,3.95H43.1l.67-3.95H41.42V25.42h3.43l.42-2.5H42.15V16.45h4.2L46.92,13h5.6l-.6,3.48h2.75L55.25,13h5.59l-.59,3.48h1.89v6.47Zm-8.33,0-.4,2.5h2.75l.43-2.5Z"/><path class="cls-6" d="M68.35,35.57V13H90.57V35.57ZM83.47,19.2h-8v2.35h8Zm0,7.94h-8v2.3h8Z"/><path class="cls-6" d="M117.47,29.09v2.48c0,3.1-1.18,4.32-3.35,4.32H110V29.67h1.27c.18,0,.23-.13.23-.3v-.28h-6.6v6.65H95.5v-23h9.4V18.1h3.65v-.58h-3.23V13.1h3.23v-.48h6.37v.48h3.22v4.42h-3.22v.58h3.7V23h-1.15v.57h1.15v5.57Zm-16.85-10h-.85V21.5h.85Zm0,7.87h-.85v2.53h.85Zm10.88-4h-6.6v.57h6.6Zm-5.88,12.67L105,29.67h4.12l.65,5.95Z"/></g></g></svg>