<svg xmlns="http://www.w3.org/2000/svg" viewBox="0 0 222.48 66.76"><defs><style>.cls-1{fill:#060001;}</style></defs><g id="Layer_2" data-name="Layer 2"><g id="back"><path d="M205.18,7.12s4.75-6.7,9.75-4.64,9.45,7.58,4.79,13.76-16,17.57-22.46,18.93c-3.63-7-10.19-18.59-9.06-26.19.78-5.62,5.55-8.9,9.65-8.37S204.41,2.21,205.18,7.12Z"/><path d="M205.36,6.33C204.23-1.31,195.11-1,191.15,1.87c-10.38,9.2,5.75,33.92,5.75,33.92l.72.11c8.77-3.06,20.36-14.78,24.16-21.73S212.86-6,205.36,6.33Zm14.69,8c-2.52,4.8-15.65,18.76-22.81,20-4.86-9-11.4-20.87-6.88-29.43,1.3-3.12,7.53-5.55,11.54-2.66a9.48,9.48,0,0,1,3,6.2s3.3-6,8.35-5.32S222.57,9.5,220.05,14.29Z"/><path d="M124.77,66.76l-2.1-1A26.29,26.29,0,0,1,148,52.1c19.38,1.14,26.55-8,28.74-12l2,1.12c-2.4,4.38-10.22,14.43-30.91,13.21C131.19,53.43,124.83,66.62,124.77,66.76Z"/></g><g id="design"><path class="cls-1" d="M9.08,58.28c3.39-.1.34-11.17,2.92-12.91,1.09-.72,10.47-7.16,12.11-10.06s0-8-4.62-6.28-8,8.89-9.33,9.18.83-13.42,1-17.81-2.08-6.18-4.84-6.22C1.59,14.06-1.2,21.38.5,37S5.67,58.35,9.08,58.28Z"/><path class="cls-1" d="M17.73,24.19c1.66.29,1.63-.85,2.61-3.57s.16-7.35-3-6.37c-1.44.42-2.05,2.41-2,4.51C15.31,21.28,16.29,23.94,17.73,24.19Z"/><path class="cls-1" d="M24.33,22c1.15,0,2.44-1.22,3-3.66s-.13-5.66-2.92-4.84c-1.16.36-1.77,1.91-1.94,3.54C22.25,19.46,22.9,22.06,24.33,22Z"/><path class="cls-1" d="M37.62,31.55c.73-.3,1.57-.68,2.47-1.07.16.85.36,1.71.57,2.49l.09.4c-2.1.92-4.33,2.19-4.5,3.57-.21,2.06.64,4.37,4.59,2.61.43-.2.83-.41,1.32-.65,1.05,3.92,1.94,6.72,2.6,7.11,2,1.09,3.42-1.12,2.37-5.78a26.13,26.13,0,0,1-.47-4c2.66-1.81,5-3.71,5.07-4.44.17-.93-2.08-1.13-5.33-.36,0-.6-.08-1.23-.12-1.83s-.12-1.22-.16-1.81C49.82,26,53,24.13,53,23.18c0-1.19-3.66-1.48-7.07-1.12-.09-3.24-.22-5.8-1.19-7.09-1.8-2.34-6.27-.3-6,5.23.05.76.14,2,.32,3.51-3.11,1.09-6.94,2.69-7.2,4.64C31.48,31,32.45,33.71,37.62,31.55Z"/><path class="cls-1" d="M74.3,43c2-.15,2.91-7.05,3.4-13.78,3.59-1.81,9.54-4.62,11.34-6,2.32-1.74,3.7-3.87,1.1-6-2.4-2-8.3,2.2-12,5,0-1.48.08-2.73.1-3.76.17-6.59,1.72-15.29-3.89-14.5-3.53.51-6.9,7.19-6.36,18.36S71.17,43.33,74.3,43Z"/><path class="cls-1" d="M86.89,14c1.68.1,2.19-2.32,2.48-5.14S88.3,4.88,86.15,6c-1.09.56-1.57,2.53-1.44,4.38S85.59,14,86.89,14Z"/><path class="cls-1" d="M92.05,12.54c.58-.13,3-1.58,2.81-3.68S94.58,5,92.37,5.91c-1.13.51-1.56,2.3-1.54,3.93S91.35,12.7,92.05,12.54Z"/><path class="cls-1" d="M111.32,17.73c.29,1.15.59,2.33.92,3.47-4.38,1.73-5.26,3.18-4.35,4.95.54,1,3,.63,5.78-.28,1.34,3.92,2.72,6.9,3.57,7.28,1.42.6,1.27-3.87.68-9A17,17,0,0,0,121.4,22c2.55-2.15,2-4.08-4.09-2.53-.23-1.61-.46-3.19-.7-4.51,3.75-2.35,5.37-4.51,5.28-4.94s-2.14-1.11-6.21-.28c-.62-3.89-1.15-7.1-5.06-5.83-1.22.4-1.22,3.51-.6,7.52-5,1.75-8,3.09-7.71,5.46C102.62,19.42,105.53,20.13,111.32,17.73Z"/><path class="cls-1" d="M140.83,21c5,1.91,4.59.79,7.18-3.16s4.16-13.28-.86-14-5,5.7-5,5.7-5.16-6-8.48-1.89S136.87,19.43,140.83,21Z"/><path d="M9.08,58.28c3.39-.1.34-11.17,2.92-12.91,1.09-.72,10.47-7.16,12.11-10.06s0-8-4.62-6.28-8,8.89-9.33,9.18.83-13.42,1-17.81-2.08-6.18-4.84-6.22C1.59,14.06-1.2,21.38.5,37S5.67,58.35,9.08,58.28Z"/><path d="M17.73,24.19c1.66.29,1.63-.85,2.61-3.57s.16-7.35-3-6.37c-1.44.42-2.05,2.41-2,4.51C15.31,21.28,16.29,23.94,17.73,24.19Z"/><path d="M24.33,22c1.15,0,2.44-1.22,3-3.66s-.13-5.66-2.92-4.84c-1.16.36-1.77,1.91-1.94,3.54C22.25,19.46,22.9,22.06,24.33,22Z"/><path d="M37.62,31.55c.73-.3,1.57-.68,2.47-1.07.16.85.36,1.71.57,2.49l.09.4c-2.1.92-4.33,2.19-4.5,3.57-.21,2.06.64,4.37,4.59,2.61.43-.2.83-.41,1.32-.65,1.05,3.92,1.94,6.72,2.6,7.11,2,1.09,3.42-1.12,2.37-5.78a26.13,26.13,0,0,1-.47-4c2.66-1.81,5-3.71,5.07-4.44.17-.93-2.08-1.13-5.33-.36,0-.6-.08-1.23-.12-1.83s-.12-1.22-.16-1.81C49.82,26,53,24.13,53,23.18c0-1.19-3.66-1.48-7.07-1.12-.09-3.24-.22-5.8-1.19-7.09-1.8-2.34-6.27-.3-6,5.23.05.76.14,2,.32,3.51-3.11,1.09-6.94,2.69-7.2,4.64C31.48,31,32.45,33.71,37.62,31.55Z"/><path d="M74.3,43c2-.15,2.91-7.05,3.4-13.78,3.59-1.81,9.54-4.62,11.34-6,2.32-1.74,3.7-3.87,1.1-6-2.4-2-8.3,2.2-12,5,0-1.48.08-2.73.1-3.76.17-6.59,1.72-15.29-3.89-14.5-3.53.51-6.9,7.19-6.36,18.36S71.17,43.33,74.3,43Z"/><path d="M86.89,14c1.68.1,2.19-2.32,2.48-5.14S88.3,4.88,86.15,6c-1.09.56-1.57,2.53-1.44,4.38S85.59,14,86.89,14Z"/><path d="M92.05,12.54c.58-.13,3-1.58,2.81-3.68S94.58,5,92.37,5.91c-1.13.51-1.56,2.3-1.54,3.93S91.35,12.7,92.05,12.54Z"/><path d="M111.32,17.73c.29,1.15.59,2.33.92,3.47-4.38,1.73-5.26,3.18-4.35,4.95.54,1,3,.63,5.78-.28,1.34,3.92,2.72,6.9,3.57,7.28,1.42.6,1.27-3.87.68-9A17,17,0,0,0,121.4,22c2.55-2.15,2-4.08-4.09-2.53-.23-1.61-.46-3.19-.7-4.51,3.75-2.35,5.37-4.51,5.28-4.94s-2.14-1.11-6.21-.28c-.62-3.89-1.15-7.1-5.06-5.83-1.22.4-1.22,3.51-.6,7.52-5,1.75-8,3.09-7.71,5.46C102.62,19.42,105.53,20.13,111.32,17.73Z"/><path d="M140.83,21c5,1.91,4.59.79,7.18-3.16s4.16-13.28-.86-14-5,5.7-5,5.7-5.16-6-8.48-1.89S136.87,19.43,140.83,21Z"/></g></g></svg>