<svg xmlns="http://www.w3.org/2000/svg" viewBox="0 0 565.08 172.06"><defs><style>.cls-1{fill:#2c7549;}.cls-2{fill:#fff;}</style></defs><g id="Layer_2" data-name="Layer 2"><g id="Design"><polygon class="cls-1" points="6.01 171.06 8.04 23.09 560 6.03 564.05 171.06 6.01 171.06"/><path class="cls-1" d="M559,7.06l4,163H7l2-146,550-17M561,5l-2,.06L9,22.06l-1.92.06L7,24,5,170l0,2H565.08L565,170,561,7l0-2Z"/><polygon class="cls-2" points="1.01 166.06 3.04 18.09 555 1.03 559.05 166.06 1.01 166.06"/><path class="cls-1" d="M554,2.06l4,163H2l2-146,550-17M556,0l-2,.06L4,17.06l-1.92.06L2,19,0,165l0,2H560.08L560,165,556,2l0-2Z"/><path d="M228.49,82.49V85H203.57V82.49h6.8a15.15,15.15,0,0,0-1.09-2.12l.9-.26H207V74.29H225.1v5.82H222l.73.26c-.45.75-.92,1.48-1.34,2.12Zm-.25-9.15H203.88V71h24.36ZM226,70.06H205.78V61.19h5.77V59.28h2.8v1.91h2.85V59.28h2.86v1.91h6Zm-17.19-5.49h2.72v-1.2h-2.72Zm0,3.28h2.72V66.62h-2.72ZM210.18,78h11.48V76.42H210.18Zm2.35,2.12a9.89,9.89,0,0,1,1.12,2.19l-.59.19h5.52l-.4-.14a22.59,22.59,0,0,0,1.29-2.24Zm1.82-16.74v1.2h2.85v-1.2Zm0,3.25v1.23h2.85V66.62Zm8.48-3.25h-2.77v1.2h2.77Zm0,3.25h-2.77v1.23h2.77Z"/><path d="M238.29,72.25a32.63,32.63,0,0,0-4.59-2.86L235.54,67a36.55,36.55,0,0,1,4.74,2.61Zm-4.12,11.17a86.47,86.47,0,0,0,3.61-9l2.69,1.74c-.92,3-2.15,6.21-3.3,9Zm5.18-18.48a31.76,31.76,0,0,0-4.59-3l2-2.43a32.23,32.23,0,0,1,4.65,2.74Zm19.49-5V85.41h-3.19V74.07l-1.35.64a19.41,19.41,0,0,0-1.4-3.86V84.59h-3.1V74.09l-1.71.7a23.21,23.21,0,0,0-1-3.69c-.08,5-.67,10.16-3.56,14.33a12,12,0,0,0-2.85-1.93c3-4.14,3.3-9.24,3.3-14.19V68.8a20.5,20.5,0,0,1-2,6.58l-2.47-1.31a18.4,18.4,0,0,0,2.13-6.7l2.38.73V60h3.14v8.51l1.4-.56A25.1,25.1,0,0,1,249.8,71V60.51h3.1v7.4l1.15-.54a31.65,31.65,0,0,1,1.6,2.94V60Z"/><path d="M272,69.73a72.42,72.42,0,0,0,9.69-3.11,17.65,17.65,0,0,0,2.69-1.29,3.35,3.35,0,1,1,2.52,1.15,3.29,3.29,0,0,1-1.8-.53l1.15,2.71c-1.09.45-2.35,1-3.27,1.32a95.7,95.7,0,0,1-11,3.41v5.18c0,1.21.56,1.52,1.82,1.77a26.57,26.57,0,0,0,3.25.17,47.79,47.79,0,0,0,9.74-1v4.08a78.07,78.07,0,0,1-10,.59,31.51,31.51,0,0,1-4.7-.33c-2.44-.42-3.84-1.77-3.84-4.18V64.43a23.57,23.57,0,0,0-.22-2.91h4.14a21.38,21.38,0,0,0-.22,2.91Zm16.52-6.61a1.61,1.61,0,1,0-1.62,1.62A1.63,1.63,0,0,0,288.52,63.12Z"/><path d="M304.68,74.21l-3.42,1.28A57.54,57.54,0,0,0,298.71,69l3.36-1.21C302.77,69.25,304.12,72.64,304.68,74.21Zm14.22-5.83c-.34.9-.51,1.49-.67,2.05a22.69,22.69,0,0,1-3.81,8.2A21.91,21.91,0,0,1,305,85.57l-2.94-3a18.8,18.8,0,0,0,9.29-5.85A18.86,18.86,0,0,0,315,67.12Zm-8,4.09-3.36,1.18a45.6,45.6,0,0,0-2.26-6.22l3.33-1.09C309.1,67.54,310.47,71.18,310.86,72.47Z"/><path d="M348,76.56a80.16,80.16,0,0,0-10.1-4.17v7.92c0,.81.14,2.77.25,3.89h-4.37a29.56,29.56,0,0,0,.28-3.89V64.24a19.15,19.15,0,0,0-.28-3.39h4.37a30.93,30.93,0,0,0-.25,3.39v4.11a93,93,0,0,1,11.7,4.34Z"/><path d="M127.65,123.67a20.77,20.77,0,0,0,7.57,4.56,8.24,8.24,0,0,0-1.48,1.76,22.64,22.64,0,0,1-7.7-5.37v5.63h-2.13v-5.54a22.35,22.35,0,0,1-7.57,5.25,10,10,0,0,0-1.41-1.71,20.89,20.89,0,0,0,7.39-4.58h-4.95v-8.14h6.54v-1.61H115.5V112h8.41v-2H126v2h8.6v1.89H126v1.61h6.87v8.14Zm-8.28-4.82h4.54v-1.76h-4.54Zm0,3.26h4.54v-1.78h-4.54Zm6.67-5v1.76h4.8v-1.76Zm4.8,3.24H126v1.78h4.8Z"/><path d="M142.94,124.6a20.07,20.07,0,0,1-4.29,4.88,10.63,10.63,0,0,0-1.68-1.21,14.44,14.44,0,0,0,3.9-4.33Zm13.64-10.24h-19.1v-2h8.41v-2.36h2.17v2.36h8.52Zm-8.52,8.48V128c0,1.1-.24,1.67-1.07,2a13.4,13.4,0,0,1-4,.29,8,8,0,0,0-.66-1.94c1.32.05,2.71.05,3.06,0s.51-.09.51-.38v-5.12h-5.85v-6.69h14.08v6.69Zm-5.94-1.77H152V118h-9.88Zm10.7,2.87a37.9,37.9,0,0,1,4,4.68l-2,1a33,33,0,0,0-3.94-4.82Z"/><path d="M170.75,111.46a26.94,26.94,0,0,1-2.8,5.13h2.29v1.78h-3.68c-.57.66-1.18,1.3-1.8,1.89h4.6v9.62h-1.94V129h-4.35v1.21h-1.85V123c-.49.29-1,.6-1.5.88a9.15,9.15,0,0,0-1.19-1.67,20.82,20.82,0,0,0,5.48-3.87h-4.95v-1.78h4.12v-2.31H160v-1.76h3.15v-2.27h1.89v2.27h2.53v1.14a22.46,22.46,0,0,0,1.3-2.75Zm-3.33,10.45h-4.35v1.81h4.35Zm0,5.39v-2h-4.35v2Zm-1.8-10.71a22,22,0,0,0,1.6-2.31h-2.15v2.31Zm13.62-4.43c-.86,2.07-2,4.58-3,6.56,2.11,2,2.6,3.68,2.6,5.17s-.33,2.53-1.15,3.08a3.65,3.65,0,0,1-1.49.51,13.29,13.29,0,0,1-2,0,5,5,0,0,0-.55-2,9.48,9.48,0,0,0,1.65,0,2,2,0,0,0,1-.24c.46-.26.62-.83.62-1.63,0-1.29-.62-2.92-2.69-4.73.82-1.71,1.72-4,2.34-5.74h-3.5v17.05h-2v-19h6.35l.31-.09Z"/><path d="M185,120.19a35.1,35.1,0,0,0-4-2.37l1.1-1.5a28.49,28.49,0,0,1,4.07,2.18Zm2.33,2.84c-1.14,2.27-2.61,4.91-3.89,7l-1.74-1.39a57.18,57.18,0,0,0,4.14-7Zm-1.25-8.6a32.39,32.39,0,0,0-3.87-2.6l1.19-1.43a35.39,35.39,0,0,1,3.93,2.4Zm15,12.43v2h-14v-2h5.72V114.08h-4.62v-2H200v2H195v12.78Z"/><path d="M215.65,123.67a20.77,20.77,0,0,0,7.57,4.56,8.24,8.24,0,0,0-1.48,1.76,22.64,22.64,0,0,1-7.7-5.37v5.63h-2.13v-5.54a22.35,22.35,0,0,1-7.57,5.25,10,10,0,0,0-1.41-1.71,20.89,20.89,0,0,0,7.39-4.58h-4.95v-8.14h6.54v-1.61H203.5V112h8.41v-2H214v2h8.6v1.89H214v1.61h6.87v8.14Zm-8.28-4.82h4.54v-1.76h-4.54Zm0,3.26h4.54v-1.78h-4.54Zm6.67-5v1.76h4.8v-1.76Zm4.8,3.24H214v1.78h4.8Z"/><path d="M245,129.13H228.1v1.16h-2V111.35h18.35v2H228.1v13.86H245Zm-4.27-3.46a29.77,29.77,0,0,0-4.18-4.2,29.7,29.7,0,0,1-5.67,5,14.54,14.54,0,0,0-1.63-1.6,24.94,24.94,0,0,0,5.74-4.65c-1.61-1.27-3.28-2.48-4.86-3.5l1.41-1.32c1.54,1,3.19,2.09,4.77,3.28a26.23,26.23,0,0,0,3.08-4.77l2,.68a33.45,33.45,0,0,1-3.49,5.35,31.14,31.14,0,0,1,4.44,4.24Z"/><path d="M266.8,128.27v1.58H247.3v-1.58H253a11.41,11.41,0,0,0-1-1.87l.95-.29H250v-4.37h14v4.37h-2.71l.75.27c-.38.68-.79,1.34-1.17,1.89Zm-.29-7.5H247.59v-1.5h18.92Zm-1.8-2.45H249.15v-6.73h4.51v-1.54h1.76v1.54h2.8v-1.54H260v1.54h4.73Zm-13.64-4h2.59V113h-2.59Zm0,2.64h2.59v-1.3h-2.59Zm1,7.81h9.88v-1.61H252Zm1.87,1.38a9.66,9.66,0,0,1,1,2l-.55.2h5l-.41-.15a15.31,15.31,0,0,0,1.14-2ZM255.42,113v1.28h2.8V113Zm0,2.62v1.3h2.8v-1.3Zm7.33-2.62H260v1.28h2.77Zm0,2.62H260v1.3h2.77Z"/><path d="M272.54,119.84a27.76,27.76,0,0,0-3.65-2.24l1.14-1.5a33.9,33.9,0,0,1,3.72,2.07Zm-3.26,9.09a59.69,59.69,0,0,0,3-7L273.9,123c-.79,2.31-1.82,4.91-2.77,7Zm4-14.79a23.31,23.31,0,0,0-3.52-2.37l1.21-1.48a26.28,26.28,0,0,1,3.58,2.2Zm.15,7.4a14.09,14.09,0,0,0,1.74-5.24l1.54.48a15.93,15.93,0,0,1-1.74,5.59Zm14.74-11v19.67h-1.95v-8.84l-1.1.52a22,22,0,0,0-1.68-4.11v11.9h-1.89v-8.38l-1.49.61a19.68,19.68,0,0,0-1.17-4.09v.2c0,4.29-.31,8.71-3,12.19a7.78,7.78,0,0,0-1.71-1.19c2.53-3.17,2.79-7.11,2.79-11V110.6h1.94v6.54l1.19-.44a18.14,18.14,0,0,1,1.47,4.26v-10h1.89v5.79l1-.44a23.13,23.13,0,0,1,1.76,3.52v-9.22Z"/><path d="M305.32,115.55a4.34,4.34,0,0,0-3.28-1.43c-2,0-4.29,1.43-4.47,6.21a5.61,5.61,0,0,1,4.19-2c2.7,0,5.19,1.54,5.19,5a5.16,5.16,0,0,1-5.46,5.46c-3.43,0-6.34-2.33-6.34-7.75,0-6.4,3.33-9,6.83-9a6.39,6.39,0,0,1,4.75,2Zm-.77,7.88a2.94,2.94,0,0,0-3.17-3.13,4.6,4.6,0,0,0-3.74,2.23c.4,3,2,4.29,3.87,4.29S304.55,125.56,304.55,123.43Z"/><path d="M332.67,114.06h-7.79v13.11c0,1.5-.4,2.18-1.45,2.51a17.54,17.54,0,0,1-5.2.42,9.33,9.33,0,0,0-1-2.38c1.92.09,3.9.09,4.49.07s.75-.16.75-.64V114.06h-9.09v-2.12h19.28Z"/><path d="M352.51,111.35v18.77h-2.16v-1.45H339.48v1.45h-2.06V111.35Zm-13,2v3.13h10.87v-3.13Zm0,5.06v3.17h10.87v-3.17Zm10.87,8.25v-3.14H339.48v3.14Z"/><path d="M361.22,126.44h4.88V115.13h-3.78v-1.6a11.44,11.44,0,0,0,4.42-1.23h1.9v14.14h4.51v2.09H361.22Z"/><path d="M397,119.31v1.83H381.11v-1.83Z"/><path d="M405.18,127.06c4.9-3.87,8.6-7.24,8.6-10a2.91,2.91,0,0,0-3.15-3c-1.62,0-2.86.86-4.16,2.29l-1.54-1.48a7.69,7.69,0,0,1,5.81-2.88c3.26,0,5.53,1.83,5.53,5s-3.11,6.31-7,9.5c.88-.06,1.7-.13,2.51-.13H417v2.13H405.18Z"/><path d="M426.65,126l1.27-1.61a6.43,6.43,0,0,0,4.87,2.29c2,0,3.45-1,3.45-2.66s-1.43-2.93-5.39-2.93v-1.89c3.52,0,5-1.3,5-2.78s-1.1-2.37-3.11-2.37a6,6,0,0,0-4.35,2L427,114.54a8.34,8.34,0,0,1,5.81-2.51c3.35,0,5.44,1.67,5.44,4.16a3.86,3.86,0,0,1-3,3.83v.09a4.07,4.07,0,0,1,3.41,4.11c0,2.84-2.59,4.6-5.74,4.6A7.85,7.85,0,0,1,426.65,126Z"/></g></g></svg>