<?xml version="1.0" encoding="utf-8"?>
<!-- Generator: Adobe Illustrator 25.0.1, SVG Export Plug-In . SVG Version: 6.00 Build 0)  -->
<svg version="1.1" id="Layer_1" xmlns="http://www.w3.org/2000/svg" xmlns:xlink="http://www.w3.org/1999/xlink" x="0px" y="0px"
	 viewBox="0 0 40 40" style="enable-background:new 0 0 40 40;" xml:space="preserve">
<style type="text/css">
	.st0{fill:url(#SVGID_1_);}
	.st1{fill:#FFFFFF;}
</style>
<g>
	<g id="Layer_2_1_">
		<g id="nav">
			
				<image style="overflow:visible;opacity:0.4;enable-background:new    ;" width="53" height="53" xlink:href="E33D8CD4.png"  transform="matrix(1 0 0 1 -4.35 -5)">
			</image>
			
				<linearGradient id="SVGID_1_" gradientUnits="userSpaceOnUse" x1="37.9389" y1="6.0511" x2="2.0611" y2="41.9289" gradientTransform="matrix(1 0 0 -1 0 44)">
				<stop  offset="0" style="stop-color:#F2CE52"/>
				<stop  offset="0.5" style="stop-color:#FD1C8A"/>
				<stop  offset="1" style="stop-color:#303ADA"/>
			</linearGradient>
			<path class="st0" d="M5.8,0.5h28.3c2.9,0,5.3,2.4,5.3,5.3v28.3c0,2.9-2.4,5.3-5.3,5.3H5.8c-2.9,0-5.3-2.4-5.3-5.3V5.8
				C0.5,2.9,2.9,0.5,5.8,0.5z"/>
			<path d="M34.2,1C36.8,1,39,3.2,39,5.8v28.3c0,2.7-2.2,4.8-4.8,4.8H5.8C3.2,39,1,36.8,1,34.2V5.8C1,3.2,3.2,1,5.8,1c0,0,0,0,0,0
				H34.2 M34.2,0H5.8C2.6,0,0,2.6,0,5.8v28.3C0,37.4,2.6,40,5.8,40h28.3c3.2,0,5.8-2.6,5.8-5.8V5.8C40,2.6,37.4,0,34.2,0
				C34.2,0,34.2,0,34.2,0z"/>
			<g id="レイヤー_2">
				<g id="レイヤー_1-2">
					<g id="icon_inst">
						<path id="パス_8" class="st1" d="M20,10.7c3,0,3.4,0,4.6,0.1c0.7,0,1.4,0.1,2.1,0.4c0.5,0.2,0.9,0.5,1.3,0.8
							c0.4,0.4,0.7,0.8,0.8,1.3c0.3,0.7,0.4,1.4,0.4,2.1c0.1,1.2,0.1,1.5,0.1,4.6s0,3.4-0.1,4.6c0,0.7-0.1,1.4-0.4,2.1
							c-0.2,0.5-0.5,0.9-0.8,1.3c-0.4,0.4-0.8,0.7-1.3,0.8c-0.7,0.3-1.4,0.4-2.1,0.4c-1.2,0.1-1.5,0.1-4.6,0.1s-3.4,0-4.6-0.1
							c-0.7,0-1.4-0.1-2.1-0.4c-1-0.4-1.7-1.2-2.1-2.1c-0.3-0.7-0.4-1.4-0.4-2.1c-0.1-1.2-0.1-1.6-0.1-4.6c0-3,0-3.4,0.1-4.6
							c0-0.7,0.1-1.4,0.4-2.1c0.2-0.5,0.5-0.9,0.8-1.3c0.4-0.4,0.8-0.7,1.3-0.9c0.7-0.3,1.4-0.4,2.1-0.4C16.6,10.8,17,10.8,20,10.7
							 M20,8.7c-3.1,0-3.5,0-4.7,0.1c-0.9,0-1.9,0.2-2.7,0.5c-1.5,0.6-2.7,1.8-3.3,3.3c-0.3,0.9-0.5,1.8-0.5,2.8
							c-0.1,1.2-0.1,1.6-0.1,4.7c0,3.1,0,3.5,0.1,4.7c0,0.9,0.2,1.9,0.5,2.7c0.3,0.8,0.7,1.4,1.3,2c0.6,0.6,1.2,1,2,1.3
							c0.9,0.3,1.8,0.5,2.8,0.5c1.2,0.1,1.6,0.1,4.7,0.1s3.5,0,4.7-0.1c0.9,0,1.9-0.2,2.8-0.5c1.5-0.6,2.7-1.8,3.3-3.3
							c0.3-0.9,0.5-1.8,0.5-2.7c0-1.2,0.1-1.6,0.1-4.7s0-3.5-0.1-4.7c0-0.9-0.2-1.9-0.5-2.8c-0.6-1.5-1.8-2.7-3.3-3.3
							c-0.9-0.3-1.8-0.5-2.7-0.5C23.5,8.7,23.1,8.7,20,8.7z"/>
						<path id="パス_9" class="st1" d="M20,15.2c-2.6,0-4.8,2.1-4.8,4.8l0,0c0,2.6,2.1,4.8,4.8,4.8l0,0c2.6,0,4.8-2.1,4.8-4.8l0,0
							C24.8,17.4,22.6,15.2,20,15.2L20,15.2L20,15.2z M20,23.1c-1.7,0-3.1-1.4-3.1-3.1s1.4-3.1,3.1-3.1c1.7,0,3.1,1.4,3.1,3.1l0,0
							C23.1,21.7,21.7,23.1,20,23.1C20,23.1,20,23.1,20,23.1z"/>
						<circle id="楕円形_9" class="st1" cx="25.9" cy="14.1" r="1.6"/>
					</g>
				</g>
			</g>
		</g>
	</g>
</g>
</svg>
