<?xml version="1.0" encoding="utf-8"?>
<!-- Generator: Adobe Illustrator 25.0.1, SVG Export Plug-In . SVG Version: 6.00 Build 0)  -->
<svg version="1.1" id="Layer_1" xmlns="http://www.w3.org/2000/svg" xmlns:xlink="http://www.w3.org/1999/xlink" x="0px" y="0px"
	 viewBox="0 0 40 40" style="enable-background:new 0 0 40 40;" xml:space="preserve">
<style type="text/css">
	.st0{fill:#36D636;}
	.st1{fill:#FFFFFF;}
</style>
<g>
	<g id="Layer_2_1_">
		<g id="design">
			
				<image style="overflow:visible;opacity:0.4;enable-background:new    ;" width="53" height="53" xlink:href="E2CA072F.png"  transform="matrix(1 0 0 1 -4.45 -5.67)">
			</image>
			<path class="st0" d="M5.8,0.5h28.3c2.9,0,5.3,2.4,5.3,5.3v28.3c0,2.9-2.4,5.3-5.3,5.3H5.8c-2.9,0-5.3-2.4-5.3-5.3V5.8
				C0.5,2.9,2.9,0.5,5.8,0.5z"/>
			<path d="M34.2,1C36.8,1,39,3.2,39,5.8v28.3c0,2.7-2.2,4.8-4.8,4.8H5.8C3.2,39,1,36.8,1,34.2V5.8C1,3.2,3.2,1,5.8,1H34.2 M34.2,0
				H5.8C2.6,0,0,2.6,0,5.8c0,0,0,0,0,0v28.3C0,37.4,2.6,40,5.8,40h28.3c3.2,0,5.8-2.6,5.8-5.8V5.8C40,2.6,37.4,0,34.2,0
				C34.2,0,34.2,0,34.2,0z"/>
			<g id="レイヤー_2">
				<g id="レイヤー_1-2">
					<path id="パス_863" class="st1" d="M31.6,18.3C31.6,13.1,26.4,9,20,9S8.5,13.2,8.5,18.3c0,4.6,4.1,8.5,9.6,9.2
						c0.4,0.1,0.9,0.2,1,0.6c0.1,0.3,0.1,0.7,0,1c0,0-0.1,0.8-0.1,1s-0.2,1.1,1,0.6s6.7-3.9,9-6.7l0,0
						C30.5,22.6,31.5,20.5,31.6,18.3z M15.9,21.1c0,0.1-0.1,0.2-0.2,0.2h-3.2c-0.1,0-0.1,0-0.2-0.1l0,0c0-0.1-0.1-0.1-0.1-0.2l0,0
						v-5c0-0.1,0.1-0.2,0.2-0.2h0.8c0.1,0,0.2,0.1,0.2,0.2c0,0,0,0,0,0l0,0v4h2.2c0.1,0,0.2,0.1,0.2,0.2L15.9,21.1L15.9,21.1z
						 M17.9,21.1c0,0.1-0.1,0.2-0.2,0.2h-0.8c-0.1,0-0.2-0.1-0.2-0.2v-5c0-0.1,0.1-0.2,0.2-0.2c0,0,0,0,0,0h0.8
						c0.1,0,0.2,0.1,0.2,0.2V21.1z M23.5,21.1c0,0.1-0.1,0.2-0.2,0.2c0,0,0,0,0,0h-0.9 M22.3,21.3L20,18.2v3c0,0.1-0.1,0.2-0.2,0.2
						h-0.8c-0.1,0-0.2-0.1-0.2-0.2v-5c0-0.1,0.1-0.2,0.2-0.2h0.9 M19.8,15.9l2.4,3.1v-2.9c0-0.1,0.1-0.2,0.2-0.2c0,0,0,0,0,0h0.8
						c0.1,0,0.2,0.1,0.2,0.2v5L19.8,15.9z M27.9,16.9c0,0.1-0.1,0.2-0.2,0.2c0,0,0,0,0,0h-2.2V18h2.2c0.1,0,0.2,0.1,0.2,0.2V19
						c0,0.1-0.1,0.2-0.2,0.2h-2.2v0.8h2.2c0.1,0,0.2,0.1,0.2,0.2l0,0v0.8c0,0.1-0.1,0.2-0.2,0.2h-3.3c-0.1,0-0.1,0-0.2-0.1l0,0
						c0-0.1-0.1-0.1-0.1-0.2l0,0v-5l0,0c0-0.1,0-0.1,0.1-0.2l0,0c0,0,0.1,0,0.2,0h3.2c0.1,0,0.2,0.1,0.2,0.2c0,0,0,0,0,0L27.9,16.9z
						"/>
				</g>
			</g>
		</g>
	</g>
</g>
</svg>
