<svg xmlns="http://www.w3.org/2000/svg" viewBox="0 0 330.26 96.46"><defs><style>.cls-1{fill:#fff;}</style></defs><g id="Layer_2" data-name="Layer 2"><g id="background"><path d="M315.83,10A36.13,36.13,0,0,0,290.46,0h-253C16.12,0,0,17.08,0,39.8,0,53.1,5.52,64.44,14.38,71.6a36.1,36.1,0,0,0,25.38,10H202.43L227,95.85a4.83,4.83,0,0,0,2.31.61A4.6,4.6,0,0,0,233.8,91l-1.87-9.43h60.88c21.37,0,37.45-17.11,37.45-39.79C330.22,28.5,324.7,17.12,315.83,10Z"/><path class="cls-1" d="M292.46,4.52h-253C20,4.52,6.56,20.29,6.56,39.76S20,75,39.45,75h163.9L229,89.9l-3-14.91H292.5c19.47,0,32.89-15.77,32.89-35.23S311.93,4.52,292.46,4.52Z"/><path d="M112,49.39a3.6,3.6,0,0,0,.36-1.82V32.4a18.17,18.17,0,0,0-.3-3.17h4.39a19.66,19.66,0,0,0-.28,3.17V46.93a31.72,31.72,0,0,0,14.39-9.24l2,3.16c-3.83,4.59-9.66,7.93-16.24,10.08a8,8,0,0,0-1.68.76Z"/><path d="M146.19,40.46a44,44,0,0,1-5.41,7.81l-3-2.07A29.35,29.35,0,0,0,143,39Zm6.32-4v13c0,1.63-.92,2.64-2.91,2.64a39.93,39.93,0,0,1-4.56-.26l-.34-3.47a18.88,18.88,0,0,0,3.11.34c.73,0,1-.28,1-1,0-1,0-9.91,0-11.23v0h-7.11a26.51,26.51,0,0,0-2.71.12V32.87a22,22,0,0,0,2.71.23h7.11V30.86a14.81,14.81,0,0,0-.25-2.44h4.15a21.53,21.53,0,0,0-.26,2.44V33.1H159a22.21,22.21,0,0,0,2.74-.2v3.67c-.87-.06-2-.09-2.71-.09Zm5.72,2.41A64.13,64.13,0,0,1,163,46.26l-3.3,1.79a52.32,52.32,0,0,0-4.54-7.51Zm-1.6-9.38a3.24,3.24,0,1,1,3.25,3.25A3.23,3.23,0,0,1,156.63,29.51Zm1.71,0a1.53,1.53,0,1,0,3,0,1.53,1.53,0,0,0-3,0Z"/><path d="M168.67,37.55c1,.08,3.05.17,4.51.17h15c1.28,0,2.54-.12,3.27-.17v4.39c-.67,0-2.1-.14-3.27-.14h-15c-1.6,0-3.47.06-4.51.14Z"/><path d="M216.13,44.07A81.67,81.67,0,0,0,206,39.9v7.92c0,.82.13,2.78.25,3.9h-4.37a29.83,29.83,0,0,0,.28-3.9V31.75a19.15,19.15,0,0,0-.28-3.39h4.37a28.8,28.8,0,0,0-.25,3.39v4.12a91.41,91.41,0,0,1,11.7,4.34Z"/></g></g></svg>