<svg xmlns="http://www.w3.org/2000/svg" viewBox="0 0 94.81 109.43"><defs><style>.cls-1{fill:#fff;}.cls-2{fill:none;}</style></defs><g id="Layer_2" data-name="Layer 2"><g id="Design"><path class="cls-1" d="M30.81,14c5-7,17.24-11,27.56-11A32.26,32.26,0,0,1,90.56,40.13a32,32,0,0,1,1.77,10.49A32.62,32.62,0,0,1,43.27,78.41a33.09,33.09,0,0,1-8.9,1.23A32.41,32.41,0,0,1,1.81,47.4C1.81,30.08,15.81,20,30.81,14Z"/><path class="cls-2" d="M90.59,34.83c-.07-.73-.23-1.51-.35-2.34A36.85,36.85,0,0,0,88.79,27a32.41,32.41,0,0,0-2.92-6.19A33.63,33.63,0,0,0,81,14.62,34.8,34.8,0,0,0,65.5,5.73a38.25,38.25,0,0,0-9.36-1.3A38.48,38.48,0,0,0,39.51,8a37.57,37.57,0,0,0-10.3,7.2,8.87,8.87,0,0,1,1.9.29c.68.19,1,.43,1,.71,0,.6-1.72.94-4.67,1.63l-.92.23c-.23.26-.44.52-.64.76l-.54.63-.44.56a9.48,9.48,0,0,1-.71.8c-.38.38-.59.46-.61.18a7.59,7.59,0,0,1,.35-2.21q-.84.26-1.74.57a38.24,38.24,0,0,0-6.49,3c-.29.16-.57.34-.86.52s-.57.36-.86.55c-.56.4-1.15.78-1.71,1.23s-1.14.9-1.71,1.38-1.12,1-1.66,1.55a30.49,30.49,0,0,0-5.72,7.89A27.88,27.88,0,0,0,1.77,57.11a29.71,29.71,0,0,0,5.92,10,32.13,32.13,0,0,0,8.66,6.84,35.93,35.93,0,0,0,4.76,2.15,36.81,36.81,0,0,0,4.77,1.35,39,39,0,0,0,4.61.66,42.21,42.21,0,0,0,4.32.09,38.42,38.42,0,0,0,7.32-1,44.4,44.4,0,0,0,5.25-1.62c1.38-.52,2.4-.94,3-1.17s.88-.21.69.07A9,9,0,0,1,49,76.52a20.3,20.3,0,0,1-3.84,2.31l-.31.14.75.18a56.85,56.85,0,0,0,8.77,1.58,37.53,37.53,0,0,0,12.93-1.07,33.58,33.58,0,0,0,10.56-4.88,34.46,34.46,0,0,0,3.24-2.6,30.62,30.62,0,0,0,8.56-13.29,30.18,30.18,0,0,0,1.06-13.21A36,36,0,0,0,88.31,37c-.38-1-.68-1.68-.82-2.14s-.1-.66.13-.56a8.55,8.55,0,0,1,3.27,3.17l-.06-.64C90.77,36.22,90.68,35.55,90.59,34.83Z"/><path d="M28.81,16a50.11,50.11,0,0,1,4.53-4.31A39.92,39.92,0,0,1,39.51,8,38.48,38.48,0,0,1,56.14,4.43a38.25,38.25,0,0,1,9.36,1.3A34.8,34.8,0,0,1,81,14.62a33.63,33.63,0,0,1,4.86,6.17A32.41,32.41,0,0,1,88.79,27a36.85,36.85,0,0,1,1.45,5.51c.12.83.28,1.61.35,2.34s.18,1.39.24,2l.06.64c.14.2.28.4.41.63a19.54,19.54,0,0,1,1.22,2.3,7,7,0,0,0,1-2.73c.1-.55.2-1.17.26-1.86s.1-1.46.08-2.29a26.86,26.86,0,0,0-.67-5.78,32.3,32.3,0,0,0-2.46-7,34.81,34.81,0,0,0-5-7.52,37.44,37.44,0,0,0-8-6.89,40.82,40.82,0,0,0-5.16-2.79,40.34,40.34,0,0,0-5.88-2.08A41.35,41.35,0,0,0,56.45,0a42,42,0,0,0-9.31,1,37.11,37.11,0,0,0-7.89,2.67A35.57,35.57,0,0,0,33,7.34,29.06,29.06,0,0,0,25.81,16a13.28,13.28,0,0,1,2,0C28.25,16,28.45,16,28.81,16Z"/><path d="M36.12,16.21c0-.28-.33-.52-1-.71a8.87,8.87,0,0,0-1.9-.29c-1.06,1-2,2-2.68,2.86l.92-.23C34.4,17.15,36.12,16.81,36.12,16.21Z"/><path d="M46,78.93c.24-.45,1.22-.33,2.85,0l.31-.14A20.3,20.3,0,0,0,53,76.52a9,9,0,0,0,2.06-2.08c.19-.28-.07-.29-.69-.07s-1.64.65-3,1.17a44.4,44.4,0,0,1-5.25,1.62,38.42,38.42,0,0,1-7.32,1,42.21,42.21,0,0,1-4.32-.09,39,39,0,0,1-4.61-.66,36.81,36.81,0,0,1-4.77-1.35,35.93,35.93,0,0,1-4.76-2.15,32.13,32.13,0,0,1-8.66-6.84,29.71,29.71,0,0,1-5.92-10A27.88,27.88,0,0,1,7.19,35.48a30.49,30.49,0,0,1,5.72-7.89C13.45,27,14,26.54,14.57,26s1.12-1,1.71-1.38,1.15-.83,1.71-1.23c.29-.19.58-.36.86-.55s.57-.36.86-.52a38.24,38.24,0,0,1,6.49-3q.9-.32,1.74-.57a1.21,1.21,0,0,1,0-.18c.16-.47.38-1,.63-1.54.13-.27.26-.57.41-.86l.52-.88,0,0q-1.21.12-2.64.39a32.24,32.24,0,0,0-6.83,2.18,34.37,34.37,0,0,0-7.84,4.81,35.26,35.26,0,0,0-3.9,3.7,34.68,34.68,0,0,0-3.52,4.7A31.88,31.88,0,0,0,1.77,58.46,33.36,33.36,0,0,0,8.33,69.61,36.24,36.24,0,0,0,17.41,77a40.19,40.19,0,0,0,4.85,2.3,40,40,0,0,0,4.8,1.49,37.81,37.81,0,0,0,8.93,1A33.53,33.53,0,0,0,46.38,80C46,79.54,45.9,79.19,46,78.93Z"/><path d="M29,16.21c-.15.29-.28.59-.41.86-.25.56-.47,1.07-.63,1.54a1.21,1.21,0,0,0,0,.18c.93-.28,1.79-.52,2.59-.72.72-.85,1.62-1.82,2.68-2.86-.37,0-.75,0-1.18,0a20.27,20.27,0,0,0-2.46.14l0,0Z"/><path d="M94.5,47.17a25.87,25.87,0,0,0-2-6.78.78.78,0,0,1-.68.37c-.55-.09-.74-1.28-1-3.3a8.55,8.55,0,0,0-3.27-3.17c-.23-.1-.27.1-.13.56s.44,1.17.82,2.14a36,36,0,0,1,2.44,8.69,30.18,30.18,0,0,1-1.06,13.21,30.62,30.62,0,0,1-8.56,13.29,31.67,31.67,0,0,1-6.69,4.7,33.86,33.86,0,0,1-7.11,2.78A37.53,37.53,0,0,1,54.4,80.73a56.85,56.85,0,0,1-8.77-1.58L44.88,79a26.06,26.06,0,0,1-2.5,1,7.36,7.36,0,0,0,1.69,1.33,25,25,0,0,0,8.12,3,35.59,35.59,0,0,0,6.43.67,37.56,37.56,0,0,0,7.82-.75,36.81,36.81,0,0,0,8.75-2.94c.75-.35,1.49-.77,2.24-1.17s1.49-.88,2.22-1.38A35.29,35.29,0,0,0,84,75.31a33.56,33.56,0,0,0,9.39-14.48,30.32,30.32,0,0,0,1.39-7.25A29.65,29.65,0,0,0,94.5,47.17Z"/><path d="M90.89,37.46c.21,2,.4,3.21,1,3.3a.78.78,0,0,0,.68-.37,19.54,19.54,0,0,0-1.22-2.3C91.17,37.86,91,37.66,90.89,37.46Z"/><path d="M42,78.93c-.13.26,0,.61.35,1a26.06,26.06,0,0,0,2.5-1C43.25,78.6,42.27,78.48,42,78.93Z"/><ellipse class="cls-1" cx="49.07" cy="82.87" rx="9.97" ry="10.04"/><path d="M59.74,83.55a5.27,5.27,0,0,1-.53,3.81,12.69,12.69,0,0,1-4.82,5.13,12.09,12.09,0,0,1-4.49,1.76c-.24,0-.5,0-.75.06s-.46,0-.69,0-.46,0-.69-.05l-.69-.1a5.44,5.44,0,0,1-.7-.15l-.7-.18L45,93.55l-.35-.13-.34-.16-.68-.33-.65-.4a4.89,4.89,0,0,1-.64-.45,5.8,5.8,0,0,1-.62-.49A11.47,11.47,0,0,1,38.15,86,11.38,11.38,0,0,1,40.74,75.1a11.15,11.15,0,0,1,6.12-3.45,11.2,11.2,0,0,1,6,.47A11.06,11.06,0,0,1,57,74.81,10.08,10.08,0,0,1,59.1,78a8.8,8.8,0,0,1,.46,1.44,9,9,0,0,1,.18,1.22c0,.37,0,.69,0,1a4.13,4.13,0,0,1-.15.68c-.13.36-.28.53-.47.53s-.37-.22-.53-.61c0-.1-.08-.2-.12-.32l-.15-.38c-.11-.27-.2-.59-.35-.92a12.17,12.17,0,0,0-1.22-2.31,9.67,9.67,0,0,0-2.32-2.4,9.27,9.27,0,0,0-3.64-1.58,9,9,0,0,0-2.21-.11,7.42,7.42,0,0,0-1.14.15c-.19,0-.38.09-.57.14a3.77,3.77,0,0,0-.57.18,8.57,8.57,0,0,0-4,2.91A8,8,0,0,0,41,79.94a8.22,8.22,0,0,0-.51,2.67,9.12,9.12,0,0,0,.34,2.71A9.43,9.43,0,0,0,42,87.75,8.94,8.94,0,0,0,45.9,91l.57.23.59.17a3.87,3.87,0,0,0,.59.13c.2,0,.39.08.59.1l.59.05a1.37,1.37,0,0,0,.28,0h.25a3.15,3.15,0,0,0,.52,0,3.45,3.45,0,0,0,.54-.11,9.61,9.61,0,0,0,1.08-.32c.35-.15.7-.26,1-.43l.5-.24.46-.26c.32-.16.6-.36.89-.54a13,13,0,0,0,4.32-4.54l.44-.84a5,5,0,0,1,.27-.59C59.56,83.47,59.68,83.38,59.74,83.55Z"/><ellipse class="cls-1" cx="62.75" cy="99.35" rx="4.98" ry="5.84" transform="translate(-52.48 122.36) rotate(-69.02)"/><path d="M68.36,102.17a2.31,2.31,0,0,1-1,2.07,4.49,4.49,0,0,1-.73.51,6.64,6.64,0,0,1-.89.4,7.64,7.64,0,0,1-2.21.48,7.88,7.88,0,0,1-2.77-.24,4.94,4.94,0,0,1-.8-.31,7.75,7.75,0,0,1-2-1.38,7.15,7.15,0,0,1-2-3.15,6.22,6.22,0,0,1-.27-2.09,5.81,5.81,0,0,1,.56-2.17,5.73,5.73,0,0,1,1.63-2.05A6.6,6.6,0,0,1,60,93.13a7.66,7.66,0,0,1,4.11,0,7.88,7.88,0,0,1,3.08,1.58A7.19,7.19,0,0,1,69,96.92a5.75,5.75,0,0,1,.59,2.22,4.14,4.14,0,0,1-.24,1.65,1.9,1.9,0,0,1-.59.83.56.56,0,0,1-.56.09c-.36-.16-.4-.68-.53-1.39a5.51,5.51,0,0,0-1.18-2.61A5.28,5.28,0,0,0,65,96.43a5.85,5.85,0,0,0-2.15-.75,5.34,5.34,0,0,0-1.2,0,4.66,4.66,0,0,0-1.17.29A3.07,3.07,0,0,0,58.6,99.8a4.66,4.66,0,0,0,1.33,2.08c.14.15.31.26.47.4s.33.24.51.34.36.21.48.26l.24.09.27.07a7.75,7.75,0,0,0,2.22.22A9,9,0,0,0,66,103a7.52,7.52,0,0,0,1.3-.48,4.74,4.74,0,0,1,.44-.23,1.41,1.41,0,0,1,.31-.17C68.22,102.05,68.34,102.05,68.36,102.17Z"/><ellipse class="cls-1" cx="75.93" cy="104.47" rx="4.83" ry="4.11"/><path d="M80.57,104.47c-.16,0-.19-.52-.61-1.23a3.66,3.66,0,0,0-1-1.1,4.41,4.41,0,0,0-1.71-.83,5,5,0,0,0-2.26,0,4.27,4.27,0,0,0-2.15,1.15,2.92,2.92,0,0,0-.86,2.22,3,3,0,0,0,1.25,2.16,4.39,4.39,0,0,0,2.31.86,4.92,4.92,0,0,0,2-.25,4.09,4.09,0,0,0,2.05-1.53,8.14,8.14,0,0,0,.59-1.09c.11-.23.23-.32.36-.32a.79.79,0,0,1,.59.14,1.32,1.32,0,0,1,.18,1.16,4.14,4.14,0,0,1-1.72,2.55,5.61,5.61,0,0,1-2.33,1,6.37,6.37,0,0,1-1.54.1,6.57,6.57,0,0,1-1.73-.35,5.42,5.42,0,0,1-3-2.46,4.27,4.27,0,0,1-.52-1.92,4.12,4.12,0,0,1,.41-1.9,4.91,4.91,0,0,1,2.62-2.39,5.5,5.5,0,0,1,1.6-.39,5.26,5.26,0,0,1,1.54,0,5.34,5.34,0,0,1,2.47,1,4.4,4.4,0,0,1,1.29,1.61,3.11,3.11,0,0,1,.27,1.3C80.69,104.31,80.64,104.47,80.57,104.47Z"/></g></g></svg>