<svg xmlns="http://www.w3.org/2000/svg" viewBox="0 0 330.26 96.46"><defs><style>.cls-1{fill:#fff;}</style></defs><g id="Layer_2" data-name="Layer 2"><g id="background"><path d="M315.83,10A36.13,36.13,0,0,0,290.46,0h-253C16.12,0,0,17.08,0,39.8,0,53.1,5.52,64.44,14.38,71.6a36.1,36.1,0,0,0,25.38,10H202.43L227,95.85a4.83,4.83,0,0,0,2.31.61A4.6,4.6,0,0,0,233.8,91l-1.87-9.43h60.88c21.37,0,37.45-17.11,37.45-39.79C330.22,28.5,324.7,17.12,315.83,10Z"/><path class="cls-1" d="M292.46,4.52h-253C20,4.52,6.56,20.29,6.56,39.76S20,75,39.45,75h163.9L229,89.9l-3-14.91H292.5c19.47,0,32.89-15.77,32.89-35.23S311.93,4.52,292.46,4.52Z"/><path d="M133.8,32.81a14.52,14.52,0,0,0-1.1,1.45A28,28,0,0,1,126,41.93l-2.89-2.32a16.71,16.71,0,0,0,5.16-5.21H113.64c-1.18,0-2.1.09-3.42.2V30.71a23.21,23.21,0,0,0,3.42.28h15.09a13.85,13.85,0,0,0,2.83-.26Zm-11.43,3.78c0,6.94-.14,12.65-7.78,16.74l-3.25-2.66a11,11,0,0,0,2.94-1.54c3.56-2.46,4.23-5.43,4.23-10a15.46,15.46,0,0,0-.2-2.52Z"/><path d="M159.89,34.35a11.36,11.36,0,0,0-.92,2,29.24,29.24,0,0,1-4.87,9.35,26.38,26.38,0,0,1-11.31,7.9l-3.31-3c5.74-1.71,8.85-4.14,11.29-6.91a20,20,0,0,0,4-7.65h-7.87a31.86,31.86,0,0,1-7.05,6.78l-3.14-2.33a24.61,24.61,0,0,0,8.74-9,13.42,13.42,0,0,0,1.26-2.94l4.09,1.34a31.64,31.64,0,0,0-1.71,2.86l-.09.14h5.63a8.87,8.87,0,0,0,2.44-.34Z"/><path d="M179.21,43.59a24.26,24.26,0,0,0,4.48-5.66l-8.62,1.71v7.42c0,1.73.5,2.35,3.56,2.35a48.25,48.25,0,0,0,8.84-.92l-.11,3.78a66.83,66.83,0,0,1-8.68.61c-6.38,0-7.31-1.54-7.31-4.84V40.39c-2.49.51-4.7,1-5.88,1.24L164.82,38c1.32-.17,3.78-.59,6.55-1.09v-4a23.5,23.5,0,0,0-.22-3.19h4.17a23,23,0,0,0-.25,3.19v3.31c4.09-.76,8-1.57,9.27-1.85a9.62,9.62,0,0,0,2-.67l2.68,2.1a16.67,16.67,0,0,0-.92,1.51,39.28,39.28,0,0,1-5.8,8.15Z"/><path d="M215.19,32.78a14.8,14.8,0,0,0-1,1.73,41.15,41.15,0,0,1-4.39,7.7,79.51,79.51,0,0,1,7.81,8L214.44,53a64.19,64.19,0,0,0-7.06-7.92,36.8,36.8,0,0,1-10.53,7.87l-2.88-3a31.58,31.58,0,0,0,11.48-8A21.52,21.52,0,0,0,209.62,35h-9.49c-1.18,0-2.72.17-3.3.19v-4a31.68,31.68,0,0,0,3.3.19H210a10,10,0,0,0,2.91-.36Z"/></g></g></svg>