<svg xmlns="http://www.w3.org/2000/svg" viewBox="0 0 330.27 96.81"><defs><style>.cls-1{fill:#fff;}</style></defs><g id="Layer_2" data-name="Layer 2"><g id="background"><path d="M0,41.52c-.13,22.68,15.84,39.9,37.22,40l60.87.36-1.92,9.41A4.53,4.53,0,0,0,98,95.93a4.45,4.45,0,0,0,2.64.88,4.7,4.7,0,0,0,2.31-.59l24.67-14.11,162.68,1a36.14,36.14,0,0,0,25.43-9.84c8.9-7.12,14.49-18.43,14.57-31.73.13-22.72-15.89-39.93-37.22-40L40,0A36.1,36.1,0,0,0,14.61,9.85C5.71,16.92.12,28.27,0,41.52Z"/><path class="cls-1" d="M4.88,39.55C4.76,59,18.1,74.87,37.56,75l66.44.39-3,14.88L126.72,75.5l163.89,1c19.46.11,33-15.58,33.09-35S310.48,6.1,291,6L38,4.51C18.55,4.39,5,20.09,4.88,39.55Z"/><path d="M151.73,55a8.56,8.56,0,0,1-3.47.62,9,9,0,0,1-8.59-5.4c-4.43-.84-7.37-4.76-7.37-10.67,0-6.75,3.78-10.67,9.27-10.67s9.27,3.95,9.27,10.67c0,5.65-2.69,9.46-6.81,10.53a5.32,5.32,0,0,0,4.71,2.21A7.24,7.24,0,0,0,151,52Zm-10.16-8c3.08,0,5-2.8,5-7.45,0-4.45-2-7.11-5-7.11s-5,2.66-5,7.11C136.53,44.2,138.49,47,141.57,47Z"/><path d="M174.27,50.38a16.74,16.74,0,0,1-5.15-2.18,10.05,10.05,0,0,1-6.35,2.18c-4.35,0-6.78-2.65-6.78-5.88,0-2.88,1.82-4.56,3.89-5.88a9.71,9.71,0,0,1-1.31-4.47A5.16,5.16,0,0,1,164,28.88c2.94,0,4.81,1.79,4.81,4.51s-2.24,4.45-4.45,6a26.22,26.22,0,0,0,4.48,4.31,15.63,15.63,0,0,0,2.55-5.26h3.72a22.57,22.57,0,0,1-3.5,7.11A12.4,12.4,0,0,0,175.28,47Zm-11-3.16a5.62,5.62,0,0,0,3-1,29.24,29.24,0,0,1-4.67-4.85,4,4,0,0,0-1.71,2.91C159.91,46,161.28,47.22,163.27,47.22Zm-.53-10.3c1.62-1,2.88-2,2.88-3.5,0-1-.47-1.8-1.57-1.8s-2.07,1-2.07,2.53A6.43,6.43,0,0,0,162.74,36.92Z"/><path d="M190.91,44.67h-6.72L182.73,50h-4.2l6.64-20.72H190L196.7,50h-4.34Zm-.9-3.22-.62-2.26c-.64-2.16-1.2-4.54-1.82-6.78h-.11c-.53,2.27-1.15,4.62-1.76,6.78l-.62,2.26Z"/></g></g></svg>