<svg xmlns="http://www.w3.org/2000/svg" viewBox="0 0 330.26 96.46"><defs><style>.cls-1{fill:#fff;}</style></defs><g id="Layer_2" data-name="Layer 2"><g id="background"><path d="M315.83,10A36.13,36.13,0,0,0,290.46,0h-253C16.12,0,0,17.08,0,39.8,0,53.1,5.52,64.44,14.38,71.6a36.1,36.1,0,0,0,25.38,10H202.43L227,95.85a4.83,4.83,0,0,0,2.31.61A4.6,4.6,0,0,0,233.8,91l-1.87-9.43h60.88c21.37,0,37.45-17.11,37.45-39.79C330.22,28.5,324.7,17.12,315.83,10Z"/><path class="cls-1" d="M292.46,4.52h-253C20,4.52,6.56,20.29,6.56,39.76S20,75,39.45,75h163.9L229,89.9l-3-14.91H292.5c19.47,0,32.89-15.77,32.89-35.23S311.93,4.52,292.46,4.52Z"/><path d="M89.66,32.73a12.73,12.73,0,0,0-.93,2,32.34,32.34,0,0,1-3.86,7.67c1,.64,2,1.29,2.69,1.79L85,47.46a31.56,31.56,0,0,0-2.61-2,26.56,26.56,0,0,1-10.33,7l-3.25-2.83a23.69,23.69,0,0,0,10.45-6.27C77.36,42.11,75.46,41,74,40.15l2.38-2.66c1.49.76,3.39,1.82,5.27,2.94a20.44,20.44,0,0,0,2.91-6h-8a32.93,32.93,0,0,1-7.39,7.22l-3-2.32a25.71,25.71,0,0,0,8.93-9.3,12.69,12.69,0,0,0,1.26-2.94l4.06,1.26c-.67,1-1.4,2.27-1.74,2.86l0,0h5.74A9.19,9.19,0,0,0,86.8,31Z"/><path d="M110.18,48.16a19.82,19.82,0,0,0,.25,3.67H106a32.18,32.18,0,0,0,.19-3.67V39a53.79,53.79,0,0,1-9.63,3.81l-2-3.41A43.28,43.28,0,0,0,107.3,34.3,29.68,29.68,0,0,0,114.6,28l3,2.72a46.79,46.79,0,0,1-7.42,6Z"/><path d="M142.46,51.85c-.36-1-.81-2.1-1.31-3.3-4.57.53-13.05,1.43-16.58,1.79l-2.63.34-.64-4.09c1,0,2.15,0,3.08,0l.75,0c1.63-4.14,4-11.81,4.85-14.72a20.87,20.87,0,0,0,.67-3.22l4.45.89a32.74,32.74,0,0,0-1.2,3.11c-.9,2.74-3.17,9.86-4.57,13.61,3.42-.34,7.39-.79,10.22-1.12A33.63,33.63,0,0,0,136.61,40l3.5-1.42a85,85,0,0,1,6.13,11.64Z"/><path d="M171.64,36.45a21.91,21.91,0,0,0,2.55-.16v3.64c-.7-.06-1.77-.09-2.55-.09h-6.75A17.76,17.76,0,0,1,163.1,47a13.45,13.45,0,0,1-5.63,5.37L154.2,50a11.63,11.63,0,0,0,5.06-4A12,12,0,0,0,161,39.84h-7.7c-.81,0-1.9.06-2.69.11V36.29c.84.08,1.82.16,2.69.16Zm-14.76-3.83c-1,0-2.15.05-3,.11V29.12a20.78,20.78,0,0,0,3,.19h11.25a22.11,22.11,0,0,0,3-.19v3.61c-1-.06-2-.11-3-.11Z"/><path d="M180.24,37.63c1,.08,3,.17,4.5.17h15c1.29,0,2.55-.11,3.28-.17V42c-.68,0-2.1-.14-3.28-.14h-15c-1.59,0-3.47,0-4.5.14Z"/><path d="M227.86,31.13l1.77,1.15a15,15,0,0,0-.62,1.93c-.64,2.75-1.85,7.09-4.2,10.2a22.1,22.1,0,0,1-11.25,7.72L210.5,48.8c5.58-1.31,8.71-3.72,11-6.58a17.92,17.92,0,0,0,3.3-7.89h-13c-1.29,0-2.61.05-3.33.11V30.49a31.55,31.55,0,0,0,3.33.22h13c.34,0,.81,0,1.32-.05-.48-.93-1-1.91-1.57-2.72l2.29-1a35.29,35.29,0,0,1,2.16,3.7Zm2.8-4.84c.7,1,1.71,2.72,2.25,3.7l-2.33,1a34.07,34.07,0,0,0-2.24-3.75Z"/><path d="M235.65,49.56a13.22,13.22,0,0,0,4.76-6.69c.78-2.41.81-7.7.81-11.09a10.15,10.15,0,0,0-.25-2.55h4.12a17.22,17.22,0,0,0-.2,2.52c0,3.3-.08,9.21-.84,12a16.31,16.31,0,0,1-5,8Zm13,.42a10,10,0,0,0,.23-2.07V31.58a12.09,12.09,0,0,0-.23-2.41h4.17a15.75,15.75,0,0,0-.19,2.44V46.25a17.78,17.78,0,0,0,6.92-5.9l2.15,3.08a30.83,30.83,0,0,1-9.49,7.64,7,7,0,0,0-1.23.84Z"/></g></g></svg>