<svg xmlns="http://www.w3.org/2000/svg" viewBox="0 0 330.26 96.46"><defs><style>.cls-1{fill:#fff;}</style></defs><g id="Layer_2" data-name="Layer 2"><g id="background"><path d="M0,41.76C0,64.44,16.08,81.55,37.45,81.55H98.33L96.46,91a4.6,4.6,0,0,0,4.47,5.48,4.83,4.83,0,0,0,2.31-.61L127.83,81.6H290.5a36.1,36.1,0,0,0,25.38-10c8.86-7.16,14.38-18.5,14.38-31.8C330.26,17.08,314.14,0,292.81,0H39.8A36.13,36.13,0,0,0,14.43,10C5.56,17.12,0,28.5,0,41.76Z"/><path class="cls-1" d="M4.87,39.76C4.87,59.22,18.29,75,37.76,75h66.43l-3,14.91L126.91,75h163.9c19.46,0,32.89-15.77,32.89-35.23S310.27,4.52,290.81,4.52H37.8C18.33,4.52,4.87,20.29,4.87,39.76Z"/><path d="M132.07,36.43c.59,0,1.94-.11,2.55-.16v3.61c-.75-.06-1.71-.11-2.46-.11h-7.25a14,14,0,0,1-7.17,11.5l-3.56-2.4c4.26-2,6.5-5,7-9.1h-7.7c-.87,0-1.9,0-2.63.11V36.27a25.68,25.68,0,0,0,2.57.16h7.9v-4c-2.69.22-5.63.31-7.5.36L113,29.57a66.54,66.54,0,0,0,9.55-.44,30.91,30.91,0,0,0,7.05-1.68l2.3,3.08c-.95.22-1.68.42-2.16.53A45.59,45.59,0,0,1,125,32v4.45Z"/><path d="M161,32.07a18.09,18.09,0,0,0,2.91-.2v3.84a26.88,26.88,0,0,0-2.91-.12h-3.92c-.5,7.45-3.41,12.44-8.48,15.63l-3.78-2.52a10.5,10.5,0,0,0,2.66-1.57c2.94-2.24,5.26-5.68,5.71-11.54h-5.91a22.76,22.76,0,0,1-4.51,5.88l-3.52-2.12a21.66,21.66,0,0,0,4.84-5.77,17.6,17.6,0,0,0,1.62-3.81,10.69,10.69,0,0,0,.59-2.88l4.31.86c-.3.7-.67,1.68-.89,2.27s-.48,1.32-.79,2.05Z"/><path d="M175.73,40.89l-3.42,1.28a54,54,0,0,0-2.55-6.46l3.36-1.21C173.82,35.93,175.17,39.32,175.73,40.89ZM190,35.06c-.33.9-.5,1.49-.67,2a22.53,22.53,0,0,1-3.81,8.2,21.79,21.79,0,0,1-9.38,6.94l-2.94-3a18.87,18.87,0,0,0,9.3-5.85A18.85,18.85,0,0,0,186,33.8Zm-8,4.09-3.36,1.18a47.06,47.06,0,0,0-2.27-6.22L179.62,33C180.15,34.22,181.52,37.86,181.92,39.15Z"/><path d="M214.12,43.24A80.91,80.91,0,0,0,204,39.07V47c0,.81.14,2.77.25,3.89h-4.37a29.56,29.56,0,0,0,.28-3.89V30.92a19.15,19.15,0,0,0-.28-3.39h4.37a30.93,30.93,0,0,0-.25,3.39V35a92.36,92.36,0,0,1,11.7,4.34Z"/></g></g></svg>