<svg xmlns="http://www.w3.org/2000/svg" viewBox="0 0 330.26 96.46"><defs><style>.cls-1{fill:#fff;}</style></defs><g id="Layer_2" data-name="Layer 2"><g id="background"><path d="M0,41.76C0,64.44,16.08,81.55,37.45,81.55H98.33L96.46,91a4.6,4.6,0,0,0,4.47,5.48,4.83,4.83,0,0,0,2.31-.61L127.83,81.6H290.5a36.1,36.1,0,0,0,25.38-10c8.86-7.16,14.38-18.5,14.38-31.8C330.26,17.08,314.14,0,292.81,0H39.8A36.13,36.13,0,0,0,14.43,10C5.56,17.12,0,28.5,0,41.76Z"/><path class="cls-1" d="M4.87,39.76C4.87,59.22,18.29,75,37.76,75h66.43l-3,14.91L126.91,75h163.9c19.46,0,32.89-15.77,32.89-35.23S310.27,4.52,290.81,4.52H37.8C18.33,4.52,4.87,20.29,4.87,39.76Z"/><path d="M114.12,44.4c1,.08,2.23.19,3.25.19h14.92a24.82,24.82,0,0,0,2.86-.19v4c-.91-.1-2.08-.15-2.86-.15H117.37c-1,0-2.29.07-3.25.15Zm2.18-12.71c.94.1,2.16.16,3,.16h10.77a28.24,28.24,0,0,0,2.88-.16v3.77c-.75,0-2-.1-2.88-.1H119.37c-1,0-2.19,0-3.07.1Z"/><path d="M158.06,46.51c.67,0,1.87,0,2.55-.1v3.35c-.52,0-1.8-.08-2.47-.08H144.43c-.93,0-1.58,0-2.57.08V46.38a24.32,24.32,0,0,0,2.57.13h8.43c.36-2.21.93-5.9,1-7.36h-7c-.83,0-1.84.08-2.6.13V35.85c.68.08,1.87.16,2.57.16h6.66a6.21,6.21,0,0,0,2-.29l2.5,1.22a7,7,0,0,0-.26,1.09c-.21,1.54-.89,6-1.28,8.48Z"/><path d="M166.84,37.31c.94.07,2.84.15,4.19.15h14c1.2,0,2.37-.1,3-.15v4.08c-.63,0-1.95-.13-3-.13H171c-1.48,0-3.22.05-4.19.13Z"/><path d="M211.88,31.72a11.25,11.25,0,0,0-.91,1.61,38.6,38.6,0,0,1-4.08,7.15,72.6,72.6,0,0,1,7.25,7.43l-3,2.58a59.2,59.2,0,0,0-6.56-7.36,34.22,34.22,0,0,1-9.77,7.31l-2.68-2.81a29.43,29.43,0,0,0,10.66-7.46,20.08,20.08,0,0,0,3.87-6.37h-8.81c-1.09,0-2.52.15-3.07.18V30.29a30.17,30.17,0,0,0,3.07.18H207a9.46,9.46,0,0,0,2.71-.34Z"/></g></g></svg>