<svg xmlns="http://www.w3.org/2000/svg" viewBox="0 0 330.26 96.46"><defs><style>.cls-1{fill:#fff;}</style></defs><g id="Layer_2" data-name="Layer 2"><g id="background"><path d="M315.83,10A36.13,36.13,0,0,0,290.46,0h-253C16.12,0,0,17.08,0,39.8,0,53.1,5.52,64.44,14.38,71.6a36.1,36.1,0,0,0,25.38,10H202.43L227,95.85a4.83,4.83,0,0,0,2.31.61A4.6,4.6,0,0,0,233.8,91l-1.87-9.43h60.88c21.37,0,37.45-17.11,37.45-39.79C330.22,28.5,324.7,17.12,315.83,10Z"/><path class="cls-1" d="M292.46,4.52h-253C20,4.52,6.56,20.29,6.56,39.76S20,75,39.45,75h163.9L229,89.9l-3-14.91H292.5c19.47,0,32.89-15.77,32.89-35.23S311.93,4.52,292.46,4.52Z"/><path d="M91.53,46.16a18.46,18.46,0,0,0,5.71.65c2.13,0,9.61,0,12.13-.12A13.07,13.07,0,0,0,108.11,50H97.24c-5.21,0-8.54-.7-10.75-3.84A20.43,20.43,0,0,1,85.2,50.7a18.76,18.76,0,0,0-2.66-1.46c1.4-2.77,1.63-7.28,1.66-12l2.91.2c0,1.29-.06,2.57-.12,3.81a8.39,8.39,0,0,0,1.57,3V35.8H83.3V32.86H88V30.29H83.94V27.4H88V24.57h3.08V27.4h4v2.89h-4v2.57h4.45v.7a7.5,7.5,0,0,0,3.34-5.21h-3V25.58h12.35s0,.76,0,1.15c-.2,4.65-.45,6.69-1.12,7.48a2.73,2.73,0,0,1-1.88.95,21.28,21.28,0,0,1-3.11.05,6.59,6.59,0,0,0-.81-2.8,18.43,18.43,0,0,0,2.27.12,1,1,0,0,0,.81-.28c.26-.37.45-1.4.59-3.9h-3c-.64,3.53-2.15,6-4.7,7.59a18.33,18.33,0,0,0-1.74-1.43V35.8h-4v3.05h3.7v2.89h-3.7Zm5.1-9.88h10.94V45.1H96.63Zm3.11,6.16h4.53V39H99.74Z"/><path d="M139.61,38.07h-11V50.7H125V38.07H114.24V34.6H125v-10h3.64v10h11Z"/><path d="M154.78,25.81a43.65,43.65,0,0,1-2.6,5.15V50.64h-3.47V35.94a26.93,26.93,0,0,1-2.91,3.14A21.89,21.89,0,0,0,144,35.69a29.32,29.32,0,0,0,7.64-10.92Zm7.67,10.13c.79,6.22,2.27,10.36,4.51,10.64.65.06,1-1.34,1.21-4.45a11.18,11.18,0,0,0,2.71,1.9c-.7,5.41-2.21,6.7-3.78,6.61-4.73-.45-6.94-5.71-7.95-14.25l-5.51.76-.48-3.22,5.66-.76c-.2-2.52-.37-5.26-.45-8.2h3.39c.05,2.74.16,5.37.36,7.75l8-1,.47,3.13Zm5-4.95a23.68,23.68,0,0,0-3.84-4.71l2.49-1.54a25.52,25.52,0,0,1,4,4.51Z"/><path d="M178.58,35.63c1.88-.56,6.58-2.15,9.94-2.15,4.37,0,7.31,2.6,7.31,6.8,0,5-4.39,8.46-13.22,9l-1.45-3.44c6.3-.17,11-1.82,11-5.6,0-2.08-1.56-3.53-4-3.53-3.22,0-8.74,2.29-11.12,3.3l-1.43-3.64A23.36,23.36,0,0,0,178.58,35.63Z"/><path d="M202.3,28.91c2.3-.22,6.89-.61,12-1.06,2.85-.22,5.9-.39,7.84-.48l0,3.59a29.06,29.06,0,0,0-5.34.36,8.46,8.46,0,0,0-5.86,7.76c0,4.56,4.29,6.19,9,6.44l-1.28,3.83c-5.83-.39-11.32-3.52-11.32-9.52a11.08,11.08,0,0,1,4.09-8.54c-2.38.26-8.23.87-11.45,1.57l-.34-3.81C200.68,29,201.74,29,202.3,28.91Z"/><path d="M238.78,33c0-1.68-1.34-2.64-3.52-2.64a5.79,5.79,0,0,0-4.48,2.22l-2.3-2.13A9.32,9.32,0,0,1,235.7,27c4.06,0,7,1.88,7,5.6,0,4.12-6.1,4.59-5.68,8.49h-3.61C232.85,36.67,238.78,35.66,238.78,33Zm-3.52,10a2.76,2.76,0,1,1-2.92,2.74A2.72,2.72,0,0,1,235.26,43Z"/></g></g></svg>