<svg xmlns="http://www.w3.org/2000/svg" viewBox="0 0 330.26 96.46"><defs><style>.cls-1{fill:#fff;}</style></defs><g id="Layer_2" data-name="Layer 2"><g id="background"><path d="M0,41.76C0,64.44,16.08,81.55,37.45,81.55H98.33L96.46,91a4.6,4.6,0,0,0,4.47,5.48,4.83,4.83,0,0,0,2.31-.61L127.83,81.6H290.5a36.1,36.1,0,0,0,25.38-10c8.86-7.16,14.38-18.5,14.38-31.8C330.26,17.08,314.14,0,292.81,0H39.8A36.13,36.13,0,0,0,14.43,10C5.56,17.12,0,28.5,0,41.76Z"/><path class="cls-1" d="M4.87,39.76C4.87,59.22,18.29,75,37.76,75h66.43l-3,14.91L126.91,75h163.9c19.46,0,32.89-15.77,32.89-35.23S310.27,4.52,290.81,4.52H37.8C18.33,4.52,4.87,20.29,4.87,39.76Z"/><path d="M130.27,31.05,132,32.2a14.49,14.49,0,0,0-.61,1.93c-.65,2.75-1.85,7.09-4.2,10.19A22.15,22.15,0,0,1,116,52.05l-3-3.33c5.57-1.32,8.71-3.72,11-6.58a18,18,0,0,0,3.3-7.9h-13c-1.29,0-2.6.06-3.33.12V30.41a31.73,31.73,0,0,0,3.33.22h13a13.06,13.06,0,0,0,1.31-.05,27.27,27.27,0,0,0-1.57-2.72l2.3-.95a38.19,38.19,0,0,1,2.16,3.69Zm2.8-4.84c.7,1,1.71,2.71,2.24,3.69l-2.32,1a33.22,33.22,0,0,0-2.25-3.75Z"/><path d="M161,37.16a9,9,0,0,0-.53,1.17,20.17,20.17,0,0,1-4.15,7.76,21,21,0,0,1-10,6L143.49,49a18.86,18.86,0,0,0,9.71-4.9,12.23,12.23,0,0,0,2.89-4.84H142.56c-.67,0-2.07,0-3.25.14V35.73c1.18.11,2.38.17,3.25.17h13.86a6.17,6.17,0,0,0,2.05-.28ZM141.89,29a24,24,0,0,0,2.91.14h10.78a27,27,0,0,0,3-.14v3.61c-.76-.06-2.08-.09-3.08-.09H144.8c-.89,0-2.1,0-2.91.09Z"/><path d="M178.4,44.21a26.53,26.53,0,0,0,10.19-10.89l2.19,4a29.81,29.81,0,0,1-10.36,10.36A30.46,30.46,0,0,1,170,51.58l-2.35-3.7A28.75,28.75,0,0,0,178.4,44.21Zm0-9.07-2.85,2.94a58.86,58.86,0,0,0-7-6l2.63-2.8A58.84,58.84,0,0,1,178.4,35.14Z"/><path d="M203.66,36.23a97.19,97.19,0,0,1,11.7,4.37l-1.57,3.89a75.29,75.29,0,0,0-10.13-4.17v7.92c0,.79.14,2.75.28,3.9h-4.4a30.09,30.09,0,0,0,.28-3.9V32.14a19.27,19.27,0,0,0-.28-3.38h4.37a30.92,30.92,0,0,0-.25,3.38ZM211.11,35a23.22,23.22,0,0,0-2.47-4.31l2.35-1a47.93,47.93,0,0,1,2.55,4.23Zm3.83-1.57a26.39,26.39,0,0,0-2.6-4.2l2.32-1.09a36.73,36.73,0,0,1,2.63,4.14Z"/></g></g></svg>