<svg xmlns="http://www.w3.org/2000/svg" viewBox="0 0 330.26 96.46"><defs><style>.cls-1{fill:#fff;}</style></defs><g id="Layer_2" data-name="Layer 2"><g id="background"><path d="M315.83,10A36.13,36.13,0,0,0,290.46,0h-253C16.12,0,0,17.08,0,39.8,0,53.1,5.52,64.44,14.38,71.6a36.1,36.1,0,0,0,25.38,10H202.43L227,95.85a4.83,4.83,0,0,0,2.31.61A4.6,4.6,0,0,0,233.8,91l-1.87-9.43h60.88c21.37,0,37.45-17.11,37.45-39.79C330.22,28.5,324.7,17.12,315.83,10Z"/><path class="cls-1" d="M292.46,4.52h-253C20,4.52,6.56,20.29,6.56,39.76S20,75,39.45,75h163.9L229,89.9l-3-14.91H292.5c19.47,0,32.89-15.77,32.89-35.23S311.93,4.52,292.46,4.52Z"/><path d="M134.9,41.25c-.73.06-1.87.25-2.94.42-1.34.23-3.61.59-6.07,1,.44,2.3.84,4.17,1,5s.47,1.85.72,2.75l-4,.72c-.14-1.06-.22-2-.39-2.82s-.5-2.75-1-5.1c-2.86.48-5.49.92-6.69,1.15s-2.16.42-2.81.59L112,41.22c.76,0,2-.19,2.91-.3l6.72-1.07-.84-4.48c-2.46.39-4.62.76-5.48.9s-1.74.36-2.58.59L111.94,33c.9,0,1.74-.08,2.61-.19s3.13-.42,5.54-.82c-.22-1.17-.42-2.1-.5-2.54-.17-.79-.37-1.46-.56-2.13l4-.65c.08.56.16,1.52.3,2.19.06.39.23,1.31.45,2.57,2.38-.39,4.51-.72,5.52-.92s2-.39,2.63-.59l.67,3.67c-.61.06-1.73.22-2.57.34l-5.61.89.87,4.45c2.52-.42,4.82-.78,6.08-1,1.09-.23,2.13-.45,2.85-.67Z"/><path d="M152,43.18a24.34,24.34,0,0,0,4.12-5c-.67.14-3.45.7-6.47,1.35,1.06,3.83,2.24,8.15,2.69,9.6.17.51.53,1.74.75,2.3l-3.8.92a16.23,16.23,0,0,0-.51-2.43c-.42-1.52-1.57-5.86-2.57-9.69-2.36.5-4.4.92-5.24,1.12L140.11,38c.9-.09,1.65-.17,2.58-.34.39,0,1.4-.22,2.69-.47-.28-1.1-.54-2-.73-2.61a10,10,0,0,0-.79-2l3.76-.89c.11.67.28,1.4.44,2.13l.76,2.71c3.56-.67,7.48-1.43,8.57-1.68a5.21,5.21,0,0,0,1.43-.45l2.24,1.6a44.37,44.37,0,0,1-6,8.76Z"/><path d="M187.15,30.44a13.68,13.68,0,0,0-1,1.74,41.46,41.46,0,0,1-4.39,7.7,78.47,78.47,0,0,1,7.81,8l-3.19,2.77a64.28,64.28,0,0,0-7.06-7.92,37,37,0,0,1-10.53,7.86l-2.88-3a31.72,31.72,0,0,0,11.48-8,21.7,21.7,0,0,0,4.17-6.86h-9.49c-1.18,0-2.72.17-3.31.2v-4a32,32,0,0,0,3.31.19h9.85a10.38,10.38,0,0,0,2.92-.36Z"/><path d="M213.86,43a80.16,80.16,0,0,0-10.1-4.17v7.92c0,.81.14,2.77.25,3.89h-4.37a29.56,29.56,0,0,0,.28-3.89V30.67a19.15,19.15,0,0,0-.28-3.39H204a30.93,30.93,0,0,0-.25,3.39v4.11a93,93,0,0,1,11.7,4.34Z"/></g></g></svg>