<?xml version="1.0" encoding="utf-8"?>
<!-- Generator: Adobe Illustrator 25.0.1, SVG Export Plug-In . SVG Version: 6.00 Build 0)  -->
<svg version="1.1" id="Layer_1" xmlns="http://www.w3.org/2000/svg" xmlns:xlink="http://www.w3.org/1999/xlink" x="0px" y="0px"
	 viewBox="0 0 73.2 121.8" style="enable-background:new 0 0 73.2 121.8;" xml:space="preserve">
<style type="text/css">
	.st0{fill:#D81534;}
</style>
<g id="Layer_2_1_">
	<g id="back">
		<polygon class="st0" points="-1,8.9 -1.7,5.7 -2.6,3.4 -1.3,9 		"/>
		<polygon class="st0" points="-9.7,7.7 -8.6,10.9 -8.3,10.7 -8.3,10.6 -8,11.5 -7.7,11.4 -9.5,7 -9.8,7.1 -9.6,7.6 		"/>
		<polygon class="st0" points="-27.1,20.8 -29.4,18.3 -29.7,18.5 -27.4,21 		"/>
		<polygon class="st0" points="-37.9,32.3 -40.9,30.5 -41.1,30.8 -38.1,32.6 		"/>
		<polygon class="st0" points="-43.9,43.5 -47.2,42.4 -47.3,42.7 -44,43.8 		"/>
		<polygon class="st0" points="0.5,5.9 1,8.4 1.3,8.4 0.9,5.8 		"/>
		<polygon class="st0" points="-5,9.4 -6.2,6.4 -8.5,5.1 -5.4,9.5 		"/>
		<polygon class="st0" points="-21.7,16.6 -23.8,14.1 -24,14.3 -21.9,16.8 		"/>
		<polygon class="st0" points="-34.2,27.3 -37,25.5 -37.2,25.8 -34.4,27.5 		"/>
		<path class="st0" d="M3.9,7.7L4,9.1L4.7,9L4.5,7L3.8,7.1v0.3L3.2,4.6L2.9,4.7l0,0H2.6l0.2,1.7H2.7v0.2H2.4V6.2L1.7,6.3l0.5,3.2
			l0.5-0.1v0.3l0.7-0.1L3.3,9.2v0.1l0.7-0.1L3.6,7.6L3.9,7.7z M3.1,5.6l0.2,0.7H3.2L3.1,5.6z"/>
		<polygon class="st0" points="-14.3,12.6 -16,9.9 -16.3,10.1 -14.6,12.8 		"/>
		<polygon class="st0" points="-20.5,15.7 -21.6,14 -21.9,14.1 -20.8,15.9 		"/>
		<polygon class="st0" points="-36.9,30.2 -38.7,29 -38.9,29.3 -37.1,30.5 		"/>
		<polygon class="st0" points="-42.1,40.3 -45.3,39 -45.4,39.2 -42.2,40.6 		"/>
		<polygon class="st0" points="-44.8,77.7 -48.2,78.7 -48.1,79 -44.7,78 		"/>
		<polygon class="st0" points="-29.7,101.4 -32.2,103.8 -31.9,104.1 -29.5,101.7 		"/>
		<polygon class="st0" points="-46.2,48.2 -46.2,48.2 -44.1,48.7 -44,48.1 -46,47.6 -46,47.8 -47.5,47.5 -47.8,47.5 -47.8,47.5 
			-48.8,47.3 -48.8,47.7 -47.6,47.9 		"/>
		<polygon class="st0" points="-46.9,54.2 -44.9,54.5 -44.8,54 -44.7,54.1 -44.6,53.8 -43.8,53.8 -43.7,53.2 -48.5,52.7 -48.5,52.8 
			-50,52.5 -50.1,52.8 -48.5,53.1 -48.6,53.3 -48,53.4 -48,53.5 -47.3,53.6 -47.4,54 -50.2,53.8 -50.2,54.1 -46.9,54.3 		"/>
		<polygon class="st0" points="-46.6,71.6 -46.6,71.5 -45.8,71.3 -45.9,71 -50.7,72.1 -50.7,72.4 -49.9,72.2 -49.8,72.4 		"/>
		<polygon class="st0" points="-41.4,86.7 -37.8,83.7 -40.2,85.4 -40.9,85.7 -41,85.5 -45.3,87.8 -45.2,88 -42,86.4 -41.8,86.8 
			-44.3,88.2 -44.1,88.4 -41.3,86.8 		"/>
		<polygon class="st0" points="-45,84.6 -44.7,84.5 -44.6,84.6 -40.3,82.7 -40.6,82.1 -41.1,82.3 -41.1,82.3 -41.3,82.4 -41.6,81.9 
			-44.5,83.3 -44.2,83.8 -44.8,84.1 -44.8,84.2 -45.1,84.3 		"/>
		<polygon class="st0" points="-47.7,77.1 -45.6,76.6 -45.7,76.3 -47.8,76.8 		"/>
		<polygon class="st0" points="-39.7,90 -44.9,92.2 -41.4,91.3 -39.5,90.3 		"/>
		<polygon class="st0" points="-50.4,64.3 -46.9,64.2 -46.9,63.9 -50.3,64 -47.5,63.7 -47.5,63.6 -44,64.4 -45.3,63 -48.7,63 
			-48.7,63.5 -53.4,63.9 -50.8,64 -50.4,64 		"/>
		<polygon class="st0" points="-45.5,74.4 -49,75.1 -52,76.3 -45.5,74.7 		"/>
		<polygon class="st0" points="-32,99 -32.3,98.8 -33.1,99.5 -32.3,98.7 -28.7,96.2 -31.4,97.1 -34,99.3 -33.7,99.6 -35.5,101.4 
			-35.3,101.6 -34.8,101.1 -34.7,101.3 		"/>
		<polygon class="st0" points="-19.5,108.8 -19.8,108.7 -20.8,110.3 -19.4,107.8 -19.7,107.7 -22,111.8 -21.8,112 -21.5,111.6 
			-21.3,111.7 		"/>
		<polygon class="st0" points="-48.8,73 -46.9,72.7 -46.9,72.7 -44.8,72.3 -44.9,71.7 -47,72.1 -46.9,72.4 -48.8,72.7 		"/>
		<polygon class="st0" points="-45,78.2 -48,79.4 -47.9,79.7 -44.8,78.5 		"/>
		<polygon class="st0" points="-36.9,93.8 -39.4,95.8 -39.2,96.1 -36.7,94 		"/>
		<polygon class="st0" points="-12.8,112.3 -13.1,112.2 -14.2,115.2 -14,115.2 -14.1,115.3 -13.7,115.4 -12.7,112.4 -12.8,112.3 		
			"/>
		<polygon class="st0" points="-50.1,70.8 -48.4,70.4 -48.3,70.4 -48.3,70.4 -44.9,70 -45,69.3 -45.1,69.4 -45.3,68.8 -48.4,69.5 
			-48.3,69.8 -48.4,69.8 -48.3,70.1 -48.5,70.1 -49.2,70.2 -49.2,70.3 -50.2,70.5 		"/>
		<polygon class="st0" points="-41.3,86.9 -44.1,88.6 -43.9,88.9 -41.1,87.2 		"/>
		<polygon class="st0" points="-37.8,92.7 -39.7,93.8 -39.5,94.1 -37.6,92.9 		"/>
		<polygon class="st0" points="-28.1,103.3 -29.5,104.8 -29.3,105.1 -27.8,103.5 		"/>
		<polygon class="st0" points="-33.5,98.1 -33.5,98 -33.4,97.9 -33.7,97.7 -34,98 -35.4,99.1 -35.3,99.3 -36,99.9 -35.8,100.2 
			-33.8,98.2 		"/>
		<polygon class="st0" points="-22.1,107.8 -23.3,109.5 -23,109.7 -21.8,107.9 		"/>
		<polygon class="st0" points="-25.7,104.3 -27.9,106.9 -27.7,107.1 -25.4,104.5 		"/>
		<polygon class="st0" points="-16.4,110.2 -18.1,113.1 -17.8,113.3 -16.1,110.3 		"/>
		<polygon class="st0" points="11.7,116.7 11.8,120 12.1,120 12.1,116.7 		"/>
		<path class="st0" d="M40,109.1l-1.1-1.8l-0.4,0.2l-0.5-0.7l-0.6,0.4l2.7,3.8l0.2-0.2l1,1.4l0.1-0.1l0,0l0.2-0.2l0,0l0.3-0.2
			l-1.7-2.8L40,109.1z M40.4,110.2l0.1-0.1l0.9,1.4L40.4,110.2z"/>
		<polygon class="st0" points="-19.9,111.4 -19.6,111.6 -18.3,109.4 -18.6,109.3 		"/>
		<polygon class="st0" points="21.6,115.9 22.5,118.9 22.9,118.8 21.9,115.8 		"/>
		<polygon class="st0" points="35,111.8 36.7,114.5 37,114.3 35.3,111.6 		"/>
		<polygon class="st0" points="-21,108.2 -22.6,111 -22.3,111.1 -20.7,108.3 		"/>
		<polygon class="st0" points="-3.6,115.3 -4.6,121.8 -3.8,118.5 -3.3,115.4 		"/>
		<polygon class="st0" points="2.9,118.7 3.3,118.7 3.5,116.7 3.2,116.6 		"/>
		<polygon class="st0" points="18.2,116.6 17.7,114.5 17,114.6 17.7,117.6 18.2,117.5 18.4,118.7 18.7,118.7 18.4,116.6 		"/>
		<polygon class="st0" points="10,119.1 10.3,119.2 10.3,117.1 10,117.1 		"/>
		<polygon class="st0" points="33.5,114.9 32.7,113 32.4,113.1 32.6,113.6 32.2,112.9 31.9,113 33.4,115.8 33.7,115.7 33.3,115 		
			"/>
		<polygon class="st0" points="7,119.6 7.3,119.7 7.5,116.3 7.2,116.3 		"/>
		<polygon class="st0" points="18.3,115.9 18.8,119.3 19.1,119.2 18.7,115.9 		"/>
		<polygon class="st0" points="45.2,105.6 47.3,108.3 47.6,108.1 45.5,105.4 		"/>
		<polygon class="st0" points="63.4,83.8 61.6,83.2 61.5,83.5 66.1,85.1 66.2,85.1 66.6,85.3 66.8,85 63.5,83.6 		"/>
		<polygon class="st0" points="52.7,99.6 52.8,99.6 52.7,99.7 50,97.6 49.6,98.1 53.3,101 53.6,100.6 54.3,101.2 54.5,100.9 
			54.1,100.6 56.5,102.4 55.6,101.3 52.9,99.3 		"/>
		<polygon class="st0" points="61.1,88.8 67,91.7 64.2,89.7 61.2,88.5 		"/>
		<polygon class="st0" points="13.4,116.9 13.8,120 14.2,119.9 13.7,116.8 		"/>
		<polygon class="st0" points="44.1,106.9 45.3,108.6 45.6,108.4 44.3,106.8 		"/>
		<polygon class="st0" points="55.6,96.8 57.3,98.1 57.5,97.9 55.8,96.6 		"/>
		<polygon class="st0" points="59.8,91.3 61.6,92.4 61.8,92.2 59.9,91.1 		"/>
		<polygon class="st0" points="35.6,111 37.2,114 37.5,113.8 35.9,110.8 		"/>
		<polygon class="st0" points="44.4,110.1 44.4,110.1 44.4,110 43.2,108.3 43.6,108 41.7,105.3 41.2,105.6 42.4,107.3 42.3,107.4 
			41.4,106.3 41.2,106.5 44.1,110.2 44.1,110.3 44.1,110.2 44.2,110.3 44.2,110.2 44.4,110.1 		"/>
		<polygon class="st0" points="57.8,93.2 56.4,92.3 56,92.8 57.7,93.9 58.1,93.5 60.6,95.2 60.8,94.9 57.9,93 		"/>
		<polygon class="st0" points="67.9,67.2 66.3,67.1 66.3,67.4 66,67.4 66,68 69.2,68.1 69.2,67.5 68.4,67.4 68.4,67.3 71.4,67.6 
			71.5,67.3 68,67 		"/>
		<polygon class="st0" points="53.8,98.4 52.1,97.2 51.7,97.7 54.3,99.5 54.5,99.3 56.3,100.5 56.5,100.3 53.8,98.4 		"/>
		<polygon class="st0" points="31.2,113.3 32.7,116.1 33,116 31.5,113.2 		"/>
		<polygon class="st0" points="47.6,104.2 49.9,106.4 50.2,106.2 47.8,104 		"/>
		<polygon class="st0" points="63.4,89.4 63.6,89.1 61.6,88.1 61.5,88.4 		"/>
		<polygon class="st0" points="59,95.8 57.3,94.6 57.2,94.7 56.9,94.5 56.7,94.7 59.6,96.7 59.8,96.4 59,95.9 		"/>
		<polygon class="st0" points="64.7,81.8 66.8,82.6 66.9,82.3 64.8,81.5 		"/>
		<polygon class="st0" points="66.9,75.4 69,75.9 69.1,75.6 67,75.1 		"/>
		<polygon class="st0" points="65.9,76.3 65.8,76.3 65.7,76.6 65.8,76.6 64.2,76.3 64,76.9 67.2,77.5 67.3,77 69.1,77.5 69.2,77.2 
			68.5,77 69.3,77.2 69.4,76.9 66,76 		"/>
		<polygon class="st0" points="67.7,55.9 71.2,55.6 71.1,55.3 67.6,55.6 		"/>
		<polygon class="st0" points="57.2,30.1 60,28.1 59.8,27.9 57,29.8 		"/>
		<polygon class="st0" points="66.5,79.6 65.2,79.2 65.1,79.5 65.3,79.6 65.3,79.7 66.4,79.9 68.5,80.6 68.6,80.3 68.6,80.3 
			68.6,80.1 		"/>
		<polygon class="st0" points="60.3,34.3 58.9,35.1 59.2,35.7 61,34.7 60.7,34.2 63.1,32.6 62.9,32.4 60.2,34.2 		"/>
		<polygon class="st0" points="67.7,70.5 71,70.7 71,70.4 67.7,70.2 		"/>
		<polygon class="st0" points="67.1,50 69.2,49.5 69.1,49.2 67,49.7 		"/>
		<polygon class="st0" points="68.3,57.5 70.5,57.4 70.4,57.1 68.3,57.2 		"/>
		<polygon class="st0" points="65.8,42.4 65.6,42.1 62.7,43.4 63,43.9 65.5,42.8 67,42.3 66.9,42 		"/>
		<polygon class="st0" points="63.8,35.6 62.7,36.1 62.7,36.1 59.7,37.6 60,38.2 63,36.7 62.9,36.4 64,35.9 		"/>
		<polygon class="st0" points="60.3,29.9 58.5,31.1 58.6,31.3 60.5,30.2 		"/>
		<polygon class="st0" points="67.8,59 71.3,58.9 71.3,58.5 67.8,58.7 		"/>
		<polygon class="st0" points="68.3,62.3 68.3,62.3 68.3,62.6 71.7,62.3 71.6,62.1 71.7,62.1 71.6,61.8 68.3,62 		"/>
		<polygon class="st0" points="65.5,45.3 68.6,44 68.4,43.7 65.4,45 		"/>
		<polygon class="st0" points="57.8,30.7 56.3,31.9 56.7,32.3 59.2,30.4 59,30.1 60.6,28.9 60.3,28.7 57.8,30.7 		"/>
		<polygon class="st0" points="48.6,21 48.7,20.9 48.8,21 50.2,19.4 50,19.2 49.8,19.4 50.6,18.4 50.3,18.2 48.3,20.8 		"/>
		<polygon class="st0" points="67.6,71 70.9,71.2 70.9,70.9 67.6,70.7 		"/>
		<polygon class="st0" points="67.5,53 67.4,53 65.3,53.3 65.4,53.9 68.7,53.4 68.7,53 70.3,52.7 73.2,51.7 68.7,52.7 70.7,52.2 
			70.7,51.9 67.4,52.7 		"/>
		<polygon class="st0" points="61.8,32.3 59.9,33.4 60.1,33.7 62,32.6 		"/>
		<polygon class="st0" points="65.7,39.4 63.7,40.2 63.7,40.3 61.9,41 62.2,41.5 63.6,41 63.6,41 66.9,39.7 66.7,39.4 66.2,39.6 
			69.8,38.6 66.6,39.1 65.7,39.5 		"/>
		<polygon class="st0" points="55.6,27.5 53.8,28.8 53.9,29 52.5,30.2 53,30.7 56.5,27.6 56.5,27.6 56.9,27.3 56.6,27 57.5,26.4 
			57.3,26.2 55.5,27.5 		"/>
		<polygon class="st0" points="51,22.7 52.5,21.2 52.3,21 50.7,22.5 		"/>
		<polygon class="st0" points="45.9,18.5 47.2,16.9 47,16.7 45.6,18.3 		"/>
		<polygon class="st0" points="32.1,11.9 33.5,8.8 33.2,8.7 31.8,11.8 		"/>
		<polygon class="st0" points="-14,9.1 -12.6,12.1 -12.4,12 -13.7,8.9 		"/>
		<polygon class="st0" points="-23.8,18.1 -25.9,15.5 -26.2,15.7 -24.1,18.3 		"/>
		<polygon class="st0" points="36.9,13.4 39.1,8.2 37.9,10.4 36.6,13.3 		"/>
		<polygon class="st0" points="19,4.8 18.7,4.8 18.5,7.9 18.9,7.9 		"/>
		<polygon class="st0" points="12,5.2 11.6,5.2 11.6,7.3 11.9,7.3 		"/>
		<polygon class="st0" points="5.1,7.5 4.9,5.4 4.6,5.4 4.8,7.5 		"/>
		<polygon class="st0" points="-16.7,13.5 -17.8,11.7 -18.1,11.8 -17,13.6 		"/>
		<polygon class="st0" points="-17.8,14.8 -17.1,16.1 -16.7,15.9 -16.5,16.1 -16,15.8 -17.6,12.9 -18,13.2 -18.1,12.9 -18.7,13.2 
			-19.5,11.9 -19.8,12 -18.1,14.9 		"/>
		<polygon class="st0" points="-43,41.4 -42.9,41.3 -42.3,41.5 -42.3,41.5 -41.6,41.7 -41.4,41.1 -43.3,40.3 -43.5,40.8 -44.4,40.5 
			-46.1,39.8 -46.1,39.9 -46.8,39.7 -47,40 -44.6,40.8 		"/>
		<polygon class="st0" points="-8.9,10.8 -9.7,8.4 -10,8.5 -9.2,10.9 		"/>
		<polygon class="st0" points="-30,22.9 -28.7,24 -28.3,23.5 -30.7,21.5 -31,21.9 -32.4,20.8 -32.6,21 -30.1,23 		"/>
		<polygon class="st0" points="-40.2,35.5 -43.2,34.2 -45.7,32.3 -40.3,35.8 		"/>
		<polygon class="st0" points="-6.6,9.8 -6.6,9.8 -6.3,9.7 -7.5,6.8 -7.6,6.8 -7.6,6.8 -7.9,6.9 -6.7,9.8 		"/>
		<polygon class="st0" points="-23.4,17.7 -25.6,15.3 -25.8,15.5 -23.7,17.9 		"/>
		<polygon class="st0" points="-38.5,32.5 -40.3,31.4 -40.5,31.6 -38.7,32.8 		"/>
		<polygon class="st0" points="-44.3,38.2 -42.4,39.1 -42.2,38.8 -42.9,38.5 -42,38.8 -41.9,38.8 -39.1,39.9 -38.8,39.3 -43.2,37.5 
			-43.4,38 -45,37.5 -45.1,37.8 -44.3,38 		"/>
		<polygon class="st0" points="65.2,46.2 65.3,46.5 66,46.4 66,46.4 65.9,46.4 66,46.7 67.4,46.2 68.2,46 68.1,45.9 69.1,45.6 
			69,45.3 68.6,45.4 68.6,45.3 		"/>
		<polygon class="st0" points="57.1,30.4 57.2,30.6 62.7,27.3 59.9,28.5 		"/>
		<polygon class="st0" points="41.7,16.4 40.8,17.7 41.3,18 43.2,15.4 43.1,15.3 43.9,14.1 43.7,13.9 42.8,15.1 42.7,15 43.7,13.6 
			43.4,13.4 41.4,16.2 		"/>
		<polygon class="st0" points="28,6.7 27.6,6.6 26.6,9.8 27,9.9 		"/>
		<polygon class="st0" points="13.7,6.1 13.1,6.1 13.1,6.9 12.7,6.9 12.7,6.4 12.1,6.4 12.1,10.9 12.8,10.9 12.8,9.3 13,9.4 13,9.3 
			13.6,9.4 13.7,7.6 14,7.6 14.2,4.3 13.9,4.3 		"/>
		<polygon class="st0" points="59.6,33.2 62.2,31.3 62,31 59.4,32.9 		"/>
		<polygon class="st0" points="47.6,20.1 49.5,17.5 49.2,17.3 47.3,19.9 		"/>
		<polygon class="st0" points="19.8,4.9 19.5,4.9 19.2,8 19.6,8.1 		"/>
		<polygon class="st0" points="53.6,25.7 55.9,23.4 55.7,23.1 53.4,25.5 		"/>
		<polygon class="st0" points="37.5,11.2 37.2,11 36.2,12.9 36.5,13 		"/>
		<polygon class="st0" points="29.8,8.1 29.1,10.1 29.4,10.2 30.1,8.2 		"/>
		<polygon class="st0" points="22.6,8.3 23,6.3 22.7,6.3 22.2,8.3 		"/>
		<polygon class="st0" points="-33.9,28.3 -34.4,27.9 -34.4,27.9 -37.1,25.8 -37.3,26 -37.9,25.5 -38.1,25.8 -34.1,28.5 		"/>
		<polygon class="st0" points="10.9,115.5 11.3,120.2 11.3,121.5 11.2,115.5 		"/>
		<polygon class="st0" points="26.7,113.1 28.5,117.4 28.8,117.3 27,113 		"/>
		<polygon class="st0" points="53.1,96.4 57.1,99.2 57.3,98.9 53.3,96.1 		"/>
		<polygon class="st0" points="60.6,39 60.6,39.1 60.9,39.6 62.5,38.9 62.7,39.2 65.9,37.8 65.7,37.5 63.9,38.3 63.9,38.3 63.8,38 
			64.8,37.6 64.7,37.3 63.7,37.7 65.1,37 64.9,36.7 60.6,39 		"/>
		<polygon class="st0" points="51.9,26.6 55.4,23.3 55.1,23.1 51.6,26.4 		"/>
		<polygon class="st0" points="39.6,16.9 42,12.7 41.7,12.6 39.3,16.7 		"/>
		<polygon class="st0" points="25,10.7 25,10.7 25.3,10.8 25.9,8.8 25.4,8.7 26,6.2 25.7,6.1 25.6,6.3 25.6,6.3 24.7,9.5 24.9,9.5 
			24.6,10.7 		"/>
		<polygon class="st0" points="-39,37.9 -38.6,37.3 -39.1,37 -39,36.8 -40.8,36.1 -40.7,35.9 -42.6,34.9 -42.8,35.2 -41.9,35.7 
			-42,35.6 -42.3,36.2 -41.9,36.3 -42,36.3 		"/>
		<polygon class="st0" points="-42.8,46.7 -46.1,45.8 -46.3,46.4 -43,47.3 		"/>
		<polygon class="st0" points="-44,73.8 -44.2,73.2 -47.5,73.9 -47.3,74.5 		"/>
		<polygon class="st0" points="-40.6,88.9 -40.4,89.3 -38.5,88.3 -38.8,87.9 -38.4,87.8 -38.7,87.2 -41.7,88.8 -41.4,89.3 		"/>
		<polygon class="st0" points="-45,44.4 -42.5,45.2 -42.3,44.6 -44.8,43.8 		"/>
		<polygon class="st0" points="-47.6,50.4 -44.4,50.8 -44.3,50.2 -47.5,49.8 -47.5,49.9 -49.1,49.6 -51.1,49.4 -47.6,50.2 		"/>
		<polygon class="st0" points="-36.9,95.7 -36.3,95.2 -36.2,95.4 -34.5,94.2 -34.7,93.9 -34.5,93.7 -35,93.2 -37.4,95.3 		"/>
		<polygon class="st0" points="-45.7,59.2 -48.9,59.3 -48.8,59.9 -48.9,59.9 -48.9,60.5 -43.7,59.6 -45.7,59.8 -45.6,59.8 		"/>
		<polygon class="st0" points="-47.8,66.3 -45.7,66.2 -45.7,65.5 -47.8,65.7 		"/>
		<polygon class="st0" points="-44.8,80.2 -42.8,79.5 -43,78.9 -45,79.6 		"/>
		<polygon class="st0" points="-34.6,97.3 -34.1,97.8 -32.5,96.6 -33,96.1 		"/>
		<polygon class="st0" points="-35.8,96.7 -33.1,94.7 -33.5,94.2 -35.6,95.8 -35.8,95.6 -37.5,96.9 -37.3,97.1 -36.1,96.3 		"/>
		<polygon class="st0" points="-25.6,102.1 -26.1,101.7 -28.3,104.1 -27.8,104.5 		"/>
		<polygon class="st0" points="-21.6,108.9 -19.7,106.2 -20.3,105.9 -22.2,108.6 		"/>
		<polygon class="st0" points="-0.4,113.7 -1.1,113.6 -1.7,116.8 -1.1,116.9 -0.9,116.2 -1,117 -0.4,117.1 1.4,111.8 -0.4,114 		"/>
		<polygon class="st0" points="14.7,114.6 15,117.8 15.6,117.8 15.4,114.6 		"/>
		<polygon class="st0" points="28.9,115.2 27.9,112.1 27.2,112.3 28.1,114.9 28.9,117.4 29.2,117.3 28.6,115.3 		"/>
		<polygon class="st0" points="-27.4,100.8 -27.9,100.3 -28.1,100.6 -28.3,100.5 -29.5,101.9 -29.7,102.1 -29.7,102.2 -30.2,102.9 
			-29.7,103.3 -28.9,102.3 		"/>
		<polygon class="st0" points="-23.4,104.4 -25,107 -24.5,107.3 -22.8,104.7 		"/>
		<polygon class="st0" points="-7,112.3 -7.2,112.3 -7,111.6 -7.6,111.4 -8.9,115.8 -8.5,115.9 -8.9,117.2 -8.6,117.3 -7.9,115.3 
			-7.8,115.3 		"/>
		<polygon class="st0" points="23.6,116.5 22.8,114 22.7,113.8 22.7,113.8 22.7,113.6 22,113.8 22.1,114.2 22.5,115.7 22.4,115.8 
			23.4,118.8 24.7,121.2 23.1,116.7 		"/>
		<polygon class="st0" points="-31.6,101.6 -29.5,99.3 -30,98.8 -30.1,99 -30.5,98.7 -32,100.1 -31.5,100.5 -31.3,100.3 
			-31.9,100.9 -32.9,101.9 -32.7,102.1 -31.8,101.3 		"/>
		<polygon class="st0" points="4.8,116.7 4.7,116.7 4.7,119.8 5.6,121.5 5.1,116.9 5.4,116.9 5.6,115 4.9,114.9 		"/>
		<polygon class="st0" points="-3.3,115.6 -2.6,115.7 -2.1,113.8 -2.8,113.6 		"/>
		<polygon class="st0" points="12.3,115.1 12.4,117.1 13.1,117.1 13,115.1 		"/>
		<polygon class="st0" points="19.2,114.5 19.5,116.5 20.2,116.4 19.9,114.4 		"/>
		<polygon class="st0" points="26.8,115 26.2,113.1 25.6,113.2 26,114.5 25.8,114.6 25.9,115.2 25.6,115.2 25.4,114.5 25.1,114.6 
			26,117.8 26.3,117.7 26.2,117.2 26.5,117.2 26.4,116.6 26.7,117.8 27,117.7 26.3,115.1 		"/>
		<polygon class="st0" points="-13.9,109.2 -14.5,108.9 -14.7,109.4 -15.2,109.2 -16.4,112 -16.4,112 -16.9,113.1 -16.6,113.2 
			-16,112.1 -15.8,112.2 -15.7,112 -15.4,112.1 		"/>
		<polygon class="st0" points="-3.7,112.8 -4.4,112.6 -4.7,113.8 -5,113.7 -6,118.3 -5.7,118.3 -5.1,115.8 -4.7,115.9 		"/>
		<polygon class="st0" points="3.4,114.2 2.8,114.1 2.3,117.3 3,117.4 		"/>
		<polygon class="st0" points="25.1,116.1 24.3,113 23.9,113.1 23.7,112.5 23.1,112.7 24.5,117 25.1,116.8 24.9,116.2 		"/>
		<polygon class="st0" points="51.4,102.4 49,100 48.6,100.5 50.9,102.8 51,102.7 51.8,103.6 52.1,103.4 51.2,102.5 		"/>
		<polygon class="st0" points="-6.6,112.2 -7.4,114.5 -6.8,114.7 -6,112.4 		"/>
		<polygon class="st0" points="34.9,112.9 33.4,110.2 32.8,110.5 33.7,112 33.6,112.1 34.6,114.4 34.9,114.3 34.4,113.1 		"/>
		<polygon class="st0" points="-8.9,113.3 -8.5,112 -8.6,112 -8.5,111.8 -9.2,111.7 -9.6,113.1 -9.8,113.7 -9.8,113.7 -10.8,116.3 
			-10.5,116.4 -10.2,115.8 -10.2,115.8 -9.8,114.7 -9.4,114.8 		"/>
		<polygon class="st0" points="9.1,114.9 9.1,114.9 8.4,114.9 8.6,118 9.1,118 9.1,118 9.7,118 9.5,114.9 		"/>
		<polygon class="st0" points="16.4,116.8 16.2,114.8 15.6,114.8 15.8,116.8 16.1,116.8 16.3,118.9 16.6,118.9 16.4,116.8 		"/>
		<polygon class="st0" points="29.6,111.9 30.4,113.8 31,113.6 30.3,111.7 		"/>
		<polygon class="st0" points="36.4,109.1 37.4,110.8 38,110.6 37,108.8 		"/>
		<polygon class="st0" points="42.3,105.7 43.5,107.4 44.1,107 40.6,102.4 		"/>
		<polygon class="st0" points="48,101.5 48,101.5 47.5,101.1 47,101.5 49.2,103.9 49.8,103.5 49.4,103 49.4,103 		"/>
		<polygon class="st0" points="32.9,113.4 33.5,113.1 32.2,110.2 31.6,110.4 		"/>
		<polygon class="st0" points="68.6,71.8 65.2,71.2 65.1,71.8 63.7,71.6 63.6,72.3 68.4,72.8 68.4,72.7 70.6,72.9 70.6,72.6 
			68.5,72.4 		"/>
		<polygon class="st0" points="69.5,59 66.1,59.2 66.1,59.8 66.2,59.8 66.3,60.4 69.5,60 69.5,59.9 69.5,59.9 69.5,59.7 69.5,59.7 
					"/>
		<polygon class="st0" points="39.4,106.9 40.7,109 41.3,108.7 39.9,106.6 		"/>
		<polygon class="st0" points="45,103.5 45,103.5 44.5,103.9 46.7,106.2 46.8,106.1 46.8,106.1 47.3,105.6 45.1,103.4 		"/>
		<polygon class="st0" points="59.9,92.5 57.1,91.1 56.7,91.6 58.1,92.3 58.1,92.3 61,94.2 61.2,93.9 59.6,93 		"/>
		<polygon class="st0" points="67.1,77.7 63.9,77.1 63.8,77.7 67,78.3 		"/>
		<polygon class="st0" points="39.6,110.6 37.8,108.1 37.3,108.4 38.5,110.2 38.3,110.3 39.3,112.1 39.4,112.1 39.5,112.2 39.8,112 
			39.2,110.9 		"/>
		<polygon class="st0" points="64.8,81.5 64.9,81.2 65.5,81.4 65.8,80.8 62.6,79.7 62.3,80.3 63,80.5 62.8,80.8 		"/>
		<polygon class="st0" points="59.5,87.5 61.4,88.5 61.7,87.9 59.8,87 		"/>
		<polygon class="st0" points="68.7,60.9 66.6,60.9 66.6,61 66.4,61 66.4,61.7 68.5,61.7 68.5,61.5 68.7,61.5 		"/>
		<polygon class="st0" points="57.5,89.4 60.4,91.2 60.8,90.6 57.9,88.9 		"/>
		<polygon class="st0" points="64.5,73.6 64.4,73.6 64.2,74.2 67.5,75 67.7,74.4 67.8,74.4 68,73.8 63,72.9 		"/>
		<polygon class="st0" points="64.3,82.7 61.9,81.8 61.7,82.4 63.4,83.1 63.4,83.1 66.7,84.4 66.8,84.1 64.2,83 		"/>
		<polygon class="st0" points="59.6,31 58.9,31.5 58.7,31.3 57,32.4 57.3,32.8 57.1,32.9 57.5,33.4 60,31.5 		"/>
		<polygon class="st0" points="64.2,85.2 61.1,84.1 60.9,84.7 63.1,85.5 63,85.8 65,86.6 65.1,86.3 63.7,85.7 63.9,85.8 63.9,85.8 
			65.1,86.3 65.2,86.1 66.1,86.4 66.2,86.1 64.1,85.3 		"/>
		<polygon class="st0" points="64.4,47.6 64.6,48.2 66.6,47.7 66.4,47 		"/>
		<polygon class="st0" points="68,54.6 65.9,54.8 66,55.5 68.1,55.2 		"/>
		<polygon class="st0" points="65.8,63.5 65.8,64.1 68.5,64.2 66.2,64.3 66.2,64.9 69.5,64.8 69.4,64.2 69.2,64.2 69.2,64 
			70.6,64.1 70.6,63.8 69.2,63.7 69.2,63.6 		"/>
		<polygon class="st0" points="68.4,66.2 71.2,66.4 71.2,66.1 68.5,65.9 68.5,65.8 65.9,65.6 65.8,66.3 68.4,66.5 		"/>
		<polygon class="st0" points="57.2,27.8 54.8,29.9 54.8,29.9 54.6,30 55,30.5 55.4,30.2 55.7,30.5 57.4,29.3 57,28.8 57.6,28.3 		
			"/>
		<polygon class="st0" points="45.2,20.6 45.8,21 47.6,18.4 47,18.1 		"/>
		<polygon class="st0" points="68.7,68.2 67.7,68.1 67.7,68.2 65.9,68.1 65.9,68.6 65.8,68.6 65.7,68.9 68.2,69 68.2,69.1 
			70.3,69.4 70.3,69.2 70.7,69.2 70.7,68.9 69.1,68.8 69.1,68.6 70.3,68.7 70.3,68.4 69.1,68.3 69.1,68.2 		"/>
		<polygon class="st0" points="68.3,50.5 68.1,49.9 65,50.8 65.2,51.4 		"/>
		<polygon class="st0" points="65.5,44.6 65.4,44.3 66.3,43.9 66.1,43.3 63.1,44.5 63.4,45.1 63.5,45.1 63.5,45.2 		"/>
		<polygon class="st0" points="54.1,25.5 52.5,26.8 52.9,27.3 54.5,26 54.3,25.8 56.5,24 56.3,23.8 54.1,25.5 		"/>
		<polygon class="st0" points="49.5,21.1 49,20.7 47.6,22.2 48.1,22.6 		"/>
		<polygon class="st0" points="62,35.4 59,36.9 59.3,37.5 61.1,36.6 61.2,36.7 64.3,35.2 64.1,34.9 62.3,35.8 		"/>
		<polygon class="st0" points="55.7,26.4 53,28.4 53.4,28.9 56.1,26.9 		"/>
		<polygon class="st0" points="50.4,21 48,23.4 48.3,23.6 48.2,23.7 48.7,24.1 51,21.8 50.8,21.6 50.9,21.5 		"/>
		<polygon class="st0" points="31.6,9.8 30.4,12.8 31,13 32.3,10 		"/>
		<polygon class="st0" points="51.5,24.6 50.6,25.4 51,25.9 51.2,25.8 51.2,25.8 52,25 53.5,23.7 53.4,23.5 53.4,23.5 53.3,23.4 
			53,23.2 53,23.2 52.9,23.1 		"/>
		<polygon class="st0" points="21.9,10.1 22.1,8.8 22.3,8.1 22.2,8.1 22.3,7.1 21.6,7 21.6,7.3 21.5,7.3 20.8,10.5 21.5,10.6 
			21.6,10.1 		"/>
		<polygon class="st0" points="45.8,17.1 45.2,16.8 43.5,19.4 43.9,19.6 43.9,19.7 44.5,20 46.2,17.4 45.8,17.2 		"/>
		<polygon class="st0" points="38.6,16.1 39.6,14.4 39.1,14.1 38,15.8 		"/>
		<polygon class="st0" points="32.9,11.2 32.1,13 32.7,13.3 33.6,11.4 33.3,11.4 34.2,8.8 33.9,8.7 33,11.2 		"/>
		<polygon class="st0" points="18.4,7.3 17.7,7.2 17.4,9.2 18.1,9.3 		"/>
		<polygon class="st0" points="11.2,8.8 11.2,6.8 10.7,6.8 10.8,6.2 10.3,6.2 10.1,4.2 9.8,4.3 9.8,4.6 9.8,4.6 9.8,7.9 10.1,7.9 
			10.1,9.4 10.7,9.4 10.7,8.8 		"/>
		<polygon class="st0" points="39.6,17.4 40.2,17.7 42.1,15 41.5,14.7 		"/>
		<polygon class="st0" points="33.2,14.1 33.8,14.4 35.3,11.4 35,11.3 35.5,10.3 35.2,10.2 34.7,11.2 34.7,11.2 		"/>
		<polygon class="st0" points="-3.2,7.4 -3.4,6.6 -3.7,6.7 -3.5,7.5 -3.5,7.5 -3.1,9.2 -3.7,7.5 -4.4,7.8 -4.3,8 -4.7,8.1 
			-3.3,12.5 -2.6,12.3 -3.2,10.6 -2.8,10.5 -2.8,10.6 -2.1,10.5 -2.9,7.4 		"/>
		<polygon class="st0" points="-16.3,11.9 -14.8,14.8 -14.2,14.5 -15,12.9 -14.9,12.9 -15.6,11.7 -15.7,11.6 -15.7,11.6 -16.6,10.2 
			-16.9,10.3 -16,11.7 		"/>
		<polygon class="st0" points="43.1,16.4 41.6,18.4 42.1,18.8 41.2,20.2 41.8,20.5 43,18.6 43.1,18.7 43.9,17.6 44.1,17.8 
			46.2,15.1 45.9,14.9 44.2,17 44.1,17 44.3,16.7 43.8,16.4 44.7,15.3 44.4,15.1 43.3,16.5 		"/>
		<polygon class="st0" points="37.7,12.4 36.5,15.2 36.7,15.3 36.6,15.3 37.3,15.5 38.5,12.7 38.3,12.6 38.4,12.6 		"/>
		<polygon class="st0" points="19.7,9.8 20.4,9.9 20.7,6.8 20,6.8 		"/>
		<polygon class="st0" points="-11.3,9.9 -9.9,12.6 -9.3,12.3 -9.3,12.2 -9.2,12.2 -9.9,10.3 -10.2,10.4 -10.7,9.6 -10.7,9.6 
			-11,8.8 -11.3,8.9 -11,9.7 		"/>
		<polygon class="st0" points="27.6,11.6 27.9,11.7 27.4,13.6 28,13.8 29.3,9.4 28.9,9.3 29,8.8 28.8,8.8 29.2,7 28.9,7 28.5,8.7 
			28.4,8.7 		"/>
		<polygon class="st0" points="7.4,7.3 7.6,9.1 8.3,9 7.9,6 7.9,6 7.9,0 7.3,4.2 7.5,6 7.2,6.1 7.3,6.9 6.7,6.9 6.8,8.9 7.5,8.9 		
			"/>
		<polygon class="st0" points="-0.4,7.7 -0.9,5.6 -1.2,5.6 -0.8,7.8 -0.9,7.8 -0.5,9.8 0.1,9.7 -0.3,7.7 		"/>
		<polygon class="st0" points="-7.9,9.5 -7.2,11.4 -6.6,11.2 -7.2,9.3 		"/>
		<polygon class="st0" points="-12.7,13.4 -13.6,11.6 -14.2,11.8 -13.3,13.6 		"/>
		<polygon class="st0" points="-41.8,43.3 -41.6,42.8 -41.8,42.7 -41.7,42.2 -43.6,41.7 -43.6,41.7 -45.6,40.9 -45.8,41.2 
			-44.8,41.5 -45,42 -44.9,42 -45,42.2 		"/>
		<polygon class="st0" points="-45.3,57.3 -48.7,57 -48.7,57.2 -50.3,57.1 -50.4,57.4 -48.8,57.5 -48.8,57.6 -43.4,58.5 		"/>
		<polygon class="st0" points="-25.4,18.4 -23.8,20.3 -23.3,20 -24.9,18 		"/>
		<polygon class="st0" points="-45.7,64.3 -48.9,64.7 -48.8,65.3 -45.6,64.9 		"/>
		<polygon class="st0" points="-24,16.3 -23.4,17 -23.7,17.2 -22.5,18.8 -22,18.5 -21.9,18.7 -21.4,18.3 -22.6,16.8 -22.5,16.8 
			-23.8,15.1 -24,15.3 -23.5,16 -23.7,16.1 -25.1,14.3 -25.3,14.5 -23.9,16.3 		"/>
		<polygon class="st0" points="-37.4,28.7 -37.7,29.3 -35,30.8 -34.6,30.3 		"/>
		<polygon class="st0" points="-40.2,34.6 -40.5,35.1 -38.7,36.1 -38.4,35.6 		"/>
		<polygon class="st0" points="-47.6,55.4 -45.5,55.6 -45.5,55 -47.5,54.7 		"/>
		
			<rect x="-47.3" y="60.8" transform="matrix(6.283155e-03 -1 1 6.283155e-03 -108.5481 14.4047)" class="st0" width="0.6" height="2.1"/>
		<polygon class="st0" points="-46,45.7 -42.8,46.7 -42.5,46.1 -45,45.3 -44.9,45.1 -47,44.4 -47.1,44.7 -45.8,45.1 -45.9,45.4 
			-48,44.9 -48.1,45.2 -46,45.7 		"/>
		<polygon class="st0" points="-48.3,56.3 -45,56.7 -44.9,56 -46.3,55.9 -46.3,55.9 -46.7,55.8 -48.3,55.7 -48.3,55.8 -51.3,55.6 
			-51.3,55.9 -48.3,56.1 		"/>
		<polygon class="st0" points="-21.9,102.4 -24,103.7 -26.1,106.2 -25.9,106.4 -27,108 -26.8,108.2 -25.7,106.6 -25.6,106.6 		"/>
		<polygon class="st0" points="-43.4,76.9 -43.6,76.4 -46.6,77.5 -46.4,78.1 		"/>
		<polygon class="st0" points="-39.1,92.8 -38.6,92.5 -38.4,92.4 -38.2,92.7 -36.4,91.6 -36.8,91.2 -36.5,91 -37,90.5 -39.5,92.3 
			-39.3,92.6 -41,93.6 -40.8,93.9 -39.1,92.8 		"/>
		<polygon class="st0" points="-44.7,52.1 -44.7,52 -44.7,52 -44.6,51.3 -47.8,51 -48.8,50.8 -48.8,51.1 -47.8,51.3 -47.9,51.7 		
			"/>
		<polygon class="st0" points="-46,76.2 -43.9,75.7 -44.1,75.1 -46.1,75.6 		"/>
		<polygon class="st0" points="-43.9,82.3 -41.9,81.6 -42.1,81 -43.3,81.4 -43.4,81.3 -46.7,82.4 -46.6,82.7 -44.1,81.8 		"/>
		<polygon class="st0" points="-27.1,104.4 -26.5,104.8 -25.2,103.3 -25.7,102.9 		"/>
		<polygon class="st0" points="-32.1,22.8 -29.6,25.1 -29.2,24.6 -31.6,22.4 		"/>
		<polygon class="st0" points="-37.2,34.1 -40,32.4 -40.4,32.9 -37.5,34.6 		"/>
		<polygon class="st0" points="5.6,6.2 6.1,9.2 6.8,9.1 6.3,6.1 		"/>
		<polygon class="st0" points="-11,11.8 -11,11.8 -12.3,8.6 -12.6,8.8 -12,10.1 -12.6,10.3 -11.1,13.1 -10.5,12.8 		"/>
		<polygon class="st0" points="-27.3,18.8 -27.2,18.9 -27.7,19.3 -25.5,21.8 -25,21.4 -26.8,19.3 -25.1,21 -24.6,20.5 -26.9,18.3 
			-26.9,18.4 -27.4,17.8 -27.7,18 -27.2,18.6 		"/>
		<polygon class="st0" points="-36.9,28.1 -37.3,28.7 -34.6,30.3 -34.2,29.8 		"/>
		<polygon class="st0" points="15,9.2 15,9.2 15,9.4 15.7,9.4 15.9,7.3 15.9,7.3 16.1,5.3 15.8,5.3 15.7,6.2 15.6,6.2 15.6,6.2 
			15.5,6.2 15.3,6.2 15.3,6.2 15,6.2 15,7 14.8,7 14.6,9 15,9 		"/>
		<polygon class="st0" points="-15.8,14.9 -15.2,14.7 -16.2,12.9 -16.8,13.2 		"/>
		<polygon class="st0" points="-29.7,21.8 -28.3,23.2 -27.8,22.8 -29.2,21.3 -29.2,21.4 -30.3,20.2 -30.6,20.5 -29.5,21.6 		"/>
		<polygon class="st0" points="-34.6,26.7 -33,28 -32.6,27.5 -33.8,26.5 -33.6,26.4 -35.3,25 -35.5,25.3 -34.2,26.3 		"/>
		<polygon class="st0" points="-38.6,31.8 -36.9,32.9 -36.5,32.4 -38.3,31.3 		"/>
		<polygon class="st0" points="-48.9,69.3 -44.2,68.5 -44.3,67.9 -45.6,68.1 -45.7,67.7 -46.8,67.8 -45.4,67.5 -45.5,66.9 
			-48.7,67.5 -48.5,68.1 -47.8,67.9 -47.7,68.4 -49,68.6 		"/>
		<polygon class="st0" points="-34,96.7 -32.7,95.7 -32.7,95.6 -32.3,95.2 -32.7,94.7 -34.4,96.2 -35.8,97.2 -35.7,97.3 -36.2,97.8 
			-35.8,98.3 		"/>
		<polygon class="st0" points="-21.4,104.8 -23.9,108.6 -23.3,109 -20.9,105.1 		"/>
		<polygon class="st0" points="7.6,114.1 7.7,118.7 8.4,118.6 8.3,114.1 		"/>
		<polygon class="st0" points="63.2,87.3 63,87.3 63.3,86.8 60.2,85.4 59.9,85.9 60.8,86.4 58.8,85.5 58.6,86.1 61.8,87.4 
			61.7,87.6 64.8,88.8 64.9,88.5 63,87.8 		"/>
		<polygon class="st0" points="68.9,56.9 69,56.9 69,56.9 69.1,56.9 69,56.6 69,56.3 69,56.3 69,56.3 68.8,56.3 65.6,56.6 
			65.6,56.8 64.2,57 64.3,57.6 		"/>
		<polygon class="st0" points="64.7,40.8 60.4,42.8 60.7,43.4 65,41.4 		"/>
		<polygon class="st0" points="-15.9,19.6 -17.1,17.6 -19.7,13.9 -20,14.1 -21.2,12.6 -21.5,12.7 -19.6,15.2 		"/>
		<polygon class="st0" points="-33.4,24.2 -33.3,24.3 -33.3,24.4 -30.8,26.6 -30.6,26.4 -29.7,27.1 -27.8,27.8 -32.9,23.7 -33,23.8 
			-33.6,23.2 -33.8,23.4 -33.2,24 		"/>
		<path class="st0" d="M13.8,58.1l0.5-0.7h0.2l0.8,0.8v0.3h-3.1v0.2v1.4c0,0.7-0.3,1.1-1.5,1.1c0-0.4-0.2-0.5-1.1-0.8l0.1-0.3
			c0.5,0.1,0.9,0.1,1.4,0.1c0.3,0,0.4-0.1,0.4-0.4v-1.4h-6l-0.8,0.1L4.5,58l1,0.1h6V58c0-0.3,0-0.6-0.1-0.8l0.1-0.1
			c1.2,0.2,1.2,0.2,1.2,0.4s-0.2,0.2-0.4,0.2v0.4L13.8,58.1z M11,53.1h1.9l0.4-0.4h0.2c0.6,0.5,0.7,0.6,0.7,0.7s-0.1,0.2-0.4,0.4V55
			v2.2l-0.1,0.1H13V57H6.8v0.4l-0.1,0.1H6.1l0.1-2.4v-1.3c0-0.4,0-0.8-0.2-1.2L6,52.6c0.3,0.1,0.7,0.3,1,0.5h1.5c0-0.1,0-0.2,0-0.3
			v-0.7H5.8L5,52.2l-0.1-0.5l1,0.1h2.4c-0.1-0.1-0.2-0.2-0.2-0.3c-0.2-0.4-0.5-0.7-0.8-0.9l0.2-0.2c1,0.4,1.5,0.7,1.5,1.1
			c0,0.1-0.1,0.2-0.2,0.3h2c0.1-0.3,0.3-0.5,0.4-0.8c0.1-0.2,0.1-0.4,0.1-0.6h0.1c0.9,0.3,1.1,0.4,1.1,0.6S12.3,51,11.9,51
			c-0.2,0.2-0.5,0.5-0.7,0.7h2.4l0.6-0.7h0.2l0.8,0.8v0.3h-4L11,53.1z M13,53.5h-2v0.8c0,0.2,0.1,0.3,0.4,0.3s0.4,0,0.5-0.2
			c0.1-0.2,0.2-0.4,0.2-0.7h0.3v0.5c0,0.1,0,0.1,0.2,0.2s0.2,0.1,0.2,0.2s-0.1,0.2-0.3,0.3c-0.4,0.1-0.7,0.1-1.1,0.1
			c-0.9,0-1-0.2-1-0.7v-0.9H9.1c-0.2,0.9-0.7,1.5-2,1.9L7,55.2c0.8-0.2,1.3-0.9,1.5-1.7H6.8v2.1H13L13,53.5z M13,56H6.8v0.6H13
			L13,56z M7.3,58.7c1.1,0.3,1.8,0.8,1.8,1.3c0,0.2-0.2,0.4-0.4,0.4c0,0,0,0,0,0c-0.2,0-0.3-0.1-0.5-0.4c-0.3-0.4-0.6-0.8-1.1-1.1
			L7.3,58.7z M9.2,52.1v0.8c0,0.1,0,0.1,0,0.2h1.2v-1L9.2,52.1z"/>
		<path class="st0" d="M5.1,63.6C5.4,63.8,5.7,64,6,64.2c0.3,0.2,0.5,0.6,0.5,0.9c0,0.1,0,0.3,0,0.4c-0.1,0.5-0.1,1-0.1,1.5
			c0,0.7,0,1.3,0.2,2c0.1,0.4,0.3,0.8,0.6,1.1c0.1,0.1,0.2,0.2,0.3,0.2s0.1,0,0.2-0.2s0.3-0.5,0.6-1c0.3-0.5,0.7-0.9,1.1-1.4
			l0.2,0.2c-0.3,0.5-0.7,1-0.9,1.5c-0.2,0.3-0.3,0.7-0.4,1c0,0.1-0.1,0.3-0.1,0.4c0,0.1,0,0.2,0.1,0.3c0,0.1,0,0.2,0,0.3
			c0,0.1-0.1,0.3-0.2,0.3c0,0,0,0,0,0c-0.6-0.1-1.1-0.5-1.4-1c-0.3-0.4-0.6-0.9-0.7-1.4c-0.1-0.6-0.2-1.1-0.2-1.7c0-1,0-1.8,0-2
			c0.1-0.6-0.2-1.3-0.7-1.7L5.1,63.6z M11.8,65.5c1.4,0.1,2.6,1,3,2.4c0.1,0.2,0.1,0.5,0.1,0.7c0,0.4-0.2,0.7-0.5,0.7
			s-0.4-0.2-0.5-0.8c-0.1-1.3-1-2.3-2.2-2.7L11.8,65.5z"/>
	</g>
</g>
</svg>
