<svg xmlns="http://www.w3.org/2000/svg" viewBox="0 0 132.5 144.24"><defs><style>.cls-1{fill:#fff;stroke:#4f4f4f;stroke-miterlimit:10;}</style></defs><g id="Layer_2" data-name="Layer 2"><g id="back"><path class="cls-1" d="M35.67,48.87c2-2.35,3.75-4.48,6.13-5.33,1.45-.53,3.58-.84,4.53,1.8,1.61,4.49-7.55,11.36-10,13,1.27,4.78,2.79,9.45,4.5,14.2l1.56,4.35C49.06,71.64,51.64,68,51,66.19c-.57-1.59-4.69-3.1-7.91-4.17a.8.8,0,0,1-.64-.52c0-.13,0-.31.44-.45a1.72,1.72,0,0,1,1-.07c3.38.27,9.55.44,12.63-.51s5.15-.21,5.86,1.77c2.23,6.21-12.62,18.39-17.12,21.65,2,4.67,4.16,9.1,6.22,13.58,1.81,3.81,4.12,7.76,5.73,11.8,15.08-.35,24.41,6.14,25.79,10,1,2.64-.06,5.24-2.31,6.05-1.58.56-3.76.31-6.24-1.63a37,37,0,0,0-14.8-6.32c.74,10.77-8,21.66-17.67,25.12-10.43,3.74-19.24-1.29-21.47-7.49-3.6-10,11.54-19.36,21.71-23a38.25,38.25,0,0,1,6.66-1.79c-1.19-3.31-2.73-6.77-4.18-10.42q-2.54-5.81-4.81-12.14A74.17,74.17,0,0,1,25,95.05C8.06,101.12.84,93.87.55,93.08c-.19-.53.17-.8.7-1a11.78,11.78,0,0,1,3.44-.34,49.71,49.71,0,0,0,16.67-3,76.86,76.86,0,0,0,16-8.13c-2.32-6.47-4.38-13-6.21-19.39A26.37,26.37,0,0,1,28,62.5c-16.23,5.83-23.59-3-24.59-5.79-.19-.53,0-.76.29-.85a8.64,8.64,0,0,1,2.94.29c5.14,1,12.08,2.07,18.68-.3a29.49,29.49,0,0,0,3.21-1.45l.62-.36c-.64-2.17-1.08-4.24-1.53-6.32a143.85,143.85,0,0,0-3.79-14.29c-1.75-4.88-3.09-4.86-5.62-4.84-2.08,0-3.45-.1-3.74-.9-.19-.53,1.49-4.56,4.26-5.55,3.7-1.33,11.16,2.85,12.49,6.55.71,2,.63,4.24,1,7.38,0,0-.27,1.74,2.09,14.16Zm3.9,69.86c-3.42,1.23-17.19,6.92-14.68,13.91,1.09,3,6.25,5.37,13.12,2.91s13.67-9.69,12.88-19A38.72,38.72,0,0,0,39.57,118.73Z"/><path class="cls-1" d="M108.81,69.57c-3.93-11-3.22-19,.73-37.84a28.47,28.47,0,0,0-.75-15.38c-3.23-9-10.92-11.73-17.13-9.5-5.94,2.13-9.53,7.9-7.92,12.39a3.93,3.93,0,0,0,2.67,2.47,7.15,7.15,0,0,1,4.41,4.38c2.56,7.12-4.35,9.9-4.75,10C82.24,37.51,77,35.37,75,29.69,71.32,19.53,78.39,6.4,90.27,2.13c15.18-5.45,27,3.73,30.4,13.24,1.61,4.49,1.86,9.77.31,15.84-3.94,15.58-12.08,26.56-6.3,42.67a35.89,35.89,0,0,0,1.42,3.51l.09.26a1.85,1.85,0,0,1-1,2.6C114,80.68,112.65,80.27,108.81,69.57Zm17.5,39.19a8.56,8.56,0,1,1,5.17-11A8.5,8.5,0,0,1,126.31,108.76Z"/></g></g></svg>