<svg xmlns="http://www.w3.org/2000/svg" viewBox="0 0 68.13 244.38"><defs><style>.cls-1{fill:#bfbfbf;}</style></defs><g id="Layer_2" data-name="Layer 2"><g id="back"><path class="cls-1" d="M39.49,65.46c-10.93,0-19.83-8.5-19.83-17.32a14.2,14.2,0,0,1,4.37-10c1-1.06,1.54-1.69,1.54-2,0-.09-.08-.16-.24-.16-1.3,0-7.85,4-8.66,4.6a7.06,7.06,0,0,1-3.81,1.23c-2.5,0-4.6-1.55-4.6-3.65a4.36,4.36,0,0,1,.4-1.62c1-2,1.46-1.46,4-4.29C33.41,8.41,33.5,6.71,33.5,5.1,33.5,4,32.93,3.48,32,3.48A4.39,4.39,0,0,0,29,5.27a21.55,21.55,0,0,1-2.92,3.3,4.71,4.71,0,0,1-2.74,1c-3.25,0-7.13-3.4-7.13-6.88,0-.24.09-.4.4-.4a6.74,6.74,0,0,1,.81.16c2.27.64,3.65,1.38,5.34,1.38a10.32,10.32,0,0,0,6.16-2.35A7.55,7.55,0,0,1,33.41,0c3.25,0,6.48,1.78,6.48,4.85,0,1.86-1.13,4.13-4,6.8-5.51,5-22.09,20.39-22.09,23.87a.6.6,0,0,0,.64.65c.09,0,.25-.09.32-.09,4.53-1,10.68-4.36,18.94-7.84,15.61-6.64,18.53-1.63,18.53.32,0,1.37-1.22,2.6-3.57,2.6A8.71,8.71,0,0,1,47.18,31,31.37,31.37,0,0,0,42,30.42c-6.73,0-13.28,4.78-13.84,5.26-4,3.72-5.75,7.6-5.75,11.17,0,7,6.8,12.7,15.05,12.7a17.66,17.66,0,0,0,3-.25,3.25,3.25,0,0,1,.81-.07A3.47,3.47,0,0,1,45,62.39C45,65.13,41.75,65.46,39.49,65.46Z"/><path class="cls-1" d="M18.78,109.9c2.18.24,2.91,1,2.91,2.1a6.24,6.24,0,0,1-1.05,2.75c10.59-10.6,17.3-11.58,20.06-11.58,5.18,0,8.5,3.57,8.5,10.12a29.08,29.08,0,0,1-.33,3.56c-.9,5.91-3.4,11.73-3.64,17v.56c0,5.27,2.74,7.85,6.64,7.85,3.72,0,8.5-2.34,13-6.87,1.86-1.86,2.75-2.51,3.07-2.51.09,0,.17,0,.17.16,0,1.3-7.93,14.16-18.53,14.16-5.34,0-9.39-3.72-9.39-11.49,0-.72,0-1.53.08-2.34.49-5.34,3.24-10.85,4.45-16.51a24.16,24.16,0,0,0,.56-4.53c0-4.29-1.93-6.64-5.33-6.64-5.35,0-15,5.92-23.39,16.43a97.13,97.13,0,0,0-.8,12.06,46.81,46.81,0,0,0,1.78,13.58,11,11,0,0,1,.65,3.57c0,2.19-1,3.31-2.19,3.31-1.62,0-3.64-2.18-3.72-6.71-.08-2.1-2.11-7.6-3.64-11.73a41.35,41.35,0,0,0-2.18,6.64c-.89,3.79-3.49,6.22-5.11,6.22-.8,0-1.37-.56-1.37-1.94,0-3.47,4-10.68,7-15.38C2.27,121.3,1.7,120,1.7,118.47c0-3.32,2.92-5.34,13.76-8.1a9.66,9.66,0,0,0,.16-1.21c.24-2.58.49-5.34.49-7.85,0-1.69-.09-7.92-4.46-8.73-1.29-.32-1.94-.81-1.94-1.37,0-1.06,2.43-1.62,3-1.62,2.44,0,7.61,4,7.61,9a30.64,30.64,0,0,1-.81,5.74c-.41,2.11-.88,4.13-1.05,5.59Zm-3.89,5.25a2.25,2.25,0,0,0-.82-.16c-.39,0-9.78.89-9.78,4.85,0,2.19,1.7,6.55,3.56,10.45a68.59,68.59,0,0,0,6.71-12.79ZM9.55,133.92c.16.41,2.5,5,3.24,5,.16,0,.24-.23.24-1v-1.62c0-2.83.25-6.48.57-10.12A47.2,47.2,0,0,0,9.55,133.92Z"/><path class="cls-1" d="M12.14,221.41c-1.21,2.67-3.48,4-5.1,4a1.63,1.63,0,0,1-1.77-1.86,7.25,7.25,0,0,1,1.61-4c4.13-6,11.41-16.92,14.32-24.77.09-.32.32-.64.41-1a21,21,0,0,1-5.19.72c-7.69,0-10-5.9-10-7.45,0-.32.16-.4.32-.4a4.45,4.45,0,0,1,1.55.73,15.63,15.63,0,0,0,8.32,2.67,24.6,24.6,0,0,0,6-.89,31.11,31.11,0,0,0,.25-3.72c0-5.17-1.3-5.26-2-5.26-1.3,0-2-.24-2-.81A3.32,3.32,0,0,1,22,177c.4,0,4.77.07,5,5.58,6.06,1.13,6.8,1.37,6.8,2.91,0,2.26-4,5.58-9,7.37C24,195,23.06,197.45,12.14,221.41Zm14.4,23c-6.23,0-10.59-4.93-10.59-8.74C16,230.86,22,228,30.1,228a27.75,27.75,0,0,1,5.91.58c0-3.4-.41-7.13-.41-10.12,0-7,1.69-10.92,7.68-14.8,2.67-1.78,4.95-3.64,4.95-5.5,0-.9,0-1.06-2.28-3.32-.65-.65-1.12-1.14-1.12-1.37s.31-.33,1.05-.33c4.93,0,9.94,4.21,9.94,7.85,0,1.21-.8,4.37-3.23,4.37a12,12,0,0,1-2.18-.33,3.29,3.29,0,0,0-1-.09c-2.51,0-11.09.82-11.09,8.75,0,1.29.16,2.83.32,4.6.25,3.32,1.06,7.69,1.21,11.33,6.73,2.35,12,6.39,12,10,0,1.69-1.05,3.08-2.35,3.08-.88,0-1.85-.65-2.74-2.27a18.22,18.22,0,0,0-7-6.64C38.52,239.85,32.53,244.38,26.54,244.38Zm1.3-13.75c-5.92,0-9.55,2.34-9.55,4.69,0,2.92,4.12,4.29,7.36,4.29,5,0,9.39-3.08,10.11-7.52A23.82,23.82,0,0,0,27.84,230.63Zm-1.46-42.8a11,11,0,0,0,2.27-1.46,1.57,1.57,0,0,0,.56-1.21c0-1.06-1.3-1.62-2.18-1.95A20.63,20.63,0,0,1,26.38,187.83Z"/></g></g></svg>