<svg xmlns="http://www.w3.org/2000/svg" viewBox="0 0 126.58 121.75"><defs><style>.cls-1{fill:#d81534;}</style></defs><g id="Layer_2" data-name="Layer 2"><g id="back"><polygon class="cls-1" points="52.4 8.92 51.71 5.65 50.8 3.41 52.07 8.98 52.4 8.92"/><polygon class="cls-1" points="43.64 7.69 44.77 10.85 45.09 10.74 45.05 10.65 45.4 11.48 45.71 11.36 43.9 7.01 43.59 7.13 43.8 7.64 43.64 7.69"/><polygon class="cls-1" points="26.26 20.79 23.97 18.26 23.72 18.46 26.01 21 26.26 20.79"/><polygon class="cls-1" points="15.45 32.35 12.5 30.52 12.31 30.79 15.27 32.61 15.45 32.35"/><polygon class="cls-1" points="9.51 43.5 6.2 42.36 6.09 42.66 9.4 43.8 9.51 43.5"/><polygon class="cls-1" points="53.92 5.89 54.34 8.41 54.67 8.36 54.25 5.85 53.92 5.89"/><polygon class="cls-1" points="48.34 9.36 47.16 6.41 44.84 5.11 48.02 9.47 48.34 9.36"/><polygon class="cls-1" points="31.69 16.56 29.6 14.11 29.34 14.3 31.43 16.76 31.69 16.56"/><polygon class="cls-1" points="19.14 27.27 16.39 25.49 16.2 25.75 18.95 27.53 19.14 27.27"/><path class="cls-1" d="M57.26,7.72l.15,1.35L58.08,9l-.22-2-.67.06,0,.31-.6-2.76-.33.06v0l-.26,0,.21,1.66-.15,0,0,.17-.28,0,0-.25-.67.09.46,3.19.48-.06,0,.25.66-.08-.06-.47,0,.11.65-.13-.34-1.55Zm-.76-2.1.16.73h-.07Z"/><polygon class="cls-1" points="39.04 12.63 37.35 9.91 37.06 10.07 38.75 12.79 39.04 12.63"/><polygon class="cls-1" points="32.89 15.7 31.74 13.96 31.45 14.12 32.6 15.87 32.89 15.7"/><polygon class="cls-1" points="16.48 30.19 14.7 28.99 14.51 29.25 16.28 30.45 16.48 30.19"/><polygon class="cls-1" points="11.32 40.3 8.1 38.95 7.96 39.23 11.18 40.59 11.32 40.3"/><polygon class="cls-1" points="8.57 77.73 5.19 78.68 5.29 78.98 8.67 78.04 8.57 77.73"/><polygon class="cls-1" points="23.67 101.45 21.22 103.85 21.46 104.07 23.91 101.67 23.67 101.45"/><polygon class="cls-1" points="7.2 48.22 7.2 48.22 9.24 48.74 9.41 48.13 7.38 47.61 7.33 47.79 5.88 47.55 5.54 47.46 5.54 47.49 4.6 47.34 4.54 47.65 5.8 47.86 7.2 48.22"/><polygon class="cls-1" points="6.51 54.24 8.52 54.54 8.6 54.05 8.71 54.06 8.76 53.76 9.57 53.84 9.65 53.21 4.9 52.69 4.89 52.78 3.37 52.54 3.31 52.85 4.85 53.09 4.82 53.32 5.37 53.38 5.34 53.53 6.04 53.64 5.98 53.97 3.2 53.81 3.18 54.13 6.5 54.32 6.51 54.24"/><polygon class="cls-1" points="6.78 71.63 6.75 71.51 7.54 71.34 7.46 71.03 2.64 72.09 2.72 72.4 3.5 72.23 3.56 72.43 6.78 71.63"/><polygon class="cls-1" points="12.01 86.66 15.61 83.72 13.18 85.4 12.49 85.72 12.34 85.47 8.03 87.77 8.2 88.04 11.33 86.37 11.53 86.75 9.09 88.17 9.26 88.44 12.1 86.79 12.01 86.66"/><polygon class="cls-1" points="8.38 84.62 8.73 84.47 8.82 84.64 13.12 82.66 12.82 82.09 12.26 82.34 12.26 82.34 12.03 82.43 11.76 81.92 8.9 83.33 9.15 83.78 8.53 84.07 8.59 84.19 8.25 84.32 8.38 84.62"/><polygon class="cls-1" points="5.65 77.09 7.76 76.56 7.68 76.25 5.57 76.78 5.65 77.09"/><polygon class="cls-1" points="13.66 90.01 8.51 92.24 11.95 91.33 13.83 90.29 13.66 90.01"/><polygon class="cls-1" points="2.98 64.31 6.5 64.22 6.49 63.9 3.1 63.99 5.93 63.68 5.92 63.63 9.37 64.42 8.09 62.96 4.68 63.02 4.69 63.5 0 63.86 2.62 64.04 2.97 64 2.98 64.31"/><polygon class="cls-1" points="7.85 74.39 4.41 75.12 1.42 76.34 7.92 74.7 7.85 74.39"/><polygon class="cls-1" points="21.34 99.01 21.11 98.78 20.25 99.51 21.04 98.74 24.69 96.21 21.95 97.12 19.41 99.27 19.71 99.58 17.86 101.38 18.1 101.6 18.59 101.12 18.72 101.25 21.34 99.01"/><polygon class="cls-1" points="33.9 108.85 33.62 108.69 32.6 110.25 33.95 107.84 33.65 107.7 31.33 111.83 31.63 111.98 31.86 111.58 32.05 111.69 33.9 108.85"/><polygon class="cls-1" points="4.61 73.03 6.51 72.7 6.52 72.71 8.59 72.35 8.47 71.72 6.39 72.09 6.45 72.38 4.55 72.71 4.61 73.03"/><polygon class="cls-1" points="8.42 78.21 5.34 79.4 5.47 79.7 8.55 78.5 8.42 78.21"/><polygon class="cls-1" points="16.49 93.76 13.95 95.8 14.17 96.05 16.7 94 16.49 93.76"/><polygon class="cls-1" points="40.59 112.32 40.27 112.22 39.2 115.2 39.33 115.24 39.32 115.25 39.64 115.36 40.7 112.37 40.59 112.33 40.59 112.32"/><polygon class="cls-1" points="3.28 70.81 4.98 70.44 5.08 70.42 5.08 70.43 8.45 69.97 8.36 69.34 8.24 69.36 8.1 68.79 4.96 69.46 5.04 69.79 4.98 69.8 5.03 70.1 4.92 70.12 4.2 70.22 4.21 70.28 3.2 70.5 3.28 70.81"/><polygon class="cls-1" points="12.13 86.92 9.31 88.59 9.49 88.86 12.31 87.19 12.13 86.92"/><polygon class="cls-1" points="15.55 92.65 13.73 93.79 13.92 94.05 15.74 92.91 15.55 92.65"/><polygon class="cls-1" points="25.28 103.31 23.83 104.85 24.08 105.06 25.53 103.52 25.28 103.31"/><polygon class="cls-1" points="19.84 98.05 19.83 98.03 19.95 97.91 19.71 97.69 19.4 97.99 17.97 99.14 18.08 99.27 17.38 99.94 17.62 100.16 19.63 98.22 19.84 98.05"/><polygon class="cls-1" points="31.31 107.77 30.09 109.48 30.36 109.66 31.58 107.95 31.31 107.77"/><polygon class="cls-1" points="27.68 104.28 25.45 106.86 25.71 107.06 27.94 104.48 27.68 104.28"/><polygon class="cls-1" points="36.95 110.17 35.29 113.12 35.59 113.27 37.25 110.33 36.95 110.17"/><polygon class="cls-1" points="65.13 116.65 65.2 119.99 65.53 119.98 65.46 116.65 65.13 116.65"/><path class="cls-1" d="M93.34,109.1l-1.09-1.77-.38.21-.51-.72-.56.36,2.67,3.75.23-.15,1,1.37.09-.06h0l.24-.16,0,0,.29-.16L93.58,109Zm.47,1.11.12-.07.87,1.39Z"/><polygon class="cls-1" points="33.46 111.44 33.75 111.6 35.11 109.41 34.82 109.25 33.46 111.44"/><polygon class="cls-1" points="74.97 115.91 75.91 118.94 76.23 118.85 75.3 115.83 74.97 115.91"/><polygon class="cls-1" points="88.42 111.75 90.1 114.47 90.39 114.31 88.7 111.59 88.42 111.75"/><polygon class="cls-1" points="32.36 108.17 30.81 110.96 31.11 111.11 32.65 108.31 32.36 108.17"/><polygon class="cls-1" points="49.77 115.31 48.81 121.75 49.59 118.47 50.1 115.36 49.77 115.31"/><polygon class="cls-1" points="56.31 118.66 56.65 118.7 56.92 116.66 56.59 116.62 56.31 118.66"/><polygon class="cls-1" points="71.54 116.64 71.04 114.47 70.38 114.6 71.07 117.58 71.59 117.47 71.76 118.69 72.09 118.65 71.81 116.6 71.54 116.64"/><polygon class="cls-1" points="63.36 119.14 63.7 119.15 63.72 117.08 63.38 117.08 63.36 119.14"/><polygon class="cls-1" points="86.9 114.9 86.08 112.99 85.77 113.11 85.95 113.55 85.59 112.89 85.3 113.03 86.81 115.84 87.11 115.69 86.72 114.97 86.9 114.9"/><polygon class="cls-1" points="60.34 119.63 60.68 119.65 60.89 116.33 60.56 116.31 60.34 119.63"/><polygon class="cls-1" points="71.72 115.95 72.19 119.26 72.53 119.22 72.06 115.91 71.72 115.95"/><polygon class="cls-1" points="98.58 105.62 100.7 108.28 100.97 108.09 98.85 105.43 98.58 105.62"/><polygon class="cls-1" points="116.81 83.83 114.98 83.2 114.87 83.5 119.52 85.1 119.53 85.06 120 85.26 120.13 84.97 116.9 83.64 116.81 83.83"/><polygon class="cls-1" points="106.11 99.57 106.19 99.63 106.09 99.73 103.39 97.6 102.96 98.08 106.64 100.98 106.99 100.58 107.65 101.17 107.88 100.94 107.46 100.57 109.83 102.45 108.94 101.25 106.31 99.32 106.11 99.57"/><polygon class="cls-1" points="114.43 88.75 120.33 91.67 117.61 89.73 114.57 88.46 114.43 88.75"/><polygon class="cls-1" points="66.75 116.87 67.22 119.99 67.55 119.94 67.08 116.83 66.75 116.87"/><polygon class="cls-1" points="97.43 106.93 98.69 108.61 98.96 108.43 97.7 106.75 97.43 106.93"/><polygon class="cls-1" points="108.95 96.81 110.65 98.11 110.86 97.86 109.17 96.56 108.95 96.81"/><polygon class="cls-1" points="113.13 91.33 114.97 92.42 115.15 92.15 113.31 91.06 113.13 91.33"/><polygon class="cls-1" points="88.99 110.97 90.53 113.97 90.83 113.83 89.3 110.83 88.99 110.97"/><polygon class="cls-1" points="97.79 110.06 97.8 110.05 97.73 109.97 96.54 108.26 97 107.97 95.11 105.29 94.55 105.64 95.75 107.35 95.66 107.41 94.8 106.33 94.53 106.53 97.45 110.16 97.52 110.25 97.52 110.24 97.53 110.25 97.61 110.19 97.8 110.07 97.79 110.06"/><polygon class="cls-1" points="111.15 93.22 109.75 92.28 109.36 92.79 111.08 93.95 111.44 93.46 114.02 95.16 114.21 94.9 111.32 92.99 111.15 93.22"/><polygon class="cls-1" points="121.3 67.22 119.68 67.06 119.64 67.4 119.34 67.4 119.33 68.03 122.55 68.1 122.56 67.46 121.75 67.45 121.77 67.33 124.81 67.6 124.84 67.29 121.33 66.98 121.3 67.22"/><polygon class="cls-1" points="107.19 98.41 105.47 97.19 105.07 97.69 107.64 99.53 107.86 99.25 109.68 100.52 109.88 100.26 107.2 98.39 107.19 98.41"/><polygon class="cls-1" points="84.57 113.3 86.04 116.12 86.34 115.98 84.87 113.16 84.57 113.3"/><polygon class="cls-1" points="100.93 104.2 103.29 106.42 103.53 106.2 101.17 103.97 100.93 104.2"/><polygon class="cls-1" points="116.77 89.38 116.93 89.1 115.02 88.11 114.86 88.39 116.77 89.38"/><polygon class="cls-1" points="112.41 95.81 110.67 94.58 110.61 94.66 110.32 94.46 110.12 94.71 112.95 96.7 113.15 96.45 112.35 95.89 112.41 95.81"/><polygon class="cls-1" points="118.1 81.83 120.13 82.57 120.25 82.27 118.22 81.53 118.1 81.83"/><polygon class="cls-1" points="120.26 75.39 122.38 75.89 122.46 75.58 120.34 75.08 120.26 75.39"/><polygon class="cls-1" points="119.29 76.31 119.16 76.27 119.06 76.58 119.17 76.61 117.55 76.31 117.42 76.93 120.58 77.52 120.69 77.01 122.46 77.48 122.55 77.18 121.85 76.99 122.69 77.21 122.78 76.9 119.38 76.02 119.29 76.31"/><polygon class="cls-1" points="121.05 55.94 124.55 55.57 124.51 55.26 121.01 55.63 121.05 55.94"/><polygon class="cls-1" points="110.56 30.1 113.42 28.14 113.22 27.88 110.36 29.84 110.56 30.1"/><polygon class="cls-1" points="119.91 79.6 118.62 79.19 118.52 79.49 118.71 79.55 118.68 79.65 119.82 79.91 121.86 80.56 121.97 80.25 121.95 80.25 122 80.07 119.91 79.6"/><polygon class="cls-1" points="113.67 34.33 112.23 35.11 112.57 35.66 114.4 34.67 114.12 34.21 116.47 32.62 116.28 32.36 113.57 34.19 113.67 34.33"/><polygon class="cls-1" points="121.03 70.53 124.36 70.73 124.38 70.41 121.05 70.22 121.03 70.53"/><polygon class="cls-1" points="120.46 49.96 122.58 49.51 122.51 49.2 120.38 49.65 120.46 49.96"/><polygon class="cls-1" points="121.66 57.55 123.83 57.38 123.8 57.06 121.63 57.23 121.66 57.55"/><polygon class="cls-1" points="119.13 42.38 118.98 42.07 116.06 43.37 116.35 43.94 118.9 42.8 120.35 42.3 120.24 42 119.13 42.38"/><polygon class="cls-1" points="117.22 35.59 116.12 36.13 116.12 36.13 113.08 37.59 113.38 38.15 116.42 36.7 116.27 36.42 117.38 35.88 117.22 35.59"/><polygon class="cls-1" points="113.64 29.92 111.83 31.07 112.02 31.33 113.83 30.18 113.64 29.92"/><polygon class="cls-1" points="121.18 59.03 124.7 58.86 124.68 58.54 121.16 58.72 121.18 59.03"/><polygon class="cls-1" points="121.7 62.25 121.68 62.25 121.71 62.57 125.03 62.31 125.01 62.1 125.03 62.1 125 61.78 121.68 62.05 121.7 62.25"/><polygon class="cls-1" points="118.89 45.26 121.95 44.02 121.82 43.73 118.76 44.96 118.89 45.26"/><polygon class="cls-1" points="111.18 30.7 109.69 31.86 110.12 32.35 112.61 30.42 112.38 30.15 113.94 28.91 113.72 28.67 111.17 30.69 111.18 30.7"/><polygon class="cls-1" points="101.97 20.95 102.03 20.87 102.14 20.97 103.59 19.42 103.34 19.21 103.15 19.41 103.93 18.4 103.65 18.22 101.69 20.76 101.97 20.95"/><polygon class="cls-1" points="120.96 70.97 124.28 71.2 124.3 70.88 120.98 70.66 120.96 70.97"/><polygon class="cls-1" points="120.89 52.97 120.8 52.99 118.64 53.31 118.74 53.94 122.11 53.44 122.05 53.05 123.69 52.71 126.58 51.65 122.06 52.73 124.12 52.21 124.03 51.9 120.81 52.71 120.89 52.97"/><polygon class="cls-1" points="115.19 32.33 113.32 33.4 113.49 33.67 115.36 32.6 115.19 32.33"/><polygon class="cls-1" points="119.03 39.41 117.03 40.22 117.05 40.26 115.32 40.95 115.58 41.53 116.98 40.98 116.99 41 120.25 39.71 120.11 39.41 119.55 39.64 123.17 38.6 119.93 39.09 119.08 39.52 119.03 39.41"/><polygon class="cls-1" points="108.95 27.5 107.17 28.84 107.3 28.99 105.89 30.19 106.34 30.66 109.9 27.64 109.87 27.62 110.26 27.33 110.02 27.05 110.84 26.43 110.63 26.18 108.92 27.47 108.95 27.5"/><polygon class="cls-1" points="104.35 22.7 105.87 21.22 105.63 21 104.11 22.48 104.35 22.7"/><polygon class="cls-1" points="99.27 18.51 100.6 16.88 100.33 16.68 99 18.32 99.27 18.51"/><polygon class="cls-1" points="85.52 11.87 86.86 8.79 86.55 8.67 85.2 11.75 85.52 11.87"/><polygon class="cls-1" points="39.34 9.05 40.73 12.12 41.03 11.99 39.65 8.93 39.34 9.05"/><polygon class="cls-1" points="29.56 18.15 27.47 15.47 27.2 15.66 29.29 18.34 29.56 18.15"/><polygon class="cls-1" points="90.3 13.44 92.52 8.23 91.24 10.4 89.99 13.32 90.3 13.44"/><polygon class="cls-1" points="72.41 4.81 72.08 4.79 71.89 7.93 72.23 7.95 72.41 4.81"/><polygon class="cls-1" points="65.37 5.23 65.03 5.22 64.97 7.28 65.31 7.29 65.37 5.23"/><polygon class="cls-1" points="58.5 7.46 58.3 5.41 57.97 5.43 58.16 7.49 58.5 7.46"/><polygon class="cls-1" points="36.64 13.49 35.62 11.66 35.32 11.81 36.34 13.64 36.64 13.49"/><polygon class="cls-1" points="35.55 14.8 36.28 16.07 36.7 15.85 36.83 16.08 37.42 15.78 35.81 12.94 35.36 13.16 35.23 12.93 34.65 13.23 33.85 11.88 33.56 12.03 35.27 14.95 35.55 14.8"/><polygon class="cls-1" points="10.42 41.4 10.46 41.32 11.08 41.53 11.11 41.45 11.76 41.72 12.02 41.13 10.08 40.35 9.88 40.79 8.93 40.47 7.3 39.82 7.26 39.91 6.53 39.66 6.42 39.96 8.81 40.77 10.42 41.4"/><polygon class="cls-1" points="44.53 10.81 43.65 8.41 43.33 8.51 44.22 10.91 44.53 10.81"/><polygon class="cls-1" points="23.4 22.92 24.69 23.99 25.13 23.51 22.71 21.5 22.36 21.88 20.98 20.75 20.76 20.99 23.28 23.04 23.4 22.92"/><polygon class="cls-1" points="13.21 35.48 10.16 34.2 7.66 32.35 13.07 35.77 13.21 35.48"/><polygon class="cls-1" points="46.77 9.81 46.77 9.82 47.09 9.7 45.84 6.78 45.75 6.81 45.75 6.8 45.44 6.92 46.69 9.84 46.77 9.81"/><polygon class="cls-1" points="29.98 17.68 27.8 15.3 27.54 15.51 29.72 17.89 29.98 17.68"/><polygon class="cls-1" points="14.88 32.49 13.04 31.37 12.86 31.64 14.7 32.76 14.88 32.49"/><polygon class="cls-1" points="9.03 38.22 11 39.1 11.14 38.81 10.51 38.53 11.41 38.84 11.45 38.75 14.32 39.9 14.58 39.31 10.18 37.55 9.97 38 8.41 37.45 8.29 37.75 9.12 38.04 9.03 38.22"/><polygon class="cls-1" points="118.61 46.24 118.7 46.55 119.36 46.36 119.38 46.39 119.25 46.44 119.37 46.74 120.78 46.21 121.53 46 121.5 45.94 122.47 45.58 122.35 45.28 122.02 45.41 121.99 45.3 118.61 46.24"/><polygon class="cls-1" points="110.43 30.37 110.62 30.63 116.08 27.25 113.31 28.45 110.43 30.37"/><polygon class="cls-1" points="95.06 16.37 94.13 17.7 94.69 18.05 96.58 15.36 96.47 15.29 97.31 14.1 97.03 13.92 96.19 15.12 96.05 15.03 97.03 13.6 96.75 13.43 94.82 16.22 95.06 16.37"/><polygon class="cls-1" points="81.34 6.66 81.02 6.57 80.01 9.76 80.33 9.85 81.34 6.66"/><polygon class="cls-1" points="67.11 6.13 66.51 6.1 66.46 6.89 66.11 6.88 66.11 6.42 65.44 6.42 65.5 10.95 66.17 10.94 66.15 9.34 66.37 9.35 66.37 9.32 66.98 9.36 67.09 7.61 67.35 7.63 67.56 4.3 67.23 4.28 67.11 6.13"/><polygon class="cls-1" points="112.95 33.18 115.61 31.28 115.41 31.03 112.75 32.93 112.95 33.18"/><polygon class="cls-1" points="100.93 20.11 102.83 17.52 102.55 17.34 100.66 19.93 100.93 20.11"/><polygon class="cls-1" points="73.16 4.91 72.83 4.89 72.6 8.03 72.94 8.05 73.16 4.91"/><polygon class="cls-1" points="107 25.67 109.28 23.37 109.03 23.15 106.76 25.45 107 25.67"/><polygon class="cls-1" points="90.83 11.18 90.53 11.04 89.55 12.88 89.85 13.02 90.83 11.18"/><polygon class="cls-1" points="83.21 8.12 82.49 10.07 82.81 10.18 83.53 8.22 83.21 8.12"/><polygon class="cls-1" points="75.94 8.34 76.39 6.32 76.07 6.25 75.61 8.27 75.94 8.34"/><polygon class="cls-1" points="19.5 28.27 18.97 27.9 18.97 27.9 16.24 25.79 16.11 25.95 15.49 25.53 15.29 25.78 19.3 28.52 19.5 28.27"/><polygon class="cls-1" points="64.27 115.54 64.67 120.2 64.71 121.47 64.61 115.52 64.27 115.54"/><polygon class="cls-1" points="80.08 113.09 81.86 117.45 82.17 117.34 80.4 112.97 80.08 113.09"/><polygon class="cls-1" points="106.44 96.39 110.43 99.16 110.63 98.91 106.64 96.14 106.44 96.39"/><polygon class="cls-1" points="113.99 39.04 113.95 39.06 114.23 39.64 115.91 38.89 116.05 39.17 119.25 37.77 119.11 37.48 117.29 38.28 117.32 38.26 117.19 38 118.19 37.56 118.04 37.27 117.1 37.69 118.44 36.99 118.28 36.71 113.95 38.97 113.99 39.04"/><polygon class="cls-1" points="105.26 26.62 108.74 23.3 108.5 23.07 105.02 26.4 105.26 26.62"/><polygon class="cls-1" points="93 16.85 95.36 12.74 95.06 12.59 92.71 16.7 93 16.85"/><polygon class="cls-1" points="78.34 10.73 78.36 10.67 78.71 10.76 79.28 8.84 78.8 8.71 79.38 6.16 79.05 6.09 79.01 6.27 78.95 6.25 78.04 9.48 78.27 9.54 78.02 10.67 78.34 10.73"/><polygon class="cls-1" points="14.42 37.86 14.74 37.3 14.25 37.05 14.36 36.81 12.56 36.09 12.67 35.9 10.75 34.92 10.59 35.2 11.5 35.66 11.4 35.62 11.13 36.21 11.43 36.32 11.42 36.34 14.42 37.86"/><polygon class="cls-1" points="10.53 46.71 7.27 45.77 7.08 46.38 10.34 47.32 10.53 46.71"/><polygon class="cls-1" points="9.36 73.83 9.22 73.21 5.88 73.9 6.03 74.52 9.36 73.83"/><polygon class="cls-1" points="12.78 88.91 12.99 89.27 14.84 88.3 14.63 87.95 14.97 87.78 14.65 87.22 11.65 88.77 11.98 89.33 12.78 88.91"/><polygon class="cls-1" points="8.4 44.41 10.85 45.23 11.07 44.63 8.62 43.81 8.4 44.41"/><polygon class="cls-1" points="5.77 50.41 8.96 50.81 9.05 50.18 5.85 49.78 5.84 49.9 4.32 49.58 2.27 49.38 5.79 50.22 5.77 50.41"/><polygon class="cls-1" points="16.45 95.72 17.07 95.2 17.2 95.36 18.89 94.16 18.66 93.88 18.86 93.71 18.41 93.23 16 95.25 16.45 95.72"/><polygon class="cls-1" points="7.72 59.17 4.5 59.3 4.53 59.87 4.47 59.87 4.51 60.51 9.65 59.6 7.7 59.81 7.75 59.81 7.72 59.17"/><polygon class="cls-1" points="5.62 66.3 7.72 66.17 7.68 65.53 5.58 65.67 5.62 66.3"/><polygon class="cls-1" points="8.61 80.15 10.61 79.51 10.39 78.91 8.4 79.55 8.61 80.15"/><polygon class="cls-1" points="18.81 97.34 19.24 97.83 20.86 96.55 20.42 96.06 18.81 97.34"/><polygon class="cls-1" points="17.63 96.67 20.32 94.7 19.91 94.2 17.74 95.78 17.62 95.63 15.89 96.89 16.09 97.14 17.29 96.27 17.63 96.67"/><polygon class="cls-1" points="27.79 102.08 27.28 101.67 25.04 104.1 25.55 104.52 27.79 102.08"/><polygon class="cls-1" points="31.75 108.93 33.63 106.23 33.07 105.89 31.19 108.58 31.75 108.93"/><polygon class="cls-1" points="52.98 113.73 52.32 113.6 51.63 116.75 52.29 116.88 52.43 116.22 52.35 116.98 53.02 117.05 54.77 111.82 52.93 113.98 52.98 113.73"/><polygon class="cls-1" points="68.06 114.61 68.34 117.83 69.01 117.78 68.73 114.56 68.06 114.61"/><polygon class="cls-1" points="82.28 115.21 81.23 112.14 80.59 112.33 81.46 114.88 82.29 117.38 82.61 117.28 81.96 115.31 82.28 115.21"/><polygon class="cls-1" points="25.97 100.79 25.49 100.35 25.28 100.56 25.13 100.46 23.92 101.92 23.7 102.14 23.72 102.16 23.15 102.86 23.68 103.25 24.43 102.33 25.97 100.79"/><polygon class="cls-1" points="30.02 104.36 28.34 106.96 28.91 107.29 30.59 104.69 30.02 104.36"/><polygon class="cls-1" points="46.34 112.33 46.22 112.3 46.42 111.59 45.78 111.42 44.53 115.79 44.89 115.89 44.45 117.16 44.76 117.26 45.47 115.26 45.6 115.29 46.34 112.33"/><polygon class="cls-1" points="77.01 116.52 76.18 114.03 76.12 113.78 76.1 113.79 76.04 113.62 75.4 113.81 75.53 114.19 75.88 115.73 75.8 115.75 76.78 118.76 78.05 121.18 76.46 116.69 77.01 116.52"/><polygon class="cls-1" points="21.82 101.56 23.91 99.25 23.4 98.84 23.25 99.01 22.91 98.67 21.38 100.05 21.85 100.51 22.06 100.31 21.5 100.94 20.44 101.91 20.68 102.14 21.54 101.34 21.82 101.56"/><polygon class="cls-1" points="58.13 116.68 58.09 116.68 58.07 119.83 59.03 121.47 58.43 116.92 58.78 116.95 58.98 114.96 58.31 114.9 58.13 116.68"/><polygon class="cls-1" points="50.09 115.58 50.75 115.73 51.24 113.79 50.58 113.64 50.09 115.58"/><polygon class="cls-1" points="65.71 115.14 65.79 117.14 66.46 117.11 66.38 115.12 65.71 115.14"/><polygon class="cls-1" points="72.58 114.53 72.92 116.5 73.59 116.4 73.25 114.43 72.58 114.53"/><polygon class="cls-1" points="80.18 114.97 79.6 113.05 78.95 113.22 79.34 114.5 79.14 114.56 79.31 115.17 79.02 115.24 78.82 114.5 78.5 114.58 79.38 117.81 79.71 117.73 79.57 117.24 79.88 117.16 79.74 116.64 80.06 117.77 80.39 117.69 79.64 115.11 80.18 114.97"/><polygon class="cls-1" points="39.52 109.2 38.92 108.92 38.68 109.37 38.16 109.17 36.97 112 37.02 112.02 36.46 113.06 36.76 113.2 37.33 112.14 37.59 112.24 37.71 111.96 37.99 112.09 39.52 109.2"/><polygon class="cls-1" points="49.63 112.81 48.98 112.64 48.66 113.75 48.37 113.7 47.37 118.28 47.7 118.34 48.25 115.8 48.72 115.92 49.63 112.81"/><polygon class="cls-1" points="56.8 114.17 56.13 114.08 55.66 117.28 56.33 117.36 56.8 114.17"/><polygon class="cls-1" points="78.48 116.14 77.67 113.01 77.28 113.1 77.07 112.48 76.43 112.67 77.88 116.99 78.52 116.8 78.31 116.19 78.48 116.14"/><polygon class="cls-1" points="104.77 102.38 102.42 100.03 101.93 100.47 104.28 102.81 104.36 102.74 105.22 103.6 105.46 103.38 104.61 102.52 104.77 102.38"/><polygon class="cls-1" points="46.76 112.19 45.97 114.53 46.61 114.73 47.4 112.39 46.76 112.19"/><polygon class="cls-1" points="88.3 112.88 86.74 110.22 86.15 110.53 87.03 112.02 86.94 112.05 88.01 114.38 88.32 114.25 87.81 113.14 88.3 112.88"/><polygon class="cls-1" points="44.44 113.25 44.92 112.02 44.8 111.97 44.84 111.84 44.19 111.68 43.8 113.06 43.56 113.67 43.62 113.69 42.59 116.27 42.91 116.38 43.13 115.82 43.17 115.84 43.62 114.69 44.01 114.78 44.44 113.25"/><polygon class="cls-1" points="62.44 114.95 62.44 114.92 61.77 114.95 61.96 117.99 62.44 117.97 62.44 118 63.11 117.96 62.89 114.92 62.44 114.95"/><polygon class="cls-1" points="69.81 116.75 69.62 114.77 68.95 114.83 69.15 116.81 69.46 116.78 69.67 118.91 70 118.88 69.79 116.75 69.81 116.75"/><polygon class="cls-1" points="83.01 111.89 83.74 113.77 84.37 113.55 83.64 111.68 83.01 111.89"/><polygon class="cls-1" points="89.79 109.09 90.78 110.85 91.37 110.56 90.39 108.79 89.79 109.09"/><polygon class="cls-1" points="95.71 105.73 96.92 107.36 97.47 107 93.94 102.45 95.71 105.73"/><polygon class="cls-1" points="101.36 101.52 101.34 101.54 100.88 101.05 100.38 101.47 102.62 103.89 103.13 103.48 102.73 103.04 102.76 103.02 101.36 101.52"/><polygon class="cls-1" points="86.29 113.38 86.91 113.14 85.61 110.16 84.99 110.4 86.29 113.38"/><polygon class="cls-1" points="121.97 71.81 118.62 71.22 118.5 71.8 117.07 71.63 116.98 72.26 121.73 72.83 121.75 72.67 123.97 72.88 124.01 72.56 121.86 72.36 121.97 71.81"/><polygon class="cls-1" points="122.85 59.03 119.44 59.17 119.47 59.8 119.59 59.8 119.67 60.4 122.87 60.03 122.85 59.93 122.86 59.93 122.83 59.66 122.88 59.66 122.85 59.03"/><polygon class="cls-1" points="92.73 106.94 94.08 109.03 94.66 108.7 93.31 106.6 92.73 106.94"/><polygon class="cls-1" points="98.42 103.5 98.41 103.49 97.92 103.92 100.12 106.15 100.21 106.07 100.22 106.08 100.71 105.64 98.51 103.42 98.42 103.5"/><polygon class="cls-1" points="113.27 92.52 110.44 91.06 110.12 91.62 111.45 92.31 111.43 92.34 114.35 94.21 114.54 93.95 113.01 92.97 113.27 92.52"/><polygon class="cls-1" points="120.47 77.68 117.32 77.05 117.18 77.67 120.33 78.3 120.47 77.68"/><polygon class="cls-1" points="93 110.6 91.19 108.08 90.64 108.44 91.89 110.18 91.63 110.31 92.67 112.13 92.82 112.05 92.91 112.19 93.2 112.04 92.54 110.9 93 110.6"/><polygon class="cls-1" points="118.19 81.52 118.31 81.22 118.91 81.44 119.14 80.84 115.95 79.71 115.71 80.31 116.34 80.53 116.22 80.82 118.19 81.52"/><polygon class="cls-1" points="112.9 87.53 114.75 88.49 115.07 87.94 113.22 86.98 112.9 87.53"/><polygon class="cls-1" points="122.05 60.88 119.94 60.9 119.94 61.05 119.78 61.05 119.78 61.68 121.89 61.67 121.89 61.51 122.06 61.51 122.05 60.88"/><polygon class="cls-1" points="110.9 89.45 113.8 91.15 114.16 90.61 111.25 88.92 110.9 89.45"/><polygon class="cls-1" points="117.87 73.63 117.74 73.6 117.58 74.22 120.9 74.98 121.05 74.39 121.18 74.42 121.33 73.8 116.36 72.94 117.87 73.63"/><polygon class="cls-1" points="117.7 82.72 115.3 81.77 115.04 82.36 116.8 83.06 116.79 83.07 120.04 84.37 120.17 84.08 117.56 83.03 117.7 82.72"/><polygon class="cls-1" points="112.99 31.04 112.3 31.55 112.12 31.29 110.35 32.38 110.63 32.78 110.45 32.92 110.86 33.42 113.4 31.54 112.99 31.04"/><polygon class="cls-1" points="117.53 85.18 114.5 84.14 114.27 84.73 116.5 85.5 116.38 85.75 118.35 86.63 118.5 86.34 117.06 85.7 117.3 85.78 117.31 85.75 118.44 86.25 118.53 86.05 119.43 86.36 119.54 86.06 117.46 85.35 117.53 85.18"/><polygon class="cls-1" points="117.76 47.56 117.94 48.17 119.97 47.66 119.8 47.04 117.76 47.56"/><polygon class="cls-1" points="121.41 54.59 119.31 54.83 119.4 55.46 121.49 55.22 121.41 54.59"/><polygon class="cls-1" points="119.18 63.48 119.16 64.11 121.83 64.22 119.58 64.3 119.61 64.93 122.83 64.82 122.8 64.18 122.56 64.19 122.57 64.02 123.96 64.06 123.97 63.75 122.58 63.7 122.59 63.61 119.18 63.48"/><polygon class="cls-1" points="121.8 66.24 124.57 66.45 124.6 66.13 121.83 65.92 121.83 65.83 119.25 65.62 119.19 66.26 121.78 66.46 121.8 66.24"/><polygon class="cls-1" points="110.55 27.81 108.15 29.85 108.16 29.86 107.95 30 108.35 30.51 108.81 30.18 109.04 30.48 110.73 29.29 110.37 28.82 111 28.29 110.55 27.81"/><polygon class="cls-1" points="98.59 20.61 99.15 20.97 100.95 18.44 100.39 18.08 98.59 20.61"/><polygon class="cls-1" points="122.03 68.2 121.06 68.09 121.05 68.17 119.26 68.11 119.24 68.57 119.14 68.57 119.12 68.88 121.54 69.03 121.53 69.13 123.69 69.39 123.72 69.17 124.06 69.19 124.08 68.87 122.46 68.77 122.47 68.57 123.68 68.71 123.72 68.39 122.48 68.25 122.48 68.21 122.03 68.2"/><polygon class="cls-1" points="121.64 50.5 121.45 49.89 118.37 50.77 118.56 51.38 121.64 50.5"/><polygon class="cls-1" points="118.91 44.59 118.79 44.25 119.72 43.86 119.44 43.27 116.5 44.51 116.78 45.09 116.85 45.06 116.91 45.22 118.91 44.59"/><polygon class="cls-1" points="107.46 25.51 105.86 26.81 106.3 27.29 107.9 25.99 107.71 25.79 109.87 24 109.65 23.76 107.49 25.55 107.46 25.51"/><polygon class="cls-1" points="102.92 21.11 102.42 20.69 101.01 22.17 101.51 22.59 102.92 21.11"/><polygon class="cls-1" points="115.41 35.43 112.39 36.93 112.7 37.49 114.47 36.61 114.55 36.74 117.67 35.19 117.51 34.91 115.64 35.84 115.41 35.43"/><polygon class="cls-1" points="109.05 26.4 106.4 28.43 106.82 28.92 109.48 26.89 109.05 26.4"/><polygon class="cls-1" points="103.76 21.03 101.41 23.37 101.64 23.57 101.54 23.67 102.03 24.11 104.39 21.78 104.15 21.57 104.25 21.47 103.76 21.03"/><polygon class="cls-1" points="85.01 9.8 83.74 12.8 84.37 13.04 85.63 10.04 85.01 9.8"/><polygon class="cls-1" points="104.89 24.58 103.94 25.42 104.4 25.89 104.55 25.75 104.62 25.82 105.37 25.02 106.88 23.68 106.75 23.55 106.76 23.54 106.64 23.44 106.42 23.21 106.4 23.23 106.26 23.11 104.89 24.58"/><polygon class="cls-1" points="75.32 10.14 75.49 8.77 75.64 8.08 75.57 8.07 75.69 7.11 75.02 7.04 74.98 7.34 74.88 7.32 74.18 10.48 74.84 10.61 74.95 10.1 75.32 10.14"/><polygon class="cls-1" points="99.19 17.14 98.62 16.81 96.92 19.4 97.31 19.62 97.29 19.66 97.86 20 99.58 17.42 99.17 17.18 99.19 17.14"/><polygon class="cls-1" points="91.95 16.14 93.01 14.41 92.43 14.09 91.37 15.81 91.95 16.14"/><polygon class="cls-1" points="86.31 11.2 85.47 13.03 86.09 13.28 86.93 11.45 86.67 11.35 87.55 8.77 87.23 8.67 86.36 11.22 86.31 11.2"/><polygon class="cls-1" points="71.76 7.33 71.1 7.24 70.81 9.21 71.47 9.3 71.76 7.33"/><polygon class="cls-1" points="64.59 8.77 64.62 6.77 64.13 6.77 64.14 6.23 63.69 6.22 63.5 4.23 63.17 4.26 63.2 4.58 63.18 4.58 63.18 7.92 63.45 7.92 63.44 9.45 64.11 9.45 64.11 8.76 64.59 8.77"/><polygon class="cls-1" points="93.02 17.38 93.59 17.73 95.43 15.01 94.86 14.67 93.02 17.38"/><polygon class="cls-1" points="86.6 14.08 87.21 14.35 88.66 11.43 88.37 11.3 88.86 10.29 88.56 10.16 88.06 11.16 88.05 11.16 86.6 14.08"/><polygon class="cls-1" points="50.19 7.43 49.99 6.64 49.66 6.71 49.86 7.5 49.83 7.51 50.25 9.24 49.64 7.54 49.01 7.75 49.1 8.01 48.69 8.13 50.09 12.46 50.74 12.27 50.19 10.58 50.55 10.47 50.6 10.65 51.25 10.51 50.48 7.37 50.19 7.43"/><polygon class="cls-1" points="37.09 11.87 38.6 14.76 39.2 14.48 38.39 12.93 38.5 12.87 37.75 11.7 37.7 11.59 37.69 11.59 36.78 10.17 36.49 10.34 37.38 11.73 37.09 11.87"/><polygon class="cls-1" points="96.5 16.4 95.01 18.42 95.51 18.75 94.57 20.18 95.14 20.52 96.37 18.65 96.45 18.7 97.26 17.63 97.48 17.77 99.53 15.06 99.26 14.88 97.62 17.04 97.48 16.95 97.66 16.68 97.21 16.41 98.05 15.27 97.77 15.09 96.71 16.54 96.5 16.4"/><polygon class="cls-1" points="91.11 12.39 89.85 15.19 90.03 15.26 90.02 15.27 90.64 15.53 91.92 12.73 91.72 12.65 91.73 12.64 91.11 12.39"/><polygon class="cls-1" points="73.09 9.79 73.76 9.85 74.04 6.81 73.38 6.76 73.09 9.79"/><polygon class="cls-1" points="42.11 9.85 43.51 12.59 44.11 12.31 44.08 12.24 44.22 12.19 43.48 10.32 43.16 10.44 42.71 9.57 42.69 9.58 42.38 8.8 42.07 8.92 42.39 9.72 42.11 9.85"/><polygon class="cls-1" points="81.02 11.64 81.29 11.71 80.73 13.59 81.38 13.76 82.66 9.41 82.29 9.31 82.41 8.83 82.21 8.78 82.63 7.04 82.31 6.97 81.88 8.71 81.76 8.68 81.02 11.64"/><polygon class="cls-1" points="60.77 7.28 61.02 9.1 61.68 9.01 61.27 5.99 61.23 6 61.3 0 60.72 4.15 60.9 6.04 60.6 6.08 60.72 6.9 60.08 6.93 60.19 8.92 60.86 8.89 60.77 7.28"/><polygon class="cls-1" points="52.93 7.73 52.52 5.58 52.19 5.64 52.6 7.79 52.45 7.82 52.84 9.78 53.5 9.66 53.11 7.7 52.93 7.73"/><polygon class="cls-1" points="45.51 9.5 46.15 11.4 46.79 11.21 46.15 9.31 45.51 9.5"/><polygon class="cls-1" points="40.69 13.38 39.82 11.56 39.21 11.82 40.08 13.64 40.69 13.38"/><polygon class="cls-1" points="11.53 43.35 11.77 42.76 11.54 42.68 11.68 42.21 9.78 41.67 9.78 41.66 7.76 40.9 7.63 41.19 8.54 41.53 8.41 41.95 8.44 41.96 8.35 42.18 11.53 43.35"/><polygon class="cls-1" points="8.08 57.27 4.68 56.99 4.66 57.21 3.03 57.07 3 57.38 4.63 57.53 4.62 57.62 9.93 58.46 8.08 57.27"/><polygon class="cls-1" points="27.97 18.37 29.53 20.33 30.07 19.95 28.51 17.99 27.97 18.37"/><polygon class="cls-1" points="7.69 64.25 4.5 64.66 4.59 65.29 7.78 64.88 7.69 64.25"/><polygon class="cls-1" points="29.42 16.33 29.98 16.96 29.66 17.18 30.87 18.81 31.34 18.5 31.48 18.67 32 18.26 30.75 16.84 30.86 16.77 29.62 15.07 29.35 15.25 29.87 15.97 29.72 16.09 28.29 14.34 28.03 14.54 29.47 16.29 29.42 16.33"/><polygon class="cls-1" points="16 28.71 15.65 29.25 18.41 30.84 18.75 30.3 16 28.71"/><polygon class="cls-1" points="13.16 34.58 12.83 35.13 14.66 36.12 14.99 35.57 13.16 34.58"/><polygon class="cls-1" points="5.74 55.36 7.83 55.62 7.92 54.99 5.83 54.73 5.74 55.36"/><rect class="cls-1" x="6.03" y="60.76" width="0.64" height="2.11" transform="translate(-55.5 67.78) rotate(-89.64)"/><polygon class="cls-1" points="7.38 45.7 10.63 46.68 10.83 46.08 8.4 45.34 8.49 45.08 6.42 44.44 6.31 44.74 7.57 45.13 7.49 45.36 5.34 44.91 5.26 45.23 7.39 45.67 7.38 45.7"/><polygon class="cls-1" points="5.03 56.32 8.41 56.68 8.49 56.05 7.07 55.9 7.07 55.88 6.64 55.85 5.1 55.69 5.09 55.77 2.13 55.61 2.11 55.93 5.05 56.09 5.03 56.32"/><polygon class="cls-1" points="31.5 102.45 29.36 103.67 27.27 106.23 27.45 106.36 26.34 107.98 26.62 108.15 27.71 106.55 27.8 106.61 31.5 102.45"/><polygon class="cls-1" points="9.98 76.95 9.74 76.36 6.74 77.46 6.98 78.05 9.98 76.95"/><polygon class="cls-1" points="14.29 92.84 14.76 92.5 14.95 92.39 15.17 92.72 16.94 91.63 16.6 91.15 16.84 90.97 16.42 90.47 13.88 92.34 14.05 92.55 12.36 93.59 12.54 93.86 14.26 92.81 14.29 92.84"/><polygon class="cls-1" points="8.69 52.06 8.7 51.98 8.71 51.98 8.78 51.35 5.59 51.02 4.62 50.83 4.55 51.14 5.53 51.33 5.49 51.73 8.69 52.06"/><polygon class="cls-1" points="7.4 76.16 9.45 75.67 9.28 75.05 7.24 75.55 7.4 76.16"/><polygon class="cls-1" points="9.51 82.31 11.48 81.6 11.24 81 10.05 81.44 9.98 81.25 6.67 82.41 6.79 82.7 9.31 81.82 9.51 82.31"/><polygon class="cls-1" points="26.31 104.44 26.83 104.84 28.17 103.3 27.65 102.9 26.31 104.44"/><polygon class="cls-1" points="21.31 22.83 23.73 25.1 24.2 24.65 21.79 22.38 21.31 22.83"/><polygon class="cls-1" points="16.23 34.08 13.33 32.39 12.98 32.93 15.88 34.62 16.23 34.08"/><polygon class="cls-1" points="59.01 6.17 59.51 9.18 60.17 9.09 59.67 6.08 59.01 6.17"/><polygon class="cls-1" points="42.35 11.77 42.41 11.75 41.11 8.64 40.8 8.76 41.35 10.08 40.82 10.34 42.29 13.05 42.89 12.76 42.35 11.77"/><polygon class="cls-1" points="26.04 18.78 26.2 18.94 25.72 19.31 27.88 21.81 28.4 21.4 26.61 19.34 28.27 20.97 28.75 20.53 26.52 18.34 26.45 18.39 25.96 17.81 25.7 18.01 26.21 18.62 26.04 18.78"/><polygon class="cls-1" points="16.44 28.15 16.09 28.69 18.82 30.31 19.17 29.77 16.44 28.15"/><polygon class="cls-1" points="68.33 9.22 68.41 9.22 68.39 9.37 69.06 9.44 69.27 7.35 69.28 7.35 69.49 5.29 69.15 5.26 69.06 6.19 69 6.19 69 6.18 68.86 6.18 68.71 6.16 68.71 6.18 68.33 6.17 68.33 7.04 68.21 7.03 68.03 9.02 68.33 9.04 68.33 9.22"/><polygon class="cls-1" points="37.56 14.95 38.16 14.66 37.2 12.88 36.61 13.17 37.56 14.95"/><polygon class="cls-1" points="23.7 21.77 25.13 23.23 25.63 22.8 24.2 21.34 24.15 21.38 23.05 20.23 22.8 20.45 23.91 21.59 23.7 21.77"/><polygon class="cls-1" points="18.77 26.69 20.38 27.98 20.82 27.49 19.61 26.52 19.75 26.36 18.11 25.01 17.89 25.25 19.14 26.28 18.77 26.69"/><polygon class="cls-1" points="14.74 31.82 16.5 32.93 16.87 32.4 15.11 31.3 14.74 31.82"/><polygon class="cls-1" points="4.45 69.25 9.16 68.49 9.05 67.86 7.75 68.07 7.7 67.66 6.58 67.78 8.01 67.52 7.88 66.9 4.72 67.46 4.84 68.09 5.62 67.95 5.67 68.41 4.33 68.62 4.45 69.25"/><polygon class="cls-1" points="19.4 96.69 20.7 95.68 20.64 95.61 21.12 95.2 20.67 94.73 18.96 96.2 17.63 97.22 17.69 97.29 17.14 97.78 17.59 98.25 19.4 96.69"/><polygon class="cls-1" points="31.96 104.78 29.47 108.64 30.04 108.97 32.53 105.11 31.96 104.78"/><polygon class="cls-1" points="61.01 114.13 61.12 118.65 61.79 118.64 61.68 114.11 61.01 114.13"/><polygon class="cls-1" points="116.58 87.34 116.42 87.27 116.66 86.83 113.62 85.37 113.31 85.94 114.21 86.37 112.2 85.54 111.93 86.13 115.16 87.45 115.09 87.59 118.17 88.79 118.3 88.5 116.4 87.75 116.58 87.34"/><polygon class="cls-1" points="122.31 56.92 122.42 56.91 122.42 56.9 122.44 56.9 122.39 56.64 122.36 56.27 122.33 56.28 122.33 56.27 122.22 56.28 118.96 56.56 118.98 56.78 117.61 56.99 117.72 57.62 122.31 56.92"/><polygon class="cls-1" points="118.1 40.85 113.78 42.79 114.07 43.37 118.39 41.42 118.1 40.85"/><polygon class="cls-1" points="37.46 19.58 36.32 17.65 33.68 13.88 33.36 14.08 32.18 12.55 31.91 12.73 33.77 15.16 37.46 19.58"/><polygon class="cls-1" points="19.99 24.21 20.13 24.32 20.09 24.36 22.57 26.56 22.73 26.4 23.64 27.13 25.54 27.81 20.43 23.72 20.4 23.76 19.77 23.2 19.54 23.43 20.18 24 19.99 24.21"/><path class="cls-1" d="M67.19,58.11l.53-.66h.16l.81.78v.28H65.62v.2l0,1.37c0,.71-.35,1.06-1.47,1.1,0-.36-.2-.55-1.08-.77l.06-.27a10,10,0,0,0,1.37.11c.33,0,.37-.08.37-.36V58.51h-6l-.83.07L57.89,58l1,.07h6V58a1.6,1.6,0,0,0-.13-.83l.06-.07c1.19.2,1.22.23,1.22.37s-.15.17-.42.22v.38Zm-2.81-5h1.88l.4-.43h.16c.63.45.72.56.72.67s-.08.19-.43.36V55l0,2.23-.11.12-.65,0V57H60.2v.36l-.12.12-.63,0,.06-2.37V53.8a3.09,3.09,0,0,0-.18-1.15l.07-.07a9.94,9.94,0,0,1,1,.49h1.5a2.09,2.09,0,0,0,0-.26v-.72h-2.7l-.83.07-.14-.54,1,.07h2.38a1,1,0,0,1-.21-.32,2.55,2.55,0,0,0-.8-.91l.17-.21c1,.36,1.46.73,1.46,1.11a.41.41,0,0,1-.15.33h2a5.38,5.38,0,0,0,.36-.81,2.7,2.7,0,0,0,.14-.63l.08,0c.92.34,1.14.44,1.14.58s-.16.2-.55.2a7.71,7.71,0,0,1-.7.7h2.36l.57-.71h.16l.78.83v.28h-4Zm2,.4h-2v.8c0,.23.06.26.37.26s.44,0,.53-.18a2.68,2.68,0,0,0,.22-.65l.28,0v.52c0,.09,0,.13.16.18s.18.12.18.22-.1.24-.28.31a3.33,3.33,0,0,1-1.09.12c-.89,0-1-.17-1-.71v-.91H62.53c-.17.93-.73,1.52-2,1.94l-.14-.25a2.11,2.11,0,0,0,1.47-1.69H60.2v2.1h6.2Zm0,2.5H60.2v.6h6.2Zm-5.71,2.66c1.12.32,1.78.75,1.78,1.26a.41.41,0,0,1-.4.44c-.18,0-.3-.1-.48-.42a2.88,2.88,0,0,0-1.08-1.06Zm1.89-6.54v.76a.82.82,0,0,1,0,.22h1.16v-1Z"/><path class="cls-1" d="M58.48,63.64a3.85,3.85,0,0,1,.89.53,1.25,1.25,0,0,1,.49.91,3.11,3.11,0,0,1,0,.4,10.35,10.35,0,0,0-.12,1.5,7.63,7.63,0,0,0,.19,2,3.05,3.05,0,0,0,.6,1.09c.12.13.2.18.25.18s.08,0,.17-.19.29-.49.64-1a11.21,11.21,0,0,1,1.09-1.38l.24.19c-.31.47-.67,1-.92,1.46a5.32,5.32,0,0,0-.43,1,1.54,1.54,0,0,0-.06.42.84.84,0,0,0,.06.3,1,1,0,0,1,0,.26.26.26,0,0,1-.29.27,2.15,2.15,0,0,1-1.36-1,4.12,4.12,0,0,1-.72-1.4,8.29,8.29,0,0,1-.17-1.71c0-1,0-1.75,0-2a1.7,1.7,0,0,0-.74-1.65Zm6.69,1.9a3.32,3.32,0,0,1,3,2.36,3,3,0,0,1,.13.72c0,.37-.2.65-.52.65s-.4-.19-.49-.82a3,3,0,0,0-2.24-2.66Z"/></g></g></svg>