<svg xmlns="http://www.w3.org/2000/svg" viewBox="0 0 147.1 147.01"><defs><style>.cls-1{fill:#fff;}.cls-2{fill:#4f4f4f;}</style></defs><g id="Layer_2" data-name="Layer 2"><g id="back"><circle class="cls-1" cx="75.59" cy="71.88" r="57"/><path class="cls-2" d="M108.39,118.32c-.93-1.2-3-3.77-5.91-7.24a.07.07,0,0,0-.07,0,.07.07,0,0,0-.06,0,.1.1,0,0,0,0,.14c2.6,3.68,4.53,6.36,5.46,7.56,1.06,1.4,2.95,3.78,5.9,7.24a.1.1,0,0,0,.08,0,.07.07,0,0,0,.06,0,.1.1,0,0,0,0-.14C111.3,122.16,109.47,119.71,108.39,118.32Zm7.38,3.4c-1-1.2-3.35-3.7-6.33-6.84a.1.1,0,0,0-.07,0,.07.07,0,0,0-.06,0,.11.11,0,0,0,0,.13c2.7,3.41,4.82,6.07,5.86,7.27s3,3.38,6.34,6.85c0,0,0,0,.07,0a.07.07,0,0,0,.06,0,.11.11,0,0,0,0-.13C118.69,125.16,116.7,122.79,115.77,121.72Zm-7-10s0,0,0,0a.07.07,0,0,0-.06,0,.09.09,0,0,0,0,.13c2.8,3.34,5,5.92,6.08,7.08s3.09,3.32,6.52,6.68a.1.1,0,0,0,.12,0,.1.1,0,0,0,0-.14c-3-3.72-5.11-6-6.08-7.08S111.8,114.82,108.73,111.74Zm3.83,9c-1-1.22-3.22-3.79-6.11-7a.1.1,0,0,0-.08,0,.07.07,0,0,0-.06,0,.11.11,0,0,0,0,.13c2.6,3.49,4.67,6.21,5.65,7.43s2.88,3.49,6.12,7a.1.1,0,0,0,.08,0,.07.07,0,0,0,.06,0,.11.11,0,0,0,0-.13C115.4,124.3,113.47,121.87,112.56,120.77Zm-13.28-12a.1.1,0,0,0-.08,0,.07.07,0,0,0-.06,0,.1.1,0,0,0,0,.14l.41.58-.41-.58a.1.1,0,0,0-.08,0,.06.06,0,0,0-.05,0,.09.09,0,0,0,0,.13c2.54,3.84,4.35,6.52,5.22,7.72,1,1.43,2.86,3.9,5.65,7.43a.1.1,0,0,0,.08,0,.07.07,0,0,0,.06,0,.1.1,0,0,0,0-.14l-1.31-1.84L110.1,124a.1.1,0,0,0,.07,0,.07.07,0,0,0,.06,0s.06-.09,0-.13Zm14.15,5.2c-1.08-1.1-3.45-3.41-6.7-6.5a.07.07,0,0,0-.06,0,.06.06,0,0,0,0,0,.1.1,0,0,0,0,.14c3,3.33,5.23,5.78,6.29,6.89,1.21,1.26,3.38,3.41,6.7,6.5a.07.07,0,0,0,.06,0s0,0,0,0a.11.11,0,0,0,0-.14C116.58,117.29,114.44,115,113.43,114Zm-13.61,9.82c-.69-1.35-2.29-4.26-4.51-8.18a.11.11,0,0,0-.08-.06s0,0,0,0a.11.11,0,0,0,0,.12c1.88,4.07,3.31,7,4,8.43.81,1.57,2.23,4.26,4.51,8.18a.08.08,0,0,0,.08,0s0,0,0,0a.1.1,0,0,0,0-.12C102,128.15,100.63,125.4,99.82,123.83Zm6.65,4.68c-.81-1.35-2.65-4.22-5-7.87a.13.13,0,0,0-.07,0,.07.07,0,0,0-.06,0,.11.11,0,0,0,0,.14c2,3.84,3.66,6.82,4.47,8.2.71,1.22,2.33,3.87,5,7.87l.08,0a.07.07,0,0,0,.06,0,.13.13,0,0,0,0-.12C108.74,132.43,107.2,129.74,106.47,128.51Zm.08-3.36c-.83-1.32-2.74-4.13-5.22-7.74a.1.1,0,0,0-.08,0,.07.07,0,0,0-.06,0,.11.11,0,0,0,0,.14c2.18,3.79,3.89,6.72,4.72,8.06s2.45,3.82,5.23,7.74a.1.1,0,0,0,.08,0,.06.06,0,0,0,0,0,.11.11,0,0,0,0-.14C108.94,129,107.3,126.37,106.55,125.15ZM103.47,127c-.77-1.38-2.51-4.31-4.76-8a.08.08,0,0,0-.08,0s0,0,0,0a.11.11,0,0,0,0,.14c2,3.91,3.49,7,4.24,8.31s2.22,4,4.76,8l.08,0s0,0,0,0a.1.1,0,0,0,0-.12C105.63,131,104.16,128.24,103.47,127Zm-10.9-14.16a.11.11,0,0,0-.1-.06h0s-.07.08,0,.12c.1.21.2.44.29.65l-.3-.64a.12.12,0,0,0-.08,0h0s-.08.07,0,.11c1.83,4.23,3.12,7.19,3.75,8.55.75,1.61,2.1,4.36,4.22,8.33a.11.11,0,0,0,.08.06s0,0,0,0a.12.12,0,0,0,0-.13l-1-2.06c.33.64.7,1.3,1.08,2a.11.11,0,0,0,.08.06s0,0,0,0a.11.11,0,0,0,0-.14Zm7.53.06a.1.1,0,0,0-.08,0,.07.07,0,0,0-.06,0s0,.07,0,.13c2.36,3.82,4.13,6.63,5,7.91,1,1.48,2.72,4,5.44,7.6a.1.1,0,0,0,.07,0,.07.07,0,0,0,.06,0s.06-.07,0-.13c-2.45-4.11-4.16-6.71-5-7.91S102.76,116.52,100.1,112.9Zm-12.68,5.94a.11.11,0,0,0-.09,0h0c-.06,0-.08,0-.06.11,1.13,4.34,2,7.54,2.43,9s1.35,4.34,3,8.85a.11.11,0,0,0,.1.06h0c.06,0,.08-.06.06-.11-1.08-4.36-1.92-7.31-2.44-9C89.94,126.25,88.88,123.11,87.42,118.84Zm5.16,6a.11.11,0,0,0-.1-.06h0s-.08.08-.06.12c1.31,4.14,2.38,7.36,2.92,8.87.48,1.34,1.58,4.22,3.52,8.66a.11.11,0,0,0,.1.06h0s.08-.08.06-.12c-1.4-4.65-2.44-7.55-2.92-8.87C95.52,132,94.25,128.85,92.58,124.86Zm.43-3.19a.11.11,0,0,0-.1-.06h0s-.08.07-.06.11c1.46,4.13,2.61,7.33,3.19,8.78.65,1.63,1.83,4.44,3.75,8.55a.09.09,0,0,0,.08,0h0a.09.09,0,0,0,.05-.11c-1.53-4.57-2.67-7.46-3.19-8.78S94.82,125.66,93,121.67Zm-2.83,1a.11.11,0,0,0-.09-.06h0a.09.09,0,0,0-.06.12c1.23,4.28,2.19,7.46,2.67,8.95s1.46,4.3,3.24,8.76a.11.11,0,0,0,.1.06h0a.08.08,0,0,0,.06-.12c-1.27-4.65-2.23-7.59-2.67-9S91.76,126.87,90.18,122.72Zm-5.05-7.21h0a.11.11,0,0,0-.08.12c.06.23.12.46.16.69l-.2-.68s0-.07-.09-.07h0a.1.1,0,0,0-.08.11c1,4.52,1.78,7.65,2.16,9.09.46,1.72,1.29,4.67,2.67,9a.1.1,0,0,0,.1.05h0c.06,0,.07-.05.06-.11l-.6-2.21c.21.68.44,1.41.71,2.17a.11.11,0,0,0,.1.06h0a.08.08,0,0,0,.06-.12l-4.91-18S85.17,115.51,85.13,115.51ZM92.64,117a.11.11,0,0,0-.08-.06h0s-.08.08-.06.12c1.62,4.16,2.85,7.22,3.46,8.66.72,1.63,2,4.42,4,8.45a.11.11,0,0,0,.08.06h0s.08-.08.06-.12c-1.59-4.24-2.77-7.05-3.46-8.66C96,124,94.58,121,92.64,117Zm-13.56,3.6s-.06-.07-.1-.07h0c-.06,0-.1,0-.08.09.34,4.49.62,7.81.79,9.3s.55,4.53,1.33,9.23a.09.09,0,0,0,.1.08h0c.06,0,.1-.06.08-.1-.3-4.8-.62-7.9-.79-9.31S79.76,125,79.08,120.6Zm4,6.81s-.06-.08-.1-.08h0c-.06,0-.08.06-.08.1.55,4.3,1,7.67,1.29,9.23.23,1.4.81,4.42,1.92,9.15,0,0,0,.07.09.07h0a.08.08,0,0,0,.08-.09c-.55-4.79-1-7.85-1.29-9.26S84,131.65,83.07,127.41Zm1-3a.13.13,0,0,0-.1-.08h0a.11.11,0,0,0-.07.12c.68,4.32,1.25,7.67,1.56,9.2s.94,4.43,2.16,9.08a.13.13,0,0,0,.1.08h0a.11.11,0,0,0,.08-.12c-.71-4.76-1.28-7.8-1.57-9.19C85.92,131.91,85.15,128.69,84.08,124.37Zm-3,.52s-.06-.08-.1-.08h0c-.06,0-.08.06-.08.1.44,4.33.82,7.7,1,9.27.2,1.41.68,4.49,1.62,9.2a.1.1,0,0,0,.09.08h0c.06,0,.08-.06.08-.1-.39-4.53-.77-7.55-1-9.27C82.49,132.54,81.9,129.19,81.1,124.89Zm-3.72-8h0c-.06,0-.09,0-.09.1,0,.25,0,.5,0,.75l0-.75a.09.09,0,0,0-.1-.1h0a.09.09,0,0,0-.1.1c.2,4.51.39,7.82.52,9.31.15,1.78.43,4.82,1,9.27a.09.09,0,0,0,.1.08h0c.06,0,.1-.06.08-.09l-.19-2.27c.09.72.19,1.45.3,2.27,0,0,0,.07.1.07h0a.08.08,0,0,0,.08-.09L77.48,117S77.44,116.9,77.38,116.9Zm7.16,2.81a.13.13,0,0,0-.1-.08h0a.11.11,0,0,0-.08.12c.86,4.41,1.51,7.65,1.86,9.14.4,1.72,1.13,4.67,2.39,9a.13.13,0,0,0,.1.08h0a.11.11,0,0,0,.08-.11c-.8-4.46-1.45-7.44-1.86-9.16C86.59,127.24,85.75,124,84.54,119.71Zm-14.08,1h0a.08.08,0,0,0-.09.07c-.46,4.44-.78,7.74-.88,9.29s-.26,4.53-.31,9.33c0,.06,0,.1.09.1h0s.1,0,.1-.08c.55-4.76.79-7.85.87-9.29s.21-4.86.32-9.33C70.54,120.78,70.5,120.74,70.46,120.74Zm2.71,7.42a.08.08,0,0,0-.09.09c-.23,4.34-.35,7.73-.38,9.33,0,1.42,0,4.51.25,9.33a.09.09,0,0,0,.1.1.09.09,0,0,0,.09-.1c.33-4.83.37-7.91.38-9.33,0-1.6-.09-5-.25-9.33A.09.09,0,0,0,73.17,128.16Zm1.64-2.73c0-.06,0-.09-.1-.09h0c-.06,0-.1,0-.1.09-.09,4.36-.11,7.76-.08,9.33,0,1.41.12,4.51.52,9.31a.09.09,0,0,0,.09.1h0a.09.09,0,0,0,.1-.1c.17-4.8.12-7.91.08-9.33S75.08,129.79,74.81,125.43Zm-3.14-.12h0a.09.09,0,0,0-.1.09c-.34,4.36-.56,7.75-.62,9.31s-.13,4.55,0,9.33c0,.06,0,.1.09.1h0a.09.09,0,0,0,.1-.08c.44-4.8.58-7.89.62-9.31s.07-4.95,0-9.33A.11.11,0,0,0,71.67,125.31Zm-2.15-8.43h0a.09.09,0,0,0-.09.08c0,.25-.06.5-.1.75l.08-.73a.09.09,0,0,0-.08-.1h0s-.1,0-.1.08c-.61,4.57-1,7.78-1.14,9.27-.18,1.76-.42,4.82-.63,9.31a.09.09,0,0,0,.1.09h0c.06,0,.1,0,.1-.07l.22-2.27c0,.72-.07,1.47-.11,2.29a.09.09,0,0,0,.1.09h0c.06,0,.1,0,.1-.07L69.64,117A.18.18,0,0,0,69.52,116.88Zm6.57,4.05c0-.06,0-.08-.09-.08h0a.09.09,0,0,0-.1.09c0,4.5.14,7.81.21,9.33.09,1.77.28,4.81.75,9.32,0,0,0,.07.1.08h0a.09.09,0,0,0,.09-.1c0-4.78-.11-7.9-.2-9.33S76.49,125.4,76.09,120.93Zm-14-1.4s0-.09-.07-.11h0a.1.1,0,0,0-.1.08c-1.25,4.29-2.15,7.48-2.52,9s-1.08,4.43-2,9.13a.11.11,0,0,0,.08.12h0a.09.09,0,0,0,.09-.08c1.33-4.33,2.11-7.29,2.52-9C60.5,127.16,61.2,123.93,62.1,119.53Zm1.28,7.69h0a.11.11,0,0,0-.12.08c-1,4.24-1.72,7.54-2,9.11-.26,1.39-.81,4.43-1.42,9.23a.11.11,0,0,0,.08.12h0s.07,0,.09-.08c1.16-4.66,1.76-7.72,2-9.11.29-1.59.81-5,1.42-9.23A.09.09,0,0,0,63.38,127.22Zm2-2.51h0a.14.14,0,0,0-.12.08c-.86,4.27-1.49,7.62-1.74,9.17s-.67,4.49-1.15,9.27a.08.08,0,0,0,.08.09h0s.07,0,.09-.07c1-4.7,1.53-7.76,1.75-9.17s.65-4.92,1.15-9.27C65.48,124.77,65.46,124.71,65.4,124.71Zm-2.9-.45a.11.11,0,0,0-.08-.12h0a.1.1,0,0,0-.1.08c-1.11,4.22-1.93,7.52-2.26,9.05s-.94,4.41-1.69,9.19a.11.11,0,0,0,.07.12h0a.1.1,0,0,0,.1-.08c1.29-4.62,2-7.66,2.27-9.05S61.75,128.57,62.5,124.26Zm-.68-8.77h0a.11.11,0,0,0-.09.06c-.08.23-.16.46-.22.69l.2-.71a.1.1,0,0,0-.06-.12h0a.11.11,0,0,0-.1.06c-1.4,4.39-2.38,7.46-2.79,8.89-.49,1.71-1.27,4.67-2.29,9.06,0,.06,0,.09.08.11h0a.09.09,0,0,0,.1-.07l.62-2.19c-.15.7-.33,1.43-.51,2.23,0,.05,0,.09.08.11h0a.1.1,0,0,0,.1-.07l5-18A.44.44,0,0,0,61.82,115.49Zm5.64,5h0c-.06,0-.09,0-.09.07-.75,4.4-1.26,7.68-1.46,9.21s-.55,4.53-.91,9.29c0,.06,0,.1.07.1h0a.13.13,0,0,0,.1-.08c.8-4.45,1.24-7.47,1.46-9.23.19-1.53.51-4.82.91-9.29C67.54,120.57,67.5,120.52,67.46,120.52ZM46.29,133.84s.08,0,.08-.06c2.08-4,3.36-6.79,4.08-8.39.63-1.39,1.89-4.45,3.59-8.63a.08.08,0,0,0-.06-.11h0s-.08,0-.08.06c-2,4-3.46,7-4.08,8.39-.72,1.6-2,4.4-3.59,8.62a.09.09,0,0,0,.06.12A0,0,0,0,1,46.29,133.84ZM54,124.66c0-.06,0-.09-.06-.11h0a.11.11,0,0,0-.09,0c-1.74,4-3.06,7.14-3.63,8.61-.5,1.31-1.58,4.23-3,8.82,0,.06,0,.09.06.11h0a.11.11,0,0,0,.09,0c2-4.41,3.12-7.29,3.63-8.61S52.61,128.8,54,124.66Zm2.42-2.1a.09.09,0,0,0-.05-.12h0a.11.11,0,0,0-.1.06c-1.64,4.14-2.84,7.23-3.35,8.7s-1.46,4.28-2.79,8.92a.08.08,0,0,0,.06.11h0a.1.1,0,0,0,.1,0c1.83-4.43,2.89-7.37,3.35-8.72S55.16,126.74,56.42,122.56Zm-2.84-1.07a.09.09,0,0,0-.06-.12h0a.07.07,0,0,0-.07.06c-1.85,4-3.25,7.06-3.86,8.49s-1.71,4.19-3.31,8.74c0,0,0,.09.06.11h0s.07,0,.07-.05c2.09-4.34,3.31-7.18,3.88-8.51S52.08,125.59,53.58,121.49Zm-7.34,8.07a.09.09,0,0,0,.06.12h0s.08,0,.08-.06l8.11-16.8a.13.13,0,0,0,0-.14s0,0,0,0-.08,0-.08.06l-.35.64.31-.66a.13.13,0,0,0,0-.14h0s-.06,0-.07,0c-2.18,4.06-3.68,6.92-4.34,8.26-.78,1.58-2.09,4.35-3.88,8.49a.09.09,0,0,0,0,.11h0s.08,0,.08-.06l1-2.05A23.64,23.64,0,0,1,46.24,129.56Zm13-10.77a.1.1,0,0,0-.06-.12h0a.11.11,0,0,0-.09.06c-1.52,4.22-2.62,7.35-3.08,8.82-.53,1.68-1.41,4.6-2.56,9,0,.05,0,.09.06.11h0a.12.12,0,0,0,.1,0c1.68-4.49,2.65-7.45,3.08-8.82S58,123.12,59.2,118.79Zm-12.72-6.3c-2.7,3.61-4.66,6.28-5.53,7.51s-2.57,3.75-5.08,7.83a.11.11,0,0,0,0,.13.07.07,0,0,0,.06,0l.08,0c2.76-3.6,4.54-6.07,5.53-7.52.88-1.28,2.69-4.06,5.08-7.83a.11.11,0,0,0,0-.13.07.07,0,0,0-.06,0A.15.15,0,0,0,46.48,112.49Zm-1.32,7.87a.13.13,0,0,0,0-.13.07.07,0,0,0-.06,0,.1.1,0,0,0-.08,0c-2.41,3.59-4.27,6.43-5.11,7.8-.74,1.22-2.33,3.89-4.57,8.14a.13.13,0,0,0,0,.14h.06a.09.09,0,0,0,.07,0c2.76-4,4.39-6.61,5.11-7.81C41.39,127.13,43.06,124.17,45.16,120.36Zm2.76-1.64a.12.12,0,0,0,0-.13.07.07,0,0,1,0,0,.1.1,0,0,0-.08,0c-2.31,3.71-4.1,6.61-4.88,8s-2.21,3.94-4.35,8.27a.11.11,0,0,0,0,.12l0,0a.1.1,0,0,0,.08,0c2.6-4,4.16-6.73,4.88-8S45.89,122.67,47.92,118.72Zm-2.59-1.57a.11.11,0,0,0,0-.14.07.07,0,0,0-.06,0,.1.1,0,0,0-.08,0c-2.58,3.63-4.47,6.34-5.32,7.67-.78,1.18-2.43,3.81-4.82,8a.11.11,0,0,0,0,.14.06.06,0,0,0,.05,0,.1.1,0,0,0,.08,0c2.84-3.88,4.55-6.47,5.33-7.67S43.07,121,45.33,117.15Zm2.48-8.45a.07.07,0,0,0-.06,0,.15.15,0,0,0-.08,0c-.15.19-.29.38-.44.56l.42-.58a.1.1,0,0,0,0-.14.06.06,0,0,0-.05,0l-.08,0c-2.88,3.61-4.86,6.14-5.75,7.36-1,1.43-2.84,3.9-5.34,7.65a.12.12,0,0,0,0,.14s0,0,0,0a.1.1,0,0,0,.08,0l1.34-1.84c-.41.6-.81,1.22-1.26,1.9a.11.11,0,0,0,0,.13.07.07,0,0,0,.06,0,.1.1,0,0,0,.07,0l11-15A.09.09,0,0,0,47.81,108.7Zm3.52,6.82a.1.1,0,0,0,0-.12.07.07,0,0,1,0,0,.1.1,0,0,0-.07,0c-2.26,3.87-3.89,6.75-4.61,8.12s-2.1,4-4.13,8.37a.1.1,0,0,0,0,.12.07.07,0,0,1,0,0,.1.1,0,0,0,.08,0c2.47-4.12,3.95-6.86,4.61-8.12S49.39,119.58,51.33,115.52ZM40.07,107a.1.1,0,0,0-.12,0c-3.28,3-5.68,5.33-6.77,6.43s-3.18,3.24-6.39,6.82a.1.1,0,0,0,0,.13.1.1,0,0,0,.12,0c3.36-3,5.53-5.17,6.77-6.43s3.38-3.53,6.39-6.81C40.11,107.11,40.09,107.05,40.07,107Zm-2.85,7.52s0-.09,0-.13a.06.06,0,0,0-.05,0,.15.15,0,0,0-.08,0c-3,3.11-5.36,5.58-6.43,6.78-.93,1-2.95,3.38-6,7.18a.1.1,0,0,0,0,.14.07.07,0,0,0,.06,0s.06,0,.06,0c3.41-3.44,5.49-5.72,6.42-6.78C32.33,120.52,34.5,117.9,37.22,114.53Zm3-1.11a.11.11,0,0,0,0-.14.07.07,0,0,0-.06,0,.15.15,0,0,0-.08,0c-2.93,3.23-5.2,5.76-6.21,7s-2.89,3.5-5.77,7.36a.1.1,0,0,0,0,.14.07.07,0,0,0,.06,0,.15.15,0,0,0,.08,0c3.3-3.53,5.31-5.87,6.21-7S37.55,116.94,40.25,113.42Zm-2.42-2.16c-3.12,3-5.53,5.47-6.6,6.61s-3.08,3.32-6.17,7c0,0,0,.09,0,.13a.1.1,0,0,0,.12,0c3.49-3.34,5.64-5.56,6.59-6.6s3.32-3.71,6.18-7a.1.1,0,0,0,0-.14h-.12Zm4.07-7.75a.1.1,0,0,0-.08,0,.07.07,0,0,0-.06,0l-.58.52.56-.52a.09.09,0,0,0,0-.13.1.1,0,0,0-.07,0,.07.07,0,0,0-.06,0c-3.4,3-5.88,5.19-7,6.21-1.3,1.22-3.49,3.34-6.6,6.61a.1.1,0,0,0,0,.13s0,0,.08,0a.07.07,0,0,0,.06,0l1.65-1.56c-.51.52-1,1.06-1.57,1.64a.09.09,0,0,0,0,.13.06.06,0,0,0,0,0h.06l13.51-12.88S41.92,103.55,41.9,103.51Zm2.28,7.36s0-.09,0-.13a.06.06,0,0,0,0,0,.15.15,0,0,0-.08,0c-2.91,3.42-5.05,5.95-6,7.14-1.11,1.4-3,3.81-5.56,7.5a.1.1,0,0,0,0,.14.07.07,0,0,0,.06,0,.15.15,0,0,0,.08,0c3-3.4,4.91-5.78,6-7.17C39.58,117.13,41.56,114.49,44.18,110.87Zm-9.61-10.38-.08,0a.07.07,0,0,0-.06,0c-3.78,2.43-6.55,4.25-7.81,5.11-1.45,1-3.94,2.8-7.49,5.58a.1.1,0,0,0,0,.13.1.1,0,0,0,.08,0,.07.07,0,0,0,.06,0c3.84-2.39,6.38-4.1,7.81-5.11,1.26-.88,3.92-2.85,7.49-5.57A.09.09,0,0,0,34.57,100.49Zm-4.12,6.88a.11.11,0,0,0,0-.13.1.1,0,0,0-.08,0,.07.07,0,0,0-.06,0c-3.51,2.53-6.26,4.53-7.52,5.53s-3.53,2.84-7.14,6a.11.11,0,0,0,0,.13.1.1,0,0,0,.08,0,.06.06,0,0,0,0,0c4-2.78,6.42-4.65,7.53-5.54C24.59,112.39,27.19,110.21,30.45,107.37Zm3.17-.55a.09.09,0,0,0,0-.13s0,0-.07,0a.07.07,0,0,0-.06,0c-3.45,2.66-6.13,4.74-7.35,5.74s-3.48,3-7,6.22a.1.1,0,0,0,0,.14.15.15,0,0,0,.08,0h.06c3.88-2.9,6.26-4.85,7.35-5.77S30.33,109.81,33.62,106.82Zm-17,8.73s0,0,.07,0h.06c4-2.65,6.54-4.48,7.68-5.33s3.92-3,7.31-5.8a.12.12,0,0,0,0-.14.1.1,0,0,0-.08,0,.06.06,0,0,0-.05,0c-3.61,2.45-6.4,4.38-7.68,5.32s-3.63,2.74-7.32,5.81A.11.11,0,0,0,16.63,115.55ZM37,97.38l-.08,0a.07.07,0,0,0-.06,0c-.21.14-.43.25-.62.39l.6-.41s.06-.07,0-.13a.15.15,0,0,0-.08,0,.06.06,0,0,0-.05,0c-4,2.37-6.71,4.07-7.95,4.88-1.5,1-4,2.68-7.68,5.32,0,0-.06.1,0,.13a.1.1,0,0,0,.08,0,.06.06,0,0,0,.05,0l1.9-1.23-1.84,1.33a.09.09,0,0,0,.06.17,0,0,0,0,0,.06,0L37,97.54C37,97.48,37,97.42,37,97.38Zm.94,7.63a.09.09,0,0,0,0-.13.1.1,0,0,0-.08,0,.07.07,0,0,0-.06,0c-3.47,2.85-6,5-7.16,6s-3.37,3-6.79,6.41a.09.09,0,0,0,0,.13.1.1,0,0,0,.08,0,.07.07,0,0,0,.06,0c3.74-3,6.09-5,7.15-6S34.7,108.12,37.94,105Zm-7.57-11.9a.11.11,0,0,0-.08-.06h0c-4.16,1.71-7.23,3-8.6,3.62s-4.15,1.92-8.37,4.14a.08.08,0,0,0,0,.11.1.1,0,0,0,.07.06h0c4.21-1.67,7-2.88,8.61-3.64,1.41-.65,4.38-2.11,8.37-4.12C30.37,93.22,30.39,93.17,30.37,93.11Zm-5.3,6a.1.1,0,0,0,0-.13A.11.11,0,0,0,25,99h0c-3.93,1.87-7,3.35-8.39,4.1s-4,2.14-8.1,4.64a.11.11,0,0,0,0,.14.1.1,0,0,0,.07.06h0c4.38-2,7.15-3.43,8.4-4.1C18.38,103.05,21.33,101.35,25.07,99.15Zm3.21,0a.11.11,0,0,0,0-.13.08.08,0,0,0-.08,0s0,0,0,0c-3.87,2-6.9,3.58-8.25,4.35s-3.94,2.27-8,4.88a.1.1,0,0,0,0,.13.08.08,0,0,0,.08,0s0,0,0,0c4.28-2.12,7-3.64,8.25-4.35S24.52,101.51,28.28,99.16ZM10,104.69a.11.11,0,0,0,.08.06h0c4.17-1.77,6.94-3.08,8.51-3.85,1.39-.7,4.4-2.29,8.24-4.39a.13.13,0,0,0,0-.14.08.08,0,0,0-.07-.06h0c-4,1.77-7.09,3.18-8.51,3.85s-4,2-8.24,4.39A.16.16,0,0,0,10,104.69Zm6-6.82a.11.11,0,0,0,.1.06h0l17.17-7.29s.08-.08.06-.12a.11.11,0,0,0-.1-.06h0a6.77,6.77,0,0,1-.66.25l.66-.27s.08-.07.06-.11a.11.11,0,0,0-.1-.06h0c-4.32,1.63-7.32,2.79-8.7,3.36-1.62.68-4.41,1.89-8.5,3.85a.1.1,0,0,0,0,.12.11.11,0,0,0,.09.06h0l2.12-.89-2.08,1C16,97.75,15.94,97.81,16,97.87Zm.85,9.82s-.06.07,0,.13a.08.08,0,0,0,.08,0s0,0,0,0c4-2.14,6.61-3.68,8.12-4.6,1.3-.81,4.09-2.61,7.83-5.09a.09.09,0,0,0,0-.14.08.08,0,0,0-.08,0s0,0,0,0c-3.92,2.18-6.81,3.82-8.13,4.61C23.12,103.5,20.54,105.14,16.8,107.69ZM27.54,85.11s-.05-.08-.09-.08h0c-4.38.94-7.61,1.64-9.11,2-1.7.42-4.64,1.22-9,2.57-.06,0-.08.06-.06.11s.06.08.09.08h0c4.44-.88,7.4-1.59,9.11-2,1.49-.38,4.68-1.28,9-2.57C27.52,85.2,27.56,85.14,27.54,85.11Zm-6.28,5s.08-.07.06-.11a.11.11,0,0,0-.1-.06h0c-4.2,1.13-7.48,2-9,2.51-1.35.42-4.3,1.4-8.79,3.12a.09.09,0,0,0-.06.11.11.11,0,0,0,.1.06h0c4.67-1.19,7.64-2.09,9-2.51C14,92.72,17.19,91.56,21.26,90.08Zm3.15.59s.08-.07.06-.11a.11.11,0,0,0-.1-.06h0c-4.16,1.27-7.41,2.28-8.91,2.78-1.35.46-4.28,1.54-8.72,3.37,0,0-.07.07,0,.11a.1.1,0,0,0,.09.06h0c4.36-1.25,7.25-2.21,8.91-2.8C17.19,93.5,20.29,92.31,24.41,90.67ZM5.51,92.91h0c4.67-1,7.67-1.88,9.07-2.26s4.74-1.48,8.89-2.84a.1.1,0,0,0,.06-.12.13.13,0,0,0-.1-.08h0c-4.22,1-7.53,1.84-9,2.26S10,91.16,5.5,92.71c0,0-.08.08-.06.12A.09.09,0,0,0,5.51,92.91Zm7-5.71a.12.12,0,0,0,.09.07h0l18.21-4.09a.11.11,0,0,0,.08-.12s-.06-.07-.1-.07h0c-.23,0-.46.09-.7.13l.7-.15a.11.11,0,0,0,.08-.12s-.06-.08-.1-.08h0c-4.43.82-7.71,1.43-9.16,1.76-1.72.38-4.7,1.07-9.06,2.26a.08.08,0,0,0-.06.12.14.14,0,0,0,.1.07h0l2.2-.47-2.19.59C12.54,87.08,12.52,87.14,12.52,87.2ZM11.58,97s-.08.08-.06.11a.11.11,0,0,0,.1.06h0c4.3-1.38,7.17-2.44,8.81-3.07,1.44-.56,4.5-1.83,8.63-3.6,0,0,.08-.08.06-.11a.11.11,0,0,0-.1-.06h0c-4.24,1.44-7.38,2.51-8.81,3.07S16,95,11.58,97ZM7.49,78.09h0c4.78-.09,7.9-.27,9.33-.37s4.82-.43,9.29-.92c.06,0,.1-.06.08-.1a.09.09,0,0,0-.1-.1h0c-4.47.15-7.78.27-9.33.37s-4.55.33-9.29.92c-.06,0-.1.06-.08.1A.09.09,0,0,0,7.49,78.09Zm11.63,2.39c.05,0,.07-.06.07-.12a.09.09,0,0,0-.09-.08h0c-4.34.36-7.73.68-9.3.87-1.39.17-4.47.61-9.21,1.51-.06,0-.08,0-.08.11a.09.09,0,0,0,.09.08h0c4.84-.34,7.9-.7,9.3-.87C11.47,81.77,14.84,81.22,19.12,80.48ZM3.66,84.35a.11.11,0,0,0-.08.11.09.09,0,0,0,.1.08h0c4.78-.49,7.86-.93,9.27-1.16s4.8-.87,9.16-1.75a.11.11,0,0,0,.08-.12.09.09,0,0,0-.1-.08h0c-4.33.5-7.7.91-9.25,1.16S8.35,83.33,3.66,84.35Zm-.51-3.89h0c4.82-.21,7.91-.49,9.33-.62,1.57-.15,4.94-.61,9.25-1.21.06,0,.08-.06.08-.1s0-.08-.1-.08h0c-4.43.24-7.74.47-9.31.62-1.76.17-4.78.51-9.25,1.21-.06,0-.08.06-.08.1A.09.09,0,0,0,3.15,80.46ZM11,76.08c0,.06,0,.1.09.1h0l18.65-.8a.1.1,0,0,0,0-.2H29l.74,0a.09.09,0,0,0,.09-.09.09.09,0,0,0-.09-.1c-4.61,0-7.82,0-9.33.09-1.77,0-4.82.22-9.32.62-.05,0-.09,0-.07.09s0,.1.09.1h0l2.27-.09L11.15,76C11.07,76,11,76,11,76.08ZM8.38,85.54a.11.11,0,0,0-.08.12s.06.07.1.07h0c4.76-.62,7.82-1.18,9.21-1.44s4.75-1,9.13-2c.06,0,.07-.06.07-.12a.1.1,0,0,0-.09-.08h0c-4.42.65-7.71,1.16-9.22,1.45S13,84.43,8.38,85.54ZM7.73,66s-.09,0-.09.07,0,.1.07.1c4.74.77,7.82,1.14,9.25,1.28s4.84.42,9.31.74h0c.06,0,.1,0,.1-.07a.09.09,0,0,0-.08-.1c-4.43-.67-7.72-1.12-9.25-1.28-1.76-.2-4.8-.48-9.31-.74Zm11,4.61a.09.09,0,0,0,.09-.09c0-.06,0-.1-.07-.1-4.32-.42-7.71-.7-9.31-.8-1.09-.06-3.47-.16-7.11-.17-.69,0-1.43,0-2.22,0a.09.09,0,0,0-.1.1.09.09,0,0,0,.08.1c4.8.51,7.89.71,9.31.79C11,70.56,14.38,70.61,18.72,70.64Zm-8.89.93c-2.09,0-4.45,0-7,.12-.06,0-.1,0-.1.09a.09.09,0,0,0,.1.1c4.8.38,7.9.48,9.33.51h1.14c1.28,0,3.76,0,8.19-.09a.1.1,0,1,0,0-.2c-4.36-.28-7.74-.46-9.33-.51ZM3,67.58a.09.09,0,0,0-.09.1c0,.06,0,.1.07.1,4.76.65,7.86.93,9.29,1s5,.28,9.33.45h0a.09.09,0,0,0,.1-.1.09.09,0,0,0-.08-.1c-4.33-.53-7.7-.91-9.27-1S7.84,67.71,3,67.58Zm8.65-2.78a.09.09,0,0,0-.1.08.09.09,0,0,0,.08.09L30.12,67.5h0a.13.13,0,0,0,.1-.08.11.11,0,0,0-.08-.12l-.71-.11.71.1h0a.13.13,0,0,0,.1-.08.11.11,0,0,0-.08-.12c-4.47-.8-7.72-1.35-9.21-1.57-1.74-.26-4.78-.63-9.27-1h0s-.09,0-.09.08a.09.09,0,0,0,.07.09L14,65c-.74,0-1.47-.1-2.28-.16Zm4.91,8.59c-1.76,0-4.8.06-9.33.34a.09.09,0,0,0-.1.1.09.09,0,0,0,.1.09c3.77.17,6.5.21,8.11.22h1.22c1.53,0,4.84-.14,9.33-.34.06,0,.09,0,.09-.1a.08.08,0,0,0-.09-.1c-4.14-.12-7.34-.21-9-.21ZM10,54.59C14.3,56.11,17.2,57,18.9,57.52c1.49.43,4.68,1.29,9,2.38h0a.08.08,0,0,0,.09-.07.09.09,0,0,0-.05-.12c-4.26-1.44-7.41-2.48-8.86-2.93s-4.37-1.27-9-2.38h0a.1.1,0,0,0-.1.08A.13.13,0,0,0,10,54.59Zm-8.12,2c4.64,1.37,7.64,2.11,9,2.43,1.54.35,4.89,1,9.15,1.82h0s.07,0,.09-.08,0-.09-.07-.11c-4.18-1.17-7.47-2.07-9-2.45-1.37-.33-4.41-1-9.15-1.82h0a.13.13,0,0,0-.1.08A.13.13,0,0,0,1.91,56.64Zm20.62,6.19c-4.24-1-7.54-1.84-9.07-2.15S9,59.8,4.25,59.11h0a.14.14,0,0,0-.1.07c0,.06,0,.1.08.12,4.64,1.21,7.68,1.88,9.09,2.15s4.82.87,9.21,1.58h0a.13.13,0,0,0,.1-.08C22.61,62.89,22.59,62.85,22.53,62.83ZM5.15,55.28c4.58,1.5,7.56,2.32,8.93,2.67s4.84,1.16,9.1,2.1h0a.1.1,0,0,0,.1-.08.1.1,0,0,0-.06-.12c-4.17-1.3-7.42-2.28-8.93-2.67S9.91,56,5.21,55.08h0a.1.1,0,0,0-.1.08A.08.08,0,0,0,5.15,55.28Zm9-1.41a.1.1,0,0,0-.1.08.1.1,0,0,0,.06.11l17.74,5.78h0a.1.1,0,0,0,.09-.06.09.09,0,0,0-.05-.12c-.24-.07-.45-.17-.68-.25l.68.23h0a.12.12,0,0,0,.1,0,.08.08,0,0,0-.06-.12c-4.31-1.6-7.35-2.71-8.78-3.18-1.68-.56-4.6-1.48-8.93-2.69h0a.1.1,0,0,0-.1.07.1.1,0,0,0,.06.12l2.15.72-2.19-.6S14.17,53.87,14.15,53.87Zm-5.9,8h0c-.06,0-.1,0-.1.07a.11.11,0,0,0,.08.12c4.66,1.06,7.74,1.63,9.15,1.86s4.8.73,9.23,1.32h0s.07,0,.09-.07a.11.11,0,0,0-.07-.12c-4.38-.94-7.63-1.61-9.15-1.86S13,62.46,8.25,61.89ZM22.61,48c1.39.7,4.38,2.1,8.44,4h0s.08,0,.08-.06a.13.13,0,0,0,0-.14c-3.92-2.18-6.82-3.77-8.19-4.47s-4.08-2-8.45-4h0s-.08,0-.08.06a.12.12,0,0,0,0,.13C18.33,45.81,21,47.21,22.61,48Zm-8.13.11c1.45.62,4.62,1.89,8.68,3.43h0a.1.1,0,0,0,.09-.06.09.09,0,0,0,0-.11c-3.93-1.93-7-3.39-8.43-4s-4.16-1.78-8.69-3.43h0A.12.12,0,0,0,6,44a.1.1,0,0,0,0,.12C10.36,46.29,13.18,47.56,14.48,48.12Zm2.2,2c-1.32-.53-4.22-1.66-8.78-3.2h0a.11.11,0,0,0-.1.06.09.09,0,0,0,.06.12c4.35,2,7.23,3.23,8.55,3.75s4.64,1.74,8.78,3.2h0a.11.11,0,0,0,.1-.06s0-.09-.06-.11C21.16,52.07,18.13,50.74,16.68,50.14Zm1.11-2.55c1.43.66,4.46,2,8.56,3.7h0s.08,0,.08-.06a.1.1,0,0,0,0-.12c-3.88-2-6.9-3.58-8.31-4.24S14,45,9.55,43.17h0a.07.07,0,0,0-.07.06.11.11,0,0,0,0,.12C13.71,45.64,16.51,47,17.79,47.59Zm-6.46,2.83h0a.1.1,0,0,0-.1,0,.09.09,0,0,0,.06.12c4.4,1.89,7.32,3,8.66,3.47S24.5,55.62,28.8,57h0a.12.12,0,0,0,.09,0,.09.09,0,0,0-.05-.12c-4.16-1.71-7.24-2.94-8.67-3.47C18.55,52.76,15.67,51.74,11.33,50.42Zm9.44-17.13a.1.1,0,0,0-.08,0s0,.09,0,.13c3.65,3.09,6.12,5,7.26,5.87s3.92,2.85,7.59,5.42a.07.07,0,0,0,.06,0,.1.1,0,0,0,.08,0,.1.1,0,0,0,0-.14c-3.46-2.85-6-4.93-7.26-5.86-1.41-1.07-3.87-2.88-7.6-5.42ZM19.94,38c1.34.88,4.21,2.68,7.93,4.94,0,0,0,0,.05,0a.1.1,0,0,0,.08,0,.12.12,0,0,0,0-.14c-3.5-2.58-6.24-4.56-7.57-5.45s-3.77-2.49-7.93-4.94l-.05,0a.1.1,0,0,0-.08,0,.11.11,0,0,0,0,.13C16.21,35.45,18.76,37.19,19.94,38Zm1.8,2.41c-1.2-.76-3.83-2.37-8.06-4.73l0,0a.1.1,0,0,0-.08,0,.12.12,0,0,0,0,.14c3.92,2.78,6.53,4.47,7.75,5.22s4.27,2.55,8.06,4.73l0,0a.1.1,0,0,0,.07,0,.12.12,0,0,0,0-.14C25.83,43.08,23.07,41.21,21.74,40.38Zm1.55-2.32c1.28.91,4,2.76,7.77,5.19a.07.07,0,0,0,.06,0,.1.1,0,0,0,.07,0,.1.1,0,0,0,0-.14c-3.43-2.7-6.14-4.76-7.41-5.67S20.05,34.8,16,32.23a.07.07,0,0,0-.06,0,.1.1,0,0,0-.08,0,.1.1,0,0,0,0,.14C19.62,35.4,22.13,37.22,23.29,38.06ZM35.08,52.47a.1.1,0,0,0,.08,0,.09.09,0,0,0,0-.13c-4-2.36-6.75-4-8.06-4.71-1.55-.85-4.25-2.29-8.31-4.26l0,0s-.08,0-.08.06a.11.11,0,0,0,0,.13l2,1.09-2.05-1h0s-.08,0-.08.06a.13.13,0,0,0,0,.13l16.41,8.87a.07.07,0,0,1,0,0,.09.09,0,0,0,.08,0,.11.11,0,0,0,0-.14l-.62-.37.64.35A0,0,0,0,1,35.08,52.47Zm4.24-6.36a.13.13,0,0,0,.07,0s0-.09,0-.13-.36-.33-.56-.49l.58.47a.07.07,0,0,0,.06,0,.15.15,0,0,0,.08,0,.09.09,0,0,0,0-.13c-3.48-3-5.91-5.13-7.09-6.08C31,38.56,28.64,36.66,25,34A.06.06,0,0,0,25,34l-.08,0s0,.09,0,.13l1.77,1.44-1.83-1.34a.07.07,0,0,0-.06,0l-.08,0s0,.09,0,.13L39.26,46.09A.07.07,0,0,0,39.32,46.11ZM16.45,39.67a.07.07,0,0,1,0,0,.1.1,0,0,0-.07,0,.1.1,0,0,0,0,.13c4,2.64,6.66,4.26,7.9,5s4.21,2.37,8.18,4.49l0,0a.1.1,0,0,0,.08,0,.11.11,0,0,0,0-.14c-3.78-2.44-6.61-4.21-7.9-5C23.12,43.26,20.47,41.77,16.45,39.67Zm18.34-7.93c1.06,1.14,3.37,3.51,6.52,6.67a.1.1,0,0,0,.12,0,.09.09,0,0,0,0-.13c-2.9-3.42-5.08-5.92-6.12-7.06s-3.11-3.34-6.53-6.68a.06.06,0,0,0-.05,0,.07.07,0,0,0-.06,0,.1.1,0,0,0,0,.14C31.72,28.36,33.8,30.69,34.79,31.74ZM27.13,29c1.16,1.13,3.69,3.4,6.91,6.27a.07.07,0,0,0,.06,0l.08,0a.11.11,0,0,0,0-.14c-3-3.16-5.35-5.6-6.49-6.71s-3.26-3.12-6.93-6.27a.07.07,0,0,0-.06,0,.12.12,0,0,0-.08,0,.1.1,0,0,0,0,.14C23.9,25.83,26.1,28,27.13,29Zm1.34,2.67c-1-1-3.36-3-7.08-6.07a.07.07,0,0,0-.06,0,.15.15,0,0,0-.08,0,.09.09,0,0,0,0,.13c3.36,3.44,5.64,5.57,6.68,6.52s3.75,3.26,7.09,6.08a.07.07,0,0,0,.06,0,.15.15,0,0,0,.08,0,.1.1,0,0,0,0-.13C32.09,35.1,29.63,32.73,28.47,31.66Zm2-2c1.1,1.12,3.55,3.47,6.72,6.46,0,0,0,0,0,0s.06,0,.06,0a.1.1,0,0,0,0-.14c-2.89-3.24-5.19-5.74-6.29-6.88s-3.19-3.23-6.74-6.49a.1.1,0,0,0-.12,0,.12.12,0,0,0,0,.14C27.27,26.4,29.41,28.65,30.42,29.66ZM44.79,40.42a.07.07,0,0,0,.06,0,.12.12,0,0,0,0-.14l-.48-.58.5.56a.1.1,0,0,0,.07,0,.07.07,0,0,0,.06,0,.11.11,0,0,0,0-.13c-2.87-3.59-4.92-6.09-5.9-7.24C38,31.53,35.93,29.24,32.84,26c0,0,0,0-.07,0a.07.07,0,0,0-.06,0,.1.1,0,0,0,0,.14l1.49,1.73c-.49-.53-1-1.07-1.59-1.65a.1.1,0,0,0-.08,0,.06.06,0,0,0-.05,0,.09.09,0,0,0,0,.13L44.73,40.36C44.73,40.42,44.75,40.42,44.79,40.42ZM23.39,30a.07.07,0,0,0-.06,0,.13.13,0,0,0-.08,0,.1.1,0,0,0,0,.14c3.46,3.32,5.8,5.38,6.88,6.31s3.73,3.09,7.24,5.88a.07.07,0,0,0,.06,0,.15.15,0,0,0,.08,0,.09.09,0,0,0,0-.13c-3.27-3.07-5.72-5.3-6.88-6.31S27.17,33,23.39,30Zm19.44-4.56c.83,1.3,2.68,4.05,5.23,7.74a.15.15,0,0,0,.08,0,.07.07,0,0,0,.06,0s0-.07,0-.13c-2.25-3.88-3.93-6.73-4.76-8-.94-1.49-2.6-4-5.22-7.73a.1.1,0,0,0-.08,0,.07.07,0,0,0-.06,0,.1.1,0,0,0,0,.13C40.29,21.38,41.89,24,42.83,25.47Zm-7-4c.92,1.28,3,4,5.69,7.39a.1.1,0,0,0,.08,0,.07.07,0,0,0,.06,0,.11.11,0,0,0,0-.13c-2.38-3.65-4.27-6.48-5.19-7.76s-2.66-3.64-5.71-7.41a.1.1,0,0,0-.08,0,.07.07,0,0,0-.06,0,.1.1,0,0,0,0,.14C33.2,17.74,35,20.26,35.8,21.42ZM36,24.75C37,26,39.13,28.63,41.93,32A.1.1,0,0,0,42,32a.07.07,0,0,0,.06,0,.1.1,0,0,0,0-.14c-2.54-3.64-4.47-6.34-5.42-7.6s-2.78-3.59-5.9-7.23a.1.1,0,0,0-.08,0,.07.07,0,0,0-.06,0s-.06.09,0,.13C33.28,21.15,35.15,23.63,36,24.75Zm2.89-2.1c.89,1.3,2.84,4,5.48,7.56a.1.1,0,0,0,.08,0,.07.07,0,0,0,.06,0,.1.1,0,0,0,0-.13c-2.34-3.78-4.09-6.59-5-7.89S37,18.47,34.09,14.64c0,0,0,0-.07,0H34a.09.09,0,0,0,0,.14C36.25,18.66,37.91,21.2,38.91,22.65Zm4.61,13.74a.1.1,0,0,0,.08,0,.07.07,0,0,0,.06,0,.12.12,0,0,0,0-.14C41,32.68,39,30.05,38,28.84s-2.9-3.51-6.1-7.08a.1.1,0,0,0-.08,0,.07.07,0,0,0-.06,0,.12.12,0,0,0,0,.14c2.82,3.88,4.77,6.32,5.65,7.43S40.57,33,43.52,36.39Zm12.1-7.08a.11.11,0,0,0,.1.06h0s.08-.07.06-.11c-1.52-4.23-2.67-7.33-3.23-8.76C51.93,18.85,50.74,16,48.83,12a.11.11,0,0,0-.08-.06h0s-.08.08-.06.12c1.55,4.53,2.69,7.44,3.23,8.76S53.77,25.21,55.62,29.31Zm-9.93-13.8C46.38,16.94,47.94,20,50,23.8a.11.11,0,0,0,.08.06h0a.1.1,0,0,0,0-.12c-1.68-4-3-7.13-3.72-8.56-.59-1.28-2-4.07-4.27-8.3a.12.12,0,0,0-.08,0h0a.08.08,0,0,0,0,.11C43.76,11.4,45.07,14.21,45.69,15.51Zm-.4,3.33C46,20.23,47.64,23.22,49.8,27a.09.09,0,0,0,.08,0s0,0,0,0a.1.1,0,0,0,0-.12c-1.81-4-3.25-7.06-4-8.45s-2.08-4-4.51-8.18a.08.08,0,0,0-.08,0s0,0,0,0a.11.11,0,0,0,0,.12C43.27,14.78,44.64,17.56,45.29,18.84Zm7.24,6.87a.09.09,0,0,0,.08.05h0a.09.09,0,0,0,.06-.11c-1.58-4.07-2.85-7.23-3.47-8.66s-1.84-4.15-4-8.43a.11.11,0,0,0-.08-.06h0s-.07.08-.05.11c1.67,4.52,2.9,7.37,3.46,8.67S50.61,21.79,52.53,25.71Zm-1.2,10s0,0,0,0a.11.11,0,0,0,0-.13c-2.19-4.06-3.75-6.89-4.51-8.18-.9-1.54-2.5-4.17-5-7.91a.15.15,0,0,0-.08,0,.07.07,0,0,0-.06,0s0,.07,0,.13l1.15,2c-.38-.6-.81-1.22-1.25-1.9a.1.1,0,0,0-.08,0,.07.07,0,0,0-.06,0,.11.11,0,0,0,0,.13l9.54,16a.08.08,0,0,0,.08,0s0,0,0,0a.11.11,0,0,0,0-.14c-.12-.21-.23-.43-.35-.62l.37.62A.28.28,0,0,0,51.33,35.71Zm6.88-3.27h0a.09.09,0,0,0,.06-.12c-.07-.23-.15-.46-.23-.68l.25.68a.11.11,0,0,0,.1.06h0a.11.11,0,0,0,.06-.12c-1.41-4.3-2.46-7.44-3-8.85-.6-1.67-1.69-4.51-3.46-8.68a.11.11,0,0,0-.1-.06h0s-.08.08-.06.12l.79,2.13c-.27-.66-.58-1.36-.88-2.09a.11.11,0,0,0-.1-.06h0s-.08.07-.06.11l6.52,17.48A.13.13,0,0,0,58.21,32.44Zm-7.61-.82a.08.08,0,0,0,.08,0s0,0,0,0a.11.11,0,0,0,0-.13c-2-4-3.5-7-4.23-8.32s-2.22-4-4.72-8.06a.15.15,0,0,0-.08,0s0,0,0,0a.1.1,0,0,0,0,.12c2.08,4.3,3.54,7.07,4.24,8.31C46.63,24.94,48.31,27.79,50.6,31.62Zm13.18-4.78a.11.11,0,0,0,.09.08h0A.11.11,0,0,0,64,26.8c-.73-4.41-1.32-7.69-1.62-9.2s-.94-4.45-2.17-9.08c0,0,0-.08-.09-.08h0a.11.11,0,0,0-.08.12c.68,4.47,1.26,7.47,1.62,9.19C61.94,19.27,62.7,22.48,63.78,26.84Zm-4.6-6.44a.11.11,0,0,0,.1.06h0a.11.11,0,0,0,.08-.12c-.94-4.24-1.7-7.55-2.11-9.1-.36-1.38-1.21-4.36-2.72-8.93a.11.11,0,0,0-.1-.06h0a.11.11,0,0,0-.08.12c1,4.74,1.74,7.72,2.11,9.1S57.88,16.25,59.18,20.4Zm-.72,3.13a.11.11,0,0,0,.1.06h0a.08.08,0,0,0,.05-.11c-1.07-4.23-1.93-7.52-2.39-9-.4-1.36-1.33-4.32-3-8.85a.11.11,0,0,0-.1-.06h0a.08.08,0,0,0,0,.11c1.13,4.69,2,7.67,2.39,9C55.94,16.19,57,19.33,58.46,23.53Zm2.93-.8a.11.11,0,0,0,.09.08h0a.11.11,0,0,0,.08-.12c-.84-4.36-1.49-7.61-1.86-9.14s-1.07-4.42-2.43-9a.13.13,0,0,0-.1-.08h0a.11.11,0,0,0-.07.12c.84,4.74,1.52,7.77,1.85,9.16S60.2,18.54,61.39,22.73Zm4.39,7.64h0a.11.11,0,0,0,.1-.12l-.12-.74.14.74a.08.08,0,0,0,.09.08h0c.06,0,.08-.06.08-.12C65.48,25.74,65,22.45,64.74,21c-.31-1.77-.86-4.77-1.86-9.15a.11.11,0,0,0-.09-.07h0a.1.1,0,0,0-.08.11l.4,2.25c-.15-.7-.32-1.45-.5-2.23,0,0-.05-.08-.09-.08h0a.11.11,0,0,0-.08.12l3.28,18.36A.09.09,0,0,0,65.78,30.37Zm-7.37-2.15a.11.11,0,0,0,.1.06h0s.08-.08.06-.12c-1.24-4.32-2.2-7.5-2.66-8.95s-1.46-4.32-3.21-8.78a.12.12,0,0,0-.1,0h0a.08.08,0,0,0-.06.11c1.19,4.36,2.11,7.27,2.67,9C55.7,20.89,56.83,24,58.41,28.22ZM72,7.19c0-.05,0-.09-.09-.09h0c-.06,0-.1,0-.1.09-.13,4.53-.1,7.59,0,9.33,0,1.55.22,4.86.52,9.31,0,.06,0,.1.09.1h0a.09.09,0,0,0,.1-.1c.07-4.47.08-7.78,0-9.32S72.35,12,72,7.19ZM68.87,18.7a.09.09,0,0,0,.09.08h0a.09.09,0,0,0,.1-.1c-.16-4.31-.33-7.72-.46-9.33-.11-1.41-.41-4.51-1.08-9.27A.09.09,0,0,0,67.43,0h0a.09.09,0,0,0-.1.1c.12,4.82.35,7.91.46,9.33C67.92,11,68.32,14.38,68.87,18.7ZM67.6,21.64a.09.09,0,0,0,.1.08h0a.08.08,0,0,0,.08-.1c-.3-4.35-.58-7.74-.75-9.31-.16-1.41-.54-4.49-1.34-9.24,0,0,0-.07-.09-.07h0a.08.08,0,0,0-.08.09c.26,4.8.58,7.9.75,9.31C66.44,14,66.92,17.25,67.6,21.64Zm2.2-18.9a.09.09,0,0,0-.1-.08h0a.08.08,0,0,0-.09.09c0,4.82.11,7.92.2,9.33.1,1.57.38,5,.81,9.3,0,.06,0,.08.1.08h0a.09.09,0,0,0,.1-.1c0-4.36-.12-7.76-.21-9.33C70.53,10.62,70.33,7.52,69.8,2.74ZM66.72,26.25s0,.07.1.07h0a.08.08,0,0,0,.08-.09c-.45-4.46-.81-7.75-1-9.28s-.66-4.51-1.58-9.2c0,0,0-.07-.1-.07h0c-.06,0-.07.05-.07.09.39,4.51.77,7.53,1,9.28C65.36,18.58,65.92,21.83,66.72,26.25Zm14,.13a.09.09,0,0,0,.08.1h0A.11.11,0,0,0,81,26.4c.87-4.41,1.48-7.68,1.71-9.17.28-1.74.69-4.76,1.15-9.27a.09.09,0,0,0-.08-.1h0s-.07,0-.09.08c-.93,4.41-1.44,7.43-1.71,9.17C81.68,18.64,81.29,21.93,80.77,26.38Zm-2-7.54h0c.06,0,.09,0,.09-.07.62-4.32,1-7.69,1.21-9.25S80.5,5,80.68.19c0-.06,0-.1-.07-.1h0s-.1,0-.1.08c-.75,4.76-1.07,7.86-1.2,9.27-.16,1.6-.37,5-.59,9.31A.1.1,0,0,0,78.8,18.84ZM77,21.51h0a.09.09,0,0,0,.1-.08c.47-4.33.81-7.72.91-9.29s.26-4.54.31-9.32c0-.06,0-.1-.09-.1h0s-.1,0-.1.08c-.59,4.76-.83,7.85-.91,9.28s-.23,5-.34,9.33A.13.13,0,0,0,77,21.51Zm3,.3h0a.08.08,0,0,0,.09-.08c.73-4.31,1.26-7.66,1.46-9.23.18-1.41.54-4.53.86-9.29a.09.09,0,0,0-.08-.09h0a.12.12,0,0,0-.1.07C81.4,7.91,81,11,80.81,12.42c-.2,1.57-.52,5-.86,9.29C80,21.75,80,21.79,80.05,21.81Zm-6.11-11h0a.09.09,0,0,0-.1.09v2.27c0-.72-.06-1.47-.09-2.27a.09.09,0,0,0-.1-.09h0a.09.09,0,0,0-.1.09l0,18.66a.09.09,0,0,0,.1.1h0a.09.09,0,0,0,.1-.1c0-.25,0-.48,0-.73v.71a.09.09,0,0,0,.09.1h0a.09.09,0,0,0,.1-.09c.19-4.53.31-7.84.31-9.33,0-1.77,0-4.82-.2-9.33A.11.11,0,0,0,73.94,10.82Zm7.48,19.57h0a.11.11,0,0,0,.12-.08c0-.25.09-.48.15-.72l-.14.72a.11.11,0,0,0,.08.12h0a.13.13,0,0,0,.1-.08c1-4.41,1.68-7.66,2-9.13.33-1.74.84-4.76,1.45-9.23a.11.11,0,0,0-.07-.12h0A.13.13,0,0,0,85,12l-.41,2.22c.1-.69.19-1.45.29-2.24a.13.13,0,0,0-.07-.12h0a.13.13,0,0,0-.1.08L81.34,30.23A.16.16,0,0,0,81.42,30.39ZM76.06,7.05h0a.09.09,0,0,0-.1.1c-.42,4.5-.56,7.54-.62,9.3-.06,1.55-.07,4.86-.08,9.33,0,.06,0,.1.09.1h0a.09.09,0,0,0,.1-.1c.34-4.47.56-7.78.62-9.3s.15-4.55.09-9.33A.09.09,0,0,0,76.06,7.05Zm13,21.36a.1.1,0,0,0,.06.12h0a.1.1,0,0,0,.09-.06c1.64-4.19,2.81-7.29,3.32-8.72s1.46-4.29,2.79-8.92c0-.05,0-.09-.06-.11h0a.09.09,0,0,0-.09.06c-1.8,4.42-2.85,7.36-3.32,8.72S90.34,24.12,89.05,28.41Zm-.66-7.88a.1.1,0,0,0,.06.12h0a.11.11,0,0,0,.1-.06c1.36-4.12,2.4-7.37,2.83-8.89.39-1.36,1.19-4.34,2.23-9.08,0-.06,0-.09-.06-.11h0a.12.12,0,0,0-.1.05c-1.58,4.57-2.45,7.53-2.83,8.9C90.21,13,89.39,16.28,88.39,20.53ZM86.24,23h0a.1.1,0,0,0,.1-.08c1.26-4.26,2.16-7.45,2.55-9,.36-1.37,1.08-4.39,2-9.13a.11.11,0,0,0-.07-.11h0a.12.12,0,0,0-.1,0c-1.43,4.57-2.21,7.59-2.56,9s-1.1,4.84-2,9.11C86.16,22.91,86.18,23,86.24,23Zm2.84.7a.1.1,0,0,0,.06.12h0a.11.11,0,0,0,.1-.06c1.48-4.12,2.61-7.33,3.08-8.82s1.33-4.31,2.5-9a.1.1,0,0,0-.06-.12h0a.11.11,0,0,0-.1.06C93,10.34,92,13.3,91.58,14.68S90.22,19.45,89.08,23.67ZM89,32.48h0a.11.11,0,0,0,.1-.06c.1-.23.19-.46.29-.68l-.25.68a.09.09,0,0,0,.06.12h0a.11.11,0,0,0,.1-.06c1.79-4.24,3-7.21,3.58-8.62.63-1.65,1.68-4.51,3.09-8.8a.1.1,0,0,0-.06-.12h0a.11.11,0,0,0-.1.06L95,17.12c.22-.67.47-1.39.71-2.16a.1.1,0,0,0-.06-.12h0a.11.11,0,0,0-.1.06L88.92,32.36A.09.09,0,0,0,89,32.48ZM83.81,27h0a.1.1,0,0,0,.1-.08c1.13-4.35,1.95-7.58,2.28-9,.4-1.72,1-4.7,1.73-9.17a.11.11,0,0,0-.08-.12h0a.1.1,0,0,0-.09.08c-1.2,4.35-1.9,7.33-2.29,9-.33,1.51-.94,4.76-1.73,9.17A.11.11,0,0,0,83.81,27ZM97,32c2.37-3.83,4.08-6.67,4.84-8s2.22-4,4.36-8.25a.13.13,0,0,0,0-.14l0,0a.1.1,0,0,0-.08,0c-2.43,3.83-4,6.46-4.84,8-.76,1.33-2.29,4.27-4.34,8.25a.11.11,0,0,0,0,.13.07.07,0,0,1,0,0Zm.6-8a.1.1,0,0,0,0,.12h0s0,0,.07-.06c2.08-3.81,3.68-6.8,4.4-8.23.62-1.26,2-4,3.82-8.53a.1.1,0,0,0,0-.12h0s-.06,0-.08.06c-2.35,4.18-3.75,7-4.39,8.23C100.71,17,99.33,20,97.58,24ZM95,25.91A.09.09,0,0,0,95,26h0s.07,0,.07-.06c2-3.88,3.49-6.94,4.13-8.37s1.85-4.16,3.58-8.62a.09.09,0,0,0,0-.12h0s-.08,0-.08.06c-2.22,4.25-3.54,7.07-4.13,8.37S96.62,21.85,95,25.91Zm2.73,1.33a.09.09,0,0,0,0,.11.07.07,0,0,1,0,0,.1.1,0,0,0,.08,0c2.2-3.77,3.87-6.72,4.61-8.12s2.08-4,4.09-8.39a.09.09,0,0,0,0-.11.07.07,0,0,1,0,0,.1.1,0,0,0-.08,0c-2.47,4.11-4,6.86-4.61,8.12S99.57,23.29,97.71,27.24Zm-5.84,2.17a.09.09,0,0,0,.06.11h0s.08,0,.08-.05c1.89-4.06,3.27-7.08,3.85-8.49s1.74-4.22,3.36-8.72a.1.1,0,0,0-.06-.12h0s-.08,0-.08.06c-2,4.08-3.19,6.88-3.87,8.51C94.64,22.1,93.45,25.19,91.87,29.41Zm12,7.44a.07.07,0,0,0,.06,0l.07,0c3-3.32,5.19-5.81,6.18-7s2.89-3.51,5.76-7.36c0,0,0-.09,0-.13a.07.07,0,0,0-.06,0,.15.15,0,0,0-.08,0c-3.07,3.32-5.07,5.63-6.19,7-1,1.19-3,3.8-5.75,7.34A.13.13,0,0,0,103.84,36.85ZM106,29.13a.14.14,0,0,0,0,.14.07.07,0,0,0,.06,0,.15.15,0,0,0,.08,0c2.74-3.38,4.86-6,5.79-7.32s2.66-3.67,5.28-7.69a.12.12,0,0,0,0-.14.06.06,0,0,0,0,0,.15.15,0,0,0-.08,0c-3.09,3.71-5,6.18-5.81,7.32C110.34,22.74,108.42,25.54,106,29.13ZM103.1,30.5a.12.12,0,0,0,0,.14.07.07,0,0,0,.06,0,.1.1,0,0,0,.07,0c2.64-3.48,4.68-6.22,5.58-7.5s2.56-3.73,5.07-7.82a.12.12,0,0,0,0-.14.07.07,0,0,0-.06,0,.13.13,0,0,0-.07,0c-3,3.79-4.76,6.32-5.58,7.5S105.43,26.81,103.1,30.5Zm2.59,1.92c2.89-3.38,5-5.91,6-7.14s2.77-3.6,5.51-7.54a.12.12,0,0,0,0-.13.07.07,0,0,0-.06,0,.15.15,0,0,0-.08,0c-3.16,3.59-5.11,6-6,7.16s-3,4-5.52,7.52c0,0,0,.09,0,.13a.07.07,0,0,0,.06,0ZM96.19,36a.07.07,0,0,0,.06,0,.1.1,0,0,0,.08,0c2.49-3.79,4.29-6.57,5.07-7.84.93-1.51,2.49-4.16,4.63-8.12a.13.13,0,0,0,0-.14l0,0a.1.1,0,0,0-.08,0l-1.18,1.93c.35-.61.7-1.29,1.09-2,0,0,0-.09,0-.13a.07.07,0,0,1,0,0,.1.1,0,0,0-.08,0l-9.6,16a.11.11,0,0,0,0,.14.07.07,0,0,0,.06,0s0,0,.07,0c.14-.22.28-.41.39-.6l-.37.62C96.14,35.9,96.14,36,96.19,36Zm3.22-2.58a.1.1,0,0,0,0,.13.07.07,0,0,0,.06,0,.1.1,0,0,0,.08,0c2.6-3.67,4.49-6.37,5.32-7.67s2.47-3.82,4.86-8a.11.11,0,0,0,0-.14.07.07,0,0,0-.06,0,.1.1,0,0,0-.07,0c-2.84,3.89-4.55,6.48-5.33,7.67S101.71,29.53,99.41,33.4Zm10.49,9.47a.1.1,0,0,0,.08,0,.07.07,0,0,0,.06,0c3.53-2.74,6.12-4.81,7.31-5.79,1.36-1.14,3.66-3.15,7-6.21a.1.1,0,0,0,0-.14.1.1,0,0,0-.07,0,.07.07,0,0,0-.06,0c-3.61,2.74-6,4.67-7.31,5.79s-3.65,3.2-7,6.21A.1.1,0,0,0,109.9,42.87Zm3.48-7.23a.09.09,0,0,0,0,.13.1.1,0,0,0,.08,0,.07.07,0,0,0,.06,0c3.28-2.83,5.84-5.09,7-6.17s3.26-3.11,6.56-6.64a.1.1,0,0,0,0-.14.1.1,0,0,0-.08,0,.06.06,0,0,0,0,0c-3.73,3.13-6,5.21-7,6.18C118.78,30.12,116.39,32.53,113.38,35.64Zm3.29-6c-1.11,1.12-3.44,3.62-6.39,6.82a.11.11,0,0,0,0,.14.1.1,0,0,0,.12,0c3.2-3,5.68-5.27,6.81-6.39s3.16-3.21,6.39-6.82a.09.09,0,0,0,0-.13.1.1,0,0,0-.12,0C119.89,26.5,117.66,28.66,116.67,29.68Zm9.69-3.44a.07.07,0,0,0-.06,0c-3.76,3-6.11,5-7.16,6s-3.63,3.39-6.75,6.42a.1.1,0,0,0,0,.14.1.1,0,0,0,.08,0,.06.06,0,0,0,0,0c3.44-2.82,6-4.94,7.16-6s3.36-3,6.77-6.43a.1.1,0,0,0,0-.14Zm-23.73,14.4C105.75,37.36,108,35,109,33.83c1.19-1.32,3.19-3.63,6-7.15a.1.1,0,0,0,0-.14h0a.13.13,0,0,0-.08,0l-1.5,1.7,1.42-1.77a.1.1,0,0,0,0-.14.07.07,0,0,0-.06,0,.13.13,0,0,0-.07,0l-12.31,14a.1.1,0,0,0,0,.14.07.07,0,0,0,.06,0,.13.13,0,0,0,.07,0c.18-.2.35-.37.53-.54l-.51.56a.09.09,0,0,0,0,.13.07.07,0,0,0,.06,0C102.59,40.66,102.61,40.66,102.63,40.64Zm9.7-8.95c-1,1.12-3.24,3.59-6.19,7a.09.09,0,0,0,0,.13s0,0,0,0,.06,0,.06,0c3.18-3.1,5.53-5.46,6.6-6.6s3.28-3.53,6.21-7a.1.1,0,0,0,0-.14.07.07,0,0,0-.06,0,.06.06,0,0,0,0,0C115.47,28.4,113.32,30.64,112.33,31.69Zm2.43,18.16a.08.08,0,0,0,.08,0s0,0,0,0c4-2.06,6.9-3.62,8.23-4.39s3.94-2.3,8-4.88a.11.11,0,0,0,0-.13.08.08,0,0,0-.08,0s0,0,0,0c-4,2-6.7,3.5-8.23,4.39-1.34.77-4.15,2.48-8,4.87A.11.11,0,0,0,114.76,49.85Zm4.72-6.49s-.06.09,0,.13a.15.15,0,0,0,.08,0s0,0,0,0c3.74-2.21,6.65-4,8-4.83s3.77-2.49,7.64-5.37a.08.08,0,0,0,0-.13.13.13,0,0,0-.07,0s0,0,0,0c-4.19,2.39-6.81,4.07-8,4.84S123,40.83,119.48,43.36Zm-3.19.28a.1.1,0,0,0,0,.14.08.08,0,0,0,.07,0h.06c3.7-2.34,6.55-4.19,7.83-5.08s3.73-2.62,7.49-5.57a.12.12,0,0,0,0-.14.1.1,0,0,0-.08,0h-.06c-4.09,2.51-6.66,4.27-7.83,5.08S119.78,41,116.29,43.64ZM134,36.49a.15.15,0,0,0-.08,0s0,0,0,0c-4.24,2.27-6.9,3.87-8.12,4.6s-4.11,2.64-7.8,5.11a.09.09,0,0,0,0,.14.09.09,0,0,0,.08,0h0c3.82-2.12,6.78-3.8,8.12-4.61s3.88-2.41,7.82-5.13A.09.09,0,0,0,134,36.49Zm-11.32-1.66a.12.12,0,0,0,0-.14.15.15,0,0,0-.08,0h-.06l-1.78,1.41c.54-.46,1.12-1,1.72-1.5a.12.12,0,0,0,0-.14.1.1,0,0,0-.07,0,.07.07,0,0,0-.06,0L107.8,46a.11.11,0,0,0,0,.13.1.1,0,0,0,.08,0,.07.07,0,0,0,.06,0c.19-.15.4-.29.6-.44l-.58.46a.12.12,0,0,0,0,.14s0,0,.07,0a.07.07,0,0,0,.06,0c3.73-2.72,6.3-4.65,7.49-5.58C116.92,39.71,119.28,37.78,122.68,34.83Zm4.28-.71a.11.11,0,0,0,0-.13.1.1,0,0,0-.08,0,.07.07,0,0,0-.06,0c-4,2.64-6.51,4.47-7.68,5.32s-3.84,3-7.33,5.77a.12.12,0,0,0,0,.14.1.1,0,0,0,.08,0,.07.07,0,0,0,.06,0c3.7-2.53,6.43-4.42,7.67-5.33C121,38.85,123.45,37,127,34.12ZM118.3,57.58a.11.11,0,0,0,.1.06h0c4.28-1.32,7.44-2.32,8.89-2.84,1.67-.58,4.53-1.63,8.72-3.37,0,0,.08-.07.06-.11a.11.11,0,0,0-.1-.06h0c-4.34,1.29-7.22,2.25-8.89,2.84-1.45.52-4.55,1.71-8.7,3.37C118.3,57.47,118.28,57.52,118.3,57.58ZM124.1,52a.1.1,0,0,0,.06.18h0c4.09-1.5,7.27-2.71,8.72-3.33s4.13-1.77,8.49-3.89a.09.09,0,0,0,0-.11.11.11,0,0,0-.1-.06h0c-4.53,1.59-7.42,2.77-8.72,3.32C131.14,48.77,128,50.17,124.1,52Zm-3.19-.3a.1.1,0,0,0,0,.12.11.11,0,0,0,.08.06h0c4.05-1.64,7.19-3,8.62-3.58s4.13-1.91,8.37-4.14a.1.1,0,0,0,0-.12.09.09,0,0,0-.08,0h0c-4.5,1.75-7.35,3-8.63,3.58S124.81,49.76,120.91,51.74Zm18.71-3.86a.11.11,0,0,0-.1-.06h0c-4.59,1.48-7.49,2.56-8.81,3.08s-4.59,1.88-8.61,3.63c0,0-.07.08,0,.12a.1.1,0,0,0,.09.06h0c4.13-1.38,7.34-2.52,8.82-3.08,1.33-.52,4.24-1.67,8.6-3.63A.09.09,0,0,0,139.62,47.88Zm-27.46,5a.11.11,0,0,0,.08.06l0,0c4.17-2,7.06-3.45,8.38-4.14,1.57-.83,4.26-2.29,8.12-4.61,0,0,.06-.07,0-.13a.11.11,0,0,0-.08-.06s0,0,0,0l-2,1.08c.62-.37,1.28-.75,2-1.18a.1.1,0,0,0,0-.13.07.07,0,0,0-.07,0s0,0,0,0l-16.44,8.82a.11.11,0,0,0,0,.14.09.09,0,0,0,.08,0h0a5.38,5.38,0,0,1,.64-.31l-.62.32C112.16,52.8,112.14,52.86,112.16,52.92Zm20.9,1.22a.11.11,0,0,0-.1-.06h0L115.18,59.8a.09.09,0,0,0-.06.12.12.12,0,0,0,.1,0h0c.23-.07.48-.13.71-.21l-.69.23a.09.09,0,0,0-.06.12.11.11,0,0,0,.09.06h0c4.36-1.21,7.56-2.13,9-2.57,1.69-.52,4.59-1.48,8.82-3.06.06,0,.08-.07.06-.11a.11.11,0,0,0-.1-.06h0l-2.17.69,2.13-.79A.1.1,0,0,0,133.06,54.14Zm.05-9.86a.09.09,0,0,0,0-.11.1.1,0,0,0-.07-.06h0c-4.17,1.77-6.94,3.08-8.51,3.85-1.38.67-4.3,2.23-8.26,4.35a.11.11,0,0,0,0,.14.11.11,0,0,0,.08.06h0c4.09-1.81,7.11-3.18,8.51-3.85C126.44,47.87,129.15,46.5,133.11,44.28ZM120.39,65.81a.09.09,0,0,0,.1.08h0c4.45-.53,7.74-1,9.25-1.19,1.74-.27,4.75-.8,9.18-1.76a.11.11,0,0,0,.08-.12s0-.07-.1-.07h0c-4.76.51-7.84,1-9.25,1.19s-4.77.86-9.16,1.76C120.41,65.72,120.37,65.78,120.39,65.81Zm6.71-4.39a.11.11,0,0,0-.08.11.13.13,0,0,0,.1.08h0c4.28-.74,7.63-1.35,9.18-1.7,1.39-.3,4.41-1,9-2.32.06,0,.08-.05.06-.11a.13.13,0,0,0-.1-.08h0c-4.78.76-7.8,1.39-9.17,1.7C134.58,59.44,131.28,60.29,127.1,61.42Zm-3.1-.88a.09.09,0,0,0,0,.12.11.11,0,0,0,.09.07h0c4.28-.88,7.59-1.6,9.12-2s4.4-1.13,9-2.57c0,0,.08-.06.06-.11a.13.13,0,0,0-.1-.08h0c-4.72.9-7.74,1.62-9.12,2C131.44,58.37,128.19,59.31,124,60.54Zm19.11-.44A.14.14,0,0,0,143,60h0c-4.78.62-7.82,1.18-9.21,1.44s-4.86,1-9.11,2a.11.11,0,0,0-.07.12.1.1,0,0,0,.09.08h0c4.32-.63,7.69-1.16,9.22-1.45s4.43-.88,9.1-2A.16.16,0,0,0,143.11,60.1Zm-7.58,5a.09.09,0,0,0-.1-.08h0l-18.49,2.47c-.06,0-.1.06-.08.1s0,.07.1.07h0c.25,0,.5,0,.75-.07l-.75.09c-.06,0-.1.06-.08.1s0,.08.1.08h0c4.59-.42,7.8-.74,9.29-.93,1.76-.22,4.79-.64,9.22-1.44.06,0,.08-.06.08-.12a.09.09,0,0,0-.1-.08h0l-2.26.29,2.24-.4C135.51,65.18,135.53,65.14,135.53,65.08Zm1.8-9.67s.08-.08.06-.12,0-.08-.09-.08h0c-4.42,1-7.36,1.78-9.07,2.26-1.47.42-4.65,1.42-8.91,2.81-.06,0-.08,0-.06.11a.13.13,0,0,0,.1.08h0c4.36-1,7.57-1.86,9-2.26C130.13,57.73,133,56.87,137.33,55.41Zm2.49,19.28a.09.09,0,0,0-.1-.1c-4.76-.34-7.89-.42-9.32-.46h-1c-1.8,0-4.69,0-8.36.1a.1.1,0,1,0,0,.19c4.49.26,7.8.43,9.33.47.68,0,1.42,0,2.21,0,2.13,0,4.53,0,7.12-.11A.09.09,0,0,0,139.82,74.69ZM147,70.47l-3.77,0c-2.65,0-4.49,0-5.56.08-1.6.08-5,.32-9.31.68a.09.09,0,0,0-.1.09.09.09,0,0,0,.1.1h2.75c3,0,5.36,0,6.58-.06,1.41-.06,4.51-.2,9.31-.68.06,0,.1,0,.08-.09S147.07,70.47,147,70.47Zm-2.9-1.77a.09.09,0,0,0,.08-.09.09.09,0,0,0-.09-.1h0c-4.81,0-7.9.23-9.34.32s-5,.45-9.29.93c-.06,0-.1,0-.08.09a.09.09,0,0,0,.1.1h0c4.36-.1,7.76-.23,9.33-.32C136.23,69.53,139.33,69.31,144.11,68.7Zm.25,4a.09.09,0,0,0-.1-.1c-3.72-.16-6.37-.21-8-.21h-1.37c-1.55,0-5,.17-9.33.39-.06,0-.1,0-.1.09a.09.09,0,0,0,.1.1c4,.13,7.14.21,8.88.22h.45c1.41,0,4.51-.07,9.33-.38C144.32,72.81,144.36,72.77,144.36,72.73Zm-8.45,3.65a.08.08,0,0,0,.09-.09c0-.06,0-.1-.09-.1l-18.64-.86h0a.09.09,0,0,0-.1.1.09.09,0,0,0,.1.09l.77.06-.75,0h0a.1.1,0,1,0,0,.2c4.51.4,7.82.66,9.31.74,1.72.1,4.68.2,9.05.21h.27c.06,0,.1,0,.1-.09a.09.09,0,0,0-.09-.1l-2.29-.12h2.27Zm3.6-9.3a.08.08,0,0,0,.08-.09c0-.06,0-.08-.1-.08h0c-4.8.2-7.9.48-9.31.61s-4.82.57-9.26,1.18c0,0-.07.06-.07.1s0,.07.09.07h0c4.48-.26,7.79-.48,9.32-.61C132,68.09,135,67.75,139.51,67.08Zm-1.07,19.49s.07,0,.09-.07a.11.11,0,0,0-.07-.12c-4.4-1.13-7.38-1.78-9.1-2.11-1.51-.3-4.76-.85-9.19-1.58h0s-.07,0-.09.08a.11.11,0,0,0,.07.12c4.39,1,7.61,1.82,9.1,2.11,1.72.35,4.72.92,9.21,1.57Zm7.92-3c-4.7-.94-7.78-1.41-9.19-1.61-1.57-.22-4.95-.57-9.29-1h0s-.1,0-.1.08a.11.11,0,0,0,.08.11c4.28.81,7.62,1.4,9.19,1.61,1.39.2,4.47.6,9.29,1h0s.1,0,.1-.08A.14.14,0,0,0,146.36,83.61Zm-2.55-2.23h0a.09.09,0,0,0,.1-.08c0-.06,0-.09-.08-.09-4.76-.81-7.84-1.19-9.25-1.34-1.57-.18-4.88-.44-9.31-.74h0a.07.07,0,0,0-.09.07c0,.06,0,.1.07.1,4.32.67,7.68,1.16,9.23,1.34S139,81.12,143.81,81.38Zm-.57,4.06a.14.14,0,0,0,.1-.07.11.11,0,0,0-.08-.12c-4.7-1.08-7.76-1.63-9.15-1.86-1.55-.26-4.92-.73-9.25-1.28h0a.13.13,0,0,0-.1.08.11.11,0,0,0,.08.12c4.35.94,7.6,1.61,9.15,1.86s4.47.75,9.27,1.28Zm-8.83,2s.07,0,.09-.08,0-.09-.07-.11l-18.19-4.17h0a.09.09,0,0,0-.09.08s0,.09.07.11c.23.06.47.12.7.2l-.7-.16h0s-.07,0-.09.08a.09.09,0,0,0,0,.11c4.36,1.2,7.57,2,9,2.39,1.72.41,4.72,1.06,9.15,1.88h0a.13.13,0,0,0,.1-.08s0-.09-.08-.11l-2.21-.51c.7.1,1.45.23,2.27.37Zm5.17-8.5h0c.06,0,.09,0,.09-.1a.09.09,0,0,0-.07-.1c-4.76-.65-7.86-.93-9.27-1s-4.84-.31-9.33-.49h0c-.06,0-.1,0-.1.09a.09.09,0,0,0,.08.1c4.45.55,7.74.91,9.27,1S134.8,78.82,139.58,79Zm-13.05,15.1c-1.41-.56-4.52-1.69-8.78-3.2h0a.09.09,0,0,0-.09.06.09.09,0,0,0,0,.12c4.1,1.81,7.14,3.13,8.57,3.7S130.47,96.4,135,98h0a.1.1,0,0,0,.09-.06.09.09,0,0,0-.05-.12C131,95.9,128.17,94.73,126.53,94.07Zm16.84,2.39c-4.47-1.78-7.41-2.79-8.77-3.24s-4.77-1.46-8.95-2.63h0a.1.1,0,0,0-.1,0,.08.08,0,0,0,.06.12c4,1.54,7.23,2.73,8.76,3.24,1.35.44,4.31,1.38,9,2.63h0a.11.11,0,0,0,.09-.06A.08.08,0,0,0,143.37,96.46Zm-20-8c4.12,1.42,7.35,2.5,8.86,3,1.35.41,4.33,1.26,9,2.38h0a.1.1,0,0,0,.1-.08s0-.09-.06-.11c-4.51-1.64-7.48-2.56-8.86-3s-4.7-1.29-9-2.38h0a.1.1,0,0,0-.1.07S123.33,88.43,123.39,88.45ZM140,97.53c-4.39-1.89-7.31-3-8.66-3.46s-4.7-1.6-8.88-2.91h0a.1.1,0,0,0-.09.06.08.08,0,0,0,.05.11c4,1.68,7.2,2.94,8.67,3.47s4.27,1.52,8.87,2.91h0a.11.11,0,0,0,.1-.06A.12.12,0,0,0,140,97.53Zm-9.1.58a.11.11,0,0,0,.1-.06.08.08,0,0,0-.06-.11l-17.15-7.37h0a.1.1,0,0,0,0,.18l.65.31-.65-.29h0a.11.11,0,0,0-.1.06.09.09,0,0,0,0,.11c4.15,2,7.07,3.37,8.45,4,1.64.72,4.46,1.91,8.66,3.49h0a.11.11,0,0,0,.1-.06.09.09,0,0,0-.06-.11l-2.09-.92c.68.25,1.37.53,2.13.8Zm6.6-7.46h0s.08,0,.1-.07a.1.1,0,0,0-.06-.12c-4.54-1.48-7.56-2.32-8.93-2.67s-4.68-1.16-9.1-2.16h0a.13.13,0,0,0-.1.08.1.1,0,0,0,.06.12c4.27,1.32,7.44,2.28,8.93,2.67C130.14,89,133.08,89.71,137.53,90.65ZM122,103.2c-1.3-.82-4.16-2.49-8.06-4.73l0,0a.1.1,0,0,0-.08,0,.12.12,0,0,0,0,.14c3.69,2.52,6.45,4.35,7.77,5.19,1.49.93,4.1,2.5,8.06,4.72l0,0a.07.07,0,0,0,.07,0,.14.14,0,0,0,0-.14C125.82,105.65,123.2,104,122,103.2Zm8.11.62c-1.4-.76-4.43-2.3-8.34-4.21h0s-.06,0-.08.06a.13.13,0,0,0,0,.14c3.71,2.25,6.63,4,8,4.76,1.23.68,4,2.14,8.33,4.2h0a.07.07,0,0,0,.08,0,.16.16,0,0,0,0-.14C134,106,131.32,104.5,130.09,103.82Zm-2-2.21c1.26.64,4,2,8.45,4h0s.07,0,.07-.06a.11.11,0,0,0,0-.12c-4.16-2.43-6.9-3.87-8.18-4.51s-4.39-2.12-8.45-4h0s-.08,0-.08.06a.14.14,0,0,0,0,.13C123.77,99.29,126.67,100.89,128.08,101.61ZM126.74,104c-1.36-.78-4.33-2.41-8.2-4.45a.07.07,0,0,1,0,0,.07.07,0,0,0-.07,0,.1.1,0,0,0,0,.13c3.66,2.35,6.54,4.18,7.91,5s3.94,2.27,8.19,4.45c0,0,0,0,0,0a.1.1,0,0,0,.08,0,.09.09,0,0,0,0-.13C130.64,106.37,128,104.76,126.74,104Zm6.68-2.23h0s.08,0,.08,0a.1.1,0,0,0,0-.12c-4-2.16-6.73-3.5-8.31-4.24-1.4-.66-4.43-2-8.55-3.74h0s-.08,0-.08.06a.12.12,0,0,0,0,.13c4,2.08,6.94,3.6,8.32,4.24S129,100,133.42,101.81Zm-17.56,9.56c-1.14-1-3.65-3.19-7.09-6.08a.07.07,0,0,0-.06,0,.1.1,0,0,0-.07,0,.11.11,0,0,0,0,.14c3.19,3.12,5.57,5.43,6.72,6.48,1.3,1.18,3.58,3.2,7.09,6.08a.07.07,0,0,0,.06,0,.15.15,0,0,0,.08,0,.1.1,0,0,0,0-.14C119.39,114.63,117.17,112.53,115.86,111.37Zm7.85,2c-1.25-1-4-3-7.44-5.63,0,0,0,0,0,0a.15.15,0,0,0-.08,0s0,.09,0,.13c3.24,2.88,5.81,5.11,7,6.12s3.53,2.81,7.46,5.63c0,0,0,0,.05,0a.15.15,0,0,0,.08,0s0-.09,0-.13C127.21,116.3,124.83,114.31,123.71,113.42Zm-1.56-2.54c1.12.88,3.61,2.72,7.59,5.42a.07.07,0,0,0,.06,0,.15.15,0,0,0,.08,0s0-.09,0-.13c-3.65-3.13-6.1-5-7.24-5.91s-4-2.91-7.6-5.42c0,0,0,0,0,0a.15.15,0,0,0-.08,0,.1.1,0,0,0,0,.14C118.33,107.83,120.9,109.93,122.15,110.88Zm-1.77,2.17c-1.17-1-3.76-3.09-7.26-5.85a.07.07,0,0,0-.06,0,.13.13,0,0,0-.07,0,.09.09,0,0,0,0,.13c3.18,3,5.69,5.28,6.87,6.31s3.46,2.94,7.26,5.87a.07.07,0,0,0,.06,0l.08,0a.1.1,0,0,0,0-.14C123.8,116,121.47,114,120.38,113.05Zm-2.89-9.83c1.47,1,4,2.67,7.88,5l0,0a.1.1,0,0,0,.08,0,.12.12,0,0,0,0-.14l-1.89-1.26c.61.37,1.25.76,2,1.17l.06,0a.1.1,0,0,0,.07,0,.12.12,0,0,0,0-.14L110.11,97.48a.07.07,0,0,0-.06,0,.09.09,0,0,0-.06.17l.62.45-.62-.43a.07.07,0,0,0-.06,0,.07.07,0,0,0-.07,0s0,.09,0,.13C113.62,100.52,116.25,102.39,117.49,103.22Zm-12.3.4a.06.06,0,0,0,0,0s-.06,0-.06,0a.09.09,0,0,0,0,.13l.54.57-.56-.55a.07.07,0,0,0-.06,0s-.06,0-.06,0a.1.1,0,0,0,0,.14c3.19,3.32,5.45,5.63,6.53,6.67,1.25,1.23,3.47,3.32,6.89,6.31a.07.07,0,0,0,.06,0,.15.15,0,0,0,.08,0,.09.09,0,0,0,0-.13l-1.64-1.59c.54.46,1.1,1,1.72,1.49,0,0,0,0,0,0a.15.15,0,0,0,.08,0,.09.09,0,0,0,0-.13Zm14.44,3.21c1.16.83,3.69,2.62,7.74,5.23a.07.07,0,0,0,.06,0,.1.1,0,0,0,.08,0,.1.1,0,0,0,0-.14c-3.51-2.81-6-4.64-7.42-5.67-1.25-.89-4-2.76-7.75-5.21a.06.06,0,0,0,0,0,.1.1,0,0,0-.08,0,.1.1,0,0,0,0,.14C115.76,103.94,118.39,106,119.63,106.83Z"/><path class="cls-2" d="M76,62.78l.74-.91H77L78.12,63v.4H73.86v.27l0,1.9c0,1-.5,1.48-2.06,1.52,0-.49-.27-.75-1.49-1.07l.09-.37a13.3,13.3,0,0,0,1.9.16c.46,0,.51-.11.51-.5V63.33l-8.37,0-1.15.1-.19-.76,1.34.1,8.37,0v-.09a2.19,2.19,0,0,0-.17-1.15l.08-.1c1.65.28,1.7.32,1.7.51s-.21.25-.59.31v.53Zm-3.88-7h2.6l.56-.6h.23c.87.64,1,.79,1,.94s-.12.26-.61.5v1.87l.07,3.1-.17.16-.9,0v-.57l-8.61,0v.5l-.16.17-.89,0,.09-3.3V56.77a4.14,4.14,0,0,0-.25-1.6l.1-.1c.51.23.92.45,1.36.69h2.08a2.11,2.11,0,0,0,0-.36v-1H65l-1.15.09-.19-.75,1.34.1h3.31a1.65,1.65,0,0,1-.29-.44,3.48,3.48,0,0,0-1.11-1.27l.24-.29c1.38.49,2,1,2,1.54a.62.62,0,0,1-.2.46H71.7a6.82,6.82,0,0,0,.51-1.13,3.43,3.43,0,0,0,.19-.87l.11-.06c1.28.48,1.59.62,1.59.82s-.23.28-.77.28a11,11,0,0,1-1,1h3.27l.79-1h.23L77.73,54v.39H72.16Zm2.8.56h-2.8v1.12c0,.31.08.36.51.36s.62-.06.74-.26a3.5,3.5,0,0,0,.31-.9l.39.07v.72c0,.11.05.18.22.24s.26.17.25.32-.14.32-.39.42a4.74,4.74,0,0,1-1.52.16c-1.23,0-1.44-.23-1.44-1l0-1.23v0H69.58c-.23,1.29-1,2.11-2.81,2.68l-.19-.35a3,3,0,0,0,2-2.33H66.35v2.92l8.6,0Zm0,3.48-8.6,0v.84l8.61,0ZM67,63.48c1.55.45,2.47,1.06,2.47,1.76a.56.56,0,0,1-.56.6c-.25,0-.41-.13-.66-.57a4.07,4.07,0,0,0-1.5-1.48Zm2.64-9.07v1.05a1.62,1.62,0,0,1,0,.31h1.61V54.41Z"/><path class="cls-2" d="M63.93,70.44a4.6,4.6,0,0,1,1.22.74,1.69,1.69,0,0,1,.69,1.26,3.1,3.1,0,0,1,0,.56,16.31,16.31,0,0,0-.17,2.08,10.52,10.52,0,0,0,.26,2.75,4.12,4.12,0,0,0,.83,1.51c.17.18.28.25.35.25s.11,0,.24-.26.4-.67.89-1.44A14.74,14.74,0,0,1,69.71,76l.35.26c-.45.65-.94,1.41-1.29,2a7.65,7.65,0,0,0-.61,1.42,2.67,2.67,0,0,0-.08.59,1.29,1.29,0,0,0,.08.41,1.29,1.29,0,0,1,.06.36.36.36,0,0,1-.41.38,3,3,0,0,1-1.88-1.35,5.44,5.44,0,0,1-1-2,10.78,10.78,0,0,1-.24-2.38c0-1.31,0-2.42,0-2.75a2.37,2.37,0,0,0-1-2.3Zm9.28,2.66a4.59,4.59,0,0,1,4.2,3.29,3.72,3.72,0,0,1,.18,1c0,.51-.28.9-.72.9s-.56-.26-.69-1.15a4.16,4.16,0,0,0-3.1-3.69Z"/><path class="cls-2" d="M81.69,50.8l.22,0a.85.85,0,0,1,.4.1.33.33,0,0,1,.19.26.57.57,0,0,1,0,.13,1.24,1.24,0,0,0,0,.27,2.62,2.62,0,0,0,.19,1c.38-.21.82-.4,1.21-.6.08,0,.1-.08.1-.1s-.08-.11-.25-.16l.05-.12a.88.88,0,0,1,.55.19c.13.11.18.2.18.26a.15.15,0,0,1-.13.14l-.34.11a12,12,0,0,0-1.44.65c-.56.31-.89.63-.89,1a.53.53,0,0,0,.25.47,1.82,1.82,0,0,0,1,.23,5.26,5.26,0,0,0,1-.1l.23,0c.17,0,.34.11.34.22s-.12.17-.28.19a10.13,10.13,0,0,1-1.07,0,2.17,2.17,0,0,1-1.45-.35.86.86,0,0,1-.32-.66c0-.46.32-.84,1-1.26a3.2,3.2,0,0,1-.31-1.38c0-.14,0-.2-.11-.25a.65.65,0,0,0-.31-.11Z"/><path class="cls-2" d="M83.23,60.66a1.29,1.29,0,0,0,.57.14.79.79,0,0,0,.73-.87.65.65,0,0,0-.72-.68,3.41,3.41,0,0,0-1.54.53c0,.2,0,.37,0,.5s0,.26,0,.36a.69.69,0,0,1-.11.48.43.43,0,0,1-.34.18s-.08,0-.13-.07l-.07-.09a1.09,1.09,0,0,0-.45-.19c-.19-.05-.25-.16-.25-.26,0-.29.55-.71,1-1,0-.39,0-.78,0-1.16a1.87,1.87,0,0,1-.54.09.54.54,0,0,1-.47-.36l.09-.08a.52.52,0,0,0,.39.17,1.66,1.66,0,0,0,.53-.11c0-.21,0-.43,0-.67s-.09-.31-.34-.37V57.1a.62.62,0,0,1,.19,0,.83.83,0,0,1,.39.09.26.26,0,0,1,.15.2.45.45,0,0,1,0,.16,1,1,0,0,0,0,.22c0,.11,0,.25,0,.39a2.46,2.46,0,0,0,.4-.19.59.59,0,0,1,.24-.09c.13,0,.23.07.23.14s0,.12-.22.2-.44.18-.66.25c0,.41,0,.78,0,1.08A3.67,3.67,0,0,1,83.89,59a.91.91,0,0,1,1,.94,1.06,1.06,0,0,1-1,1.11,1,1,0,0,1-.73-.29ZM82,60c-.38.25-.72.54-.72.71s.08.13.21.18a.88.88,0,0,0,.32.08c.12,0,.19-.09.19-.43Zm1.78-2.16a1.42,1.42,0,0,1,1,.18c.19.12.3.26.3.4s0,.15-.13.15l-.1,0-.1,0a.44.44,0,0,0-.16,0,2.51,2.51,0,0,0-.37.15l-.08-.11c.13-.1.24-.16.35-.25s.06-.05.06-.08,0,0-.07-.09a1.49,1.49,0,0,0-.69-.23Z"/><path class="cls-2" d="M81.66,63.48l.21,0a.82.82,0,0,1,.4.1.32.32,0,0,1,.2.26.34.34,0,0,1,0,.14,1.14,1.14,0,0,0,0,.26,2.4,2.4,0,0,0,.19,1c.38-.21.82-.39,1.21-.6.08,0,.09-.07.09-.1s-.07-.1-.24-.16l0-.11a.83.83,0,0,1,.54.19c.14.1.19.19.19.25s0,.12-.13.15a2.67,2.67,0,0,0-.34.11,12,12,0,0,0-1.44.64c-.56.32-.89.64-.89,1a.56.56,0,0,0,.25.48,1.9,1.9,0,0,0,1,.22,5.16,5.16,0,0,0,1-.1l.24,0c.17,0,.33.11.33.23s-.11.17-.28.19a10,10,0,0,1-1.07,0,2.14,2.14,0,0,1-1.44-.36.82.82,0,0,1-.32-.65c0-.46.31-.85,1-1.26A3.25,3.25,0,0,1,82.06,64c0-.13,0-.2-.11-.25a.7.7,0,0,0-.31-.1Z"/><path class="cls-2" d="M71.56,88.77a1.06,1.06,0,1,1,1.07-1.06A1.06,1.06,0,0,1,71.56,88.77Z"/><path class="cls-2" d="M71.54,93.4a1.05,1.05,0,0,1-1-1.07,1,1,0,0,1,1-1,1,1,0,0,1,1.06,1A1.06,1.06,0,0,1,71.54,93.4Z"/><path class="cls-2" d="M71.53,98A1.06,1.06,0,1,1,72.6,97,1.06,1.06,0,0,1,71.53,98Z"/></g></g></svg>