<svg xmlns="http://www.w3.org/2000/svg" viewBox="0 0 80.55 266.76"><defs><style>.cls-1{fill:#e70434;}</style></defs><g id="Layer_2" data-name="Layer 2"><g id="back"><path class="cls-1" d="M45.35,38.21C36.51,39.53,27,41.21,18.21,43a31.63,31.63,0,0,0-7,1.88,11.52,11.52,0,0,1-4.4,1c-3,0-4.89-1.31-4.89-3.19,0-1.5,1-2.72,3.94-3.27,2.06-.39,4.8-.77,8.55-1.23,1.31-.75,2.44-1.51,3.67-2.35A362.33,362.33,0,0,0,51.16,9.28c1.7-1.59,2.45-2.9,2.45-3.84,0-1.13-.57-2.17-3.76-3.38L50.7,0a13.28,13.28,0,0,1,7.88,2.61C60.46,4,62.16,5.9,62.16,7.69a3.35,3.35,0,0,1-2.27,3,27,27,0,0,0-5.35,3.47A336.22,336.22,0,0,1,22.43,37.26c10.71-1.77,20.75-3.28,31-4.6,5-.75,6.94-1,9.09-2a9.91,9.91,0,0,1,3.86-1.21,11.54,11.54,0,0,1,5.26,2.06C74,33,75,34.08,75,35.29s-.84,1.79-3,1.79H64.7a48.8,48.8,0,0,0-7.33.57,30.89,30.89,0,0,0-11,4C38.69,46.47,34.27,53,34.27,59.24c0,7.79,6.94,12.87,15.39,13.62a56.79,56.79,0,0,0,6.76.09c2.82,0,5.65,1.88,5.65,4s-1.79,3.29-5.56,3.29a47,47,0,0,1-7.78-.66c-11.56-2-18.88-9.21-18.88-19.64,0-7.89,5.46-15.39,15.5-21.49ZM19.62,2c.47,4.14,1.31,6.86,2.35,8.45.75,1.13,1.41,1.41,2,1.41a5,5,0,0,0,2.52-1c2.35-1.41,4.6-2.83,7-4l1.4,1.68c-2,1.79-4.22,3.76-6.19,5.73-1.22,1.23-1.51,1.89-1.51,3.09v.39A2.32,2.32,0,0,1,24.6,20c-2.08,0-3.85-1.5-5.26-3.57A16.13,16.13,0,0,1,17.55,2.06Z"/><path class="cls-1" d="M15,94.31c3.94,0,6.66.94,9.11,3.2,1.5,1.31,2.15,2.43,2.15,3.47a4.51,4.51,0,0,1-.65,2.06,11.79,11.79,0,0,0-1.13,4c-.37,2.92-.55,5.45-.75,8.17a8.47,8.47,0,0,1,1.69,1.42,4.67,4.67,0,0,1,1.69,3.18,3.69,3.69,0,0,1-.75,2,46.42,46.42,0,0,0-3,4.51c0,1.32-.09,2.72-.09,4.13a195.19,195.19,0,0,1,15.85-16.33c6.4-5.64,10.62-7.61,15.22-7.61,5.82,0,9.77,4.51,9.77,10.15a55.67,55.67,0,0,1-.75,7.6c-1.31,8.45-2.45,16.33-3.49,24.78a53.6,53.6,0,0,0-.36,6c0,4.42,1.5,5.92,4.31,5.92,4.6,0,9.77-3.76,15.12-9.39l1.59,1.5c-4.4,7.71-10.7,13.43-17.46,13.43-5.83,0-9.76-4.79-9.76-10.61a73.77,73.77,0,0,1,.37-7.51c1-9.48,2.63-17.76,3.67-27.14.18-2,.28-3.47.28-4.5,0-3-1.7-5.35-4.7-5.35S46.67,112.62,41.5,117a226.48,226.48,0,0,0-18.32,18.5v7.89c0,5.72.11,11.16.2,14.54s.37,5.55.37,7.8A7.29,7.29,0,0,1,22.34,170a5.12,5.12,0,0,1-3.56,2.26c-1.61,0-2-1.31-2.07-3.85s-.75-4.22-2.54-6.67a50.06,50.06,0,0,0-6.1-6.85c-.47.75-1,1.5-1.6,2.34C4.6,159.94,3.84,161,2.52,161,1,161,0,159.39,0,157.69c0-1.4.57-2.35,2.52-4.78A164.37,164.37,0,0,0,15.4,134.13c.93-1.6,2-3.67,3.09-6.1.1-2.17.1-4.42.1-6.58-.1-.56-.38-.65-.94-.65-1.89,0-6.49,1.59-9.3,3.28a22.28,22.28,0,0,0-6.58,5.36L.09,128a16.2,16.2,0,0,1,6.58-8,37.72,37.72,0,0,1,12-5c.18-3.47.18-6.19.27-9.48.09-2,.09-2.81.09-3.94,0-2.34-1-4-4.69-5.35Zm-.48,51.27c-1.68,2.44-3.38,4.79-5,7.24,2.36,1.86,4.6,3.83,6.85,5.72.95.85,1.23.94,1.41.94s.56-.29.56-1.22c.1-4.69,0-9.11.1-14.17v-4.15Z"/><path class="cls-1" d="M22.52,187.24a13.4,13.4,0,0,1,8.84,2.9c1.59,1.41,2.34,2.72,2.34,4a4.37,4.37,0,0,1-.66,2.06c-.36.66-.75,1.59-1.22,2.63-.75,1.68-1.41,3.47-2,5.08,2.44-.77,4.42-1.32,5.73-1.88a14.82,14.82,0,0,0,2.91-1.61,4.37,4.37,0,0,1,2.26-.75c2-.09,4.6,1.41,4.6,2.92a2.68,2.68,0,0,1-1.79,2.44,56.52,56.52,0,0,1-6.39,2.26c-2.81.75-6.1,1.68-9.39,2.34-5.15,13.81-10.5,27.23-16.24,41-2.44,5.9-3.19,6.19-5,6.19-1.61,0-2.93-2-2.93-3.94A8.3,8.3,0,0,1,5,248.74c1.5-2.54,2.9-5,4.22-7.8,4.33-9.87,8.64-19.82,12.49-30.14a53.5,53.5,0,0,1-9,.84A11.32,11.32,0,0,1,2.34,205l1.5-1.59A12.61,12.61,0,0,0,12,206.85a60.34,60.34,0,0,0,11.54-1.4c1-3.11,1.79-5.45,2.34-7.42a16.76,16.76,0,0,0,.66-4.14c0-1.59-1-3-5-4.7ZM58,254.55c0,6.95-5.55,12.21-15.4,12.21-8.75,0-13.53-3.94-13.53-9.77,0-5.26,5.92-10,16-10a45.13,45.13,0,0,1,6.3.47c-.66-3.19-1.31-6.3-2.17-9.77a27.92,27.92,0,0,1-1-7.41c0-3.38,2.06-7.15,5.44-9.87A22.21,22.21,0,0,1,64,216.06c.66-.09.93-.29.93-.57s-.18-.56-.93-1.13c-2.27-1.59-7.05-3.56-13.15-4.13l.18-2.15a29.28,29.28,0,0,1,18.78,3.65c3.58,2.16,4.78,4,4.78,6.3a2.78,2.78,0,0,1-2.72,3,12.36,12.36,0,0,1-3.84-.66,15.56,15.56,0,0,0-3.57-.56c-2.82,0-6.58,1-8.55,2.92A8,8,0,0,0,53.33,229c0,2.25.19,3.56,1.12,7.8s2.06,7.89,2.92,12a67,67,0,0,1,13.14,5.26c3.67,2,5.91,4.31,5.91,6.56a2.7,2.7,0,0,1-2.53,2.92c-.94,0-2.07-.66-5.26-3a61.42,61.42,0,0,0-10.6-6.2Zm-6-2.34a32.35,32.35,0,0,0-8.46-1.13c-6.48,0-11,2.44-11,5.82,0,3.11,2.83,5.44,8.84,5.44,6.85,0,10.61-3.19,10.61-8.82Z"/></g></g></svg>