<svg xmlns="http://www.w3.org/2000/svg" viewBox="0 0 227.73 252.82"><defs><style>.cls-1{fill:#4f4f4f;}.cls-2{fill:#fff;}</style></defs><g id="Layer_2" data-name="Layer 2"><g id="back"><path class="cls-1" d="M146.18,60.94a2.78,2.78,0,0,1-.74-.12,7,7,0,0,1-.73.07h-.29a2,2,0,0,1-1.95-1,2.07,2.07,0,0,1-.1-1.38,1.79,1.79,0,0,1-1-1.42,3.7,3.7,0,0,1,1.11-2.77l0-.18c.38-2.56,2.77-3.87,3.55-4.31l.23-.13A6.14,6.14,0,0,1,148,48a6,6,0,0,1,3.08-1l.1-.07a5.75,5.75,0,0,1,2.37-1,12.15,12.15,0,0,1,1.77-1.1A8,8,0,0,1,159,44a5.16,5.16,0,0,1,1,.12,3.19,3.19,0,0,1,1.91,1.17l.18.2a8.58,8.58,0,0,0,.88-.14l.74-.13c.9-.15,1.77-.24,2.61-.34l1.48-.17A30.25,30.25,0,0,0,174.59,43a13.4,13.4,0,0,0,1.56-2c.35-.52.72-1.06,1.13-1.58a48.39,48.39,0,0,0,3.07-4.64c.39-.64.79-1.3,1.22-2,.76-1.21,1.53-2.41,2.29-3.58l-.23.06-.19.05c-1.08.31-2.24.7-3.64,1.2a50.2,50.2,0,0,0-6.71,2.89c-2.19,1.15-4.18,2.41-6.57,3.94a16.54,16.54,0,0,1-4.41,2,14.92,14.92,0,0,0-2.3,1l-.14.08a16.94,16.94,0,0,1-2.83,1.08l-.8.25c-.35.13-.75.28-1.16.45-.77.3-1.64.64-2.57.9a11.23,11.23,0,0,1-3.27.44,6.72,6.72,0,0,1-4.48-1.77l-.66-.58a19.82,19.82,0,0,1-3.16-3.29,9.8,9.8,0,0,1-1.22-2.42l-.23-.54A5.12,5.12,0,0,1,138.7,32a12.58,12.58,0,0,1,.71-2.78l.21-.65,0-.22a5.63,5.63,0,0,1,3-4.47c.76-.39,1.41-1.26,2.18-1.24l.51,0h.06a8.59,8.59,0,0,1,1.28-.19c.31,0,.58,0,.79,0h.19l.33-.2c.26-.67.82-.62,1.46-1.19a7.22,7.22,0,0,1,4.75-1.68h.06c.34,0,.69,0,1,0,2,.06,4-.08,5.47.43l1.14.39a8.53,8.53,0,0,0,2.31.34,35.56,35.56,0,0,0,9.17-.71l1.59-.35,1.08-.24c5.2-1.15,10.57-2.34,15.72-2.45.61,0,1.2,0,1.76,0s1.22,0,1.81,0c.43,0,.9-.06,1.4-.11a20.46,20.46,0,0,1,2.66-.14h0c.81,0,2.47.08,3.22,1.42a3.73,3.73,0,0,1,.16,2.68c0,.13-.07.32-.08.38l0,.52a6.21,6.21,0,0,1-.48,3.19,19.16,19.16,0,0,1-2.43,4.09c-.6.82-1.22,1.6-1.82,2.36A38.85,38.85,0,0,0,195.27,35a51.56,51.56,0,0,1-5.48,7.24,4,4,0,0,0-1,1.57c-.13.43-.28.83-.41,1.19a5.17,5.17,0,0,0-.35,1.21,4.3,4.3,0,0,0,.11.86,6.76,6.76,0,0,1,.17,1.6A6.6,6.6,0,0,1,186.79,52a3,3,0,0,1-.2.29,11.86,11.86,0,0,1-3.66,3.34l-.41.27A12.14,12.14,0,0,1,179,57.79a4,4,0,0,1-1.13.13c-.17,0-.31,0-.43,0L177,58a7.18,7.18,0,0,1-2.22.29l-.63,0-.38,0h-.16a4,4,0,0,1-.49,0,7.17,7.17,0,0,1-1.4-.2l-.36-.07-.17.06a6.75,6.75,0,0,1-2.52.54,3.12,3.12,0,0,1-1.4-.36l-.23-.13a.73.73,0,0,0-.28-.13l-.11,0a2.58,2.58,0,0,1-1.22-.53l-.07,0c-.29-.2-.41-.21-.46-.21a3.19,3.19,0,0,0-.44.05c-1.7.32-3.54.77-5.31,1.2l-2.53.6a16.74,16.74,0,0,1-1.9.32,10.23,10.23,0,0,0-1.18.18l-.66.3a9.07,9.07,0,0,1-3.47,1.05h-.2A3.83,3.83,0,0,1,148,60.6a4.92,4.92,0,0,1-1.56.34h-.26Z"/><path class="cls-1" d="M120.25,126.8c-.14,0-.27,0-.41,0a6,6,0,0,1-2.13-.78,5.05,5.05,0,0,0-.67-.33,3.81,3.81,0,0,1-1.68-1.15,3.2,3.2,0,0,0-.32-.32l-.58-.43a9.36,9.36,0,0,1-1.29-1.07,7.08,7.08,0,0,0-.9-.72c-.26-.2-.53-.39-.8-.63a3.28,3.28,0,0,1-1-2.14c0-.08,0-.17,0-.25v0a2.44,2.44,0,0,1,0-2.29,5.09,5.09,0,0,1,1.88-2.21,4.92,4.92,0,0,1,1.31-.63v0l-.06,0,.29-.16.76-.4c.2-.1.47-.26.76-.44.45-.27,1-.57,1.54-.86a15.06,15.06,0,0,1,3.06-1.07l.63-.18a26.68,26.68,0,0,1,7.3-.94h.3a9.27,9.27,0,0,1,1.75.25,5.61,5.61,0,0,0,.84.14,8.43,8.43,0,0,0,1.87-.4l.64-.18c1.34-.37,2.61-.61,3.84-.85s2.29-.45,3.38-.75l.59-.17a21.11,21.11,0,0,1,2.57-.61,8.25,8.25,0,0,1,1.69-1.68l.08-.06a7.56,7.56,0,0,0,.56-.68c.81-1.1,1.54-2.29,2.31-3.56.42-.69.86-1.4,1.32-2.11.6-.93,1.24-1.93,1.83-2.92h0l-1,.31,0,0a35,35,0,0,0-6,2.39,6.08,6.08,0,0,1-4.43,3.53l-.08,0a10.43,10.43,0,0,1-3.27.46c-.86.93-3,3.18-5.83,3.1a4.34,4.34,0,0,1-.94-.13l-.26-.06a9.57,9.57,0,0,0-1.91-.33,7.47,7.47,0,0,1-2.41-.55c-.25-.09-.48-.18-.7-.24H124a3.18,3.18,0,0,1-2.39-.91,2.14,2.14,0,0,1-1.52-.77,3.52,3.52,0,0,1-.62-1.85c0-.14,0-.35-.07-.42a5.64,5.64,0,0,0-.78-1.25l-.26-.36a4.87,4.87,0,0,1-1-2.68,5.22,5.22,0,0,1,.22-1.61,2.13,2.13,0,0,1-.58-2.7,4.89,4.89,0,0,1,1-1.53,5.06,5.06,0,0,1,2.68-3.71,4.69,4.69,0,0,1,1.51-.55,9.16,9.16,0,0,1,1.94-1,11.53,11.53,0,0,1,4.19-.61,20.24,20.24,0,0,1,2.74.29,12,12,0,0,1,2.26.67,6.84,6.84,0,0,0,2.22,0h.17a8.89,8.89,0,0,0,.94-.1c.65-.07.95.37,1.73.39h.26l.43,0c.53,0,1,.07,1.53.08s.73,0,1.06,0c2.91-.12,6.06-.52,9.11-.91,1.53-.19,3.11-.4,4.66-.56l1.77-.21a47.76,47.76,0,0,1,5.21-.45c.28,0,.64,0,1-.06.59,0,1.25-.1,1.9-.08,2.65.08,3.38,1.42,3.53,2.53a14,14,0,0,1-.52,6.38l-.1.29-.16.29-.39.71c-.37.68-.76,1.39-1.24,2.13a18.21,18.21,0,0,1-2,2.47c-.26.29-.5.56-.71.81a10.93,10.93,0,0,0-1.34,2.35,21.9,21.9,0,0,1-1.46,2.73c-.31.49-.64.92-.92,1.3a6.08,6.08,0,0,0-.68,1,5.4,5.4,0,0,0-.23,1.62c0,.15,0,.29,0,.44-.13,2.07-2.05,5.13-4.38,7l-.05.06a11.23,11.23,0,0,1-.82,1.12,8.45,8.45,0,0,1-3.93,2.59l-.34.12c-.26.11-.6.29-1,.48a9.44,9.44,0,0,1-4.45,1.41,3.18,3.18,0,0,1-2.32-1,2.35,2.35,0,0,1-.19-.25,4.27,4.27,0,0,1-.81.11h-.44a9.68,9.68,0,0,1-1.25-.14,5.59,5.59,0,0,0-.62-.07h-.15c-.54.08-1.13.2-1.76.33s-1,.22-1.57.31l-.47.08a30.74,30.74,0,0,0-5.35,1.25,10.6,10.6,0,0,0-2.86,1.77l-1.23.9A8.43,8.43,0,0,1,120.25,126.8Z"/><path class="cls-1" d="M95.27,178.36c-3.31-.1-4.91-2.87-4.87-8.46a8.58,8.58,0,0,1,2.77-6.24,4.86,4.86,0,0,1,1.72-2.59,5.18,5.18,0,0,1,3.32-1.2,4,4,0,0,1,.67.06l.16,0h0a17.42,17.42,0,0,1,2.36.3,14.23,14.23,0,0,0,1.85.24h.5a22.42,22.42,0,0,0,4-.84l1.13-.3a28.56,28.56,0,0,1,8-.91,30.61,30.61,0,0,1,3.48.32l.06-.08c.76-1.06,1.45-2.16,2.19-3.32.13-.21.26-.43.4-.64-1.22.19-2.43.43-3.62.73-1.37.34-2.76.77-4.23,1.22l-1.52.46c-1,.31-2.11.63-3.22.94l-.92.23c-.25.06-.61.14-.81.21a7.74,7.74,0,0,1-4.43,1.66,5.22,5.22,0,0,1-1.7-.34,12.07,12.07,0,0,1-4.13-2.48A17.68,17.68,0,0,1,97,155.89a12.1,12.1,0,0,0-1.38-1.39,5.36,5.36,0,0,1-2.14-3.34,8.41,8.41,0,0,1,1.81-5.39c.24-.32.46-.58.62-.77l0-.05.05-.14a7.3,7.3,0,0,1,2.69-3.53,6.79,6.79,0,0,1,4-1.47,4.14,4.14,0,0,1,2.44.93,4.86,4.86,0,0,0,.44.28c1.53.62,2.36.25,3.39.39l.24,0c.48,0,1.6.67,2.28.57a16.74,16.74,0,0,1,2.89-.24h.15l.93,0,1.57.08a16.92,16.92,0,0,0,3.12-.16l3.11-.48c3-.48,6.17-1,9.26-1.21l.73-.07a20.71,20.71,0,0,1,2.55-.13,5.72,5.72,0,0,1,2.61.59,6.42,6.42,0,0,1,1,.72,4.23,4.23,0,0,0,.47.36,3.27,3.27,0,0,1,1.49,2.49,14.21,14.21,0,0,1-.4,4.18l0,.14a9.15,9.15,0,0,1-6,6.88l-.4.11a11.51,11.51,0,0,1-.75.89c-.25.28-.5.52-.69.71a4.35,4.35,0,0,0-.45.47,12.15,12.15,0,0,0-.54,1.21c-.12.31-.24.63-.39,1-.48,1.09-.75,1.85-1,2.52a20.18,20.18,0,0,1-2.9,5.54c-3,4.33-6.12,4.58-7,4.56a4.06,4.06,0,0,1-1.07-.18l-.22-.06a2.87,2.87,0,0,1-.55,0,2.19,2.19,0,0,1-1.2-.35l-.14,0c-.74.23-1.45.4-2.07.54-.45.1-.87.2-1.25.31-1.58.45-3.17,1-4.85,1.54l-1.25.42a29.83,29.83,0,0,1-3.42,1,11.43,11.43,0,0,1-1.75.22,6.76,6.76,0,0,0-.78.08,10.52,10.52,0,0,0-1.36.7,14.22,14.22,0,0,1-4.45,1.82A6.55,6.55,0,0,1,95.27,178.36Z"/><path class="cls-1" d="M75.21,224.64a4.31,4.31,0,0,1-2.39-.69,3.17,3.17,0,0,1-1.13-1.66c0-.1-.07-.2-.11-.3a5.8,5.8,0,0,0-.29-.52,5.38,5.38,0,0,1-.66-1.38,10,10,0,0,1,1.58-7.65,7.8,7.8,0,0,1,3.37-2.56,7.65,7.65,0,0,1,1.63-1.13,3.77,3.77,0,0,1-2.82-2.44,6.43,6.43,0,0,1-.53-4.27,5.49,5.49,0,0,1,1-1.9,5.22,5.22,0,0,1,.55-1.81,8.61,8.61,0,0,1,8-4.75c.45,0,.88,0,1.26.08l.64.05.5,0a48.69,48.69,0,0,0,9.79-1.15,60.65,60.65,0,0,1,10-1.28h.47c.62,0,1.48,0,2.4,0a13,13,0,0,1,4,.61,2.84,2.84,0,0,1,1.85,4,8.45,8.45,0,0,1-1,1.77c-.07.09-.15.22-.19.28a6.88,6.88,0,0,0-.27.68,12.84,12.84,0,0,1-.71,1.63v0a14,14,0,0,1-4.33,5.39c-.54.39-1.09.86-1.73,1.41-.4.36-.83.72-1.29,1.1-1,.82-1.18,1.26-1.27,1.65a4.4,4.4,0,0,0-.09.73,9.31,9.31,0,0,1-.1.93s0,.07,0,.11a4.4,4.4,0,0,1-.56,1.84,5.2,5.2,0,0,1-.55.81c0,.07,0,.14,0,.22a11.18,11.18,0,0,1-1.36,3.1c-1.91,3.12-5.41,5.42-8.15,5.34h0a3.15,3.15,0,0,1-2.85-1.69,3.85,3.85,0,0,1-.33-1.67h0a1.9,1.9,0,0,0-.37,0,6,6,0,0,0-1.2.09,7.31,7.31,0,0,0-1.59.76,21.93,21.93,0,0,1-2.07,1.06c-.53.24-1.14.55-1.78.88a31.21,31.21,0,0,1-3.38,1.57A10.6,10.6,0,0,1,75.21,224.64Zm22.43-21.33-.24.07a26.41,26.41,0,0,1-2.61.58,18.39,18.39,0,0,0-2.11.47,39.29,39.29,0,0,0-4.37,1.73,10,10,0,0,1-4.21.89,8.57,8.57,0,0,0-1.06.07c-.08,0-.39.2-.61.32l-.28.15a17.59,17.59,0,0,1,2.27-.08l1.77-.13,3-.21.69,0c.52,0,1-.06,1.47-.12a6.37,6.37,0,0,0,.64-.18,10.22,10.22,0,0,1,2.15-.49,4.15,4.15,0,0,1,.61,0h.16c.52-.54,1-1.13,1.58-1.74C96.87,204.16,97.25,203.73,97.64,203.31Z"/><path class="cls-1" d="M203.23,19.89c-2.35-.07-2.39-2.32-2.41-3.4v-.17a2.85,2.85,0,0,0-.18-.63,5,5,0,0,1-.34-1.34c-.2-2.11,1.79-4,2.64-4.75l.36-.34.15-.15a25.29,25.29,0,0,0,1.8-1.86l.47-.6a15.35,15.35,0,0,1,2.57-2.72,8.46,8.46,0,0,1,.87-.61,6.09,6.09,0,0,1,2.05-1.59,4.86,4.86,0,0,1,1.52-.43,4.7,4.7,0,0,1,.85-.33,6,6,0,0,1,.67-.17,5.39,5.39,0,0,1,1.3-.58l.77-.22.5.09H217a3.56,3.56,0,0,1,2.19.81c1,1,.61,2.57.44,3.16a6.28,6.28,0,0,1-.25.71,4,4,0,0,1-.58,2.36l-.17.28-.21.27a13.35,13.35,0,0,0-1,1.67,15.08,15.08,0,0,1-3.66,4.79,9.54,9.54,0,0,1-2.5,1.42l-.1,0a16.68,16.68,0,0,1-3,2l-.48.35c-1.13.83-2.67,2-4.28,2Z"/><path class="cls-1" d="M168.14,90.06a2.92,2.92,0,0,1-2.15-1,3,3,0,0,1-.52-2.82c0-.1,0-.18.05-.26s-.08-.1-.12-.15a3.2,3.2,0,0,1-.66-1.48c-.21-1.66,1.3-3.49,2.11-4.48l.12-.15c.45-.54.87-1.1,1.32-1.69.27-.34.53-.69.81-1l.3-.42a13.43,13.43,0,0,1,1.08-1.38,7.36,7.36,0,0,1,3.14-2.13,7,7,0,0,1,1-.73,5.69,5.69,0,0,1,2.23-.76,7.44,7.44,0,0,1,2.38-1.17,6.85,6.85,0,0,1,1.75-.23,2.34,2.34,0,0,1,2.18,1.19c.7,1.43-.33,3.45-1,4.78l-.08.15-.42,1a31.29,31.29,0,0,1-2.54,5.09,11.58,11.58,0,0,1-2.85,3.12A13.66,13.66,0,0,1,174,86.87l-.57.29-.18.19a8.91,8.91,0,0,1-3.43,2.43,4.7,4.7,0,0,1-1.68.28Z"/><path class="cls-1" d="M145.89,142.5a3.13,3.13,0,0,1-2.66-1.38c-1.25-1.89-.79-5.21,1.1-8.2a24.76,24.76,0,0,1,1.16-2.25c.27-.47.52-.92.7-1.32.05-.09.1-.23.16-.37a6.52,6.52,0,0,1,2.44-3.23,5.79,5.79,0,0,1,3.38-1l.27,0a9.22,9.22,0,0,1,3.59,1.22,3.39,3.39,0,0,1,.28.2,3.89,3.89,0,0,1,.6,0,2.19,2.19,0,0,1,1.48.56c.86.82.5,2.2.26,3.12a1.8,1.8,0,0,0-.05.19,2.26,2.26,0,0,1,0,.25,4.77,4.77,0,0,1-.26,1.66,7.94,7.94,0,0,1-1.51,2.36l-.22.27-.49.66c-.79,1.06-1.6,2.17-2.55,3.29l-.12.16a6.68,6.68,0,0,1-3.68,2.63,7,7,0,0,1-3.87,1.24Z"/><path class="cls-1" d="M212.49,23a2,2,0,0,1-2.14-1.53,2.66,2.66,0,0,1,0-1.06,2.88,2.88,0,0,1-.19-.7,6.29,6.29,0,0,1,.95-3.81,12.42,12.42,0,0,0,.89-2.27l0-.05a6,6,0,0,1,3.32-3.83,13.93,13.93,0,0,0,2.89-2.33l.35-.38a6.18,6.18,0,0,1,4-2.28l.21-.07a6.56,6.56,0,0,1,2.3-.44,2.71,2.71,0,0,1,.71.09c2.75.7,2.07,4.45.71,6.88a16.64,16.64,0,0,1-1.6,2.29l-.5.65c-.15.2-.31.45-.49.71a16.76,16.76,0,0,1-1.5,2,10.45,10.45,0,0,1-1.67,1.46l0,0,0,0A7.89,7.89,0,0,1,217.94,21c-2.34,1.37-4.12,2-5.45,2Z"/><path class="cls-1" d="M117.14,198.61a3.53,3.53,0,0,1-2.68-1.37c-1.39-1.63-.29-4.5.37-6.21l.16-.43a12,12,0,0,1,3.65-5.56,10.16,10.16,0,0,1,1.87-1.15l0,0,.13-.13a10.84,10.84,0,0,1,2.41-1.87,6,6,0,0,1,3.09-.84,5.56,5.56,0,0,1,1.28.22l.16,0a4.24,4.24,0,0,1,1.06-.13,1.84,1.84,0,0,1,1.92,1.69,5.4,5.4,0,0,1-.68,3.87,10.32,10.32,0,0,1-1.61,2.35l-.36.43a33.3,33.3,0,0,1-2.41,3.07l-.27.33a13.05,13.05,0,0,1-2.57,2.47,3,3,0,0,0-.71.72,6.57,6.57,0,0,1-4.86,2.52Z"/><path class="cls-1" d="M175.24,92.1a2.82,2.82,0,0,1-1.12-.25c-1.32-.58-1.48-2.56-1.48-2.58a5.5,5.5,0,0,1,.21-1.68s0-.1,0-.15a.41.41,0,0,1,0-.09,3,3,0,0,1-.05-3.19l0-.06,0,0a9.58,9.58,0,0,1,1.82-2.17l.31-.32.4-.43a26,26,0,0,1,2.1-2.16,28.06,28.06,0,0,1,2.88-2.22A13,13,0,0,1,183,75.38l.37-.14a.1.1,0,0,1,0,0A7.13,7.13,0,0,1,187,73.62a3,3,0,0,1,.42,0A2.43,2.43,0,0,1,189.86,76c.37,2.36-1.53,4.44-2.55,5.55a8.13,8.13,0,0,0-.76.89c-.15.2-.28.41-.43.62a13.84,13.84,0,0,1-4.43,4.59l-.19.11,0,0a12.46,12.46,0,0,1-1.39,1.37l-.34.31,0,.06c-1.82,2.47-3.88,2.61-4.46,2.59Z"/><path class="cls-1" d="M159.92,137.44a4.63,4.63,0,0,1-1.4-.25,3,3,0,0,1-1.26-.86l-.11,0a5.26,5.26,0,0,1-1.31.17h0c-.43,0-2.56-.22-1.6-3a9.63,9.63,0,0,1,2.15-3.14c.48-.51,1-1,1.43-1.44s1-1,1.44-1.47c.12-.14.25-.31.4-.51a9.45,9.45,0,0,1,4-3.29,6.18,6.18,0,0,1,2.59-.57c3.57.11,3.55,4.44,2.53,6.88a13,13,0,0,1-4.41,5.87A7.4,7.4,0,0,1,159.92,137.44Z"/><path class="cls-1" d="M123.93,199.56a2.4,2.4,0,0,1-2.13-1.19,3.27,3.27,0,0,1,.21-2.85c0-.05,0-.09.07-.14s0-.15,0-.25a6,6,0,0,1,.87-2.22,12.2,12.2,0,0,1,1.29-1.64l.34-.39c.11-.14.25-.36.4-.58s.47-.71.8-1.13a21.84,21.84,0,0,1,5-4.42,6.26,6.26,0,0,1,3.44-1.2,2.18,2.18,0,0,1,2.06,1.29,1.83,1.83,0,0,1,1.76,1.52c.24,1.23-.65,2.61-1.08,3.27l-.22.35-.2.24c-.06.07-.18.23-.29.39a12.23,12.23,0,0,1-1.09,1.39c-.32.34-.63.63-.88.87a6.46,6.46,0,0,0-.46.46s-.13.18-.2.28a9.37,9.37,0,0,1-1.86,2.15,9.86,9.86,0,0,1-2.38,1.42l-.28.13-.38.26c-1,.71-2.91,2-4.79,2Z"/><path class="cls-2" d="M145.91,58.19a6.31,6.31,0,0,1,1.12-.13c.17,0,.35.19.52.19.44,0,.43-.15,1-.36,1.1-.44,1.27.28,2.14.26s2.28-1,3.29-1.22,2.11-.28,3.2-.53c2.65-.61,5.39-1.34,8-1.83a3.13,3.13,0,0,1,2.68.42,1.2,1.2,0,0,0,.75.33,3,3,0,0,1,1,.44c.82.45,1.85-.49,2.93-.49.84,0,1.35.33,2.23.28a8.63,8.63,0,0,0,2.61-.09,8.76,8.76,0,0,1,1.08-.31c.3,0,.72.13,1,.06A16.09,16.09,0,0,0,182,53.68a7,7,0,0,0,2.14-1.9,4.81,4.81,0,0,0,1.09-2c0-.88-.33-1.62-.28-2.53a14.39,14.39,0,0,1,.86-2.94,7.8,7.8,0,0,1,1.85-3,47.4,47.4,0,0,0,5-6.62c1.37-2.27,3.2-4.31,4.82-6.5a16.28,16.28,0,0,0,2-3.27,5.29,5.29,0,0,0,.24-2.71c0-.77.49-1.64.12-2.3s-1-.61-1.73-.63c-1.26-.05-2.61.19-3.9.24s-2.4,0-3.62,0c-5.16.12-10.65,1.41-16.14,2.61-4.91,1.08-10.87,2.68-14.8,1.43-2-.64-3.94-1.57-6.46-1.43a4.39,4.39,0,0,0-2,.42c-.32.28-.15.6-.33.92a7.59,7.59,0,0,1-2.45,1.92,4.46,4.46,0,0,1-2.7.5c-.42,0-.89.18-1.32.22-.27,0-.82-.15-1.09,0-.54.28-.53,1.53-.67,2a17.36,17.36,0,0,0-.84,3,5.36,5.36,0,0,0,.72,2.61,9,9,0,0,0,1,2.1,23.07,23.07,0,0,0,3.62,3.64c1.32,1.18,3,1.73,5.52,1,1.15-.32,2.31-.87,3.47-1.27a21.45,21.45,0,0,0,3-1.08,19.44,19.44,0,0,1,3.2-1.4,12.2,12.2,0,0,0,3.2-1.38c2.32-1.49,4.52-2.89,7-4.17A54.5,54.5,0,0,1,179.84,28c1.29-.46,2.59-.9,3.87-1.28a6.09,6.09,0,0,0,1.26-.39c.49-.25.74-.65,1.17-.9s1.06-.21,1.6-.43,1-.69,1.49-.66c1,.05,0,1.07-.43,1.63-1.61,2.38-3.18,4.79-4.69,7.19a81.92,81.92,0,0,1-4.54,7c-1.3,1.67-2.64,4.38-4.8,5.23a34,34,0,0,1-7.88,2c-1.34.18-2.65.28-4,.5-1,.16-2.21.51-3,.16s-.84-1.09-1.72-1.28a3.93,3.93,0,0,0-2.41.33c-.81.39-1.54,1.23-2.39,1.42-.53.12-.59-.06-1.08.27a7.15,7.15,0,0,0-1,1.22,2.24,2.24,0,0,0-2.16-.12c-.33.22-.4.62-.66.91a4.29,4.29,0,0,1-1.06.82c-1,.63-1.67.74-1.82,1.72-.09.58.07.72-.41,1.4-.24.33-.75.66-.71,1,.07.63,1.4.21,1.32,1.11S144.78,58.22,145.91,58.19Zm1.19-2.84c.59,0,0,.8-.46.89C145.75,56.39,146.59,55.55,147.1,55.35Z"/><path class="cls-2" d="M129.41,87.65a11,11,0,0,0-5.29.12c-.83.3-1.51,1.06-2.24,1.3-.18.06-.22-.22-.47-.08s-.34.7-.36.91c0,.57.08.71-.41,1.29-.21.24-.63.41-.75.71-.24.6.63.66.8,1,.26.55-.3,1.58-.26,2.26a3.47,3.47,0,0,0,.71,1.86A8.22,8.22,0,0,1,122.35,99c.21.55.12,1.44.48,1.88s.51.11.9.2.36.25.55.49c.45.59,1.29.27,2.09.49a11,11,0,0,0,2.61.72,12,12,0,0,1,2.62.45c1.84.44,2.69-1.52,4.15-2.64a1.74,1.74,0,0,1,1.51-.42,7.49,7.49,0,0,0,2.87-.3c1.37-.38,1.1-.29,1.54-1.34a3.7,3.7,0,0,1,1.75-1.67A37.8,37.8,0,0,1,150.47,94c1.07-.34,5.13-1.65,5.08-.49,0,.74-1.14,2.22-1.6,3-.6,1-1.25,2-1.91,3-1.25,1.94-2.38,4-3.78,5.89a11.12,11.12,0,0,1-1.15,1.35,8.51,8.51,0,0,0-1.16,1c-.37.59.21,1.13-.43,1.75s-1.88.15-2.56.23a20.06,20.06,0,0,0-2.9.71c-2.44.68-4.8.94-7.24,1.61a13.42,13.42,0,0,1-3.49.7c-1,0-1.75-.4-2.78-.38a22.89,22.89,0,0,0-6.37.8,15.72,15.72,0,0,0-2.92.94c-.78.38-1.51.91-2.29,1.3-.33.16-.87.47-1.08.57.2-.1-.64.44-.4.24-.22.18-.17-.19-.38.27-.08.18.2.6.24.77.15.64.16,1.3.66,1.72s1.26.89,1.8,1.45a18.41,18.41,0,0,0,1.75,1.39c.5.41.79,1,1.47,1.18a13.31,13.31,0,0,0,2.42,1,4,4,0,0,0,2.52-1c1.87-1.34,3.17-2.53,5.31-3.31a35.77,35.77,0,0,1,6.53-1.53c1.14-.2,2.31-.49,3.43-.65a19.38,19.38,0,0,1,2.81.17c.67,0,1.27-.86,1.72-.77s.55,1.17.79,1.44c1.14,1.23,3-.35,4.87-1.12a4.83,4.83,0,0,0,2.27-1.23c.67-.8.68-1.17,1.57-1.88,1.38-1.09,2.75-3.16,2.83-4.41a8.76,8.76,0,0,1,.44-2.87,19.36,19.36,0,0,1,1.94-2.94c1.18-1.83,1.64-3.73,3.11-5.51A33,33,0,0,0,164,95.64c.55-.87,1-1.76,1.5-2.64a11.74,11.74,0,0,0,.39-5.36c-.23-1.75-2.82-1.07-4.65-1-2.13,0-4.45.39-6.68.63-4.64.5-9.46,1.31-14,1.49a30.19,30.19,0,0,1-3.32-.11,26.07,26.07,0,0,0-3,.23C132.32,88.94,131.08,87.92,129.41,87.65Z"/><path class="cls-2" d="M107.87,144.83a19,19,0,0,1-4.36-1.26c-1-.42-1.73-1.82-3.53-.51a3.62,3.62,0,0,0-1.24,2,7.57,7.57,0,0,1-1.07,1.44,5.54,5.54,0,0,0-1.12,3.34,4.11,4.11,0,0,0,1.62,2.39c1.06.86,1.83,2,2.85,2.88a10.51,10.51,0,0,0,3.58,2.17c1.32.45,1.71.26,3.19-.74a9.86,9.86,0,0,1,3-1c1-.29,2.1-.6,3.15-.92,2-.59,4-1.24,5.93-1.73a45.13,45.13,0,0,1,6.29-1.1c1.77-.18,1.35.43.42,1.85-1.26,1.9-2.37,3.83-3.73,5.71a10.89,10.89,0,0,1-1.69,2.15c-.76.57-1,.22-1.65.1a25.39,25.39,0,0,0-11,.36,33,33,0,0,1-5.77,1.25c-1.85.12-3.29-.44-5-.53-.59,0-1.41-.36-1.53.51s.62.39-.55,1.29a5.14,5.14,0,0,0-2.13,4.35c0,2.39.21,7.44,3.84,6.82,1.77-.3,3.5-1.79,5.21-2.37a25.43,25.43,0,0,1,3-.42,26.8,26.8,0,0,0,3-.85c2.1-.7,4.2-1.43,6.29-2,1.07-.3,2.14-.48,3.21-.81.42-.13,1.32-.84,1.57-.87s.24.14.36.36c.63,1.18.35.28,1.94.78,1.32.41,2.68-.93,3.66-2.35,2.46-3.58,2-3.84,3.53-7.43a24.3,24.3,0,0,1,1.12-2.54,11.42,11.42,0,0,1,1.76-2,10,10,0,0,1,1.69-1.9,4.86,4.86,0,0,1,1.68-.52c1.68-.52,2.49-2.45,2.73-3.66a12.79,12.79,0,0,0,.4-3.66,1.83,1.83,0,0,0-.82-1.42c-.5-.32-.88-.75-1.41-1-1.14-.62-3.07-.3-4.64-.17-4,.31-8.06,1.06-12.13,1.66a28.88,28.88,0,0,1-6.22.07C111.51,144.38,109.47,145,107.87,144.83Z"/><path class="cls-2" d="M111.47,196.17c1-2.56-5.28-2.2-7.06-2.17-6.58.08-14.11,2.78-20.52,2.4-1.89-.11-4.38-.72-5.79,2-.31.6-.2,1.16-.44,1.69s-.67.77-.83,1.37a5,5,0,0,0,.48,3A2.15,2.15,0,0,0,80,206c1.36-.33,2.38-1.35,3.77-1.57,1.55-.25,2.56.1,4.19-.64a46.23,46.23,0,0,1,4.89-1.92c1.65-.52,3.21-.62,4.82-1.08a20.55,20.55,0,0,1,3.59-1.09,10.43,10.43,0,0,1,2.16-.18c.53.11.57,0,.23.54a17.56,17.56,0,0,1-1.93,2.06l-1.8,1.93c-1.4,1.5-2.75,3.17-4.28,4.58-1.24,1.16-1.34.23-2.51.34-.86.08-1.83.57-2.73.67s-1.52.12-2.28.18l-4.94.35a17.05,17.05,0,0,0-4.94.58,2.33,2.33,0,0,0-1.3.78c-.33.31-.13.4-.62.65-.11.07-.51,0-.59,0-2.41.81-2.46,5.13-2.15,6.23a13.19,13.19,0,0,0,.89,1.71c.22.5.29,1.05.76,1.38.86.61,2.47.39,3.85-.12,1.59-.59,3.29-1.63,4.89-2.34s3-1.82,4.62-2.12a6.89,6.89,0,0,1,3.28.09c1,.39.43,1.51.83,2.3,1,2,4.17.08,5.54-2.16a7.55,7.55,0,0,0,.92-2c.09-.45,0-.67.23-1.12.12-.22.55-.51.7-.8a2.46,2.46,0,0,0,.22-.95,17.89,17.89,0,0,1,.23-1.9,7.41,7.41,0,0,1,2.76-3.79c1.14-.93,2.14-1.9,3.32-2.74a10.08,10.08,0,0,0,2.83-3.74c.4-.75.57-1.47.93-2.21C110.68,197.36,111.27,196.72,111.47,196.17Z"/><path class="cls-2" d="M212.32,4.1c-.3.11-.3-.27-.75-.06-.23.1-.52.62-.72.78s-.77.47-1.13.75a16.87,16.87,0,0,0-2.29,2.59,32,32,0,0,1-2.29,2.38c-.86.85-1.89,1.59-1.8,2.5.07.74.5,1.3.52,2.1,0,.57,0,2.07.75,2.06.58,0,2.17-1.44,2.87-1.8a11.25,11.25,0,0,0,2.39-1.58c.81-.65,1.58-.65,2.4-1.3,1.77-1.43,2.54-4,3.9-5.69.28-.48.08-1,.17-1.39s.25-.61.33-.9c.15-.55.24-1.08-.11-1.41a1.57,1.57,0,0,0-1.11-.33l-.19,0a.47.47,0,0,0-.35.38c-.68.39-.87.14-1.59.36C212.88,3.64,212.64,4,212.32,4.1Z"/><path class="cls-2" d="M178.89,73c-.84.22-1.53,1.19-2.22,1.32s-.55-.26-1.3.16c-.3.17-.5.51-.8.68-.87.49-1.24.23-2,1.11-.43.47-.76,1-1.15,1.52-.74,1-1.42,1.87-2.19,2.81-.56.68-1.49,1.76-1.41,2.4s.83,1,.8,1.83-.45,1.51.06,2.06a1.11,1.11,0,0,0,1.24.39c.84-.29,1.48-1.32,2.2-1.85.94-.7,2-1,2.93-1.67A6.58,6.58,0,0,0,176.63,82a36.8,36.8,0,0,0,2.72-5.64C180.05,74.94,181.52,72.33,178.89,73Z"/><path class="cls-2" d="M146,139.12c.75,1.13,2.31.82,3.77-.67.55.61,1.09-.3,1.58-.89,1-1.23,1.93-2.48,2.87-3.74a8,8,0,0,0,1.19-1.64,7.81,7.81,0,0,0,.14-1.44c.07-.42.49-1.57.2-1.84s-.75.16-1.14.13-.63-.46-1-.66a7.29,7.29,0,0,0-2.71-1c-1.46-.11-1.51.92-2,2-.59,1.24-1.44,2.47-1.92,3.72C145.66,135.12,145.1,137.71,146,139.12Z"/><path class="cls-2" d="M213.21,18.36a9.13,9.13,0,0,1,.27.89c0,.22-.16.54-.12.74.21,1,2.78-.43,3.78-1s.93-.89,1.51-1.61,1.19-.89,1.71-1.48c.67-.74,1.14-1.61,1.72-2.38A25.74,25.74,0,0,0,223.89,11c.66-1.18,1.37-3.69.07-4-.55-.14-1.36.32-2,.43-1.08.18-.79.19-1.76,1.19a19.31,19.31,0,0,1-4.11,3.28c-.88.49-.86.49-1.13,1.36a16.07,16.07,0,0,1-1.16,2.88A3.72,3.72,0,0,0,213.21,18.36Z"/><path class="cls-2" d="M127.6,184.32c-.15-.76-.27-.37-1-.31-1.06.08-1.56-.68-2.84,0a9.33,9.33,0,0,0-1.69,1.44c-.7.61-1.33.69-2,1.23-1.22,1-1.86,2.83-2.28,3.93-.54,1.42-1.41,3.54-.6,4.48.61.72,1.56,1.36,2.69,0a7.66,7.66,0,0,1,1.67-1.59,10.48,10.48,0,0,0,1.89-1.93,32.73,32.73,0,0,0,2.11-2.69,12.15,12.15,0,0,0,1.67-2.3A3,3,0,0,0,127.6,184.32Z"/><path class="cls-2" d="M176,86.22a14.33,14.33,0,0,0-.29,1.8c0,.35.28,1.17.6,1.31.66.3.85-.33,1.33-.87s1.19-1,1.69-1.62c.2-.24.25-.53.48-.74a9.85,9.85,0,0,1,1-.51c1.57-1,2.38-2.46,3.3-3.77,1.11-1.6,3-2.77,2.71-4.45-.06-.43-.25-1.11-.87-1.06s-1.36.84-2,1.13a14.49,14.49,0,0,0-2.5,1.18,22.7,22.7,0,0,0-2.32,1.79A27.63,27.63,0,0,0,177,82.63a12.2,12.2,0,0,0-1.56,1.69C175.13,85,176,85.61,176,86.22Z"/><path class="cls-2" d="M157.78,133.72c.65-.14,1-.33,1.53-.08s.68.78,1.24,1c2.39.84,4.69-2.41,5.36-4.37.75-1.68.69-5.33-2-4.17-1.38.6-1.62,1.41-2.53,2.45s-2,2-3,3a6,6,0,0,0-1.24,1.69C156.91,133.92,157,133.88,157.78,133.72Z"/><path class="cls-2" d="M135,187.82c-.09-.45-.51-.25-.92-.37-1.05-.3-.4-2-2.32-.75a16.39,16.39,0,0,0-3.67,3.25c-.45.57-.77,1.17-1.23,1.74a19.93,19.93,0,0,0-1.34,1.63,6.25,6.25,0,0,0-.57,1.75c-.18.5-.54,1-.32,1.4.63,1.14,2.49-.52,3.55-1.18a18,18,0,0,0,2-1.1,9.72,9.72,0,0,0,1.34-1.7c.47-.59,1-1,1.56-1.6s.78-1.06,1.22-1.59C134.62,188.9,135.1,188.21,135,187.82Z"/><path class="cls-1" d="M63.47,115.66a2.39,2.39,0,0,1-.62-.11,3.6,3.6,0,0,1-.61.06H62a1.53,1.53,0,0,1-1.71-2,1.51,1.51,0,0,1-.81-1.19,3,3,0,0,1,.93-2.32,1,1,0,0,1,0-.16c.32-2.14,2.32-3.24,3-3.6l.2-.11A5,5,0,0,1,65,104.8a4.83,4.83,0,0,1,2.58-.86l.08-.06a4.73,4.73,0,0,1,2-.82,9.67,9.67,0,0,1,1.49-.92,6.58,6.58,0,0,1,3-.67,4.38,4.38,0,0,1,.83.1,2.65,2.65,0,0,1,1.6,1l.15.17c.16,0,.47-.07.73-.12l.62-.11c.76-.12,1.49-.2,2.2-.28.42,0,.83-.09,1.24-.15a25.14,25.14,0,0,0,5.72-1.45,11.42,11.42,0,0,0,1.31-1.7c.3-.44.61-.9,1-1.33a39.06,39.06,0,0,0,2.57-3.89l1-1.65c.64-1,1.29-2,1.93-3l-.2,0-.16,0c-.9.27-1.87.59-3,1A42.86,42.86,0,0,0,86,92.56c-1.84,1-3.51,2-5.5,3.3a14.22,14.22,0,0,1-3.7,1.64,11.48,11.48,0,0,0-1.93.86l-.12.06a13.51,13.51,0,0,1-2.36.9l-.68.21-1,.38a22.35,22.35,0,0,1-2.15.75,9.24,9.24,0,0,1-2.75.37,5.59,5.59,0,0,1-3.75-1.48l-.55-.49a16.15,16.15,0,0,1-2.65-2.75,8.37,8.37,0,0,1-1-2c-.06-.14-.12-.29-.2-.45a4.38,4.38,0,0,1-.49-2.41,11.86,11.86,0,0,1,.59-2.33l.18-.54,0-.18a4.67,4.67,0,0,1,2.52-3.75c.63-.33,1.18-1.06,1.83-1l.43,0h0a6.13,6.13,0,0,1,1.06-.16h.83l.28-.16c.21-.57.68-.52,1.22-1a6.05,6.05,0,0,1,4-1.41h0a8.26,8.26,0,0,1,.86,0,17.41,17.41,0,0,1,4.59.35l1,.33a7.13,7.13,0,0,0,1.93.29,30.42,30.42,0,0,0,7.69-.59l1.33-.3.9-.2a70.6,70.6,0,0,1,13.18-2.06c.51,0,1,0,1.47,0s1,0,1.52,0,.76-.05,1.17-.09a17.72,17.72,0,0,1,2.23-.11h0a3,3,0,0,1,2.7,1.19,3.21,3.21,0,0,1,.13,2.24c0,.11-.06.27-.07.32l0,.43a5.28,5.28,0,0,1-.41,2.68,16.53,16.53,0,0,1-2,3.43c-.51.69-1,1.34-1.52,2a30.24,30.24,0,0,0-2.33,3.2A43.15,43.15,0,0,1,100,100a3.47,3.47,0,0,0-.87,1.32c-.11.36-.23.7-.34,1a4.29,4.29,0,0,0-.3,1,3,3,0,0,0,.1.72,6.34,6.34,0,0,1,.14,1.34,5.6,5.6,0,0,1-1.24,2.81l-.17.24a10,10,0,0,1-3.07,2.8l-.34.23A10.37,10.37,0,0,1,91,113a3.14,3.14,0,0,1-1,.12l-.37,0-.36.11a6.06,6.06,0,0,1-1.86.24c-.2,0-.37,0-.53,0l-.32,0a.29.29,0,0,0-.13,0h-.42a5.22,5.22,0,0,1-1.16-.17l-.31-.06-.14,0a5.52,5.52,0,0,1-2.11.45,2.52,2.52,0,0,1-1.18-.3l-.19-.1a.62.62,0,0,0-.23-.11l-.09,0a2.26,2.26,0,0,1-1-.44l-.06,0c-.24-.16-.33-.17-.38-.17l-.37,0c-1.42.27-3,.64-4.45,1-.69.17-1.41.35-2.12.51a12.42,12.42,0,0,1-1.59.26c-.36,0-.71.09-1,.16-.11,0-.37.16-.55.25a7.53,7.53,0,0,1-2.91.88H66a3.15,3.15,0,0,1-1-.21,4,4,0,0,1-1.3.28h-.22Z"/><path class="cls-1" d="M41.74,170.84a2,2,0,0,1-.34,0,4.94,4.94,0,0,1-1.78-.65,3.94,3.94,0,0,0-.57-.27,3.26,3.26,0,0,1-1.4-1,3,3,0,0,0-.27-.26l-.49-.37a7.7,7.7,0,0,1-1.08-.89,6.17,6.17,0,0,0-.75-.61c-.22-.16-.45-.33-.68-.52a2.87,2.87,0,0,1-.88-1.8,1.55,1.55,0,0,0,0-.21v0a2.07,2.07,0,0,1,0-1.92A4.37,4.37,0,0,1,35,160.46a4.24,4.24,0,0,1,1.1-.52v0l0,0,.25-.14c.2-.1.42-.23.63-.33s.4-.22.65-.37.79-.48,1.28-.72a13.31,13.31,0,0,1,2.57-.9l.52-.14a22.44,22.44,0,0,1,6.12-.8h.26a7.56,7.56,0,0,1,1.46.2,4.57,4.57,0,0,0,.71.12,6.94,6.94,0,0,0,1.56-.34l.54-.15c1.12-.3,2.19-.51,3.22-.71s1.91-.37,2.83-.63l.49-.14a18.9,18.9,0,0,1,2.15-.51,6.56,6.56,0,0,1,1.42-1.4l.07-.06a5.13,5.13,0,0,0,.46-.57c.68-.92,1.29-1.92,1.94-3l1.11-1.77c.5-.78,1-1.62,1.53-2.44h0l-.86.26h0a30.51,30.51,0,0,0-5,2,5,5,0,0,1-3.71,2.95l-.07,0a8.92,8.92,0,0,1-2.74.39c-.72.78-2.52,2.66-4.88,2.59a4.27,4.27,0,0,1-.79-.1l-.22-.06a8.5,8.5,0,0,0-1.6-.27,6.09,6.09,0,0,1-2-.46,5.74,5.74,0,0,0-.58-.2h-.4a2.61,2.61,0,0,1-2-.77,1.73,1.73,0,0,1-1.27-.64,3,3,0,0,1-.53-1.54A2.39,2.39,0,0,0,41,149a4.93,4.93,0,0,0-.65-1.05l-.22-.3a4.07,4.07,0,0,1-.83-2.24,4.83,4.83,0,0,1,.19-1.35,1.78,1.78,0,0,1-.48-2.27,3.91,3.91,0,0,1,.84-1.27,4.26,4.26,0,0,1,2.24-3.12,4.07,4.07,0,0,1,1.27-.46,7.15,7.15,0,0,1,1.62-.84,9.25,9.25,0,0,1,3.51-.51,16.47,16.47,0,0,1,2.3.24,9,9,0,0,1,1.89.56,6.06,6.06,0,0,0,1.86,0h.14l.79-.08c.54-.07.8.3,1.45.32h.22l.36,0c.44,0,.86.06,1.28.07s.61,0,.89,0c2.44-.1,5.08-.44,7.63-.76,1.28-.17,2.61-.34,3.91-.48l1.48-.17a39.85,39.85,0,0,1,4.36-.37c.24,0,.54,0,.86,0a13.59,13.59,0,0,1,1.59-.07c2.22.06,2.83,1.19,3,2.12a11.75,11.75,0,0,1-.44,5.35l-.08.24-.14.24-.32.6c-.31.57-.64,1.16-1,1.78a15.42,15.42,0,0,1-1.65,2.07l-.6.68a9.47,9.47,0,0,0-1.12,2,18,18,0,0,1-1.22,2.29c-.26.41-.54.77-.78,1.08a5.64,5.64,0,0,0-.56.84,4.44,4.44,0,0,0-.2,1.36c0,.12,0,.24,0,.37-.1,1.73-1.71,4.29-3.67,5.87l0,.05a9.46,9.46,0,0,1-.69.94,7,7,0,0,1-3.29,2.17l-.29.1c-.22.09-.5.24-.81.4a8,8,0,0,1-3.73,1.19,2.66,2.66,0,0,1-1.94-.83l-.16-.21a3.84,3.84,0,0,1-.68.09h-.37a7.22,7.22,0,0,1-1.05-.11,3.78,3.78,0,0,0-.52-.06H57c-.45.07-.95.17-1.48.28l-1.31.26-.4.07a25.05,25.05,0,0,0-4.48,1,9.18,9.18,0,0,0-2.4,1.48l-1,.76A7,7,0,0,1,41.74,170.84Z"/><path class="cls-1" d="M20.81,214C18,214,16.7,211.64,16.73,207a7.24,7.24,0,0,1,2.32-5.23,4,4,0,0,1,1.45-2.16,4.26,4.26,0,0,1,2.78-1,4,4,0,0,1,.56,0H24a14.06,14.06,0,0,1,2,.25,10.91,10.91,0,0,0,1.55.19h.41a17.84,17.84,0,0,0,3.32-.7l1-.26a23.77,23.77,0,0,1,6.74-.75,25.35,25.35,0,0,1,2.92.26l0-.07c.64-.88,1.22-1.8,1.83-2.78l.34-.54c-1,.16-2,.37-3,.62s-2.3.64-3.54,1l-1.27.39-2.7.78c-.27.08-.52.14-.77.19l-.67.18a6.65,6.65,0,0,1-3.72,1.4,4.84,4.84,0,0,1-1.43-.29,10.21,10.21,0,0,1-3.46-2.08,15.12,15.12,0,0,1-1.19-1.22,10.58,10.58,0,0,0-1.16-1.16,4.47,4.47,0,0,1-1.79-2.8,7.08,7.08,0,0,1,1.51-4.52c.2-.27.39-.48.53-.64l0,0,.05-.12a6,6,0,0,1,2.25-3,5.7,5.7,0,0,1,3.37-1.23,3.43,3.43,0,0,1,2,.78,2.54,2.54,0,0,0,.37.23,7.55,7.55,0,0,0,2.84.33h.2c.41,0,1.34.57,1.92.49a13.32,13.32,0,0,1,2.42-.2H37l.78,0,1.31.06a14.35,14.35,0,0,0,2.62-.13l2.61-.4c2.54-.4,5.17-.82,7.75-1l.62-.05a16.08,16.08,0,0,1,2.13-.12,4.88,4.88,0,0,1,2.19.5,4.67,4.67,0,0,1,.85.61,3.93,3.93,0,0,0,.4.29,2.79,2.79,0,0,1,1.25,2.09,12.11,12.11,0,0,1-.34,3.51l0,.11a7.67,7.67,0,0,1-5,5.76l-.33.1c-.17.21-.37.47-.63.75s-.42.43-.58.59a3.91,3.91,0,0,0-.37.39,7.17,7.17,0,0,0-.45,1c-.1.26-.21.52-.34.81-.4.91-.63,1.55-.83,2.11a16.53,16.53,0,0,1-2.43,4.65c-2.49,3.62-5.12,3.83-5.87,3.81a3.25,3.25,0,0,1-.89-.15l-.19,0-.46,0a1.89,1.89,0,0,1-1-.3l-.11,0c-.62.19-1.22.33-1.74.45l-1,.26c-1.33.37-2.66.82-4.07,1.29l-1,.36a28.29,28.29,0,0,1-2.86.81,10,10,0,0,1-1.46.18,4.77,4.77,0,0,0-.66.07,8.8,8.8,0,0,0-1.14.58A12,12,0,0,1,21.9,214,5.14,5.14,0,0,1,20.81,214Z"/><path class="cls-1" d="M4,252.82a3.59,3.59,0,0,1-2-.58,2.54,2.54,0,0,1-.94-1.39,2.6,2.6,0,0,0-.1-.25c-.06-.13-.15-.28-.24-.44A4.4,4.4,0,0,1,.16,249a8.38,8.38,0,0,1,1.33-6.41,6.57,6.57,0,0,1,2.82-2.15,6.06,6.06,0,0,1,1.37-.94,3.19,3.19,0,0,1-2.37-2,5.31,5.31,0,0,1-.43-3.57,4.66,4.66,0,0,1,.8-1.6,4.43,4.43,0,0,1,.46-1.51,7.24,7.24,0,0,1,6.74-4c.38,0,.74.05,1.06.07l.53,0,.43,0a40.23,40.23,0,0,0,8.2-1,52.61,52.61,0,0,1,8.4-1.07h.39c.53,0,1.24,0,2,0a10.59,10.59,0,0,1,3.34.51,2.38,2.38,0,0,1,1.55,3.38,6.5,6.5,0,0,1-.84,1.48l-.16.24a5.59,5.59,0,0,0-.23.57,11.76,11.76,0,0,1-.59,1.37v0A11.71,11.71,0,0,1,31.34,237c-.45.33-.91.73-1.44,1.19l-1.09.92c-.83.68-1,1.05-1.06,1.38a4,4,0,0,0-.08.61,6.07,6.07,0,0,1-.08.78s0,.06,0,.09a3.69,3.69,0,0,1-.47,1.54,4,4,0,0,1-.46.68l0,.18a9.32,9.32,0,0,1-1.14,2.6c-1.6,2.62-4.54,4.54-6.83,4.47h0A2.59,2.59,0,0,1,16.27,250a3.19,3.19,0,0,1-.29-1.4h0l-.3,0a4.86,4.86,0,0,0-1,.07,5.77,5.77,0,0,0-1.33.64c-.51.28-1.09.6-1.74.89-.44.2-.95.46-1.49.73a25.63,25.63,0,0,1-2.83,1.32A9.09,9.09,0,0,1,4,252.82ZM22.79,235l-.2.06a21.43,21.43,0,0,1-2.18.48,15.49,15.49,0,0,0-1.77.4A33.81,33.81,0,0,0,15,237.33a8.21,8.21,0,0,1-3.53.75,7.61,7.61,0,0,0-.88.06l-.52.27-.23.12a15.32,15.32,0,0,1,1.9-.06l1.48-.11,2.52-.18.59,0c.43,0,.83,0,1.22-.1a4.79,4.79,0,0,0,.54-.15,8.73,8.73,0,0,1,1.8-.41,2.94,2.94,0,0,1,.51,0h.14c.43-.46.87-.95,1.32-1.46Z"/><path class="cls-1" d="M111.27,81.26c-2-.06-2-2-2-2.85v-.14a1.73,1.73,0,0,0-.15-.53,4.65,4.65,0,0,1-.28-1.13c-.17-1.76,1.5-3.31,2.21-4l.3-.28.13-.12c.58-.57,1.08-1.06,1.5-1.56.12-.14.26-.32.4-.5a13,13,0,0,1,2.15-2.29,8.41,8.41,0,0,1,.74-.51A5.12,5.12,0,0,1,118,66a4.08,4.08,0,0,1,1.27-.36,4.92,4.92,0,0,1,.72-.28,5.31,5.31,0,0,1,.55-.13,4.69,4.69,0,0,1,1.1-.49l.64-.19.42.07h.15a2.92,2.92,0,0,1,1.82.68A2.61,2.61,0,0,1,125,68c-.07.24-.15.44-.21.6a3.4,3.4,0,0,1-.49,2l-.14.23L124,71a11.79,11.79,0,0,0-.85,1.41,12.72,12.72,0,0,1-3.07,4,7.92,7.92,0,0,1-2.1,1.19l-.08,0a13.77,13.77,0,0,1-2.49,1.62l-.4.3a6.88,6.88,0,0,1-3.59,1.67Z"/><path class="cls-1" d="M81.87,140.06a2.44,2.44,0,0,1-1.8-.82,2.52,2.52,0,0,1-.44-2.36c0-.08,0-.15,0-.21l-.09-.14a2.52,2.52,0,0,1-.56-1.24c-.18-1.38,1.09-2.92,1.77-3.75l.1-.12c.38-.46.73-.92,1.11-1.42l.67-.87c.07-.08.16-.21.25-.34a10.24,10.24,0,0,1,.91-1.16,6.3,6.3,0,0,1,2.63-1.79,5.78,5.78,0,0,1,.88-.61,4.76,4.76,0,0,1,1.87-.63,6,6,0,0,1,2-1,5.42,5.42,0,0,1,1.46-.2,2,2,0,0,1,1.83,1c.58,1.19-.28,2.89-.85,4l-.06.12-.36.83a26.49,26.49,0,0,1-2.13,4.27,9.68,9.68,0,0,1-2.39,2.61,11.45,11.45,0,0,1-1.93,1.13l-.47.23-.16.17a7.5,7.5,0,0,1-2.88,2,3.93,3.93,0,0,1-1.4.24Z"/><path class="cls-1" d="M63.22,184A2.59,2.59,0,0,1,61,182.84c-1-1.58-.66-4.37.92-6.87a19.56,19.56,0,0,1,1-1.89c.22-.39.43-.77.59-1.1,0-.08.08-.2.13-.32a5.43,5.43,0,0,1,2-2.7,4.75,4.75,0,0,1,2.83-.88h.23a7.65,7.65,0,0,1,3,1,1.46,1.46,0,0,1,.24.17,2.74,2.74,0,0,1,.5,0,1.8,1.8,0,0,1,1.24.47c.72.69.42,1.84.22,2.61a1.36,1.36,0,0,0,0,.17,1.15,1.15,0,0,0,0,.2,4.26,4.26,0,0,1-.22,1.39,6.56,6.56,0,0,1-1.26,2l-.19.23-.41.55c-.66.89-1.34,1.82-2.14,2.76l-.1.13a5.53,5.53,0,0,1-3.08,2.2,5.86,5.86,0,0,1-3.25,1Z"/><path class="cls-1" d="M119,83.88a1.69,1.69,0,0,1-1.79-1.28,2.19,2.19,0,0,1,0-.89,2.14,2.14,0,0,1-.16-.59,5.22,5.22,0,0,1,.8-3.19,11.66,11.66,0,0,0,.74-1.9l0,0a5,5,0,0,1,2.78-3.21,12.32,12.32,0,0,0,2.42-2l.29-.32a5.14,5.14,0,0,1,3.36-1.91l.18-.06a5.41,5.41,0,0,1,1.93-.37,2.27,2.27,0,0,1,.59.08c2.31.58,1.74,3.72.6,5.76a15.61,15.61,0,0,1-1.34,1.92c-.16.19-.3.38-.43.55s-.26.37-.4.59a13.26,13.26,0,0,1-1.27,1.69A7.88,7.88,0,0,1,126,80l0,0,0,0a6.65,6.65,0,0,1-2.35,2.19A9.46,9.46,0,0,1,119,83.88Z"/><path class="cls-1" d="M39.14,231a3,3,0,0,1-2.25-1.14c-1.17-1.37-.24-3.78.31-5.21l.13-.36a10.17,10.17,0,0,1,3.06-4.66,8.44,8.44,0,0,1,1.57-1l0,0,.11-.11a9.14,9.14,0,0,1,2-1.57,5.16,5.16,0,0,1,2.59-.7,4.69,4.69,0,0,1,1.07.18l.14,0a3,3,0,0,1,.88-.11,1.56,1.56,0,0,1,1.62,1.42,4.58,4.58,0,0,1-.58,3.24,8.25,8.25,0,0,1-1.35,2,4.57,4.57,0,0,0-.29.36,32.55,32.55,0,0,1-2,2.57l-.24.28a10.63,10.63,0,0,1-2.14,2.06,2.51,2.51,0,0,0-.6.61A5.52,5.52,0,0,1,39.14,231Z"/><path class="cls-1" d="M87.82,141.76a2.47,2.47,0,0,1-.94-.2c-1.11-.5-1.24-2.15-1.24-2.17a4.41,4.41,0,0,1,.18-1.4l0-.13,0-.07a2.5,2.5,0,0,1,0-2.68l0-.05,0,0a8.31,8.31,0,0,1,1.53-1.82l.26-.26.33-.37a22.66,22.66,0,0,1,1.77-1.81,23.58,23.58,0,0,1,2.41-1.86,10.64,10.64,0,0,1,2.22-1.14l.31-.13,0,0a6,6,0,0,1,3-1.32H98a2,2,0,0,1,2.06,2c.31,2-1.28,3.72-2.14,4.65a8.22,8.22,0,0,0-.64.74c-.12.17-.23.35-.35.53A11.58,11.58,0,0,1,93.23,138l-.16.1,0,0a11.16,11.16,0,0,1-1.17,1.15,3.71,3.71,0,0,0-.28.26l0,0a4.53,4.53,0,0,1-3.73,2.17Z"/><path class="cls-1" d="M75,179.76a4.1,4.1,0,0,1-1.17-.21,2.66,2.66,0,0,1-1.06-.72h-.09a4.5,4.5,0,0,1-1.09.14h0c-.37,0-2.15-.18-1.35-2.47a8.19,8.19,0,0,1,1.8-2.63c.41-.43.81-.82,1.2-1.2s.87-.85,1.21-1.24l.34-.43a7.82,7.82,0,0,1,3.34-2.75,5,5,0,0,1,2.17-.48c3,.09,3,3.72,2.12,5.76a10.83,10.83,0,0,1-3.69,4.92A6.35,6.35,0,0,1,75,179.76Z"/><path class="cls-1" d="M44.83,231.8a2,2,0,0,1-1.79-1,2.76,2.76,0,0,1,.18-2.39.61.61,0,0,0,.05-.12s0-.12,0-.2a5.12,5.12,0,0,1,.73-1.87,10.4,10.4,0,0,1,1.08-1.37l.28-.33.34-.48a10.84,10.84,0,0,1,.67-1,18.56,18.56,0,0,1,4.15-3.7,5.28,5.28,0,0,1,2.88-1,1.83,1.83,0,0,1,1.72,1.08,1.54,1.54,0,0,1,1.48,1.28,4.25,4.25,0,0,1-.9,2.74l-.19.29-.17.2-.24.33a10.35,10.35,0,0,1-.92,1.16c-.27.29-.53.53-.73.73a4.66,4.66,0,0,0-.39.39s-.1.15-.16.23a7.73,7.73,0,0,1-1.56,1.8,8.15,8.15,0,0,1-2,1.19l-.23.11-.32.22c-.85.6-2.44,1.71-4,1.66Z"/><path class="cls-2" d="M63.25,113.35a5,5,0,0,1,.93-.11c.14,0,.3.16.44.16.37,0,.36-.13.81-.3.92-.37,1.06.23,1.79.22s1.92-.81,2.76-1,1.77-.24,2.68-.45c2.22-.51,4.52-1.12,6.71-1.53a2.58,2.58,0,0,1,2.24.35,1.08,1.08,0,0,0,.63.28,2.35,2.35,0,0,1,.84.36c.69.38,1.55-.41,2.46-.41.71,0,1.14.28,1.87.24a7.07,7.07,0,0,0,2.18-.08,8.36,8.36,0,0,1,.91-.26c.25,0,.61.11.82,0a12.88,12.88,0,0,0,2.16-1.28A6,6,0,0,0,95.27,108a4.07,4.07,0,0,0,.91-1.7c0-.73-.27-1.35-.23-2.11a11.52,11.52,0,0,1,.72-2.47,6.58,6.58,0,0,1,1.55-2.5,39.22,39.22,0,0,0,4.21-5.55c1.15-1.9,2.69-3.61,4-5.45a13.07,13.07,0,0,0,1.64-2.74,4.4,4.4,0,0,0,.21-2.26c0-.65.4-1.38.09-1.93s-.82-.51-1.44-.53c-1.06,0-2.19.16-3.27.2s-2,0-3,0c-4.33.1-8.93,1.18-13.53,2.19C83,84,78,85.37,74.74,84.32c-1.68-.53-3.3-1.31-5.42-1.19a3.63,3.63,0,0,0-1.7.35c-.26.23-.12.5-.27.77a6.37,6.37,0,0,1-2.06,1.61,3.72,3.72,0,0,1-2.25.42c-.36,0-.75.15-1.11.18s-.69-.12-.92,0c-.45.24-.44,1.29-.56,1.67a13.9,13.9,0,0,0-.7,2.53,4.43,4.43,0,0,0,.61,2.19,7.4,7.4,0,0,0,.87,1.76,19.92,19.92,0,0,0,3,3,4.5,4.5,0,0,0,4.62.86c1-.27,1.94-.73,2.91-1.06a18.31,18.31,0,0,0,2.53-.91A16.51,16.51,0,0,1,77,95.38a10.27,10.27,0,0,0,2.68-1.16c2-1.25,3.79-2.42,5.83-3.49a45.69,45.69,0,0,1,6.15-2.66c1.09-.38,2.17-.75,3.25-1.07a5.3,5.3,0,0,0,1-.33c.41-.21.62-.55,1-.75a9.92,9.92,0,0,1,1.35-.36c.38-.16.86-.58,1.25-.56.79,0,0,.9-.37,1.37-1.35,2-2.66,4-3.93,6s-2.31,3.9-3.8,5.83c-1.09,1.4-2.21,3.67-4,4.38a29,29,0,0,1-6.61,1.69c-1.12.15-2.22.24-3.35.42a5,5,0,0,1-2.51.13c-.61-.27-.7-.91-1.44-1.06a3.3,3.3,0,0,0-2,.27c-.68.32-1.29,1-2,1.19-.45.1-.5,0-.91.22a7.1,7.1,0,0,0-.87,1,1.84,1.84,0,0,0-1.8-.09c-.28.18-.34.51-.55.76a4,4,0,0,1-.89.69c-.85.52-1.41.62-1.53,1.43-.07.5.06.61-.35,1.18-.19.28-.63.55-.59.85.06.52,1.17.18,1.11.93S62.3,113.37,63.25,113.35Zm1-2.38c.5,0,0,.67-.39.74C63.11,111.85,63.81,111.14,64.24,111Z"/><path class="cls-2" d="M49.42,138a9.41,9.41,0,0,0-4.43.1c-.7.25-1.27.89-1.89,1.1-.14.05-.17-.19-.39-.07s-.28.59-.3.76c0,.48.07.6-.34,1.08-.18.2-.53.35-.63.6-.2.5.53.55.68.86s-.26,1.32-.23,1.89a2.9,2.9,0,0,0,.6,1.56,7,7,0,0,1,1,1.63c.18.46.1,1.2.4,1.57s.43.09.76.17.3.21.46.41c.38.5,1.08.23,1.75.41a9.19,9.19,0,0,0,2.18.6,10.74,10.74,0,0,1,2.2.38c1.55.37,2.26-1.27,3.48-2.21a1.44,1.44,0,0,1,1.27-.35,6.19,6.19,0,0,0,2.4-.25c1.15-.32.92-.24,1.29-1.13a3.16,3.16,0,0,1,1.46-1.4,32.26,32.26,0,0,1,5.91-2.42c.9-.28,4.3-1.38,4.26-.41A9,9,0,0,1,70,145.43c-.51.86-1,1.71-1.6,2.56-1,1.63-2,3.34-3.17,4.94a9.17,9.17,0,0,1-1,1.12,8.47,8.47,0,0,0-1,.88c-.31.5.18.95-.35,1.47s-1.58.13-2.15.2a17.16,17.16,0,0,0-2.43.59c-2.05.57-4,.79-6.07,1.35a11.39,11.39,0,0,1-2.92.59c-.83,0-1.46-.34-2.33-.33a19.93,19.93,0,0,0-5.34.67,14.43,14.43,0,0,0-2.44.79c-.66.33-1.27.77-1.92,1.09-.28.14-.73.4-.91.48.17-.08-.53.37-.33.2-.18.16-.15-.16-.32.23-.06.15.17.51.2.64.13.54.13,1.09.55,1.45A17.77,17.77,0,0,1,38,165.56a13.89,13.89,0,0,0,1.47,1.16c.42.35.66.81,1.23,1a12.22,12.22,0,0,0,2,.85,3.32,3.32,0,0,0,2.11-.84A18,18,0,0,1,49.31,165a30.56,30.56,0,0,1,5.47-1.27c.95-.17,1.94-.42,2.88-.55a16.14,16.14,0,0,1,2.35.14c.56,0,1.06-.71,1.44-.65s.46,1,.66,1.21c1,1,2.54-.28,4.09-.93a4,4,0,0,0,1.9-1,7.15,7.15,0,0,1,1.31-1.58,6.63,6.63,0,0,0,2.37-3.7,7.2,7.2,0,0,1,.37-2.4,15.94,15.94,0,0,1,1.63-2.47c1-1.52,1.37-3.12,2.6-4.61a25.74,25.74,0,0,0,2-2.38c.47-.73.85-1.47,1.26-2.21A9.74,9.74,0,0,0,80,138c-.19-1.47-2.36-.9-3.89-.88-1.79,0-3.74.33-5.6.53-3.89.42-7.93,1.09-11.72,1.25-1,0-1.86,0-2.77-.1a22.08,22.08,0,0,0-2.53.2C51.85,139.11,50.82,138.26,49.42,138Z"/><path class="cls-2" d="M31.37,186a15.75,15.75,0,0,1-3.65-1.06c-.88-.35-1.46-1.53-3-.43a3,3,0,0,0-1,1.65,6.21,6.21,0,0,1-.89,1.2,4.69,4.69,0,0,0-.95,2.8,3.47,3.47,0,0,0,1.36,2c.89.72,1.53,1.67,2.39,2.42a8.79,8.79,0,0,0,3,1.81c1.1.38,1.43.22,2.67-.61a8.17,8.17,0,0,1,2.51-.84l2.63-.77c1.66-.5,3.33-1,5-1.45a36.44,36.44,0,0,1,5.27-.92c1.49-.15,1.14.36.36,1.54-1.06,1.6-2,3.21-3.13,4.79a9,9,0,0,1-1.41,1.8c-.64.48-.86.18-1.38.08a21.54,21.54,0,0,0-9.26.3A26.52,26.52,0,0,1,27,201.31a33.3,33.3,0,0,1-4.21-.44c-.5,0-1.19-.3-1.28.42s.51.34-.47,1.09A4.33,4.33,0,0,0,19.28,206c0,2,.19,6.24,3.23,5.72,1.47-.25,2.92-1.5,4.36-2a23.85,23.85,0,0,1,2.5-.35,21.7,21.7,0,0,0,2.49-.71c1.76-.58,3.52-1.2,5.27-1.69.9-.26,1.8-.41,2.7-.69.35-.11,1.1-.7,1.31-.73s.2.13.3.31c.53,1,.29.23,1.63.65,1.1.34,2.24-.78,3.06-2,2.06-3,1.64-3.23,3-6.23a19.76,19.76,0,0,1,.94-2.13,9.27,9.27,0,0,1,1.47-1.67A8.18,8.18,0,0,1,52.92,193a3.91,3.91,0,0,1,1.4-.44,4,4,0,0,0,2.3-3.07,10.69,10.69,0,0,0,.33-3.07,1.54,1.54,0,0,0-.69-1.19c-.42-.26-.73-.62-1.18-.86-.95-.52-2.57-.25-3.88-.15-3.33.26-6.76.9-10.17,1.4a24.65,24.65,0,0,1-5.21.06C34.42,185.57,32.71,186.12,31.37,186Z"/><path class="cls-2" d="M34.39,229c.8-2.15-4.43-1.84-5.92-1.83-5.51.07-11.82,2.33-17.2,2-1.58-.09-3.67-.6-4.85,1.71-.26.5-.16,1-.36,1.42s-.57.64-.7,1.14a4.25,4.25,0,0,0,.4,2.54A1.81,1.81,0,0,0,8,237.24c1.14-.28,2-1.13,3.16-1.32s2.14.09,3.51-.53a36.6,36.6,0,0,1,4.1-1.61c1.38-.44,2.69-.52,4-.91a16.51,16.51,0,0,1,3-.91,8.25,8.25,0,0,1,1.8-.15c.45.09.48,0,.2.45A15.21,15.21,0,0,1,26.24,234l-1.51,1.61c-1.17,1.26-2.31,2.66-3.58,3.84-1,1-1.13.19-2.1.29-.73.06-1.54.48-2.3.56s-1.27.1-1.9.15l-4.14.29a14.17,14.17,0,0,0-4.14.49,2,2,0,0,0-1.09.65c-.28.26-.11.33-.52.55a2.91,2.91,0,0,1-.49,0c-2,.67-2.07,4.3-1.81,5.22a12.07,12.07,0,0,0,.74,1.43c.19.42.25.88.65,1.16.71.51,2.07.32,3.22-.11,1.33-.49,2.76-1.36,4.1-2s2.52-1.53,3.87-1.78a5.72,5.72,0,0,1,2.75.08c.84.32.35,1.26.69,1.92.87,1.7,3.49.07,4.64-1.81a6.7,6.7,0,0,0,.78-1.72c.07-.37,0-.56.19-.93.1-.19.46-.44.59-.67a2,2,0,0,0,.18-.8,14.65,14.65,0,0,1,.19-1.59,6.2,6.2,0,0,1,2.32-3.18c.95-.78,1.79-1.59,2.78-2.3a8.33,8.33,0,0,0,2.37-3.13c.33-.63.48-1.23.77-1.85S34.22,229.43,34.39,229Z"/><path class="cls-2" d="M118.89,68c-.25.09-.25-.23-.63,0-.19.08-.43.51-.6.65s-.65.39-1,.63a14.49,14.49,0,0,0-1.92,2.17c-.59.7-1.25,1.34-1.91,2s-1.59,1.33-1.51,2.1.41,1.09.43,1.76c0,.48,0,1.74.63,1.72.49,0,1.82-1.2,2.4-1.5a10.15,10.15,0,0,0,2-1.33c.67-.54,1.32-.54,2-1.09,1.49-1.2,2.14-3.36,3.28-4.77.23-.39.06-.79.14-1.16s.2-.51.27-.75c.13-.47.21-.9-.08-1.19a1.33,1.33,0,0,0-.94-.27l-.16,0a.37.37,0,0,0-.29.31c-.57.33-.73.12-1.34.3C119.36,67.64,119.16,67.93,118.89,68Z"/><path class="cls-2" d="M90.88,125.78c-.71.18-1.28,1-1.86,1.1s-.46-.21-1.09.14c-.25.14-.42.43-.68.57-.72.4-1,.19-1.7.93-.36.39-.64.86-1,1.27-.62.79-1.2,1.57-1.84,2.36-.47.57-1.25,1.47-1.18,2s.7.84.67,1.54-.38,1.26.05,1.72a.92.92,0,0,0,1,.33c.7-.24,1.24-1.1,1.84-1.55.79-.58,1.68-.82,2.46-1.4A5.52,5.52,0,0,0,89,133.28a32.87,32.87,0,0,0,2.27-4.73C91.85,127.39,93.08,125.2,90.88,125.78Z"/><path class="cls-2" d="M63.35,181.17c.62.94,1.93.68,3.15-.57.46.52.92-.25,1.33-.74.87-1,1.61-2.08,2.4-3.14a6.82,6.82,0,0,0,1-1.37,7.19,7.19,0,0,0,.12-1.21c.06-.35.41-1.31.17-1.54s-.63.13-1,.11-.53-.39-.8-.55a6,6,0,0,0-2.28-.81c-1.22-.1-1.26.76-1.68,1.63-.49,1.05-1.2,2.08-1.61,3.12C63,177.81,62.56,180,63.35,181.17Z"/><path class="cls-2" d="M119.64,80c0,.27.21.46.22.74s-.14.46-.1.63c.18.8,2.33-.37,3.17-.86s.78-.75,1.26-1.35,1-.75,1.44-1.24,1-1.35,1.44-2a20.67,20.67,0,0,0,1.51-2.08c.55-1,1.15-3.1.07-3.37-.47-.12-1.15.27-1.68.36-.9.15-.67.16-1.48,1a15.64,15.64,0,0,1-3.44,2.75c-.74.42-.72.41-1,1.14a13.15,13.15,0,0,1-1,2.42A3.06,3.06,0,0,0,119.64,80Z"/><path class="cls-2" d="M47.9,219c-.13-.64-.22-.31-.85-.27-.88.07-1.3-.56-2.37,0A8.26,8.26,0,0,0,43.26,220c-.59.51-1.11.58-1.7,1a7.62,7.62,0,0,0-1.9,3.29c-.46,1.19-1.18,3-.5,3.76a1.29,1.29,0,0,0,2.24,0,6.65,6.65,0,0,1,1.41-1.34,8.67,8.67,0,0,0,1.58-1.62,26.46,26.46,0,0,0,1.77-2.25,10.45,10.45,0,0,0,1.4-1.93A2.5,2.5,0,0,0,47.9,219Z"/><path class="cls-2" d="M88.44,136.84a13.8,13.8,0,0,0-.25,1.5c0,.3.24,1,.51,1.1.56.25.71-.27,1.11-.72s1-.88,1.42-1.36c.17-.2.21-.45.41-.62a6.27,6.27,0,0,1,.86-.43,9.72,9.72,0,0,0,2.76-3.16c.93-1.34,2.49-2.32,2.27-3.73,0-.35-.21-.93-.73-.89s-1.13.71-1.66.95a12.77,12.77,0,0,0-2.09,1,20.57,20.57,0,0,0-2,1.5,23.79,23.79,0,0,0-1.77,1.86A10.75,10.75,0,0,0,88,135.25C87.73,135.8,88.46,136.33,88.44,136.84Z"/><path class="cls-2" d="M73.19,176.64c.55-.12.86-.28,1.28-.07s.57.65,1,.82c2,.7,3.93-2,4.49-3.67.63-1.4.58-4.47-1.68-3.49-1.16.5-1.36,1.18-2.12,2.05s-1.69,1.68-2.51,2.55a4.88,4.88,0,0,0-1,1.42C72.46,176.81,72.57,176.77,73.19,176.64Z"/><path class="cls-2" d="M54.12,222c-.07-.38-.42-.21-.76-.31-.88-.25-.34-1.68-2-.63a14.14,14.14,0,0,0-3.08,2.72c-.37.49-.64,1-1,1.47a14.29,14.29,0,0,0-1.13,1.36A5.41,5.41,0,0,0,45.7,228c-.14.42-.45.84-.26,1.18.53,1,2.08-.44,3-1a13.43,13.43,0,0,0,1.71-.93,8.26,8.26,0,0,0,1.11-1.42c.4-.49.88-.87,1.32-1.34s.65-.89,1-1.33C53.78,222.87,54.19,222.29,54.12,222Z"/></g></g></svg>