<svg xmlns="http://www.w3.org/2000/svg" viewBox="0 0 214.92 201.91"><defs><style>.cls-1{fill:#fff;stroke:#d81534;stroke-miterlimit:10;}</style></defs><g id="Layer_2" data-name="Layer 2"><g id="back"><path class="cls-1" d="M97.45,155.17c12.09-1.61,20.4-2,28.29-1.51,10.46.48,16.17,2.68,17.93,6.63a5.5,5.5,0,0,1-2.45,7.4c-1.81.8-3.51,1-10.87-.51-10.37-2.09-18.16-3.18-28.81-2.79,5.65,13.65-.84,25.21-19.11,33.32-14.83,6.58-27.14,4.14-31.38-5.4-4-9.06,3-21.8,19.59-29.18a125,125,0,0,1,16.06-6c-5-11.35-10.23-22.64-15.27-34-3.42,2.51-6.26,4.56-9.1,6.6A84.09,84.09,0,0,1,51,136.57c-5.43,2.41-12.54,2.8-22.07-2.23l1-4c8.4,1.6,12.38.81,16.18-.87a89.11,89.11,0,0,0,11.12-6.91c3.43-2.5,6.69-4.92,10.45-8L56.24,88.92C50,93.06,44.5,96.68,39.12,100.06c-6.73,4-10.95,6.43-15.56,8.47-6.59,2.92-13.13,2.87-23-1.22l.58-4c9,.74,13.65-.34,17.43-2,5-2.19,9.36-5.13,15.75-8.94,5.65-3.69,11.3-7.39,18-11.92-1-2.3-2.29-4.69-3.47-7.33-3.22-6.84-5.08-10.16-8.3-12.08-2.75-1.73-6.42-2.48-11.51-2.39l-.38-4A16.3,16.3,0,0,1,31,53.39a26.24,26.24,0,0,1,15-1.72c4.08.76,8.38,2,9.62,4.8a15.56,15.56,0,0,1,.93,4.32c.37,2.19,1.35,5.7,4.54,13.36,9.92-7,15.43-11,17.72-13.38a19.31,19.31,0,0,1,6.33-4.38c4.94-2.19,10.72-1.61,12.1,1.51.88,2,0,4-5.67,7.65C82,72,73.55,77.29,65.05,83c3.13,7.48,6.63,15.38,10.94,25.1,6-4.65,9.64-7.63,12.41-10.24a25,25,0,0,1,6.33-4.38c3.8-1.68,8.61-1.46,9.86,1.34.94,2.14,0,4.36-3.3,6.78-6.12,4.88-11.61,8.5-21.28,15.55Zm-7.17,10.08a61.27,61.27,0,0,0-17.48,5c-13.17,5.84-18.34,12.87-15.56,19.13,2.63,5.92,9.64,6.17,20.83,1.2C90.76,185,95.25,176.44,90.79,166.4Z"/><path class="cls-1" d="M187.82,99.72a14.35,14.35,0,0,1-3.11-4.34c-5.11-11.51,0-23.06,4.82-34.45,4.2-10.53,8.53-20.33,3.55-31.53-7.52-17-20.85-21.69-37.65-14.24-7.24,3.21-13.69,10-16.17,15.05-1.41,2.6-1.43,4.77-.2,11.13l2.62,13.42-6.42,2.85-8-18c-2.48-5.59-2-8,.69-11.33,5.83-7.72,16.27-17.07,27.13-21.89C179.33-4.3,197.86-.71,206.63,19.06c7.59,17.12-.68,30.45-7.61,44.16-5.76,11.43-11.26,22.15-5.93,34.16Zm19.73,35.59a11.52,11.52,0,0,1-15.38-5.78,11.62,11.62,0,1,1,21.25-9.43A11.5,11.5,0,0,1,207.55,135.31Z"/></g></g></svg>