<?xml version="1.0" encoding="utf-8"?>
<!-- Generator: Adobe Illustrator 25.0.1, SVG Export Plug-In . SVG Version: 6.00 Build 0)  -->
<svg version="1.1" id="Layer_1" xmlns="http://www.w3.org/2000/svg" xmlns:xlink="http://www.w3.org/1999/xlink" x="0px" y="0px"
	 viewBox="0 0 75.9 121.8" style="enable-background:new 0 0 75.9 121.8;" xml:space="preserve">
<style type="text/css">
	.st0{fill:#D81534;}
</style>
<g id="Layer_2_1_">
	<g id="back">
		<polygon class="st0" points="1.8,8.9 1.1,5.7 0.2,3.4 1.4,9 		"/>
		<polygon class="st0" points="-7,7.7 -5.9,10.9 -5.6,10.7 -5.6,10.6 -5.2,11.5 -4.9,11.4 -6.7,7 -7.1,7.1 -6.8,7.6 		"/>
		<polygon class="st0" points="-24.4,20.8 -26.7,18.3 -26.9,18.5 -24.6,21 		"/>
		<polygon class="st0" points="-35.2,32.3 -38.1,30.5 -38.3,30.8 -35.4,32.6 		"/>
		<polygon class="st0" points="-41.1,43.5 -44.4,42.4 -44.6,42.7 -41.2,43.8 		"/>
		<polygon class="st0" points="3.3,5.9 3.7,8.4 4,8.4 3.6,5.8 		"/>
		<polygon class="st0" points="-2.3,9.4 -3.5,6.4 -5.8,5.1 -2.6,9.5 		"/>
		<polygon class="st0" points="-19,16.6 -21,14.1 -21.3,14.3 -19.2,16.8 		"/>
		<polygon class="st0" points="-31.5,27.3 -34.3,25.5 -34.4,25.8 -31.7,27.5 		"/>
		<path class="st0" d="M6.6,7.7l0.2,1.3L7.4,9L7.2,7L6.5,7.1v0.3L5.9,4.6L5.6,4.7l0,0H5.4l0.2,1.7H5.4v0.2H5.1V6.2L4.5,6.3l0.5,3.2
			l0.5-0.1v0.3l0.7-0.1L6,9.2v0.1l0.7-0.1L6.3,7.6L6.6,7.7z M5.9,5.6L6,6.3H5.9L5.9,5.6z"/>
		<polygon class="st0" points="-11.6,12.6 -13.3,9.9 -13.6,10.1 -11.9,12.8 		"/>
		<polygon class="st0" points="-17.8,15.7 -18.9,14 -19.2,14.1 -18,15.9 		"/>
		<polygon class="st0" points="-34.2,30.2 -35.9,29 -36.1,29.3 -34.4,30.5 		"/>
		<polygon class="st0" points="-39.3,40.3 -42.5,39 -42.7,39.2 -39.5,40.6 		"/>
		<polygon class="st0" points="-42.1,77.7 -45.5,78.7 -45.4,79 -42,78 		"/>
		<polygon class="st0" points="-27,101.4 -29.4,103.8 -29.2,104.1 -26.7,101.7 		"/>
		<polygon class="st0" points="-43.4,48.2 -43.4,48.2 -41.4,48.7 -41.2,48.1 -43.3,47.6 -43.3,47.8 -44.8,47.5 -45.1,47.5 
			-45.1,47.5 -46,47.3 -46.1,47.7 -44.8,47.9 		"/>
		<polygon class="st0" points="-44.1,54.2 -42.1,54.5 -42,54 -41.9,54.1 -41.9,53.8 -41.1,53.8 -41,53.2 -45.7,52.7 -45.8,52.8 
			-47.3,52.5 -47.3,52.8 -45.8,53.1 -45.8,53.3 -45.3,53.4 -45.3,53.5 -44.6,53.6 -44.7,54 -47.4,53.8 -47.5,54.1 -44.1,54.3 		"/>
		<polygon class="st0" points="-43.9,71.6 -43.9,71.5 -43.1,71.3 -43.2,71 -48,72.1 -47.9,72.4 -47.1,72.2 -47.1,72.4 		"/>
		<polygon class="st0" points="-38.6,86.7 -35,83.7 -37.5,85.4 -38.2,85.7 -38.3,85.5 -42.6,87.8 -42.4,88 -39.3,86.4 -39.1,86.8 
			-41.6,88.2 -41.4,88.4 -38.5,86.8 		"/>
		<polygon class="st0" points="-42.3,84.6 -41.9,84.5 -41.8,84.6 -37.5,82.7 -37.8,82.1 -38.4,82.3 -38.4,82.3 -38.6,82.4 
			-38.9,81.9 -41.7,83.3 -41.5,83.8 -42.1,84.1 -42.1,84.2 -42.4,84.3 		"/>
		<polygon class="st0" points="-45,77.1 -42.9,76.6 -43,76.3 -45.1,76.8 		"/>
		<polygon class="st0" points="-37,90 -42.1,92.2 -38.7,91.3 -36.8,90.3 		"/>
		<polygon class="st0" points="-47.7,64.3 -44.1,64.2 -44.2,63.9 -47.5,64 -44.7,63.7 -44.7,63.6 -41.3,64.4 -42.6,63 -46,63 
			-46,63.5 -50.6,63.9 -48,64 -47.7,64 		"/>
		<polygon class="st0" points="-42.8,74.4 -46.2,75.1 -49.2,76.3 -42.7,74.7 		"/>
		<polygon class="st0" points="-29.3,99 -29.5,98.8 -30.4,99.5 -29.6,98.7 -26,96.2 -28.7,97.1 -31.2,99.3 -30.9,99.6 -32.8,101.4 
			-32.5,101.6 -32.1,101.1 -31.9,101.3 		"/>
		<polygon class="st0" points="-16.7,108.8 -17,108.7 -18,110.3 -16.7,107.8 -17,107.7 -19.3,111.8 -19,112 -18.8,111.6 
			-18.6,111.7 		"/>
		<polygon class="st0" points="-46,73 -44.1,72.7 -44.1,72.7 -42.1,72.3 -42.2,71.7 -44.3,72.1 -44.2,72.4 -46.1,72.7 		"/>
		<polygon class="st0" points="-42.2,78.2 -45.3,79.4 -45.2,79.7 -42.1,78.5 		"/>
		<polygon class="st0" points="-34.2,93.8 -36.7,95.8 -36.5,96.1 -33.9,94 		"/>
		<polygon class="st0" points="-10.1,112.3 -10.4,112.2 -11.4,115.2 -11.3,115.2 -11.3,115.3 -11,115.4 -9.9,112.4 -10.1,112.3 		
			"/>
		<polygon class="st0" points="-47.4,70.8 -45.7,70.4 -45.6,70.4 -45.6,70.4 -42.2,70 -42.3,69.3 -42.4,69.4 -42.5,68.8 -45.7,69.5 
			-45.6,69.8 -45.7,69.8 -45.6,70.1 -45.7,70.1 -46.4,70.2 -46.4,70.3 -47.4,70.5 		"/>
		<polygon class="st0" points="-38.5,86.9 -41.3,88.6 -41.2,88.9 -38.3,87.2 		"/>
		<polygon class="st0" points="-35.1,92.7 -36.9,93.8 -36.7,94.1 -34.9,92.9 		"/>
		<polygon class="st0" points="-25.4,103.3 -26.8,104.8 -26.6,105.1 -25.1,103.5 		"/>
		<polygon class="st0" points="-30.8,98.1 -30.8,98 -30.7,97.9 -30.9,97.7 -31.2,98 -32.7,99.1 -32.6,99.3 -33.3,99.9 -33,100.2 
			-31,98.2 		"/>
		<polygon class="st0" points="-19.3,107.8 -20.6,109.5 -20.3,109.7 -19.1,107.9 		"/>
		<polygon class="st0" points="-23,104.3 -25.2,106.9 -24.9,107.1 -22.7,104.5 		"/>
		<polygon class="st0" points="-13.7,110.2 -15.4,113.1 -15.1,113.3 -13.4,110.3 		"/>
		<polygon class="st0" points="14.5,116.7 14.6,120 14.9,120 14.8,116.7 		"/>
		<path class="st0" d="M42.7,109.1l-1.1-1.8l-0.4,0.2l-0.5-0.7l-0.6,0.4l2.7,3.8l0.2-0.2l1,1.4l0.1-0.1l0,0l0.2-0.2l0,0l0.3-0.2
			l-1.7-2.8L42.7,109.1z M43.2,110.2l0.1-0.1l0.9,1.4L43.2,110.2z"/>
		<polygon class="st0" points="-17.2,111.4 -16.9,111.6 -15.5,109.4 -15.8,109.3 		"/>
		<polygon class="st0" points="24.3,115.9 25.3,118.9 25.6,118.8 24.7,115.8 		"/>
		<polygon class="st0" points="37.8,111.8 39.5,114.5 39.7,114.3 38.1,111.6 		"/>
		<polygon class="st0" points="-18.3,108.2 -19.8,111 -19.5,111.1 -18,108.3 		"/>
		<polygon class="st0" points="-0.9,115.3 -1.8,121.8 -1.1,118.5 -0.5,115.4 		"/>
		<polygon class="st0" points="5.7,118.7 6,118.7 6.3,116.7 5.9,116.6 		"/>
		<polygon class="st0" points="20.9,116.6 20.4,114.5 19.7,114.6 20.4,117.6 20.9,117.5 21.1,118.7 21.4,118.7 21.2,116.6 		"/>
		<polygon class="st0" points="12.7,119.1 13.1,119.2 13.1,117.1 12.7,117.1 		"/>
		<polygon class="st0" points="36.3,114.9 35.4,113 35.1,113.1 35.3,113.6 34.9,112.9 34.7,113 36.2,115.8 36.5,115.7 36.1,115 		
			"/>
		<polygon class="st0" points="9.7,119.6 10,119.7 10.2,116.3 9.9,116.3 		"/>
		<polygon class="st0" points="21.1,115.9 21.5,119.3 21.9,119.2 21.4,115.9 		"/>
		<polygon class="st0" points="47.9,105.6 50.1,108.3 50.3,108.1 48.2,105.4 		"/>
		<polygon class="st0" points="66.2,83.8 64.3,83.2 64.2,83.5 68.9,85.1 68.9,85.1 69.4,85.3 69.5,85 66.3,83.6 		"/>
		<polygon class="st0" points="55.5,99.6 55.5,99.6 55.4,99.7 52.7,97.6 52.3,98.1 56,101 56.3,100.6 57,101.2 57.2,100.9 
			56.8,100.6 59.2,102.4 58.3,101.3 55.7,99.3 		"/>
		<polygon class="st0" points="63.8,88.8 69.7,91.7 67,89.7 63.9,88.5 		"/>
		<polygon class="st0" points="16.1,116.9 16.6,120 16.9,119.9 16.4,116.8 		"/>
		<polygon class="st0" points="46.8,106.9 48,108.6 48.3,108.4 47.1,106.8 		"/>
		<polygon class="st0" points="58.3,96.8 60,98.1 60.2,97.9 58.5,96.6 		"/>
		<polygon class="st0" points="62.5,91.3 64.3,92.4 64.5,92.2 62.7,91.1 		"/>
		<polygon class="st0" points="38.3,111 39.9,114 40.2,113.8 38.7,110.8 		"/>
		<polygon class="st0" points="47.1,110.1 47.2,110.1 47.1,110 45.9,108.3 46.4,108 44.5,105.3 43.9,105.6 45.1,107.3 45,107.4 
			44.2,106.3 43.9,106.5 46.8,110.2 46.9,110.3 46.9,110.2 46.9,110.3 47,110.2 47.2,110.1 		"/>
		<polygon class="st0" points="60.5,93.2 59.1,92.3 58.7,92.8 60.4,93.9 60.8,93.5 63.4,95.2 63.6,94.9 60.7,93 		"/>
		<polygon class="st0" points="70.7,67.2 69,67.1 69,67.4 68.7,67.4 68.7,68 71.9,68.1 71.9,67.5 71.1,67.4 71.1,67.3 74.2,67.6 
			74.2,67.3 70.7,67 		"/>
		<polygon class="st0" points="56.5,98.4 54.8,97.2 54.4,97.7 57,99.5 57.2,99.3 59,100.5 59.2,100.3 56.6,98.4 		"/>
		<polygon class="st0" points="33.9,113.3 35.4,116.1 35.7,116 34.2,113.2 		"/>
		<polygon class="st0" points="50.3,104.2 52.6,106.4 52.9,106.2 50.5,104 		"/>
		<polygon class="st0" points="66.1,89.4 66.3,89.1 64.4,88.1 64.2,88.4 		"/>
		<polygon class="st0" points="61.8,95.8 60,94.6 60,94.7 59.7,94.5 59.5,94.7 62.3,96.7 62.5,96.4 61.7,95.9 		"/>
		<polygon class="st0" points="67.5,81.8 69.5,82.6 69.6,82.3 67.6,81.5 		"/>
		<polygon class="st0" points="69.6,75.4 71.7,75.9 71.8,75.6 69.7,75.1 		"/>
		<polygon class="st0" points="68.6,76.3 68.5,76.3 68.4,76.6 68.5,76.6 66.9,76.3 66.8,76.9 69.9,77.5 70,77 71.8,77.5 71.9,77.2 
			71.2,77 72,77.2 72.1,76.9 68.7,76 		"/>
		<polygon class="st0" points="70.4,55.9 73.9,55.6 73.9,55.3 70.4,55.6 		"/>
		<polygon class="st0" points="59.9,30.1 62.8,28.1 62.6,27.9 59.7,29.8 		"/>
		<polygon class="st0" points="69.3,79.6 68,79.2 67.9,79.5 68.1,79.6 68,79.7 69.2,79.9 71.2,80.6 71.3,80.3 71.3,80.3 71.4,80.1 
					"/>
		<polygon class="st0" points="63,34.3 61.6,35.1 61.9,35.7 63.8,34.7 63.5,34.2 65.8,32.6 65.6,32.4 62.9,34.2 		"/>
		<polygon class="st0" points="70.4,70.5 73.7,70.7 73.7,70.4 70.4,70.2 		"/>
		<polygon class="st0" points="69.8,50 71.9,49.5 71.9,49.2 69.7,49.7 		"/>
		<polygon class="st0" points="71,57.5 73.2,57.4 73.2,57.1 71,57.2 		"/>
		<polygon class="st0" points="68.5,42.4 68.3,42.1 65.4,43.4 65.7,43.9 68.3,42.8 69.7,42.3 69.6,42 		"/>
		<polygon class="st0" points="66.6,35.6 65.5,36.1 65.5,36.1 62.4,37.6 62.7,38.2 65.8,36.7 65.6,36.4 66.7,35.9 		"/>
		<polygon class="st0" points="63,29.9 61.2,31.1 61.4,31.3 63.2,30.2 		"/>
		<polygon class="st0" points="70.5,59 74.1,58.9 74,58.5 70.5,58.7 		"/>
		<polygon class="st0" points="71.1,62.3 71,62.3 71.1,62.6 74.4,62.3 74.4,62.1 74.4,62.1 74.4,61.8 71,62 		"/>
		<polygon class="st0" points="68.2,45.3 71.3,44 71.2,43.7 68.1,45 		"/>
		<polygon class="st0" points="60.5,30.7 59,31.9 59.5,32.3 62,30.4 61.7,30.1 63.3,28.9 63.1,28.7 60.5,30.7 		"/>
		<polygon class="st0" points="51.3,21 51.4,20.9 51.5,21 52.9,19.4 52.7,19.2 52.5,19.4 53.3,18.4 53,18.2 51,20.8 		"/>
		<polygon class="st0" points="70.3,71 73.6,71.2 73.7,70.9 70.3,70.7 		"/>
		<polygon class="st0" points="70.2,53 70.2,53 68,53.3 68.1,53.9 71.5,53.4 71.4,53 73,52.7 75.9,51.7 71.4,52.7 73.5,52.2 
			73.4,51.9 70.2,52.7 		"/>
		<polygon class="st0" points="64.5,32.3 62.7,33.4 62.8,33.7 64.7,32.6 		"/>
		<polygon class="st0" points="68.4,39.4 66.4,40.2 66.4,40.3 64.7,41 64.9,41.5 66.3,41 66.3,41 69.6,39.7 69.5,39.4 68.9,39.6 
			72.5,38.6 69.3,39.1 68.4,39.5 		"/>
		<polygon class="st0" points="58.3,27.5 56.5,28.8 56.7,29 55.2,30.2 55.7,30.7 59.3,27.6 59.2,27.6 59.6,27.3 59.4,27 60.2,26.4 
			60,26.2 58.3,27.5 		"/>
		<polygon class="st0" points="53.7,22.7 55.2,21.2 55,21 53.5,22.5 		"/>
		<polygon class="st0" points="48.6,18.5 50,16.9 49.7,16.7 48.4,18.3 		"/>
		<polygon class="st0" points="34.9,11.9 36.2,8.8 35.9,8.7 34.6,11.8 		"/>
		<polygon class="st0" points="-11.3,9.1 -9.9,12.1 -9.6,12 -11,8.9 		"/>
		<polygon class="st0" points="-21.1,18.1 -23.2,15.5 -23.4,15.7 -21.4,18.3 		"/>
		<polygon class="st0" points="39.7,13.4 41.9,8.2 40.6,10.4 39.3,13.3 		"/>
		<polygon class="st0" points="21.8,4.8 21.4,4.8 21.2,7.9 21.6,7.9 		"/>
		<polygon class="st0" points="14.7,5.2 14.4,5.2 14.3,7.3 14.7,7.3 		"/>
		<polygon class="st0" points="7.9,7.5 7.7,5.4 7.3,5.4 7.5,7.5 		"/>
		<polygon class="st0" points="-14,13.5 -15,11.7 -15.3,11.8 -14.3,13.6 		"/>
		<polygon class="st0" points="-15.1,14.8 -14.4,16.1 -13.9,15.9 -13.8,16.1 -13.2,15.8 -14.8,12.9 -15.3,13.2 -15.4,12.9 -16,13.2 
			-16.8,11.9 -17.1,12 -15.4,14.9 		"/>
		<polygon class="st0" points="-40.2,41.4 -40.2,41.3 -39.6,41.5 -39.5,41.5 -38.9,41.7 -38.6,41.1 -40.6,40.3 -40.8,40.8 
			-41.7,40.5 -43.3,39.8 -43.4,39.9 -44.1,39.7 -44.2,40 -41.8,40.8 		"/>
		<polygon class="st0" points="-6.1,10.8 -7,8.4 -7.3,8.5 -6.4,10.9 		"/>
		<polygon class="st0" points="-27.2,22.9 -26,24 -25.5,23.5 -27.9,21.5 -28.3,21.9 -29.7,20.8 -29.9,21 -27.4,23 		"/>
		<polygon class="st0" points="-37.4,35.5 -40.5,34.2 -43,32.3 -37.6,35.8 		"/>
		<polygon class="st0" points="-3.9,9.8 -3.9,9.8 -3.6,9.7 -4.8,6.8 -4.9,6.8 -4.9,6.8 -5.2,6.9 -4,9.8 		"/>
		<polygon class="st0" points="-20.7,17.7 -22.8,15.3 -23.1,15.5 -20.9,17.9 		"/>
		<polygon class="st0" points="-35.8,32.5 -37.6,31.4 -37.8,31.6 -35.9,32.8 		"/>
		<polygon class="st0" points="-41.6,38.2 -39.6,39.1 -39.5,38.8 -40.1,38.5 -39.2,38.8 -39.2,38.8 -36.3,39.9 -36.1,39.3 
			-40.5,37.5 -40.7,38 -42.2,37.5 -42.4,37.8 -41.5,38 		"/>
		<polygon class="st0" points="68,46.2 68.1,46.5 68.7,46.4 68.7,46.4 68.6,46.4 68.7,46.7 70.1,46.2 70.9,46 70.9,45.9 71.8,45.6 
			71.7,45.3 71.4,45.4 71.3,45.3 		"/>
		<polygon class="st0" points="59.8,30.4 60,30.6 65.4,27.3 62.7,28.5 		"/>
		<polygon class="st0" points="44.4,16.4 43.5,17.7 44,18 45.9,15.4 45.8,15.3 46.7,14.1 46.4,13.9 45.5,15.1 45.4,15 46.4,13.6 
			46.1,13.4 44.2,16.2 		"/>
		<polygon class="st0" points="30.7,6.7 30.4,6.6 29.4,9.8 29.7,9.9 		"/>
		<polygon class="st0" points="16.5,6.1 15.9,6.1 15.8,6.9 15.5,6.9 15.5,6.4 14.8,6.4 14.9,10.9 15.5,10.9 15.5,9.3 15.7,9.4 
			15.7,9.3 16.3,9.4 16.4,7.6 16.7,7.6 16.9,4.3 16.6,4.3 		"/>
		<polygon class="st0" points="62.3,33.2 65,31.3 64.8,31 62.1,32.9 		"/>
		<polygon class="st0" points="50.3,20.1 52.2,17.5 51.9,17.3 50,19.9 		"/>
		<polygon class="st0" points="22.5,4.9 22.2,4.9 22,8 22.3,8.1 		"/>
		<polygon class="st0" points="56.4,25.7 58.6,23.4 58.4,23.1 56.1,25.5 		"/>
		<polygon class="st0" points="40.2,11.2 39.9,11 38.9,12.9 39.2,13 		"/>
		<polygon class="st0" points="32.6,8.1 31.8,10.1 32.2,10.2 32.9,8.2 		"/>
		<polygon class="st0" points="25.3,8.3 25.7,6.3 25.4,6.3 25,8.3 		"/>
		<polygon class="st0" points="-31.1,28.3 -31.7,27.9 -31.7,27.9 -34.4,25.8 -34.5,26 -35.2,25.5 -35.4,25.8 -31.3,28.5 		"/>
		<polygon class="st0" points="13.6,115.5 14,120.2 14.1,121.5 14,115.5 		"/>
		<polygon class="st0" points="29.4,113.1 31.2,117.4 31.5,117.3 29.8,113 		"/>
		<polygon class="st0" points="55.8,96.4 59.8,99.2 60,98.9 56,96.1 		"/>
		<polygon class="st0" points="63.3,39 63.3,39.1 63.6,39.6 65.3,38.9 65.4,39.2 68.6,37.8 68.5,37.5 66.6,38.3 66.7,38.3 66.5,38 
			67.5,37.6 67.4,37.3 66.5,37.7 67.8,37 67.6,36.7 63.3,39 		"/>
		<polygon class="st0" points="54.6,26.6 58.1,23.3 57.9,23.1 54.4,26.4 		"/>
		<polygon class="st0" points="42.4,16.9 44.7,12.7 44.4,12.6 42.1,16.7 		"/>
		<polygon class="st0" points="27.7,10.7 27.7,10.7 28.1,10.8 28.6,8.8 28.2,8.7 28.7,6.2 28.4,6.1 28.4,6.3 28.3,6.3 27.4,9.5 
			27.6,9.5 27.4,10.7 		"/>
		<polygon class="st0" points="-36.2,37.9 -35.9,37.3 -36.4,37 -36.3,36.8 -38.1,36.1 -38,35.9 -39.9,34.9 -40.1,35.2 -39.1,35.7 
			-39.2,35.6 -39.5,36.2 -39.2,36.3 -39.2,36.3 		"/>
		<polygon class="st0" points="-40.1,46.7 -43.4,45.8 -43.6,46.4 -40.3,47.3 		"/>
		<polygon class="st0" points="-41.3,73.8 -41.4,73.2 -44.8,73.9 -44.6,74.5 		"/>
		<polygon class="st0" points="-37.9,88.9 -37.7,89.3 -35.8,88.3 -36,87.9 -35.7,87.8 -36,87.2 -39,88.8 -38.7,89.3 		"/>
		<polygon class="st0" points="-42.2,44.4 -39.8,45.2 -39.6,44.6 -42,43.8 		"/>
		<polygon class="st0" points="-44.9,50.4 -41.7,50.8 -41.6,50.2 -44.8,49.8 -44.8,49.9 -46.3,49.6 -48.4,49.4 -44.9,50.2 		"/>
		<polygon class="st0" points="-34.2,95.7 -33.6,95.2 -33.4,95.4 -31.8,94.2 -32,93.9 -31.8,93.7 -32.2,93.2 -34.6,95.3 		"/>
		<polygon class="st0" points="-42.9,59.2 -46.1,59.3 -46.1,59.9 -46.2,59.9 -46.1,60.5 -41,59.6 -42.9,59.8 -42.9,59.8 		"/>
		<polygon class="st0" points="-45,66.3 -42.9,66.2 -43,65.5 -45.1,65.7 		"/>
		<polygon class="st0" points="-42,80.2 -40,79.5 -40.3,78.9 -42.2,79.6 		"/>
		<polygon class="st0" points="-31.8,97.3 -31.4,97.8 -29.8,96.6 -30.2,96.1 		"/>
		<polygon class="st0" points="-33,96.7 -30.3,94.7 -30.7,94.2 -32.9,95.8 -33,95.6 -34.8,96.9 -34.6,97.1 -33.4,96.3 		"/>
		<polygon class="st0" points="-22.9,102.1 -23.4,101.7 -25.6,104.1 -25.1,104.5 		"/>
		<polygon class="st0" points="-18.9,108.9 -17,106.2 -17.6,105.9 -19.5,108.6 		"/>
		<polygon class="st0" points="2.3,113.7 1.7,113.6 1,116.8 1.6,116.9 1.8,116.2 1.7,117 2.4,117.1 4.1,111.8 2.3,114 		"/>
		<polygon class="st0" points="17.4,114.6 17.7,117.8 18.4,117.8 18.1,114.6 		"/>
		<polygon class="st0" points="31.6,115.2 30.6,112.1 29.9,112.3 30.8,114.9 31.6,117.4 32,117.3 31.3,115.3 		"/>
		<polygon class="st0" points="-24.7,100.8 -25.2,100.3 -25.4,100.6 -25.5,100.5 -26.7,101.9 -26.9,102.1 -26.9,102.2 -27.5,102.9 
			-27,103.3 -26.2,102.3 		"/>
		<polygon class="st0" points="-20.6,104.4 -22.3,107 -21.7,107.3 -20.1,104.7 		"/>
		<polygon class="st0" points="-4.3,112.3 -4.4,112.3 -4.2,111.6 -4.9,111.4 -6.1,115.8 -5.8,115.9 -6.2,117.2 -5.9,117.3 
			-5.2,115.3 -5,115.3 		"/>
		<polygon class="st0" points="26.4,116.5 25.5,114 25.5,113.8 25.5,113.8 25.4,113.6 24.8,113.8 24.9,114.2 25.2,115.7 25.2,115.8 
			26.1,118.8 27.4,121.2 25.8,116.7 		"/>
		<polygon class="st0" points="-28.8,101.6 -26.7,99.3 -27.2,98.8 -27.4,99 -27.7,98.7 -29.3,100.1 -28.8,100.5 -28.6,100.3 
			-29.1,100.9 -30.2,101.9 -30,102.1 -29.1,101.3 		"/>
		<polygon class="st0" points="7.5,116.7 7.4,116.7 7.4,119.8 8.4,121.5 7.8,116.9 8.1,116.9 8.3,115 7.7,114.9 		"/>
		<polygon class="st0" points="-0.6,115.6 0.1,115.7 0.6,113.8 -0.1,113.6 		"/>
		<polygon class="st0" points="15.1,115.1 15.1,117.1 15.8,117.1 15.7,115.1 		"/>
		<polygon class="st0" points="21.9,114.5 22.3,116.5 22.9,116.4 22.6,114.4 		"/>
		<polygon class="st0" points="29.5,115 29,113.1 28.3,113.2 28.7,114.5 28.5,114.6 28.7,115.2 28.4,115.2 28.2,114.5 27.9,114.6 
			28.7,117.8 29.1,117.7 28.9,117.2 29.2,117.2 29.1,116.6 29.4,117.8 29.7,117.7 29,115.1 		"/>
		<polygon class="st0" points="-11.1,109.2 -11.7,108.9 -12,109.4 -12.5,109.2 -13.7,112 -13.6,112 -14.2,113.1 -13.9,113.2 
			-13.3,112.1 -13.1,112.2 -12.9,112 -12.7,112.1 		"/>
		<polygon class="st0" points="-1,112.8 -1.7,112.6 -2,113.8 -2.3,113.7 -3.3,118.3 -2.9,118.3 -2.4,115.8 -1.9,115.9 		"/>
		<polygon class="st0" points="6.2,114.2 5.5,114.1 5,117.3 5.7,117.4 		"/>
		<polygon class="st0" points="27.8,116.1 27,113 26.6,113.1 26.4,112.5 25.8,112.7 27.2,117 27.9,116.8 27.7,116.2 		"/>
		<polygon class="st0" points="54.1,102.4 51.8,100 51.3,100.5 53.6,102.8 53.7,102.7 54.6,103.6 54.8,103.4 54,102.5 		"/>
		<polygon class="st0" points="-3.9,112.2 -4.7,114.5 -4,114.7 -3.2,112.4 		"/>
		<polygon class="st0" points="37.7,112.9 36.1,110.2 35.5,110.5 36.4,112 36.3,112.1 37.4,114.4 37.7,114.3 37.2,113.1 		"/>
		<polygon class="st0" points="-6.2,113.3 -5.7,112 -5.8,112 -5.8,111.8 -6.5,111.7 -6.8,113.1 -7.1,113.7 -7,113.7 -8.1,116.3 
			-7.7,116.4 -7.5,115.8 -7.5,115.8 -7,114.7 -6.6,114.8 		"/>
		<polygon class="st0" points="11.8,114.9 11.8,114.9 11.1,114.9 11.3,118 11.8,118 11.8,118 12.5,118 12.2,114.9 		"/>
		<polygon class="st0" points="19.2,116.8 19,114.8 18.3,114.8 18.5,116.8 18.8,116.8 19,118.9 19.4,118.9 19.1,116.8 		"/>
		<polygon class="st0" points="32.4,111.9 33.1,113.8 33.7,113.6 33,111.7 		"/>
		<polygon class="st0" points="39.1,109.1 40.1,110.8 40.7,110.6 39.7,108.8 		"/>
		<polygon class="st0" points="45.1,105.7 46.3,107.4 46.8,107 43.3,102.4 		"/>
		<polygon class="st0" points="50.7,101.5 50.7,101.5 50.2,101.1 49.7,101.5 52,103.9 52.5,103.5 52.1,103 52.1,103 		"/>
		<polygon class="st0" points="35.6,113.4 36.3,113.1 35,110.2 34.3,110.4 		"/>
		<polygon class="st0" points="71.3,71.8 68,71.2 67.9,71.8 66.4,71.6 66.3,72.3 71.1,72.8 71.1,72.7 73.3,72.9 73.4,72.6 
			71.2,72.4 		"/>
		<polygon class="st0" points="72.2,59 68.8,59.2 68.8,59.8 68.9,59.8 69,60.4 72.2,60 72.2,59.9 72.2,59.9 72.2,59.7 72.2,59.7 		
			"/>
		<polygon class="st0" points="42.1,106.9 43.4,109 44,108.7 42.7,106.6 		"/>
		<polygon class="st0" points="47.8,103.5 47.8,103.5 47.3,103.9 49.5,106.2 49.6,106.1 49.6,106.1 50.1,105.6 47.9,103.4 		"/>
		<polygon class="st0" points="62.6,92.5 59.8,91.1 59.5,91.6 60.8,92.3 60.8,92.3 63.7,94.2 63.9,93.9 62.4,93 		"/>
		<polygon class="st0" points="69.8,77.7 66.7,77.1 66.5,77.7 69.7,78.3 		"/>
		<polygon class="st0" points="42.4,110.6 40.5,108.1 40,108.4 41.2,110.2 41,110.3 42,112.1 42.2,112.1 42.3,112.2 42.6,112 
			41.9,110.9 		"/>
		<polygon class="st0" points="67.5,81.5 67.7,81.2 68.3,81.4 68.5,80.8 65.3,79.7 65.1,80.3 65.7,80.5 65.6,80.8 		"/>
		<polygon class="st0" points="62.3,87.5 64.1,88.5 64.4,87.9 62.6,87 		"/>
		<polygon class="st0" points="71.4,60.9 69.3,60.9 69.3,61 69.1,61 69.1,61.7 71.2,61.7 71.2,61.5 71.4,61.5 		"/>
		<polygon class="st0" points="60.3,89.4 63.2,91.2 63.5,90.6 60.6,88.9 		"/>
		<polygon class="st0" points="67.2,73.6 67.1,73.6 66.9,74.2 70.3,75 70.4,74.4 70.5,74.4 70.7,73.8 65.7,72.9 		"/>
		<polygon class="st0" points="67.1,82.7 64.7,81.8 64.4,82.4 66.2,83.1 66.1,83.1 69.4,84.4 69.5,84.1 66.9,83 		"/>
		<polygon class="st0" points="62.3,31 61.7,31.5 61.5,31.3 59.7,32.4 60,32.8 59.8,32.9 60.2,33.4 62.8,31.5 		"/>
		<polygon class="st0" points="66.9,85.2 63.9,84.1 63.6,84.7 65.9,85.5 65.7,85.8 67.7,86.6 67.9,86.3 66.4,85.7 66.7,85.8 
			66.7,85.8 67.8,86.3 67.9,86.1 68.8,86.4 68.9,86.1 66.8,85.3 		"/>
		<polygon class="st0" points="67.1,47.6 67.3,48.2 69.3,47.7 69.2,47 		"/>
		<polygon class="st0" points="70.8,54.6 68.7,54.8 68.8,55.5 70.8,55.2 		"/>
		<polygon class="st0" points="68.5,63.5 68.5,64.1 71.2,64.2 68.9,64.3 69,64.9 72.2,64.8 72.2,64.2 71.9,64.2 71.9,64 73.3,64.1 
			73.3,63.8 71.9,63.7 71.9,63.6 		"/>
		<polygon class="st0" points="71.2,66.2 73.9,66.4 74,66.1 71.2,65.9 71.2,65.8 68.6,65.6 68.5,66.3 71.1,66.5 		"/>
		<polygon class="st0" points="59.9,27.8 57.5,29.9 57.5,29.9 57.3,30 57.7,30.5 58.2,30.2 58.4,30.5 60.1,29.3 59.7,28.8 
			60.4,28.3 		"/>
		<polygon class="st0" points="47.9,20.6 48.5,21 50.3,18.4 49.7,18.1 		"/>
		<polygon class="st0" points="71.4,68.2 70.4,68.1 70.4,68.2 68.6,68.1 68.6,68.6 68.5,68.6 68.5,68.9 70.9,69 70.9,69.1 73,69.4 
			73.1,69.2 73.4,69.2 73.4,68.9 71.8,68.8 71.8,68.6 73,68.7 73.1,68.4 71.8,68.3 71.8,68.2 		"/>
		<polygon class="st0" points="71,50.5 70.8,49.9 67.7,50.8 67.9,51.4 		"/>
		<polygon class="st0" points="68.3,44.6 68.1,44.3 69.1,43.9 68.8,43.3 65.9,44.5 66.1,45.1 66.2,45.1 66.3,45.2 		"/>
		<polygon class="st0" points="56.8,25.5 55.2,26.8 55.7,27.3 57.3,26 57.1,25.8 59.2,24 59,23.8 56.8,25.5 		"/>
		<polygon class="st0" points="52.3,21.1 51.8,20.7 50.4,22.2 50.9,22.6 		"/>
		<polygon class="st0" points="64.8,35.4 61.7,36.9 62.1,37.5 63.8,36.6 63.9,36.7 67,35.2 66.9,34.9 65,35.8 		"/>
		<polygon class="st0" points="58.4,26.4 55.8,28.4 56.2,28.9 58.8,26.9 		"/>
		<polygon class="st0" points="53.1,21 50.8,23.4 51,23.6 50.9,23.7 51.4,24.1 53.7,21.8 53.5,21.6 53.6,21.5 		"/>
		<polygon class="st0" points="34.4,9.8 33.1,12.8 33.7,13 35,10 		"/>
		<polygon class="st0" points="54.2,24.6 53.3,25.4 53.8,25.9 53.9,25.8 54,25.8 54.7,25 56.2,23.7 56.1,23.5 56.1,23.5 56,23.4 
			55.8,23.2 55.8,23.2 55.6,23.1 		"/>
		<polygon class="st0" points="24.7,10.1 24.8,8.8 25,8.1 24.9,8.1 25,7.1 24.4,7 24.3,7.3 24.2,7.3 23.5,10.5 24.2,10.6 24.3,10.1 
					"/>
		<polygon class="st0" points="48.5,17.1 48,16.8 46.3,19.4 46.7,19.6 46.6,19.7 47.2,20 48.9,17.4 48.5,17.2 		"/>
		<polygon class="st0" points="41.3,16.1 42.4,14.4 41.8,14.1 40.7,15.8 		"/>
		<polygon class="st0" points="35.7,11.2 34.8,13 35.4,13.3 36.3,11.4 36,11.4 36.9,8.8 36.6,8.7 35.7,11.2 		"/>
		<polygon class="st0" points="21.1,7.3 20.5,7.2 20.2,9.2 20.8,9.3 		"/>
		<polygon class="st0" points="13.9,8.8 14,6.8 13.5,6.8 13.5,6.2 13,6.2 12.9,4.2 12.5,4.3 12.6,4.6 12.5,4.6 12.5,7.9 12.8,7.9 
			12.8,9.4 13.5,9.4 13.5,8.8 		"/>
		<polygon class="st0" points="42.4,17.4 42.9,17.7 44.8,15 44.2,14.7 		"/>
		<polygon class="st0" points="36,14.1 36.6,14.4 38,11.4 37.7,11.3 38.2,10.3 37.9,10.2 37.4,11.2 37.4,11.2 		"/>
		<polygon class="st0" points="-0.5,7.4 -0.7,6.6 -1,6.7 -0.8,7.5 -0.8,7.5 -0.4,9.2 -1,7.5 -1.6,7.8 -1.5,8 -2,8.1 -0.6,12.5 
			0.1,12.3 -0.5,10.6 -0.1,10.5 0,10.6 0.6,10.5 -0.2,7.4 		"/>
		<polygon class="st0" points="-13.6,11.9 -12,14.8 -11.4,14.5 -12.3,12.9 -12.1,12.9 -12.9,11.7 -12.9,11.6 -13,11.6 -13.9,10.2 
			-14.2,10.3 -13.3,11.7 		"/>
		<polygon class="st0" points="45.9,16.4 44.4,18.4 44.9,18.8 43.9,20.2 44.5,20.5 45.7,18.6 45.8,18.7 46.6,17.6 46.8,17.8 
			48.9,15.1 48.6,14.9 47,17 46.8,17 47,16.7 46.6,16.4 47.4,15.3 47.1,15.1 46.1,16.5 		"/>
		<polygon class="st0" points="40.5,12.4 39.2,15.2 39.4,15.3 39.4,15.3 40,15.5 41.3,12.7 41.1,12.6 41.1,12.6 		"/>
		<polygon class="st0" points="22.4,9.8 23.1,9.9 23.4,6.8 22.7,6.8 		"/>
		<polygon class="st0" points="-8.5,9.9 -7.1,12.6 -6.5,12.3 -6.6,12.2 -6.4,12.2 -7.2,10.3 -7.5,10.4 -7.9,9.6 -8,9.6 -8.3,8.8 
			-8.6,8.9 -8.3,9.7 		"/>
		<polygon class="st0" points="30.4,11.6 30.6,11.7 30.1,13.6 30.7,13.8 32,9.4 31.6,9.3 31.8,8.8 31.6,8.8 32,7 31.7,7 31.2,8.7 
			31.1,8.7 		"/>
		<polygon class="st0" points="10.1,7.3 10.4,9.1 11,9 10.6,6 10.6,6 10.7,0 10.1,4.2 10.3,6 10,6.1 10.1,6.9 9.4,6.9 9.5,8.9 
			10.2,8.9 		"/>
		<polygon class="st0" points="2.3,7.7 1.9,5.6 1.5,5.6 2,7.8 1.8,7.8 2.2,9.8 2.9,9.7 2.5,7.7 		"/>
		<polygon class="st0" points="-5.1,9.5 -4.5,11.4 -3.9,11.2 -4.5,9.3 		"/>
		<polygon class="st0" points="-10,13.4 -10.8,11.6 -11.4,11.8 -10.6,13.6 		"/>
		<polygon class="st0" points="-39.1,43.3 -38.9,42.8 -39.1,42.7 -39,42.2 -40.9,41.7 -40.9,41.7 -42.9,40.9 -43,41.2 -42.1,41.5 
			-42.2,42 -42.2,42 -42.3,42.2 		"/>
		<polygon class="st0" points="-42.6,57.3 -46,57 -46,57.2 -47.6,57.1 -47.6,57.4 -46,57.5 -46,57.6 -40.7,58.5 		"/>
		<polygon class="st0" points="-22.7,18.4 -21.1,20.3 -20.6,20 -22.1,18 		"/>
		<polygon class="st0" points="-43,64.3 -46.1,64.7 -46.1,65.3 -42.9,64.9 		"/>
		<polygon class="st0" points="-21.2,16.3 -20.7,17 -21,17.2 -19.8,18.8 -19.3,18.5 -19.2,18.7 -18.6,18.3 -19.9,16.8 -19.8,16.8 
			-21,15.1 -21.3,15.3 -20.8,16 -20.9,16.1 -22.4,14.3 -22.6,14.5 -21.2,16.3 		"/>
		<polygon class="st0" points="-34.6,28.7 -35,29.3 -32.2,30.8 -31.9,30.3 		"/>
		<polygon class="st0" points="-37.5,34.6 -37.8,35.1 -36,36.1 -35.7,35.6 		"/>
		<polygon class="st0" points="-44.9,55.4 -42.8,55.6 -42.7,55 -44.8,54.7 		"/>
		
			<rect x="-44.6" y="60.8" transform="matrix(6.283155e-03 -1 1 6.283155e-03 -105.8254 17.1446)" class="st0" width="0.6" height="2.1"/>
		<polygon class="st0" points="-43.3,45.7 -40,46.7 -39.8,46.1 -42.2,45.3 -42.2,45.1 -44.2,44.4 -44.3,44.7 -43.1,45.1 -43.2,45.4 
			-45.3,44.9 -45.4,45.2 -43.3,45.7 		"/>
		<polygon class="st0" points="-45.6,56.3 -42.2,56.7 -42.2,56 -43.6,55.9 -43.6,55.9 -44,55.8 -45.5,55.7 -45.6,55.8 -48.5,55.6 
			-48.5,55.9 -45.6,56.1 		"/>
		<polygon class="st0" points="-19.1,102.4 -21.3,103.7 -23.4,106.2 -23.2,106.4 -24.3,108 -24,108.2 -22.9,106.6 -22.8,106.6 		"/>
		<polygon class="st0" points="-40.7,76.9 -40.9,76.4 -43.9,77.5 -43.7,78.1 		"/>
		<polygon class="st0" points="-36.4,92.8 -35.9,92.5 -35.7,92.4 -35.5,92.7 -33.7,91.6 -34,91.2 -33.8,91 -34.2,90.5 -36.8,92.3 
			-36.6,92.6 -38.3,93.6 -38.1,93.9 -36.4,92.8 		"/>
		<polygon class="st0" points="-42,52.1 -41.9,52 -41.9,52 -41.9,51.3 -45.1,51 -46,50.8 -46.1,51.1 -45.1,51.3 -45.2,51.7 		"/>
		<polygon class="st0" points="-43.2,76.2 -41.2,75.7 -41.4,75.1 -43.4,75.6 		"/>
		<polygon class="st0" points="-41.1,82.3 -39.2,81.6 -39.4,81 -40.6,81.4 -40.7,81.3 -44,82.4 -43.9,82.7 -41.3,81.8 		"/>
		<polygon class="st0" points="-24.3,104.4 -23.8,104.8 -22.5,103.3 -23,102.9 		"/>
		<polygon class="st0" points="-29.3,22.8 -26.9,25.1 -26.4,24.6 -28.9,22.4 		"/>
		<polygon class="st0" points="-34.4,34.1 -37.3,32.4 -37.7,32.9 -34.8,34.6 		"/>
		<polygon class="st0" points="8.4,6.2 8.9,9.2 9.5,9.1 9,6.1 		"/>
		<polygon class="st0" points="-8.3,11.8 -8.2,11.8 -9.5,8.6 -9.8,8.8 -9.3,10.1 -9.8,10.3 -8.4,13.1 -7.8,12.8 		"/>
		<polygon class="st0" points="-24.6,18.8 -24.4,18.9 -24.9,19.3 -22.8,21.8 -22.2,21.4 -24,19.3 -22.4,21 -21.9,20.5 -24.1,18.3 
			-24.2,18.4 -24.7,17.8 -24.9,18 -24.4,18.6 		"/>
		<polygon class="st0" points="-34.2,28.1 -34.6,28.7 -31.8,30.3 -31.5,29.8 		"/>
		<polygon class="st0" points="17.7,9.2 17.8,9.2 17.7,9.4 18.4,9.4 18.6,7.3 18.6,7.3 18.8,5.3 18.5,5.3 18.4,6.2 18.4,6.2 
			18.4,6.2 18.2,6.2 18.1,6.2 18.1,6.2 17.7,6.2 17.7,7 17.6,7 17.4,9 17.7,9 		"/>
		<polygon class="st0" points="-13.1,14.9 -12.5,14.7 -13.4,12.9 -14,13.2 		"/>
		<polygon class="st0" points="-26.9,21.8 -25.5,23.2 -25,22.8 -26.4,21.3 -26.5,21.4 -27.6,20.2 -27.8,20.5 -26.7,21.6 		"/>
		<polygon class="st0" points="-31.9,26.7 -30.3,28 -29.8,27.5 -31,26.5 -30.9,26.4 -32.5,25 -32.8,25.3 -31.5,26.3 		"/>
		<polygon class="st0" points="-35.9,31.8 -34.1,32.9 -33.8,32.4 -35.5,31.3 		"/>
		<polygon class="st0" points="-46.2,69.3 -41.5,68.5 -41.6,67.9 -42.9,68.1 -42.9,67.7 -44.1,67.8 -42.6,67.5 -42.8,66.9 
			-45.9,67.5 -45.8,68.1 -45,67.9 -45,68.4 -46.3,68.6 		"/>
		<polygon class="st0" points="-31.2,96.7 -29.9,95.7 -30,95.6 -29.5,95.2 -30,94.7 -31.7,96.2 -33,97.2 -33,97.3 -33.5,97.8 
			-33.1,98.3 		"/>
		<polygon class="st0" points="-18.7,104.8 -21.2,108.6 -20.6,109 -18.1,105.1 		"/>
		<polygon class="st0" points="10.4,114.1 10.5,118.7 11.1,118.6 11,114.1 		"/>
		<polygon class="st0" points="65.9,87.3 65.8,87.3 66,86.8 63,85.4 62.7,85.9 63.6,86.4 61.6,85.5 61.3,86.1 64.5,87.4 64.4,87.6 
			67.5,88.8 67.7,88.5 65.8,87.8 		"/>
		<polygon class="st0" points="71.7,56.9 71.8,56.9 71.8,56.9 71.8,56.9 71.7,56.6 71.7,56.3 71.7,56.3 71.7,56.3 71.6,56.3 
			68.3,56.6 68.3,56.8 67,57 67.1,57.6 		"/>
		<polygon class="st0" points="67.5,40.8 63.1,42.8 63.4,43.4 67.7,41.4 		"/>
		<polygon class="st0" points="-13.2,19.6 -14.3,17.6 -17,13.9 -17.3,14.1 -18.5,12.6 -18.7,12.7 -16.9,15.2 		"/>
		<polygon class="st0" points="-30.7,24.2 -30.5,24.3 -30.6,24.4 -28.1,26.6 -27.9,26.4 -27,27.1 -25.1,27.8 -30.2,23.7 -30.2,23.8 
			-30.9,23.2 -31.1,23.4 -30.5,24 		"/>
		<path class="st0" d="M20.5,55.5l0.5-0.7h0.2l0.8,0.8v0.3H19v0.2v1.4c0,0.7-0.3,1.1-1.5,1.1c0-0.3-0.2-0.5-1.1-0.8l0.1-0.3
			c0.5,0.1,0.9,0.1,1.4,0.1c0.3,0,0.4-0.1,0.4-0.4v-1.4h-6L11.4,56l-0.1-0.5l1,0.1h6v-0.1c0-0.3,0-0.6-0.1-0.8l0.1-0.1
			c1.2,0.2,1.2,0.2,1.2,0.4s-0.2,0.2-0.4,0.2v0.4L20.5,55.5z M17.7,50.5h1.9l0.4-0.4h0.2c0.6,0.5,0.7,0.6,0.7,0.7s-0.1,0.2-0.4,0.4
			v1.3v2.2l-0.1,0.1h-0.7v-0.4h-6.2v0.4l-0.1,0.1h-0.6l0.1-2.4v-1.3c0-0.4,0-0.8-0.2-1.2l0.1,0c0.4,0.2,0.7,0.3,1,0.5h1.5
			c0-0.1,0-0.2,0-0.3v-0.7h-2.7l-0.8,0.1L11.6,49l1,0.1H15c-0.1-0.1-0.2-0.2-0.2-0.3c-0.2-0.4-0.5-0.7-0.8-0.9l0.2-0.2
			c1,0.3,1.5,0.7,1.5,1.1c0,0.1-0.1,0.3-0.2,0.3h2c0.1-0.3,0.3-0.5,0.4-0.8c0.1-0.2,0.1-0.4,0.1-0.6H18c0.9,0.3,1.1,0.5,1.1,0.6
			s-0.2,0.2-0.6,0.2c-0.2,0.2-0.5,0.5-0.7,0.7h2.4l0.6-0.7H21l0.8,0.8v0.3h-4L17.7,50.5z M19.7,50.9h-2v0.8c0,0.2,0.1,0.3,0.4,0.3
			s0.4,0,0.5-0.2c0.1-0.2,0.2-0.4,0.2-0.7h0.3v0.5c0,0.1,0,0.1,0.2,0.2c0.1,0,0.2,0.1,0.2,0.2c0,0.1-0.1,0.2-0.3,0.3
			c-0.4,0.1-0.7,0.1-1.1,0.1c-0.9,0-1-0.2-1-0.7v-0.9h-1.2c-0.2,0.9-0.7,1.5-2,1.9l-0.1-0.3c0.8-0.2,1.3-0.9,1.5-1.7h-1.7V53h6.2
			L19.7,50.9z M19.7,53.4h-6.2V54h6.2L19.7,53.4z M14,56c1.1,0.3,1.8,0.8,1.8,1.3c0,0.2-0.2,0.4-0.4,0.4c0,0,0,0,0,0
			c-0.2,0-0.3-0.1-0.5-0.4c-0.3-0.4-0.6-0.8-1.1-1.1L14,56z M15.9,49.5v0.8c0,0.1,0,0.1,0,0.2h1.2v-1L15.9,49.5z"/>
		<path class="st0" d="M11.8,61c0.3,0.1,0.6,0.3,0.9,0.5c0.3,0.2,0.5,0.5,0.5,0.9c0,0.1,0,0.3,0,0.4c-0.1,0.5-0.1,1-0.1,1.5
			c0,0.7,0,1.3,0.2,2c0.1,0.4,0.3,0.8,0.6,1.1c0.1,0.1,0.2,0.2,0.3,0.2s0.1,0,0.2-0.2l0.6-1c0.3-0.5,0.7-1,1.1-1.5l0.2,0.2
			c-0.3,0.5-0.7,1-0.9,1.5c-0.2,0.3-0.3,0.7-0.4,1c0,0.1-0.1,0.3-0.1,0.4c0,0.1,0,0.2,0.1,0.3c0,0.1,0,0.2,0,0.3
			c0,0.1-0.1,0.3-0.2,0.3c0,0,0,0-0.1,0c-0.6-0.1-1.1-0.5-1.4-1c-0.3-0.4-0.6-0.9-0.7-1.4c-0.1-0.6-0.2-1.1-0.2-1.7c0-0.9,0-1.8,0-2
			c0.1-0.6-0.2-1.3-0.7-1.7L11.8,61z M18.5,63c1.4,0.1,2.6,1,3,2.3c0.1,0.2,0.1,0.5,0.1,0.7c0,0.4-0.2,0.6-0.5,0.6s-0.4-0.2-0.5-0.8
			c-0.1-1.3-1-2.3-2.2-2.7L18.5,63z"/>
	</g>
</g>
</svg>
