<svg xmlns="http://www.w3.org/2000/svg" viewBox="0 0 196.39 287.22"><defs><style>.cls-1{fill:#fff;stroke:#fff;stroke-linecap:round;stroke-linejoin:round;stroke-width:0.89px;}.cls-2{fill:#bfbfbf;}</style></defs><g id="Layer_2" data-name="Layer 2"><g id="back"><path class="cls-1" d="M25.33,68.53,39.49,47.8a64,64,0,0,0,4.89,4.89c1.34.93,10.31,10.89,11.65,11.65s2.09-3.26,2.09-4.2a7.92,7.92,0,0,1,.76-2.5,11.73,11.73,0,0,0-3.43-2.5c-2.22-1.23-9.21-9.21-12.58-12.29,6.69-9.73,12.81-18.7,13.33-19.34a36.77,36.77,0,0,1,3-3.26c.93-.93,2.27-1.34,2.1-2.1a43.71,43.71,0,0,1,.58-8C62.32,8,63.6,7.84,61.5,8s-17.35,3.61-23.64,4.77-27.49,7.63-32,8S.29,21.59.46,22.17s4,12.41,4,12.41,1.52,3.26,3,2.85S36.69,27,39.55,26s4-1.51,4-.17S18,67.25,17.24,68.18s3,.93,4.6.58S24.69,69,25.33,68.53Z"/><path class="cls-1" d="M70,25.43C70.88,23.92,81,.45,81,.45L74.55.62,72.86.45s-.58,1.34-.93,2.5-5.36,19.63-5.71,21.72l-.93,1.69a27.69,27.69,0,0,0,3.26.41C69.54,26.77,69,27,70,25.43Z"/><path class="cls-1" d="M82.94,7.9c-1.34.58-5.71,15.44-5.89,16.77,0,0-.4,1.93.76,1.69s1.69-.17,2.68-.4,6.87-13.75,6.87-13.75l1.69-4.6h-2.5C86.55,7.73,84.28,7.32,82.94,7.9Z"/><path class="cls-1" d="M83.63,127.71c1.17.58,4.2.75,4.61,0,.23-.47,1.22-17.42,2-32.15,4-2.57,7.28-4.72,8.1-5.07,2.1-.93,2.68,0,2.85-.93s1.34-2.86,1.34-3.61a1.62,1.62,0,0,0-1.51-1.69c-1.17-.18-.58-.94-2.27-.18-.53.23-3.79,1.81-8.1,3.85.24-4.31.41-8,.53-10.49,8.73-4.83,16-8.85,16.3-9.2.76-.76.41-2.5.76-3.26s.18-2.27-.76-1.92c-4.77,1.39-10.13,3.2-15.6,5.18.75-5.77,1.86-13.16,1.86-13.16H91.5l-7,1.51c.41,2.45-.35,10-.7,14.68-15.61,5.94-29.88,12.23-30.4,13-.76,1.16,1.16,1.51,1.51,3.26s.59,5.36,2.1,7.8c0,0,.76.59,3-.75,1.1-.64,12.52-6.88,23.82-13.11,0,3,0,6.58-.12,9.9-7.92,4-16.31,8.45-17.82,10.08-1.92,2.1-.17,3,1.34,3.43s1.17,1.69,2.51,2.1,1.33,1.34,4.19-.58c1.16-.76,5.07-3.38,9.43-6.23a1.15,1.15,0,0,1-.11.52C82.7,102.89,82.47,127.12,83.63,127.71Z"/><path class="cls-1" d="M130.81,126.77c.64,0,1.11-5.59,1.11-5.59l-6.41.93s2.33-9,1.11-9.2-11.07,1.23-14.5,1.87c-4.08.75-2.51,2.5-2.33,3.08s.46,2.33,1.1,2.33,8.39-1.57,8.39-1.57-.47,5-1.11,5.59-8.85,2.33-9.84,2.51.64,3.08,1.22,4.19S130.17,126.77,130.81,126.77Z"/><path class="cls-1" d="M141,219.5c-.29-.7-17.06-56.15-18.75-72.28-.93-.88-6.7,2.15-6.7,2.15,3,14.33,17.3,64.24,20.74,71.12C139.78,220.6,141.29,220.25,141,219.5Z"/><path class="cls-1" d="M117.36,248.79c.4.58,4.19.58,4.19.58s11.24,2.28,15.09,2.51.17-1.52-.41-2.51.93-2.85.93-3.78-12-4.78-12-4.78a28.69,28.69,0,0,1-2.85-.93c-.76-.41-1.69-1.51-2.68-1.34,0,0-2.1-.41-2.1.41s-.58,5.88-.76,8.21S117,248.27,117.36,248.79Z"/><path class="cls-1" d="M175.13,239.47s-.93-2.27-2.27-2.27-2.27-4.37-3.43-3.26-33.78,40.83-39.67,45.78c0,0-3.43,2.27.41,3.43s3.26,1.93,4.6,2.68,1.52,1.34,2.86.59,12.23-12.24,12.23-12.24a12.27,12.27,0,0,0,1.16-.93c.58-.58.58-1.51.93-2.5s22.89-29.94,22.89-29.94Z"/><path class="cls-2" d="M46.56,68.55s6.87-10.08,14.15-20.74a64.37,64.37,0,0,0,4.9,4.89c1.34.93,10.31,10.89,11.65,11.65s2.09-3.26,2.09-4.19a8,8,0,0,1,.76-2.51,11.73,11.73,0,0,0-3.43-2.5c-2.22-1.23-9.21-9.21-12.59-12.29,6.7-9.73,12.82-18.7,13.34-19.35a36.77,36.77,0,0,1,3-3.26c.93-.93,2.27-1.34,2.1-2.09a43.65,43.65,0,0,1,.58-8c.41-2.1,1.69-2.28-.41-2.1S65.37,11.63,59.08,12.8s-27.49,7.63-32,8-5.53.75-5.36,1.33,4,12.41,4,12.41,1.52,3.27,3,2.86S57.92,27,60.77,26s4-1.51,4-.17S39.22,67.26,38.46,68.2s3,.93,4.6.58S45.92,69,46.56,68.55Z"/><path class="cls-2" d="M91.18,25.44c.93-1.52,11.07-25,11.07-25L95.78.62,94.09.45s-.58,1.34-.93,2.5S87.8,22.58,87.45,24.68l-.93,1.69a27.69,27.69,0,0,0,3.26.41C90.77,26.78,90.25,27,91.18,25.44Z"/><path class="cls-2" d="M104.17,7.9c-1.34.59-5.71,15.44-5.88,16.78,0,0-.41,1.92.75,1.69s1.69-.18,2.68-.41,6.88-13.75,6.88-13.75l1.69-4.6h-2.51C107.78,7.73,105.51,7.32,104.17,7.9Z"/><path class="cls-2" d="M104.87,127.73c1.17.59,4.19.76,4.6,0,.24-.46,1.23-17.42,2-32.15,4-2.57,7.28-4.72,8.1-5.07,2.1-.93,2.68,0,2.85-.93s1.34-2.86,1.34-3.62a1.63,1.63,0,0,0-1.51-1.69c-1.17-.17-.58-.93-2.27-.17-.53.23-3.79,1.81-8.1,3.84.23-4.31.41-8,.52-10.48,8.74-4.84,16-8.86,16.31-9.21.76-.75.41-2.5.76-3.26s.18-2.27-.76-1.92c-4.77,1.4-10.13,3.2-15.61,5.18.76-5.76,1.87-13.16,1.87-13.16h-2.28l-7,1.51c.4,2.45-.35,10-.7,14.68-15.62,6-29.89,12.24-30.41,13-.76,1.17,1.16,1.52,1.51,3.27s.59,5.36,2.1,7.8c0,0,.76.59,3-.75,1.11-.64,12.52-6.88,23.83-13.11,0,3,0,6.58-.12,9.9-7.92,4-16.31,8.45-17.83,10.08-1.92,2.1-.17,3,1.34,3.44S89.61,106.59,91,107s1.34,1.34,4.19-.58c1.17-.76,5.07-3.38,9.44-6.23a1.1,1.1,0,0,1-.12.52C103.94,102.92,103.71,127.15,104.87,127.73Z"/><path class="cls-2" d="M152.06,126.8c.64,0,1.1-5.59,1.1-5.59l-6.4.93s2.33-9,1.1-9.2-11.07,1.22-14.5,1.86c-4.08.76-2.51,2.51-2.33,3.09s.46,2.33,1.1,2.33,8.39-1.57,8.39-1.57-.46,5-1.11,5.59-8.85,2.33-9.84,2.5.64,3.09,1.22,4.2S151.42,126.8,152.06,126.8Z"/><path class="cls-2" d="M162.25,219.54c-.29-.7-17.07-56.16-18.76-72.29-.93-.88-6.7,2.15-6.7,2.15,3,14.33,17.31,64.26,20.74,71.13C161,220.65,162.54,220.3,162.25,219.54Z"/><path class="cls-2" d="M138.6,248.84c.41.59,4.19.59,4.19.59s11.25,2.27,15.09,2.5.18-1.51-.41-2.5.94-2.86.94-3.79-12-4.78-12-4.78a29.52,29.52,0,0,1-2.86-.93c-.76-.41-1.69-1.51-2.68-1.34,0,0-2.1-.41-2.1.41s-.58,5.88-.75,8.21S138.25,248.32,138.6,248.84Z"/><path class="cls-2" d="M196.39,239.52s-.93-2.27-2.27-2.27-2.28-4.37-3.44-3.26S156.89,274.83,151,279.78c0,0-3.44,2.27.41,3.44s3.26,1.92,4.6,2.67,1.51,1.34,2.85.59,12.24-12.24,12.24-12.24a12.27,12.27,0,0,0,1.16-.93c.58-.58.58-1.51.93-2.5s22.9-29.95,22.9-29.95Z"/></g></g></svg>