<svg xmlns="http://www.w3.org/2000/svg" viewBox="0 0 98.89 17.89"><defs><style>.cls-1{fill:#e70434;}</style></defs><g id="Layer_2" data-name="Layer 2"><g id="design"><path class="cls-1" d="M11.23,17.76.47,17.89.41,12.72l9.5-.12c.31,0,.41-.12.41-.39v-.06c0-.29-.15-.39-.42-.39l-4.07.06C1.71,11.87.05,10.19,0,7V6.39C0,2.67,2.08,1.21,5.74,1.16L15.41,1l.07,5.3-8.61.1c-.32,0-.47.17-.46.4v.08c0,.25.11.45.47.44l4.54-.05c3.4,0,5.2,1.77,5.23,4.23V12.6C16.7,15.32,15.21,17.71,11.23,17.76Z"/><path class="cls-1" d="M31,17.53,31,11.42l-3.84.05.07,6.11-6.13.08L20.85,1,27,.9,27.05,6l3.84,0L30.83.85,37,.77l.21,16.69Z"/><path class="cls-1" d="M51.74,17.27l0-2.51-4.05.05,0,2.51-5.83.08L41.74,7.21C41.68,2.14,42.82.39,48.22.32l2.27,0C55.89.23,57.34,2,57.4,7l.13,10.18ZM51.62,7.09c0-1.06-.18-1.37-1.12-1.35l-1.87,0c-.91,0-1.07.32-1.06,1.38l0,2.35,4-.05Z"/><path class="cls-1" d="M72,17l0-3c0-.84-.39-1.2-1.25-1.19l-2.35,0,.06,4.23-6.24.08L62,.46,72.35.33c3.53,0,5.66,1.24,5.71,5.84l0,1A4.47,4.47,0,0,1,77,10.31a3.48,3.48,0,0,1,1.18,3l0,3.58Zm0-10.1c0-.8-.34-1.08-1.24-1.07l-2.46,0,0,2.21,2.46,0c.92,0,1.22-.45,1.21-1Z"/><path class="cls-1" d="M89.22,16.8c-4.87.06-6.31-2.49-6.36-6.26l0-3.16c0-4.24.81-7.19,6.25-7.26L98.68,0l.06,5.27-8.52.11c-.78,0-1.16.28-1.28,1.14L98,6.41l0,3.92-9.1.12c0,.75.18,1.12,1.32,1.11l8.53-.11.07,5.23Z"/><path d="M11.23,17.76.47,17.89.41,12.72l9.5-.12c.31,0,.41-.12.41-.39v-.06c0-.29-.15-.39-.42-.39l-4.07.06C1.71,11.87.05,10.19,0,7V6.39C0,2.67,2.08,1.21,5.74,1.16L15.41,1l.07,5.3-8.61.1c-.32,0-.47.17-.46.4v.08c0,.25.11.45.47.44l4.54-.05c3.4,0,5.2,1.77,5.23,4.23V12.6C16.7,15.32,15.21,17.71,11.23,17.76Z"/><path d="M31,17.53,31,11.42l-3.84.05.07,6.11-6.13.08L20.85,1,27,.9,27.05,6l3.84,0L30.83.85,37,.77l.21,16.69Z"/><path d="M51.74,17.27l0-2.51-4.05.05,0,2.51-5.83.08L41.74,7.21C41.68,2.14,42.82.39,48.22.32l2.27,0C55.89.23,57.34,2,57.4,7l.13,10.18ZM51.62,7.09c0-1.06-.18-1.37-1.12-1.35l-1.87,0c-.91,0-1.07.32-1.06,1.38l0,2.35,4-.05Z"/><path d="M72,17l0-3c0-.84-.39-1.2-1.25-1.19l-2.35,0,.06,4.23-6.24.08L62,.46,72.35.33c3.53,0,5.66,1.24,5.71,5.84l0,1A4.47,4.47,0,0,1,77,10.31a3.48,3.48,0,0,1,1.18,3l0,3.58Zm0-10.1c0-.8-.34-1.08-1.24-1.07l-2.46,0,0,2.21,2.46,0c.92,0,1.22-.45,1.21-1Z"/><path d="M89.22,16.8c-4.87.06-6.31-2.49-6.36-6.26l0-3.16c0-4.24.81-7.19,6.25-7.26L98.68,0l.06,5.27-8.52.11c-.78,0-1.16.28-1.28,1.14L98,6.41l0,3.92-9.1.12c0,.75.18,1.12,1.32,1.11l8.53-.11.07,5.23Z"/></g></g></svg>