<svg xmlns="http://www.w3.org/2000/svg" viewBox="0 0 180.55 141.63"><defs><style>.cls-1{fill:#fff;}</style></defs><g id="Layer_2" data-name="Layer 2"><g id="レイヤー_4" data-name="レイヤー 4"><polygon class="cls-1" points="0.01 34.45 31.44 34.67 49.44 8.87 58.95 38.86 89.03 48.01 63.47 66.33 64.06 97.79 38.75 79.13 9.04 89.41 18.96 59.55 0.01 34.45"/><path d="M36.74,84.31l1.09-.37c.25-.08.16,0,.18,0h0v0h0s0,0,0,0l.58.43L40.86,86c1.45,1.06,2.81,2,4.07,3,2.55,1.83,4.77,3.39,6.77,4.77l2.85,1.95L59.28,99l8.41,5.8c-.29-5.72-.58-11.48-1-19-.11-2.34-.22-4.94-.3-8,0-1.5-.06-3.1-.1-4.82,0-1.53,0-3.15,0-4.9v-.44L79,58.88l17.14-12L82.38,42.55l-7.8-2.48L67.3,37.74l-3.64-1.16-1.56-.5L61.81,36l-.05-.19,0-.09v0l0-.13c-.23-.76-.46-1.54-.7-2.32q-.7-2.34-1.45-4.79-1.47-4.89-3.07-10.16c-2-6.36-3.89-12.47-5.68-18.23L41,14l-4.67,6.8L32.21,27l-1.9,2.9-.46.7-.09.15,0,0,0,.06-.12.28-.23.05c-.12,0,0,0-.6.05l-2.59.11-4.81.25q-4.59.29-8.28.67a64.92,64.92,0,0,0-11.41,2c-3.26,1-1.64,1.79,3.7,2.43,2.67.32,6.28.6,10.66.84l7.16.34,4,.15,2.17.08,3.89.07c3-4.14,6.23-8.65,9.69-13.45,1.51-2.11,3-4.28,4.64-6.52.19-.23.37-.46.56-.71.06.19.11.39.17.58.29.94.59,1.89.89,2.85C50.71,25.61,52,29.71,53.07,33c1.36,4.11,2.37,7.16,2.93,8.87l6.16,1.8,3.94,1.11,7.27,2,3.52,1,1.78.48.89.24.22.06h.06l.13,0c.69.12,1.55.29,2.67.53a26.46,26.46,0,0,1-1.94,1.8l-.19.16-.44.34-1,.77-2.13,1.64-4.73,3.6L66,62l-2.44,1.79-2.12,1.51c0,2,0,3.93.06,5.76,0,1.5,0,2.94,0,4.32,0,2.77-.07,5.33-.14,7.81,0,1.23-.07,2.45-.11,3.65l-.06,1.8v.45l0,.18-.05.31a13.41,13.41,0,0,1-.35,1.82L59.7,90.3l-.4-.44-.08-.1s0,0-.07-.06l-.29-.23-1.17-.93c-3.21-2.52-6.93-5.36-11.36-8.63l-6.92-5.12L22.73,80.43,15.9,82.7a.38.38,0,0,1-.22,0,.8.8,0,0,1,.14-.19q1.24-3.67,2.45-7.25l2.44-7.36q1.51-4.69,2.95-9.1l-3.19-4.14-1.8-2.28-3.45-4.25C13,45.42,11,43,9.1,41,5.4,37,2.51,34.44.78,34c-.92-.23.44,2.57,3.38,7.4,1.47,2.42,3.34,5.35,5.51,8.66l3.47,5.24L15,58.12l.49.71.23.35.1.17.38.65-.33.72-.08.17-.16.43-.33.86L14,65.68Q12.63,69.25,11.23,73c-1,2.6-2,5.25-2.94,7.92l-5,14.39Z"/><path d="M180.46,141.53c-.5.46-2.41-.66-5.34-2.94-.74-.57-1.54-1.21-2.39-1.92l-1.34-1.11-1.5-1.12c-2.08-1.54-4.34-3.36-6.86-5.29a224.51,224.51,0,0,0-40.62-23.78c-16-7.1-25.75-9.94-31.15-12.05s-6.63-3.1-6.38-4.45c.4-2.27.75-4,5.28-3.81s13.26,2.24,29.29,9.72A256.91,256.91,0,0,1,143.55,108c3.76,2.49,7.49,4.8,10.83,7.38,1.68,1.25,3.36,2.44,4.93,3.66s3,2.52,4.45,3.71a98.14,98.14,0,0,1,7.53,6.91l3,3,2.37,2.81C179.53,138.91,181,141.07,180.46,141.53Z"/><path d="M180.08,126.67c-.5.45-2.36-.64-5.22-2.86s-6.89-5.41-11.77-9.18a205.23,205.23,0,0,0-39.78-22.7c-7.78-3.42-14.16-5.56-19.16-7.33L92.76,80.77c-5.35-1.87-6.52-2.91-6.3-4.26.35-2.28.66-4,5.09-4s13,1.86,28.77,8.9A241.29,241.29,0,0,1,144.05,94c3.67,2.41,7.36,4.6,10.63,7.1l4.84,3.54,4.35,3.62C175,117.65,181,125.91,180.08,126.67Z"/><path d="M165.66,95.75c-.44.5-2,0-4.38-1.42-1.2-.68-2.59-1.56-4.16-2.61s-3.42-2.12-5.36-3.4c-7.83-5-18.41-11.52-30-16.31a136.9,136.9,0,0,0-14.18-5.17c-3.7-1.18-6.44-1.89-8.41-2.52-3.94-1.21-4.8-2-4.75-3.42,0-2.3.17-4.09,3.63-4.56a23.49,23.49,0,0,1,7.89.78,71.54,71.54,0,0,1,14.31,5.09A163.29,163.29,0,0,1,153,82.3c2.08,1.76,4,3.39,5.66,4.87a53.87,53.87,0,0,1,4.14,4.09C165,93.66,166.1,95.24,165.66,95.75Z"/></g></g></svg>