<svg xmlns="http://www.w3.org/2000/svg" viewBox="0 0 441.26 250.31"><defs><style>.cls-1{fill:none;stroke:#231815;stroke-width:6px;}.cls-2{fill:#edebeb;}</style></defs><g id="Layer_2" data-name="Layer 2"><g id="back"><path d="M161.1,96.92q4.71,20.77,9.73,40.5,8-4.47,16.3-8.58-5.43-16.08-10.78-33Q168.69,96.29,161.1,96.92Z"/><path d="M185.93,90.44q4.09,20.16,8.52,39.31,8.36-4,17-7.62-5-15.66-9.88-32.15Q193.7,90.13,185.93,90.44Z"/><path d="M150,75.47c-4.63,1.29-9.22,2.63-13.76,4A984.71,984.71,0,0,0,143,244.29q7.56-6.69,15.59-13-3.35-25.87-5.44-52.53,10.05,9.28,19.85,18,5.28-9.1,11.07-17.86-16-10.46-32.41-21.94Q149.32,117.07,150,75.47Z"/><path d="M235.33,175.22q59.79,13,119.49,25.81,3.17-5.82,6.48-11.54-59.39-16.81-119.63-35.23Q238.31,164.67,235.33,175.22Z"/><path d="M424.45,188.91Q413.83,183,403,176.65q-4.45,5.81-8.76,11.78,11.24,5,22.31,9.76Q420.44,193.48,424.45,188.91Z"/><path d="M431.27,210.1a402.4,402.4,0,0,0-49,10.72q-1.49,9.62-2.95,19.07a329.83,329.83,0,0,1,57.23-21.57Z"/><path d="M34.24,12Q19.44,7.89,4.69,3.87A958.25,958.25,0,0,0,19.77,240.06l20.64,1.81A883,883,0,0,1,30.83,149q10.64,11.78,21.09,22.91,3.26-21.21,8-42-15-9-30.22-18.54A922.24,922.24,0,0,1,34.24,12Z"/><path d="M54.62,26.51q-1.15,16.41-1.76,32.72Q58,62.94,63.19,66.58q4.16-22,9.66-43.76Q63.66,24.53,54.62,26.51Z"/><path d="M72.63,69.54c0,.11,8.81,24.47,9.27,18.63,0-5.9,12.3-47.31,12.69-47.16q-5.64-5-11.31-10.19Q77.38,50,72.63,69.54Z"/><path class="cls-1" d="M161.1,96.92q4.71,20.77,9.73,40.5,8-4.47,16.3-8.58-5.43-16.08-10.78-33Q168.69,96.29,161.1,96.92Z"/><path class="cls-1" d="M185.93,90.44q4.09,20.16,8.52,39.31,8.36-4,17-7.62-5-15.66-9.88-32.15Q193.7,90.13,185.93,90.44Z"/><path class="cls-1" d="M150,75.47c-4.63,1.29-9.22,2.63-13.76,4A984.71,984.71,0,0,0,143,244.29q7.56-6.69,15.59-13-3.35-25.87-5.44-52.53,10.05,9.28,19.85,18,5.28-9.1,11.07-17.86-16-10.46-32.41-21.94Q149.32,117.07,150,75.47Z"/><path class="cls-1" d="M235.33,175.22q59.79,13,119.49,25.81,3.17-5.82,6.48-11.54-59.39-16.81-119.63-35.23Q238.31,164.67,235.33,175.22Z"/><path class="cls-1" d="M424.45,188.91Q413.83,183,403,176.65q-4.45,5.81-8.76,11.78,11.24,5,22.31,9.76Q420.44,193.48,424.45,188.91Z"/><path class="cls-1" d="M431.27,210.1a402.4,402.4,0,0,0-49,10.72q-1.49,9.62-2.95,19.07a329.83,329.83,0,0,1,57.23-21.57Z"/><path class="cls-1" d="M34.24,12Q19.44,7.89,4.69,3.87A958.25,958.25,0,0,0,19.77,240.06l20.64,1.81A883,883,0,0,1,30.83,149q10.64,11.78,21.09,22.91,3.26-21.21,8-42-15-9-30.22-18.54A922.24,922.24,0,0,1,34.24,12Z"/><path class="cls-1" d="M54.62,26.51q-1.15,16.41-1.76,32.72Q58,62.94,63.19,66.58q4.16-22,9.66-43.76Q63.66,24.53,54.62,26.51Z"/><path class="cls-1" d="M72.63,69.54c0,.11,8.81,24.47,9.27,18.63,0-5.9,12.3-47.31,12.69-47.16q-5.64-5-11.31-10.19Q77.38,50,72.63,69.54Z"/><path class="cls-2" d="M161.1,96.92q4.71,20.77,9.73,40.5,8-4.47,16.3-8.58-5.43-16.08-10.78-33Q168.69,96.29,161.1,96.92Z"/><path class="cls-2" d="M185.93,90.44q4.09,20.16,8.52,39.31,8.36-4,17-7.62-5-15.66-9.88-32.15Q193.7,90.13,185.93,90.44Z"/><path class="cls-2" d="M150,75.47c-4.63,1.29-9.22,2.63-13.76,4A984.71,984.71,0,0,0,143,244.29q7.56-6.69,15.59-13-3.35-25.87-5.44-52.53,10.05,9.28,19.85,18,5.28-9.1,11.07-17.86-16-10.46-32.41-21.94Q149.32,117.07,150,75.47Z"/><path class="cls-2" d="M235.33,175.22q59.79,13,119.49,25.81,3.17-5.82,6.48-11.54-59.39-16.81-119.63-35.23Q238.31,164.67,235.33,175.22Z"/><path class="cls-2" d="M424.45,188.91Q413.83,183,403,176.65q-4.45,5.81-8.76,11.78,11.24,5,22.31,9.76Q420.44,193.48,424.45,188.91Z"/><path class="cls-2" d="M431.27,210.1a402.4,402.4,0,0,0-49,10.72q-1.49,9.62-2.95,19.07a329.83,329.83,0,0,1,57.23-21.57Z"/><path class="cls-2" d="M34.24,12Q19.44,7.89,4.69,3.87A958.25,958.25,0,0,0,19.77,240.06l20.64,1.81A883,883,0,0,1,30.83,149q10.64,11.78,21.09,22.91,3.26-21.21,8-42-15-9-30.22-18.54A922.24,922.24,0,0,1,34.24,12Z"/><path class="cls-2" d="M54.62,26.51q-1.15,16.41-1.76,32.72Q58,62.94,63.19,66.58q4.16-22,9.66-43.76Q63.66,24.53,54.62,26.51Z"/><path class="cls-2" d="M72.63,69.54c0,.11,8.81,24.47,9.27,18.63,0-5.9,12.3-47.31,12.69-47.16q-5.64-5-11.31-10.19Q77.38,50,72.63,69.54Z"/></g></g></svg>