<svg xmlns="http://www.w3.org/2000/svg" viewBox="0 0 373.13 189.2"><defs><style>.cls-1{fill:none;stroke:#231815;stroke-width:6px;}.cls-2{fill:#edebeb;}</style></defs><g id="Layer_2" data-name="Layer 2"><g id="back"><path d="M137.46,56.18q6.31,15.63,12.76,30.41,5.68-4.52,11.64-8.78-6.29-11.88-12.63-24.44Q143.31,54.72,137.46,56.18Z"/><path d="M156,48q5.78,15.24,11.67,29.63,6-4.18,12.31-8.12Q174.13,57.86,168.2,45.6,162.07,46.73,156,48Z"/><path d="M126.05,40.83q-5.19,2.39-10.25,4.91a779.82,779.82,0,0,0,26.27,127.92q5.06-6.19,10.52-12.13-5.9-19.8-10.93-40.37,9,6,17.8,11.55,3-7.8,6.38-15.37-13.82-6.15-28.12-13Q130.82,73.42,126.05,40.83Z"/><path d="M205.44,107.92q48.38,2.52,96.67,5,1.74-5,3.59-9.85-48.54-5.58-98-12.3Q206.42,99.29,205.44,107.92Z"/><path d="M355,94.54q-9-3.27-18.31-6.85-2.75,5.1-5.35,10.31,9.42,2.5,18.68,4.79Q352.45,98.62,355,94.54Z"/><path d="M363,110.23a318,318,0,0,0-36.94,14.62q.06,7.69.12,15.28a261.34,261.34,0,0,1,42-24.15Z"/><path d="M27.5,6Q15.41,4.64,3.37,3.37A758.39,758.39,0,0,0,45.23,186l16.36-1.21a700.11,700.11,0,0,1-19.32-71.39q9.81,7.84,19.4,15.22-.16-17,.92-33.81-12.86-5.11-26-10.64A728.92,728.92,0,0,1,27.5,6Z"/><path d="M45.27,14.71q1.18,13,2.79,25.79,4.52,2.25,9,4.43.45-17.74,2-35.43Q52.09,12,45.27,14.71Z"/><path d="M64.83,46c0,.09,10,18,9.61,13.38C73.69,54.82,78,20.88,78.36,21q-5.06-3.21-10.14-6.52Q66,30.15,64.83,46Z"/><path class="cls-1" d="M137.46,56.18q6.31,15.63,12.76,30.41,5.68-4.52,11.64-8.78-6.29-11.88-12.63-24.44Q143.31,54.72,137.46,56.18Z"/><path class="cls-1" d="M156,48q5.78,15.24,11.67,29.63,6-4.18,12.31-8.12Q174.13,57.86,168.2,45.6,162.07,46.73,156,48Z"/><path class="cls-1" d="M126.05,40.83q-5.19,2.39-10.25,4.91a779.82,779.82,0,0,0,26.27,127.92q5.06-6.19,10.52-12.13-5.9-19.8-10.93-40.37,9,6,17.8,11.55,3-7.8,6.38-15.37-13.82-6.15-28.12-13Q130.82,73.42,126.05,40.83Z"/><path class="cls-1" d="M205.44,107.92q48.38,2.52,96.67,5,1.74-5,3.59-9.85-48.54-5.58-98-12.3Q206.42,99.29,205.44,107.92Z"/><path class="cls-1" d="M355,94.54q-9-3.27-18.31-6.85-2.75,5.1-5.35,10.31,9.42,2.5,18.68,4.79Q352.45,98.62,355,94.54Z"/><path class="cls-1" d="M363,110.23a318,318,0,0,0-36.94,14.62q.06,7.69.12,15.28a261.34,261.34,0,0,1,42-24.15Z"/><path class="cls-1" d="M27.5,6Q15.41,4.64,3.37,3.37A758.39,758.39,0,0,0,45.23,186l16.36-1.21a700.11,700.11,0,0,1-19.32-71.39q9.81,7.84,19.4,15.22-.16-17,.92-33.81-12.86-5.11-26-10.64A728.92,728.92,0,0,1,27.5,6Z"/><path class="cls-1" d="M45.27,14.71q1.18,13,2.79,25.79,4.52,2.25,9,4.43.45-17.74,2-35.43Q52.09,12,45.27,14.71Z"/><path class="cls-1" d="M64.83,46c0,.09,10,18,9.61,13.38C73.69,54.82,78,20.88,78.36,21q-5.06-3.21-10.14-6.52Q66,30.15,64.83,46Z"/><path class="cls-2" d="M137.46,56.18q6.31,15.63,12.76,30.41,5.68-4.52,11.64-8.78-6.29-11.88-12.63-24.44Q143.31,54.72,137.46,56.18Z"/><path class="cls-2" d="M156,48q5.78,15.24,11.67,29.63,6-4.18,12.31-8.12Q174.13,57.86,168.2,45.6,162.07,46.73,156,48Z"/><path class="cls-2" d="M126.05,40.83q-5.19,2.39-10.25,4.91a779.82,779.82,0,0,0,26.27,127.92q5.06-6.19,10.52-12.13-5.9-19.8-10.93-40.37,9,6,17.8,11.55,3-7.8,6.38-15.37-13.82-6.15-28.12-13Q130.82,73.42,126.05,40.83Z"/><path class="cls-2" d="M205.44,107.92q48.38,2.52,96.67,5,1.74-5,3.59-9.85-48.54-5.58-98-12.3Q206.42,99.29,205.44,107.92Z"/><path class="cls-2" d="M355,94.54q-9-3.27-18.31-6.85-2.75,5.1-5.35,10.31,9.42,2.5,18.68,4.79Q352.45,98.62,355,94.54Z"/><path class="cls-2" d="M363,110.23a318,318,0,0,0-36.94,14.62q.06,7.69.12,15.28a261.34,261.34,0,0,1,42-24.15Z"/><path class="cls-2" d="M27.5,6Q15.41,4.64,3.37,3.37A758.39,758.39,0,0,0,45.23,186l16.36-1.21a700.11,700.11,0,0,1-19.32-71.39q9.81,7.84,19.4,15.22-.16-17,.92-33.81-12.86-5.11-26-10.64A728.92,728.92,0,0,1,27.5,6Z"/><path class="cls-2" d="M45.27,14.71q1.18,13,2.79,25.79,4.52,2.25,9,4.43.45-17.74,2-35.43Q52.09,12,45.27,14.71Z"/><path class="cls-2" d="M64.83,46c0,.09,10,18,9.61,13.38C73.69,54.82,78,20.88,78.36,21q-5.06-3.21-10.14-6.52Q66,30.15,64.83,46Z"/></g></g></svg>