<?xml version="1.0" encoding="utf-8"?>
<!-- Generator: Adobe Illustrator 25.0.1, SVG Export Plug-In . SVG Version: 6.00 Build 0)  -->
<svg version="1.1" id="Layer_1" xmlns="http://www.w3.org/2000/svg" xmlns:xlink="http://www.w3.org/1999/xlink" x="0px" y="0px"
	 viewBox="0 0 40 40" style="enable-background:new 0 0 40 40;" xml:space="preserve">
<style type="text/css">
	.st0{fill:#2DBAEC;}
	.st1{fill:#FFFFFF;}
</style>
<g>
	<g id="Layer_2_1_">
		<g id="nav">
			
				<image style="overflow:visible;opacity:0.4;enable-background:new    ;" width="52" height="53" xlink:href="7C11837A.png"  transform="matrix(1 0 0 1 -4 -5.34)">
			</image>
			<path class="st0" d="M5.8,0.5h28.3c2.9,0,5.3,2.4,5.3,5.3v28.3c0,2.9-2.4,5.3-5.3,5.3H5.8c-2.9,0-5.3-2.4-5.3-5.3V5.8
				C0.5,2.9,2.9,0.5,5.8,0.5z"/>
			<path d="M34.2,1C36.8,1,39,3.2,39,5.8v28.3c0,2.7-2.2,4.8-4.8,4.8H5.8C3.2,39,1,36.8,1,34.2V5.8C1,3.2,3.2,1,5.8,1H34.2 M34.2,0
				H5.8C2.6,0,0,2.6,0,5.8v28.3C0,37.4,2.6,40,5.8,40h28.3c3.2,0,5.8-2.6,5.8-5.8V5.8C40,2.6,37.4,0,34.2,0L34.2,0z"/>
			<g id="レイヤー_2">
				<g id="レイヤー_1-2">
					<path id="icon_tw" class="st1" d="M14.9,31.5c10.5,0,16.2-8.7,16.2-16.2v-0.7c1.1-0.8,2.1-1.8,2.8-3c-1,0.5-2.1,0.8-3.3,0.9
						c1.2-0.7,2.1-1.8,2.5-3.1c-1.1,0.7-2.3,1.1-3.6,1.4c-2.2-2.3-5.8-2.4-8.1-0.2c-1.5,1.4-2.1,3.5-1.6,5.4
						c-4.6-0.2-8.9-2.4-11.8-6c-1.5,2.6-0.8,5.9,1.7,7.6c-0.9,0-1.8-0.3-2.6-0.7v0.1c0,2.7,1.9,5.1,4.6,5.6
						c-0.9,0.2-1.7,0.3-2.6,0.1c0.7,2.3,2.9,3.9,5.3,4c-2,1.6-4.5,2.4-7.1,2.5c-0.5,0-0.9,0-1.4-0.1C8.7,30.6,11.7,31.5,14.9,31.5"
						/>
				</g>
			</g>
		</g>
	</g>
</g>
</svg>
