<?xml version="1.0" encoding="utf-8"?>
<!-- Generator: Adobe Illustrator 25.0.1, SVG Export Plug-In . SVG Version: 6.00 Build 0)  -->
<svg version="1.1" id="Layer_1" xmlns="http://www.w3.org/2000/svg" xmlns:xlink="http://www.w3.org/1999/xlink" x="0px" y="0px"
	 viewBox="0 0 40 40" style="enable-background:new 0 0 40 40;" xml:space="preserve">
<style type="text/css">
	.st0{fill:#D83752;}
	.st1{fill:#FFFFFF;}
</style>
<g>
	<g id="Layer_2_1_">
		<g id="nav">
			
				<image style="overflow:visible;opacity:0.4;enable-background:new    ;" width="53" height="53" xlink:href="89B93C5C.png"  transform="matrix(1 0 0 1 -4.35 -5.34)">
			</image>
			<path class="st0" d="M5.8,0.5h28.3c2.9,0,5.3,2.4,5.3,5.3v28.3c0,2.9-2.4,5.3-5.3,5.3H5.8c-2.9,0-5.3-2.4-5.3-5.3V5.8
				C0.5,2.9,2.9,0.5,5.8,0.5z"/>
			<path d="M34.2,1C36.8,1,39,3.2,39,5.8v28.3c0,2.7-2.2,4.8-4.8,4.8H5.8C3.2,39,1,36.8,1,34.2V5.8C1,3.2,3.2,1,5.8,1H34.2 M34.2,0
				H5.8C2.6,0,0,2.6,0,5.8v28.3C0,37.4,2.6,40,5.8,40h28.3c3.2,0,5.8-2.6,5.8-5.8c0,0,0,0,0,0V5.8C40,2.6,37.4,0,34.2,0
				C34.2,0,34.2,0,34.2,0z"/>
			<g id="レイヤー_2">
				<g id="レイヤー_1-2">
					<path id="icon_you" class="st1" d="M33.3,13.3c-0.3-1.2-1.3-2.2-2.5-2.5C28.7,10.2,20,10.2,20,10.2s-8.7,0-10.9,0.6
						C7.9,11.1,7,12,6.6,13.3c-0.4,2.2-0.6,4.5-0.6,6.7c0,2.3,0.2,4.5,0.6,6.7c0.3,1.2,1.2,2.2,2.5,2.5c2.2,0.6,10.9,0.6,10.9,0.6
						s8.7,0,10.9-0.6c1.2-0.3,2.2-1.3,2.5-2.5c0.4-2.2,0.6-4.5,0.6-6.7C33.9,17.7,33.7,15.5,33.3,13.3z M17.1,24.1v-8.2l7.3,4.1
						L17.1,24.1z"/>
				</g>
			</g>
		</g>
	</g>
</g>
</svg>
